<svg width="350" height="350" viewBox="0 0 350 350" fill="none" xmlns="http://www.w3.org/2000/svg">
<path d="M24.7217 320.334C25.6996 320.334 26.6555 320.624 27.4686 321.167C28.2817 321.711 28.9155 322.483 29.2897 323.386C29.6639 324.29 29.7618 325.284 29.571 326.243C29.3803 327.202 28.9094 328.083 28.2179 328.774C27.5264 329.466 26.6454 329.937 25.6863 330.128C24.7272 330.318 23.733 330.221 22.8296 329.846C21.9261 329.472 21.1539 328.838 20.6106 328.025C20.0673 327.212 19.7773 326.256 19.7773 325.278C19.7773 323.967 20.2983 322.709 21.2255 321.782C22.1528 320.855 23.4104 320.334 24.7217 320.334ZM19.7773 297.26C19.7773 298.238 20.0673 299.194 20.6106 300.007C21.1539 300.82 21.9261 301.454 22.8296 301.828C23.733 302.203 24.7272 302.3 25.6863 302.11C26.6454 301.919 27.5264 301.448 28.2179 300.757C28.9094 300.065 29.3803 299.184 29.571 298.225C29.7618 297.266 29.6639 296.272 29.2897 295.368C28.9155 294.465 28.2817 293.693 27.4686 293.149C26.6555 292.606 25.6996 292.316 24.7217 292.316C23.4104 292.316 22.1528 292.837 21.2255 293.764C20.2983 294.691 19.7773 295.949 19.7773 297.26ZM29.666 269.242C29.666 268.264 29.3761 267.309 28.8328 266.495C28.2895 265.682 27.5173 265.049 26.6138 264.674C25.7104 264.3 24.7162 264.202 23.7571 264.393C22.798 264.584 21.917 265.055 21.2255 265.746C20.534 266.438 20.0631 267.319 19.8724 268.278C19.6816 269.237 19.7795 270.231 20.1537 271.134C20.5279 272.038 21.1617 272.81 21.9748 273.353C22.7879 273.897 23.7438 274.187 24.7217 274.187C26.033 274.187 27.2906 273.666 28.2179 272.739C29.1451 271.811 29.666 270.554 29.666 269.242ZM75.8133 325.278C75.8133 326.256 76.1033 327.212 76.6466 328.025C77.1899 328.838 77.9621 329.472 78.8655 329.846C79.769 330.221 80.7631 330.318 81.7222 330.128C82.6814 329.937 83.5624 329.466 84.2538 328.774C84.9453 328.083 85.4162 327.202 85.607 326.243C85.7978 325.284 85.6999 324.29 85.3256 323.386C84.9514 322.483 84.3177 321.711 83.5046 321.167C82.6915 320.624 81.7356 320.334 80.7577 320.334C79.4463 320.334 78.1887 320.855 77.2615 321.782C76.3342 322.709 75.8133 323.967 75.8133 325.278ZM75.8133 297.26C75.8133 298.238 76.1033 299.194 76.6466 300.007C77.1899 300.82 77.9621 301.454 78.8655 301.828C79.769 302.203 80.7631 302.3 81.7222 302.11C82.6814 301.919 83.5624 301.448 84.2538 300.757C84.9453 300.065 85.4162 299.184 85.607 298.225C85.7978 297.266 85.6999 296.272 85.3256 295.368C84.9514 294.465 84.3177 293.693 83.5046 293.149C82.6915 292.606 81.7356 292.316 80.7577 292.316C79.4463 292.316 78.1887 292.837 77.2615 293.764C76.3342 294.691 75.8133 295.949 75.8133 297.26ZM75.8133 269.242C75.8133 270.22 76.1033 271.176 76.6466 271.989C77.1899 272.802 77.9621 273.436 78.8655 273.81C79.769 274.185 80.7631 274.282 81.7222 274.092C82.6814 273.901 83.5624 273.43 84.2538 272.739C84.9453 272.047 85.4162 271.166 85.607 270.207C85.7978 269.248 85.6999 268.254 85.3256 267.35C84.9514 266.447 84.3177 265.675 83.5046 265.131C82.6915 264.588 81.7356 264.298 80.7577 264.298C79.4463 264.298 78.1887 264.819 77.2615 265.746C76.3342 266.673 75.8133 267.931 75.8133 269.242ZM47.7953 325.278C47.7953 326.256 48.0853 327.212 48.6286 328.025C49.1719 328.838 49.9441 329.472 50.8476 329.846C51.751 330.221 52.7452 330.318 53.7043 330.128C54.6634 329.937 55.5444 329.466 56.2359 328.774C56.9273 328.083 57.3982 327.202 57.589 326.243C57.7798 325.284 57.6819 324.29 57.3077 323.386C56.9334 322.483 56.2997 321.711 55.4866 321.167C54.6735 320.624 53.7176 320.334 52.7397 320.334C51.4284 320.334 50.1707 320.855 49.2435 321.782C48.3162 322.709 47.7953 323.967 47.7953 325.278ZM47.7953 297.26C47.7953 298.238 48.0853 299.194 48.6286 300.007C49.1719 300.82 49.9441 301.454 50.8476 301.828C51.751 302.203 52.7452 302.3 53.7043 302.11C54.6634 301.919 55.5444 301.448 56.2359 300.757C56.9273 300.065 57.3982 299.184 57.589 298.225C57.7798 297.266 57.6819 296.272 57.3077 295.368C56.9334 294.465 56.2997 293.693 55.4866 293.149C54.6735 292.606 53.7176 292.316 52.7397 292.316C51.4284 292.316 50.1707 292.837 49.2435 293.764C48.3162 294.691 47.7953 295.949 47.7953 297.26ZM47.7953 269.242C47.7953 270.22 48.0853 271.176 48.6286 271.989C49.1719 272.802 49.9441 273.436 50.8476 273.81C51.751 274.185 52.7452 274.282 53.7043 274.092C54.6634 273.901 55.5444 273.43 56.2359 272.739C56.9273 272.047 57.3982 271.166 57.589 270.207C57.7798 269.248 57.6819 268.254 57.3077 267.35C56.9334 266.447 56.2997 265.675 55.4866 265.131C54.6735 264.588 53.7176 264.298 52.7397 264.298C51.4284 264.298 50.1707 264.819 49.2435 265.746C48.3162 266.673 47.7953 267.931 47.7953 269.242Z" fill="#9E6008"/>
<path d="M106.229 320.334C107.206 320.334 108.162 320.624 108.975 321.167C109.789 321.711 110.422 322.483 110.797 323.386C111.171 324.29 111.269 325.284 111.078 326.243C110.887 327.202 110.416 328.083 109.725 328.774C109.033 329.466 108.152 329.937 107.193 330.128C106.234 330.318 105.24 330.221 104.336 329.846C103.433 329.472 102.661 328.838 102.117 328.025C101.574 327.212 101.284 326.256 101.284 325.278C101.284 323.967 101.805 322.709 102.732 321.782C103.66 320.855 104.917 320.334 106.229 320.334ZM101.284 297.26C101.284 298.238 101.574 299.194 102.117 300.007C102.661 300.82 103.433 301.454 104.336 301.828C105.24 302.203 106.234 302.3 107.193 302.11C108.152 301.919 109.033 301.448 109.725 300.757C110.416 300.065 110.887 299.184 111.078 298.225C111.269 297.266 111.171 296.272 110.797 295.368C110.422 294.465 109.789 293.693 108.975 293.149C108.162 292.606 107.206 292.316 106.229 292.316C104.917 292.316 103.66 292.837 102.732 293.764C101.805 294.691 101.284 295.949 101.284 297.26ZM111.173 269.242C111.173 268.264 110.883 267.309 110.34 266.495C109.796 265.682 109.024 265.049 108.121 264.674C107.217 264.3 106.223 264.202 105.264 264.393C104.305 264.584 103.424 265.055 102.732 265.746C102.041 266.438 101.57 267.319 101.379 268.278C101.188 269.237 101.286 270.231 101.661 271.134C102.035 272.038 102.669 272.81 103.482 273.353C104.295 273.897 105.251 274.187 106.229 274.187C107.54 274.187 108.797 273.666 109.725 272.739C110.652 271.811 111.173 270.554 111.173 269.242ZM157.32 325.278C157.32 326.256 157.61 327.212 158.153 328.025C158.697 328.838 159.469 329.472 160.372 329.846C161.276 330.221 162.27 330.318 163.229 330.128C164.188 329.937 165.069 329.466 165.761 328.774C166.452 328.083 166.923 327.202 167.114 326.243C167.305 325.284 167.207 324.29 166.832 323.386C166.458 322.483 165.825 321.711 165.011 321.167C164.198 320.624 163.242 320.334 162.264 320.334C160.953 320.334 159.696 320.855 158.768 321.782C157.841 322.709 157.32 323.967 157.32 325.278ZM157.32 297.26C157.32 298.238 157.61 299.194 158.153 300.007C158.697 300.82 159.469 301.454 160.372 301.828C161.276 302.203 162.27 302.3 163.229 302.11C164.188 301.919 165.069 301.448 165.761 300.757C166.452 300.065 166.923 299.184 167.114 298.225C167.305 297.266 167.207 296.272 166.832 295.368C166.458 294.465 165.825 293.693 165.011 293.149C164.198 292.606 163.242 292.316 162.264 292.316C160.953 292.316 159.696 292.837 158.768 293.764C157.841 294.691 157.32 295.949 157.32 297.26ZM157.32 269.242C157.32 270.22 157.61 271.176 158.153 271.989C158.697 272.802 159.469 273.436 160.372 273.81C161.276 274.185 162.27 274.282 163.229 274.092C164.188 273.901 165.069 273.43 165.761 272.739C166.452 272.047 166.923 271.166 167.114 270.207C167.305 269.248 167.207 268.254 166.832 267.35C166.458 266.447 165.825 265.675 165.011 265.131C164.198 264.588 163.242 264.298 162.264 264.298C160.953 264.298 159.696 264.819 158.768 265.746C157.841 266.673 157.32 267.931 157.32 269.242ZM129.302 325.278C129.302 326.256 129.592 327.212 130.135 328.025C130.679 328.838 131.451 329.472 132.354 329.846C133.258 330.221 134.252 330.318 135.211 330.128C136.17 329.937 137.051 329.466 137.743 328.774C138.434 328.083 138.905 327.202 139.096 326.243C139.287 325.284 139.189 324.29 138.814 323.386C138.44 322.483 137.807 321.711 136.993 321.167C136.18 320.624 135.224 320.334 134.247 320.334C132.935 320.334 131.678 320.855 130.75 321.782C129.823 322.709 129.302 323.967 129.302 325.278ZM129.302 297.26C129.302 298.238 129.592 299.194 130.135 300.007C130.679 300.82 131.451 301.454 132.354 301.828C133.258 302.203 134.252 302.3 135.211 302.11C136.17 301.919 137.051 301.448 137.743 300.757C138.434 300.065 138.905 299.184 139.096 298.225C139.287 297.266 139.189 296.272 138.814 295.368C138.44 294.465 137.807 293.693 136.993 293.149C136.18 292.606 135.224 292.316 134.247 292.316C132.935 292.316 131.678 292.837 130.75 293.764C129.823 294.691 129.302 295.949 129.302 297.26ZM129.302 269.242C129.302 270.22 129.592 271.176 130.135 271.989C130.679 272.802 131.451 273.436 132.354 273.81C133.258 274.185 134.252 274.282 135.211 274.092C136.17 273.901 137.051 273.43 137.743 272.739C138.434 272.047 138.905 271.166 139.096 270.207C139.287 269.248 139.189 268.254 138.814 267.35C138.44 266.447 137.807 265.675 136.993 265.131C136.18 264.588 135.224 264.298 134.247 264.298C132.935 264.298 131.678 264.819 130.75 265.746C129.823 266.673 129.302 267.931 129.302 269.242Z" fill="#9E6008"/>
<path d="M187.735 320.334C188.713 320.334 189.669 320.624 190.482 321.167C191.295 321.711 191.929 322.483 192.303 323.386C192.678 324.29 192.775 325.284 192.585 326.243C192.394 327.202 191.923 328.083 191.232 328.774C190.54 329.466 189.659 329.937 188.7 330.128C187.741 330.318 186.747 330.221 185.843 329.846C184.94 329.472 184.168 328.838 183.624 328.025C183.081 327.212 182.791 326.256 182.791 325.278C182.791 323.967 183.312 322.709 184.239 321.782C185.166 320.855 186.424 320.334 187.735 320.334ZM182.791 297.26C182.791 298.238 183.081 299.194 183.624 300.007C184.168 300.82 184.94 301.454 185.843 301.828C186.747 302.203 187.741 302.3 188.7 302.11C189.659 301.919 190.54 301.448 191.232 300.757C191.923 300.065 192.394 299.184 192.585 298.225C192.775 297.266 192.678 296.272 192.303 295.368C191.929 294.465 191.295 293.693 190.482 293.149C189.669 292.606 188.713 292.316 187.735 292.316C186.424 292.316 185.166 292.837 184.239 293.764C183.312 294.691 182.791 295.949 182.791 297.26ZM192.68 269.242C192.68 268.264 192.39 267.309 191.846 266.495C191.303 265.682 190.531 265.049 189.627 264.674C188.724 264.3 187.73 264.202 186.771 264.393C185.812 264.584 184.931 265.055 184.239 265.746C183.548 266.438 183.077 267.319 182.886 268.278C182.695 269.237 182.793 270.231 183.167 271.134C183.542 272.038 184.175 272.81 184.988 273.353C185.802 273.897 186.757 274.187 187.735 274.187C189.047 274.187 190.304 273.666 191.232 272.739C192.159 271.811 192.68 270.554 192.68 269.242ZM238.827 325.278C238.827 326.256 239.117 327.212 239.66 328.025C240.204 328.838 240.976 329.472 241.879 329.846C242.783 330.221 243.777 330.318 244.736 330.128C245.695 329.937 246.576 329.466 247.268 328.774C247.959 328.083 248.43 327.202 248.621 326.243C248.811 325.284 248.714 324.29 248.339 323.386C247.965 322.483 247.331 321.711 246.518 321.167C245.705 320.624 244.749 320.334 243.771 320.334C242.46 320.334 241.202 320.855 240.275 321.782C239.348 322.709 238.827 323.967 238.827 325.278ZM238.827 297.26C238.827 298.238 239.117 299.194 239.66 300.007C240.204 300.82 240.976 301.454 241.879 301.828C242.783 302.203 243.777 302.3 244.736 302.11C245.695 301.919 246.576 301.448 247.268 300.757C247.959 300.065 248.43 299.184 248.621 298.225C248.811 297.266 248.714 296.272 248.339 295.368C247.965 294.465 247.331 293.693 246.518 293.149C245.705 292.606 244.749 292.316 243.771 292.316C242.46 292.316 241.202 292.837 240.275 293.764C239.348 294.691 238.827 295.949 238.827 297.26ZM238.827 269.242C238.827 270.22 239.117 271.176 239.66 271.989C240.204 272.802 240.976 273.436 241.879 273.81C242.783 274.185 243.777 274.282 244.736 274.092C245.695 273.901 246.576 273.43 247.268 272.739C247.959 272.047 248.43 271.166 248.621 270.207C248.811 269.248 248.714 268.254 248.339 267.35C247.965 266.447 247.331 265.675 246.518 265.131C245.705 264.588 244.749 264.298 243.771 264.298C242.46 264.298 241.202 264.819 240.275 265.746C239.348 266.673 238.827 267.931 238.827 269.242ZM210.809 325.278C210.809 326.256 211.099 327.212 211.642 328.025C212.186 328.838 212.958 329.472 213.861 329.846C214.765 330.221 215.759 330.318 216.718 330.128C217.677 329.937 218.558 329.466 219.25 328.774C219.941 328.083 220.412 327.202 220.603 326.243C220.793 325.284 220.696 324.29 220.321 323.386C219.947 322.483 219.313 321.711 218.5 321.167C217.687 320.624 216.731 320.334 215.753 320.334C214.442 320.334 213.184 320.855 212.257 321.782C211.33 322.709 210.809 323.967 210.809 325.278ZM210.809 297.26C210.809 298.238 211.099 299.194 211.642 300.007C212.186 300.82 212.958 301.454 213.861 301.828C214.765 302.203 215.759 302.3 216.718 302.11C217.677 301.919 218.558 301.448 219.25 300.757C219.941 300.065 220.412 299.184 220.603 298.225C220.793 297.266 220.696 296.272 220.321 295.368C219.947 294.465 219.313 293.693 218.5 293.149C217.687 292.606 216.731 292.316 215.753 292.316C214.442 292.316 213.184 292.837 212.257 293.764C211.33 294.691 210.809 295.949 210.809 297.26ZM210.809 269.242C210.809 270.22 211.099 271.176 211.642 271.989C212.186 272.802 212.958 273.436 213.861 273.81C214.765 274.185 215.759 274.282 216.718 274.092C217.677 273.901 218.558 273.43 219.25 272.739C219.941 272.047 220.412 271.166 220.603 270.207C220.793 269.248 220.696 268.254 220.321 267.35C219.947 266.447 219.313 265.675 218.5 265.131C217.687 264.588 216.731 264.298 215.753 264.298C214.442 264.298 213.184 264.819 212.257 265.746C211.33 266.673 210.809 267.931 210.809 269.242Z" fill="#9E6008"/>
<path d="M269.242 320.334C270.22 320.334 271.176 320.624 271.989 321.167C272.802 321.711 273.436 322.483 273.81 323.386C274.184 324.29 274.282 325.284 274.092 326.243C273.901 327.202 273.43 328.083 272.738 328.774C272.047 329.466 271.166 329.937 270.207 330.128C269.248 330.318 268.254 330.221 267.35 329.846C266.447 329.472 265.674 328.838 265.131 328.025C264.588 327.212 264.298 326.256 264.298 325.278C264.298 323.967 264.819 322.709 265.746 321.782C266.673 320.855 267.931 320.334 269.242 320.334ZM264.298 297.26C264.298 298.238 264.588 299.194 265.131 300.007C265.674 300.82 266.447 301.454 267.35 301.828C268.254 302.203 269.248 302.3 270.207 302.11C271.166 301.919 272.047 301.448 272.738 300.757C273.43 300.065 273.901 299.184 274.092 298.225C274.282 297.266 274.184 296.272 273.81 295.368C273.436 294.465 272.802 293.693 271.989 293.149C271.176 292.606 270.22 292.316 269.242 292.316C267.931 292.316 266.673 292.837 265.746 293.764C264.819 294.691 264.298 295.949 264.298 297.26ZM274.187 269.242C274.187 268.264 273.897 267.309 273.353 266.495C272.81 265.682 272.038 265.049 271.134 264.674C270.231 264.3 269.237 264.202 268.278 264.393C267.318 264.584 266.437 265.055 265.746 265.746C265.055 266.438 264.584 267.319 264.393 268.278C264.202 269.237 264.3 270.231 264.674 271.134C265.048 272.038 265.682 272.81 266.495 273.353C267.308 273.897 268.264 274.187 269.242 274.187C270.554 274.187 271.811 273.666 272.738 272.739C273.666 271.811 274.187 270.554 274.187 269.242ZM320.334 325.278C320.334 326.256 320.624 327.212 321.167 328.025C321.71 328.838 322.483 329.472 323.386 329.846C324.29 330.221 325.284 330.318 326.243 330.128C327.202 329.937 328.083 329.466 328.774 328.774C329.466 328.083 329.937 327.202 330.128 326.243C330.318 325.284 330.22 324.29 329.846 323.386C329.472 322.483 328.838 321.711 328.025 321.167C327.212 320.624 326.256 320.334 325.278 320.334C323.967 320.334 322.709 320.855 321.782 321.782C320.855 322.709 320.334 323.967 320.334 325.278ZM320.334 297.26C320.334 298.238 320.624 299.194 321.167 300.007C321.71 300.82 322.483 301.454 323.386 301.828C324.29 302.203 325.284 302.3 326.243 302.11C327.202 301.919 328.083 301.448 328.774 300.757C329.466 300.065 329.937 299.184 330.128 298.225C330.318 297.266 330.22 296.272 329.846 295.368C329.472 294.465 328.838 293.693 328.025 293.149C327.212 292.606 326.256 292.316 325.278 292.316C323.967 292.316 322.709 292.837 321.782 293.764C320.855 294.691 320.334 295.949 320.334 297.26ZM320.334 269.242C320.334 270.22 320.624 271.176 321.167 271.989C321.71 272.802 322.483 273.436 323.386 273.81C324.29 274.185 325.284 274.282 326.243 274.092C327.202 273.901 328.083 273.43 328.774 272.739C329.466 272.047 329.937 271.166 330.128 270.207C330.318 269.248 330.22 268.254 329.846 267.35C329.472 266.447 328.838 265.675 328.025 265.131C327.212 264.588 326.256 264.298 325.278 264.298C323.967 264.298 322.709 264.819 321.782 265.746C320.855 266.673 320.334 267.931 320.334 269.242ZM292.316 325.278C292.316 326.256 292.606 327.212 293.149 328.025C293.692 328.838 294.465 329.472 295.368 329.846C296.272 330.221 297.266 330.318 298.225 330.128C299.184 329.937 300.065 329.466 300.756 328.774C301.448 328.083 301.919 327.202 302.11 326.243C302.3 325.284 302.202 324.29 301.828 323.386C301.454 322.483 300.82 321.711 300.007 321.167C299.194 320.624 298.238 320.334 297.26 320.334C295.949 320.334 294.691 320.855 293.764 321.782C292.837 322.709 292.316 323.967 292.316 325.278ZM292.316 297.26C292.316 298.238 292.606 299.194 293.149 300.007C293.692 300.82 294.465 301.454 295.368 301.828C296.272 302.203 297.266 302.3 298.225 302.11C299.184 301.919 300.065 301.448 300.756 300.757C301.448 300.065 301.919 299.184 302.11 298.225C302.3 297.266 302.202 296.272 301.828 295.368C301.454 294.465 300.82 293.693 300.007 293.149C299.194 292.606 298.238 292.316 297.26 292.316C295.949 292.316 294.691 292.837 293.764 293.764C292.837 294.691 292.316 295.949 292.316 297.26ZM292.316 269.242C292.316 270.22 292.606 271.176 293.149 271.989C293.692 272.802 294.465 273.436 295.368 273.81C296.272 274.185 297.266 274.282 298.225 274.092C299.184 273.901 300.065 273.43 300.756 272.739C301.448 272.047 301.919 271.166 302.11 270.207C302.3 269.248 302.202 268.254 301.828 267.35C301.454 266.447 300.82 265.675 300.007 265.131C299.194 264.588 298.238 264.298 297.26 264.298C295.949 264.298 294.691 264.819 293.764 265.746C292.837 266.673 292.316 267.931 292.316 269.242Z" fill="#9E6008"/>
<path d="M269.242 238.827C270.22 238.827 271.176 239.117 271.989 239.66C272.802 240.204 273.436 240.976 273.81 241.879C274.184 242.783 274.282 243.777 274.092 244.736C273.901 245.695 273.43 246.576 272.738 247.268C272.047 247.959 271.166 248.43 270.207 248.621C269.248 248.812 268.254 248.714 267.35 248.339C266.447 247.965 265.674 247.331 265.131 246.518C264.588 245.705 264.298 244.749 264.298 243.771C264.298 242.46 264.819 241.203 265.746 240.275C266.673 239.348 267.931 238.827 269.242 238.827ZM264.298 215.753C264.298 216.731 264.588 217.687 265.131 218.5C265.674 219.314 266.447 219.947 267.35 220.321C268.254 220.696 269.248 220.794 270.207 220.603C271.166 220.412 272.047 219.941 272.738 219.25C273.43 218.558 273.901 217.677 274.092 216.718C274.282 215.759 274.184 214.765 273.81 213.861C273.436 212.958 272.802 212.186 271.989 211.642C271.176 211.099 270.22 210.809 269.242 210.809C267.931 210.809 266.673 211.33 265.746 212.257C264.819 213.185 264.298 214.442 264.298 215.753ZM274.187 187.736C274.187 186.758 273.897 185.802 273.353 184.989C272.81 184.175 272.038 183.542 271.134 183.168C270.231 182.793 269.237 182.695 268.278 182.886C267.318 183.077 266.437 183.548 265.746 184.239C265.055 184.931 264.584 185.812 264.393 186.771C264.202 187.73 264.3 188.724 264.674 189.628C265.048 190.531 265.682 191.303 266.495 191.847C267.308 192.39 268.264 192.68 269.242 192.68C270.554 192.68 271.811 192.159 272.738 191.232C273.666 190.304 274.187 189.047 274.187 187.736ZM320.334 243.771C320.334 244.749 320.624 245.705 321.167 246.518C321.71 247.331 322.483 247.965 323.386 248.339C324.29 248.714 325.284 248.812 326.243 248.621C327.202 248.43 328.083 247.959 328.774 247.268C329.466 246.576 329.937 245.695 330.128 244.736C330.318 243.777 330.22 242.783 329.846 241.879C329.472 240.976 328.838 240.204 328.025 239.66C327.212 239.117 326.256 238.827 325.278 238.827C323.967 238.827 322.709 239.348 321.782 240.275C320.855 241.203 320.334 242.46 320.334 243.771ZM320.334 215.753C320.334 216.731 320.624 217.687 321.167 218.5C321.71 219.314 322.483 219.947 323.386 220.321C324.29 220.696 325.284 220.794 326.243 220.603C327.202 220.412 328.083 219.941 328.774 219.25C329.466 218.558 329.937 217.677 330.128 216.718C330.318 215.759 330.22 214.765 329.846 213.861C329.472 212.958 328.838 212.186 328.025 211.642C327.212 211.099 326.256 210.809 325.278 210.809C323.967 210.809 322.709 211.33 321.782 212.257C320.855 213.185 320.334 214.442 320.334 215.753ZM320.334 187.736C320.334 188.713 320.624 189.669 321.167 190.482C321.71 191.296 322.483 191.929 323.386 192.303C324.29 192.678 325.284 192.776 326.243 192.585C327.202 192.394 328.083 191.923 328.774 191.232C329.466 190.54 329.937 189.659 330.128 188.7C330.318 187.741 330.22 186.747 329.846 185.843C329.472 184.94 328.838 184.168 328.025 183.624C327.212 183.081 326.256 182.791 325.278 182.791C323.967 182.791 322.709 183.312 321.782 184.239C320.855 185.167 320.334 186.424 320.334 187.736ZM292.316 243.771C292.316 244.749 292.606 245.705 293.149 246.518C293.692 247.331 294.465 247.965 295.368 248.339C296.272 248.714 297.266 248.812 298.225 248.621C299.184 248.43 300.065 247.959 300.756 247.268C301.448 246.576 301.919 245.695 302.11 244.736C302.3 243.777 302.202 242.783 301.828 241.879C301.454 240.976 300.82 240.204 300.007 239.66C299.194 239.117 298.238 238.827 297.26 238.827C295.949 238.827 294.691 239.348 293.764 240.275C292.837 241.203 292.316 242.46 292.316 243.771ZM292.316 215.753C292.316 216.731 292.606 217.687 293.149 218.5C293.692 219.314 294.465 219.947 295.368 220.321C296.272 220.696 297.266 220.794 298.225 220.603C299.184 220.412 300.065 219.941 300.756 219.25C301.448 218.558 301.919 217.677 302.11 216.718C302.3 215.759 302.202 214.765 301.828 213.861C301.454 212.958 300.82 212.186 300.007 211.642C299.194 211.099 298.238 210.809 297.26 210.809C295.949 210.809 294.691 211.33 293.764 212.257C292.837 213.185 292.316 214.442 292.316 215.753ZM292.316 187.736C292.316 188.713 292.606 189.669 293.149 190.482C293.692 191.296 294.465 191.929 295.368 192.303C296.272 192.678 297.266 192.776 298.225 192.585C299.184 192.394 300.065 191.923 300.756 191.232C301.448 190.54 301.919 189.659 302.11 188.7C302.3 187.741 302.202 186.747 301.828 185.843C301.454 184.94 300.82 184.168 300.007 183.624C299.194 183.081 298.238 182.791 297.26 182.791C295.949 182.791 294.691 183.312 293.764 184.239C292.837 185.167 292.316 186.424 292.316 187.736Z" fill="#EAA23A"/>
<path d="M187.735 238.827C188.713 238.827 189.669 239.117 190.482 239.66C191.295 240.204 191.929 240.976 192.303 241.879C192.678 242.783 192.775 243.777 192.585 244.736C192.394 245.695 191.923 246.576 191.232 247.268C190.54 247.959 189.659 248.43 188.7 248.621C187.741 248.812 186.747 248.714 185.843 248.339C184.94 247.965 184.168 247.331 183.624 246.518C183.081 245.705 182.791 244.749 182.791 243.771C182.791 242.46 183.312 241.203 184.239 240.275C185.166 239.348 186.424 238.827 187.735 238.827ZM182.791 215.753C182.791 216.731 183.081 217.687 183.624 218.5C184.168 219.314 184.94 219.947 185.843 220.321C186.747 220.696 187.741 220.794 188.7 220.603C189.659 220.412 190.54 219.941 191.232 219.25C191.923 218.558 192.394 217.677 192.585 216.718C192.775 215.759 192.678 214.765 192.303 213.861C191.929 212.958 191.295 212.186 190.482 211.642C189.669 211.099 188.713 210.809 187.735 210.809C186.424 210.809 185.166 211.33 184.239 212.257C183.312 213.185 182.791 214.442 182.791 215.753ZM192.68 187.736C192.68 186.758 192.39 185.802 191.846 184.989C191.303 184.175 190.531 183.542 189.627 183.168C188.724 182.793 187.73 182.695 186.771 182.886C185.812 183.077 184.931 183.548 184.239 184.239C183.548 184.931 183.077 185.812 182.886 186.771C182.695 187.73 182.793 188.724 183.167 189.628C183.542 190.531 184.175 191.303 184.988 191.847C185.802 192.39 186.757 192.68 187.735 192.68C189.047 192.68 190.304 192.159 191.232 191.232C192.159 190.304 192.68 189.047 192.68 187.736ZM238.827 243.771C238.827 244.749 239.117 245.705 239.66 246.518C240.204 247.331 240.976 247.965 241.879 248.339C242.783 248.714 243.777 248.812 244.736 248.621C245.695 248.43 246.576 247.959 247.268 247.268C247.959 246.576 248.43 245.695 248.621 244.736C248.811 243.777 248.714 242.783 248.339 241.879C247.965 240.976 247.331 240.204 246.518 239.66C245.705 239.117 244.749 238.827 243.771 238.827C242.46 238.827 241.202 239.348 240.275 240.275C239.348 241.203 238.827 242.46 238.827 243.771ZM238.827 215.753C238.827 216.731 239.117 217.687 239.66 218.5C240.204 219.314 240.976 219.947 241.879 220.321C242.783 220.696 243.777 220.794 244.736 220.603C245.695 220.412 246.576 219.941 247.268 219.25C247.959 218.558 248.43 217.677 248.621 216.718C248.811 215.759 248.714 214.765 248.339 213.861C247.965 212.958 247.331 212.186 246.518 211.642C245.705 211.099 244.749 210.809 243.771 210.809C242.46 210.809 241.202 211.33 240.275 212.257C239.348 213.185 238.827 214.442 238.827 215.753ZM238.827 187.736C238.827 188.713 239.117 189.669 239.66 190.482C240.204 191.296 240.976 191.929 241.879 192.303C242.783 192.678 243.777 192.776 244.736 192.585C245.695 192.394 246.576 191.923 247.268 191.232C247.959 190.54 248.43 189.659 248.621 188.7C248.811 187.741 248.714 186.747 248.339 185.843C247.965 184.94 247.331 184.168 246.518 183.624C245.705 183.081 244.749 182.791 243.771 182.791C242.46 182.791 241.202 183.312 240.275 184.239C239.348 185.167 238.827 186.424 238.827 187.736ZM210.809 243.771C210.809 244.749 211.099 245.705 211.642 246.518C212.186 247.331 212.958 247.965 213.861 248.339C214.765 248.714 215.759 248.812 216.718 248.621C217.677 248.43 218.558 247.959 219.25 247.268C219.941 246.576 220.412 245.695 220.603 244.736C220.793 243.777 220.696 242.783 220.321 241.879C219.947 240.976 219.313 240.204 218.5 239.66C217.687 239.117 216.731 238.827 215.753 238.827C214.442 238.827 213.184 239.348 212.257 240.275C211.33 241.203 210.809 242.46 210.809 243.771ZM210.809 215.753C210.809 216.731 211.099 217.687 211.642 218.5C212.186 219.314 212.958 219.947 213.861 220.321C214.765 220.696 215.759 220.794 216.718 220.603C217.677 220.412 218.558 219.941 219.25 219.25C219.941 218.558 220.412 217.677 220.603 216.718C220.793 215.759 220.696 214.765 220.321 213.861C219.947 212.958 219.313 212.186 218.5 211.642C217.687 211.099 216.731 210.809 215.753 210.809C214.442 210.809 213.184 211.33 212.257 212.257C211.33 213.185 210.809 214.442 210.809 215.753ZM210.809 187.736C210.809 188.713 211.099 189.669 211.642 190.482C212.186 191.296 212.958 191.929 213.861 192.303C214.765 192.678 215.759 192.776 216.718 192.585C217.677 192.394 218.558 191.923 219.25 191.232C219.941 190.54 220.412 189.659 220.603 188.7C220.793 187.741 220.696 186.747 220.321 185.843C219.947 184.94 219.313 184.168 218.5 183.624C217.687 183.081 216.731 182.791 215.753 182.791C214.442 182.791 213.184 183.312 212.257 184.239C211.33 185.167 210.809 186.424 210.809 187.736Z" fill="#EAA23A"/>
<path d="M106.229 238.827C107.206 238.827 108.162 239.117 108.975 239.66C109.789 240.204 110.422 240.976 110.797 241.879C111.171 242.783 111.269 243.777 111.078 244.736C110.887 245.695 110.416 246.576 109.725 247.268C109.033 247.959 108.152 248.43 107.193 248.621C106.234 248.812 105.24 248.714 104.336 248.339C103.433 247.965 102.661 247.331 102.117 246.518C101.574 245.705 101.284 244.749 101.284 243.771C101.284 242.46 101.805 241.203 102.732 240.275C103.66 239.348 104.917 238.827 106.229 238.827ZM101.284 215.753C101.284 216.731 101.574 217.687 102.117 218.5C102.661 219.314 103.433 219.947 104.336 220.321C105.24 220.696 106.234 220.794 107.193 220.603C108.152 220.412 109.033 219.941 109.725 219.25C110.416 218.558 110.887 217.677 111.078 216.718C111.269 215.759 111.171 214.765 110.797 213.861C110.422 212.958 109.789 212.186 108.975 211.642C108.162 211.099 107.206 210.809 106.229 210.809C104.917 210.809 103.66 211.33 102.732 212.257C101.805 213.185 101.284 214.442 101.284 215.753ZM111.173 187.736C111.173 186.758 110.883 185.802 110.34 184.989C109.796 184.175 109.024 183.542 108.121 183.168C107.217 182.793 106.223 182.695 105.264 182.886C104.305 183.077 103.424 183.548 102.732 184.239C102.041 184.931 101.57 185.812 101.379 186.771C101.188 187.73 101.286 188.724 101.661 189.628C102.035 190.531 102.669 191.303 103.482 191.847C104.295 192.39 105.251 192.68 106.229 192.68C107.54 192.68 108.797 192.159 109.725 191.232C110.652 190.304 111.173 189.047 111.173 187.736ZM157.32 243.771C157.32 244.749 157.61 245.705 158.153 246.518C158.697 247.331 159.469 247.965 160.372 248.339C161.276 248.714 162.27 248.812 163.229 248.621C164.188 248.43 165.069 247.959 165.761 247.268C166.452 246.576 166.923 245.695 167.114 244.736C167.305 243.777 167.207 242.783 166.832 241.879C166.458 240.976 165.825 240.204 165.011 239.66C164.198 239.117 163.242 238.827 162.264 238.827C160.953 238.827 159.696 239.348 158.768 240.275C157.841 241.203 157.32 242.46 157.32 243.771ZM157.32 215.753C157.32 216.731 157.61 217.687 158.153 218.5C158.697 219.314 159.469 219.947 160.372 220.321C161.276 220.696 162.27 220.794 163.229 220.603C164.188 220.412 165.069 219.941 165.761 219.25C166.452 218.558 166.923 217.677 167.114 216.718C167.305 215.759 167.207 214.765 166.832 213.861C166.458 212.958 165.825 212.186 165.011 211.642C164.198 211.099 163.242 210.809 162.264 210.809C160.953 210.809 159.696 211.33 158.768 212.257C157.841 213.185 157.32 214.442 157.32 215.753ZM157.32 187.736C157.32 188.713 157.61 189.669 158.153 190.482C158.697 191.296 159.469 191.929 160.372 192.303C161.276 192.678 162.27 192.776 163.229 192.585C164.188 192.394 165.069 191.923 165.761 191.232C166.452 190.54 166.923 189.659 167.114 188.7C167.305 187.741 167.207 186.747 166.832 185.843C166.458 184.94 165.825 184.168 165.011 183.624C164.198 183.081 163.242 182.791 162.264 182.791C160.953 182.791 159.696 183.312 158.768 184.239C157.841 185.167 157.32 186.424 157.32 187.736ZM129.302 243.771C129.302 244.749 129.592 245.705 130.135 246.518C130.679 247.331 131.451 247.965 132.354 248.339C133.258 248.714 134.252 248.812 135.211 248.621C136.17 248.43 137.051 247.959 137.743 247.268C138.434 246.576 138.905 245.695 139.096 244.736C139.287 243.777 139.189 242.783 138.814 241.879C138.44 240.976 137.807 240.204 136.993 239.66C136.18 239.117 135.224 238.827 134.247 238.827C132.935 238.827 131.678 239.348 130.75 240.275C129.823 241.203 129.302 242.46 129.302 243.771ZM129.302 215.753C129.302 216.731 129.592 217.687 130.135 218.5C130.679 219.314 131.451 219.947 132.354 220.321C133.258 220.696 134.252 220.794 135.211 220.603C136.17 220.412 137.051 219.941 137.743 219.25C138.434 218.558 138.905 217.677 139.096 216.718C139.287 215.759 139.189 214.765 138.814 213.861C138.44 212.958 137.807 212.186 136.993 211.642C136.18 211.099 135.224 210.809 134.247 210.809C132.935 210.809 131.678 211.33 130.75 212.257C129.823 213.185 129.302 214.442 129.302 215.753ZM129.302 187.736C129.302 188.713 129.592 189.669 130.135 190.482C130.679 191.296 131.451 191.929 132.354 192.303C133.258 192.678 134.252 192.776 135.211 192.585C136.17 192.394 137.051 191.923 137.743 191.232C138.434 190.54 138.905 189.659 139.096 188.7C139.287 187.741 139.189 186.747 138.814 185.843C138.44 184.94 137.807 184.168 136.993 183.624C136.18 183.081 135.224 182.791 134.247 182.791C132.935 182.791 131.678 183.312 130.75 184.239C129.823 185.167 129.302 186.424 129.302 187.736Z" fill="#EAA23A"/>
<path d="M24.7217 238.827C25.6996 238.827 26.6555 239.117 27.4686 239.66C28.2817 240.204 28.9155 240.976 29.2897 241.879C29.6639 242.783 29.7618 243.777 29.571 244.736C29.3803 245.695 28.9094 246.576 28.2179 247.268C27.5264 247.959 26.6454 248.43 25.6863 248.621C24.7272 248.812 23.733 248.714 22.8296 248.339C21.9261 247.965 21.1539 247.331 20.6106 246.518C20.0673 245.705 19.7773 244.749 19.7773 243.771C19.7773 242.46 20.2983 241.203 21.2255 240.275C22.1528 239.348 23.4104 238.827 24.7217 238.827ZM19.7773 215.753C19.7773 216.731 20.0673 217.687 20.6106 218.5C21.1539 219.314 21.9261 219.947 22.8296 220.321C23.733 220.696 24.7272 220.794 25.6863 220.603C26.6454 220.412 27.5264 219.941 28.2179 219.25C28.9094 218.558 29.3803 217.677 29.571 216.718C29.7618 215.759 29.6639 214.765 29.2897 213.861C28.9155 212.958 28.2817 212.186 27.4686 211.642C26.6555 211.099 25.6996 210.809 24.7217 210.809C23.4104 210.809 22.1528 211.33 21.2255 212.257C20.2983 213.185 19.7773 214.442 19.7773 215.753ZM29.666 187.736C29.666 186.758 29.3761 185.802 28.8328 184.989C28.2895 184.175 27.5173 183.542 26.6138 183.168C25.7104 182.793 24.7162 182.695 23.7571 182.886C22.798 183.077 21.917 183.548 21.2255 184.239C20.534 184.931 20.0631 185.812 19.8724 186.771C19.6816 187.73 19.7795 188.724 20.1537 189.628C20.5279 190.531 21.1617 191.303 21.9748 191.847C22.7879 192.39 23.7438 192.68 24.7217 192.68C26.033 192.68 27.2906 192.159 28.2179 191.232C29.1451 190.304 29.666 189.047 29.666 187.736ZM75.8133 243.771C75.8133 244.749 76.1033 245.705 76.6466 246.518C77.1899 247.331 77.9621 247.965 78.8655 248.339C79.769 248.714 80.7631 248.812 81.7222 248.621C82.6814 248.43 83.5624 247.959 84.2538 247.268C84.9453 246.576 85.4162 245.695 85.607 244.736C85.7978 243.777 85.6999 242.783 85.3256 241.879C84.9514 240.976 84.3177 240.204 83.5046 239.66C82.6915 239.117 81.7356 238.827 80.7577 238.827C79.4463 238.827 78.1887 239.348 77.2615 240.275C76.3342 241.203 75.8133 242.46 75.8133 243.771ZM75.8133 215.753C75.8133 216.731 76.1033 217.687 76.6466 218.5C77.1899 219.314 77.9621 219.947 78.8655 220.321C79.769 220.696 80.7631 220.794 81.7222 220.603C82.6814 220.412 83.5624 219.941 84.2538 219.25C84.9453 218.558 85.4162 217.677 85.607 216.718C85.7978 215.759 85.6999 214.765 85.3256 213.861C84.9514 212.958 84.3177 212.186 83.5046 211.642C82.6915 211.099 81.7356 210.809 80.7577 210.809C79.4463 210.809 78.1887 211.33 77.2615 212.257C76.3342 213.185 75.8133 214.442 75.8133 215.753ZM75.8133 187.736C75.8133 188.713 76.1033 189.669 76.6466 190.482C77.1899 191.296 77.9621 191.929 78.8655 192.303C79.769 192.678 80.7631 192.776 81.7222 192.585C82.6814 192.394 83.5624 191.923 84.2538 191.232C84.9453 190.54 85.4162 189.659 85.607 188.7C85.7978 187.741 85.6999 186.747 85.3256 185.843C84.9514 184.94 84.3177 184.168 83.5046 183.624C82.6915 183.081 81.7356 182.791 80.7577 182.791C79.4463 182.791 78.1887 183.312 77.2615 184.239C76.3342 185.167 75.8133 186.424 75.8133 187.736ZM47.7953 243.771C47.7953 244.749 48.0853 245.705 48.6286 246.518C49.1719 247.331 49.9441 247.965 50.8476 248.339C51.751 248.714 52.7452 248.812 53.7043 248.621C54.6634 248.43 55.5444 247.959 56.2359 247.268C56.9273 246.576 57.3982 245.695 57.589 244.736C57.7798 243.777 57.6819 242.783 57.3077 241.879C56.9334 240.976 56.2997 240.204 55.4866 239.66C54.6735 239.117 53.7176 238.827 52.7397 238.827C51.4284 238.827 50.1707 239.348 49.2435 240.275C48.3162 241.203 47.7953 242.46 47.7953 243.771ZM47.7953 215.753C47.7953 216.731 48.0853 217.687 48.6286 218.5C49.1719 219.314 49.9441 219.947 50.8476 220.321C51.751 220.696 52.7452 220.794 53.7043 220.603C54.6634 220.412 55.5444 219.941 56.2359 219.25C56.9273 218.558 57.3982 217.677 57.589 216.718C57.7798 215.759 57.6819 214.765 57.3077 213.861C56.9334 212.958 56.2997 212.186 55.4866 211.642C54.6735 211.099 53.7176 210.809 52.7397 210.809C51.4284 210.809 50.1707 211.33 49.2435 212.257C48.3162 213.185 47.7953 214.442 47.7953 215.753ZM47.7953 187.736C47.7953 188.713 48.0853 189.669 48.6286 190.482C49.1719 191.296 49.9441 191.929 50.8476 192.303C51.751 192.678 52.7452 192.776 53.7043 192.585C54.6634 192.394 55.5444 191.923 56.2359 191.232C56.9273 190.54 57.3982 189.659 57.589 188.7C57.7798 187.741 57.6819 186.747 57.3077 185.843C56.9334 184.94 56.2997 184.168 55.4866 183.624C54.6735 183.081 53.7176 182.791 52.7397 182.791C51.4284 182.791 50.1707 183.312 49.2435 184.239C48.3162 185.167 47.7953 186.424 47.7953 187.736Z" fill="#9E6008"/>
<path d="M106.229 157.32C107.206 157.32 108.162 157.61 108.975 158.154C109.789 158.697 110.422 159.469 110.797 160.373C111.171 161.276 111.269 162.27 111.078 163.229C110.887 164.188 110.416 165.069 109.725 165.761C109.033 166.452 108.152 166.923 107.193 167.114C106.234 167.305 105.24 167.207 104.336 166.833C103.433 166.458 102.661 165.825 102.117 165.012C101.574 164.198 101.284 163.243 101.284 162.265C101.284 160.953 101.805 159.696 102.732 158.768C103.66 157.841 104.917 157.32 106.229 157.32ZM101.284 134.247C101.284 135.225 101.574 136.18 102.117 136.994C102.661 137.807 103.433 138.44 104.336 138.815C105.24 139.189 106.234 139.287 107.193 139.096C108.152 138.905 109.033 138.434 109.725 137.743C110.416 137.051 110.887 136.17 111.078 135.211C111.269 134.252 111.171 133.258 110.797 132.355C110.422 131.451 109.789 130.679 108.975 130.136C108.162 129.592 107.206 129.302 106.229 129.302C104.917 129.302 103.66 129.823 102.732 130.75C101.805 131.678 101.284 132.935 101.284 134.247ZM111.173 106.229C111.173 105.251 110.883 104.295 110.34 103.482C109.796 102.669 109.024 102.035 108.121 101.661C107.217 101.286 106.223 101.189 105.264 101.379C104.305 101.57 103.424 102.041 102.732 102.732C102.041 103.424 101.57 104.305 101.379 105.264C101.188 106.223 101.286 107.217 101.661 108.121C102.035 109.024 102.669 109.796 103.482 110.34C104.295 110.883 105.251 111.173 106.229 111.173C107.54 111.173 108.797 110.652 109.725 109.725C110.652 108.798 111.173 107.54 111.173 106.229ZM157.32 162.265C157.32 163.243 157.61 164.198 158.153 165.012C158.697 165.825 159.469 166.458 160.372 166.833C161.276 167.207 162.27 167.305 163.229 167.114C164.188 166.923 165.069 166.452 165.761 165.761C166.452 165.069 166.923 164.188 167.114 163.229C167.305 162.27 167.207 161.276 166.832 160.373C166.458 159.469 165.825 158.697 165.011 158.154C164.198 157.61 163.242 157.32 162.264 157.32C160.953 157.32 159.696 157.841 158.768 158.768C157.841 159.696 157.32 160.953 157.32 162.265ZM157.32 134.247C157.32 135.225 157.61 136.18 158.153 136.994C158.697 137.807 159.469 138.44 160.372 138.815C161.276 139.189 162.27 139.287 163.229 139.096C164.188 138.905 165.069 138.434 165.761 137.743C166.452 137.051 166.923 136.17 167.114 135.211C167.305 134.252 167.207 133.258 166.832 132.355C166.458 131.451 165.825 130.679 165.011 130.136C164.198 129.592 163.242 129.302 162.264 129.302C160.953 129.302 159.696 129.823 158.768 130.75C157.841 131.678 157.32 132.935 157.32 134.247ZM157.32 106.229C157.32 107.207 157.61 108.163 158.153 108.976C158.697 109.789 159.469 110.422 160.372 110.797C161.276 111.171 162.27 111.269 163.229 111.078C164.188 110.887 165.069 110.416 165.761 109.725C166.452 109.033 166.923 108.152 167.114 107.193C167.305 106.234 167.207 105.24 166.832 104.337C166.458 103.433 165.825 102.661 165.011 102.118C164.198 101.574 163.242 101.284 162.264 101.284C160.953 101.284 159.696 101.805 158.768 102.732C157.841 103.66 157.32 104.917 157.32 106.229ZM129.302 162.265C129.302 163.243 129.592 164.198 130.135 165.012C130.679 165.825 131.451 166.458 132.354 166.833C133.258 167.207 134.252 167.305 135.211 167.114C136.17 166.923 137.051 166.452 137.743 165.761C138.434 165.069 138.905 164.188 139.096 163.229C139.287 162.27 139.189 161.276 138.814 160.373C138.44 159.469 137.807 158.697 136.993 158.154C136.18 157.61 135.224 157.32 134.247 157.32C132.935 157.32 131.678 157.841 130.75 158.768C129.823 159.696 129.302 160.953 129.302 162.265ZM129.302 134.247C129.302 135.225 129.592 136.18 130.135 136.994C130.679 137.807 131.451 138.44 132.354 138.815C133.258 139.189 134.252 139.287 135.211 139.096C136.17 138.905 137.051 138.434 137.743 137.743C138.434 137.051 138.905 136.17 139.096 135.211C139.287 134.252 139.189 133.258 138.814 132.355C138.44 131.451 137.807 130.679 136.993 130.136C136.18 129.592 135.224 129.302 134.247 129.302C132.935 129.302 131.678 129.823 130.75 130.75C129.823 131.678 129.302 132.935 129.302 134.247ZM129.302 106.229C129.302 107.207 129.592 108.163 130.135 108.976C130.679 109.789 131.451 110.422 132.354 110.797C133.258 111.171 134.252 111.269 135.211 111.078C136.17 110.887 137.051 110.416 137.743 109.725C138.434 109.033 138.905 108.152 139.096 107.193C139.287 106.234 139.189 105.24 138.814 104.337C138.44 103.433 137.807 102.661 136.993 102.118C136.18 101.574 135.224 101.284 134.247 101.284C132.935 101.284 131.678 101.805 130.75 102.732C129.823 103.66 129.302 104.917 129.302 106.229Z" fill="#EAA23A"/>
<path d="M106.229 75.8134C107.206 75.8134 108.162 76.1034 108.975 76.6467C109.789 77.19 110.422 77.9622 110.797 78.8657C111.171 79.7691 111.269 80.7633 111.078 81.7224C110.887 82.6815 110.416 83.5625 109.725 84.254C109.033 84.9455 108.152 85.4164 107.193 85.6071C106.234 85.7979 105.24 85.7 104.336 85.3258C103.433 84.9516 102.661 84.3178 102.117 83.5047C101.574 82.6916 101.284 81.7357 101.284 80.7578C101.284 79.4465 101.805 78.1889 102.732 77.2616C103.66 76.3344 104.917 75.8134 106.229 75.8134ZM101.284 52.7398C101.284 53.7177 101.574 54.6737 102.117 55.4867C102.661 56.2998 103.433 56.9336 104.336 57.3078C105.24 57.682 106.234 57.7799 107.193 57.5892C108.152 57.3984 109.033 56.9275 109.725 56.236C110.416 55.5445 110.887 54.6635 111.078 53.7044C111.269 52.7453 111.171 51.7512 110.797 50.8477C110.422 49.9442 109.789 49.172 108.975 48.6287C108.162 48.0854 107.206 47.7955 106.229 47.7955C104.917 47.7955 103.66 48.3164 102.732 49.2436C101.805 50.1709 101.284 51.4285 101.284 52.7398ZM111.173 24.7218C111.173 23.7439 110.883 22.788 110.34 21.9749C109.796 21.1618 109.024 20.5281 108.121 20.1539C107.217 19.7796 106.223 19.6817 105.264 19.8725C104.305 20.0633 103.424 20.5342 102.732 21.2257C102.041 21.9171 101.57 22.7981 101.379 23.7572C101.188 24.7164 101.286 25.7105 101.661 26.614C102.035 27.5174 102.669 28.2896 103.482 28.8329C104.295 29.3762 105.251 29.6662 106.229 29.6662C107.54 29.6662 108.797 29.1453 109.725 28.218C110.652 27.2908 111.173 26.0332 111.173 24.7218ZM157.32 80.7578C157.32 81.7357 157.61 82.6916 158.153 83.5047C158.697 84.3178 159.469 84.9516 160.372 85.3258C161.276 85.7 162.27 85.7979 163.229 85.6071C164.188 85.4164 165.069 84.9455 165.761 84.254C166.452 83.5625 166.923 82.6815 167.114 81.7224C167.305 80.7633 167.207 79.7691 166.832 78.8657C166.458 77.9622 165.825 77.19 165.011 76.6467C164.198 76.1034 163.242 75.8134 162.264 75.8134C160.953 75.8134 159.696 76.3344 158.768 77.2616C157.841 78.1889 157.32 79.4465 157.32 80.7578ZM157.32 52.7398C157.32 53.7177 157.61 54.6737 158.153 55.4867C158.697 56.2998 159.469 56.9336 160.372 57.3078C161.276 57.682 162.27 57.7799 163.229 57.5892C164.188 57.3984 165.069 56.9275 165.761 56.236C166.452 55.5445 166.923 54.6635 167.114 53.7044C167.305 52.7453 167.207 51.7512 166.832 50.8477C166.458 49.9442 165.825 49.172 165.011 48.6287C164.198 48.0854 163.242 47.7955 162.264 47.7955C160.953 47.7955 159.696 48.3164 158.768 49.2436C157.841 50.1709 157.32 51.4285 157.32 52.7398ZM157.32 24.7218C157.32 25.6997 157.61 26.6557 158.153 27.4688C158.697 28.2819 159.469 28.9156 160.372 29.2898C161.276 29.664 162.27 29.762 163.229 29.5712C164.188 29.3804 165.069 28.9095 165.761 28.218C166.452 27.5265 166.923 26.6455 167.114 25.6864C167.305 24.7273 167.207 23.7332 166.832 22.8297C166.458 21.9263 165.825 21.1541 165.011 20.6108C164.198 20.0675 163.242 19.7775 162.264 19.7775C160.953 19.7775 159.696 20.2984 158.768 21.2257C157.841 22.1529 157.32 23.4105 157.32 24.7218ZM129.302 80.7578C129.302 81.7357 129.592 82.6916 130.135 83.5047C130.679 84.3178 131.451 84.9516 132.354 85.3258C133.258 85.7 134.252 85.7979 135.211 85.6071C136.17 85.4164 137.051 84.9455 137.743 84.254C138.434 83.5625 138.905 82.6815 139.096 81.7224C139.287 80.7633 139.189 79.7691 138.814 78.8657C138.44 77.9622 137.807 77.19 136.993 76.6467C136.18 76.1034 135.224 75.8134 134.247 75.8134C132.935 75.8134 131.678 76.3344 130.75 77.2616C129.823 78.1889 129.302 79.4465 129.302 80.7578ZM129.302 52.7398C129.302 53.7177 129.592 54.6737 130.135 55.4867C130.679 56.2998 131.451 56.9336 132.354 57.3078C133.258 57.682 134.252 57.7799 135.211 57.5892C136.17 57.3984 137.051 56.9275 137.743 56.236C138.434 55.5445 138.905 54.6635 139.096 53.7044C139.287 52.7453 139.189 51.7512 138.814 50.8477C138.44 49.9442 137.807 49.172 136.993 48.6287C136.18 48.0854 135.224 47.7955 134.247 47.7955C132.935 47.7955 131.678 48.3164 130.75 49.2436C129.823 50.1709 129.302 51.4285 129.302 52.7398ZM129.302 24.7218C129.302 25.6997 129.592 26.6557 130.135 27.4688C130.679 28.2819 131.451 28.9156 132.354 29.2898C133.258 29.664 134.252 29.762 135.211 29.5712C136.17 29.3804 137.051 28.9095 137.743 28.218C138.434 27.5265 138.905 26.6455 139.096 25.6864C139.287 24.7273 139.189 23.7332 138.814 22.8297C138.44 21.9263 137.807 21.1541 136.993 20.6108C136.18 20.0675 135.224 19.7775 134.247 19.7775C132.935 19.7775 131.678 20.2984 130.75 21.2257C129.823 22.1529 129.302 23.4105 129.302 24.7218Z" fill="#EAA23A"/>
<path d="M24.7217 75.8134C25.6996 75.8134 26.6555 76.1034 27.4686 76.6467C28.2817 77.19 28.9155 77.9622 29.2897 78.8657C29.6639 79.7691 29.7618 80.7633 29.571 81.7224C29.3803 82.6815 28.9094 83.5625 28.2179 84.254C27.5264 84.9455 26.6454 85.4164 25.6863 85.6071C24.7272 85.7979 23.733 85.7 22.8296 85.3258C21.9261 84.9516 21.1539 84.3178 20.6106 83.5047C20.0673 82.6916 19.7773 81.7357 19.7773 80.7578C19.7773 79.4465 20.2983 78.1889 21.2255 77.2616C22.1528 76.3344 23.4104 75.8134 24.7217 75.8134ZM19.7773 52.7398C19.7773 53.7177 20.0673 54.6737 20.6106 55.4867C21.1539 56.2998 21.9261 56.9336 22.8296 57.3078C23.733 57.682 24.7272 57.7799 25.6863 57.5892C26.6454 57.3984 27.5264 56.9275 28.2179 56.236C28.9094 55.5445 29.3803 54.6635 29.571 53.7044C29.7618 52.7453 29.6639 51.7512 29.2897 50.8477C28.9155 49.9442 28.2817 49.172 27.4686 48.6287C26.6555 48.0854 25.6996 47.7955 24.7217 47.7955C23.4104 47.7955 22.1528 48.3164 21.2255 49.2436C20.2983 50.1709 19.7773 51.4285 19.7773 52.7398ZM29.666 24.7218C29.666 23.7439 29.3761 22.788 28.8328 21.9749C28.2895 21.1618 27.5173 20.5281 26.6138 20.1539C25.7104 19.7796 24.7162 19.6817 23.7571 19.8725C22.798 20.0633 21.917 20.5342 21.2255 21.2257C20.534 21.9171 20.0631 22.7981 19.8724 23.7572C19.6816 24.7164 19.7795 25.7105 20.1537 26.614C20.5279 27.5174 21.1617 28.2896 21.9748 28.8329C22.7879 29.3762 23.7438 29.6662 24.7217 29.6662C26.033 29.6662 27.2906 29.1453 28.2179 28.218C29.1451 27.2908 29.666 26.0332 29.666 24.7218ZM75.8133 80.7578C75.8133 81.7357 76.1033 82.6916 76.6466 83.5047C77.1899 84.3178 77.9621 84.9516 78.8655 85.3258C79.769 85.7 80.7631 85.7979 81.7222 85.6071C82.6814 85.4164 83.5624 84.9455 84.2538 84.254C84.9453 83.5625 85.4162 82.6815 85.607 81.7224C85.7978 80.7633 85.6999 79.7691 85.3256 78.8657C84.9514 77.9622 84.3177 77.19 83.5046 76.6467C82.6915 76.1034 81.7356 75.8134 80.7577 75.8134C79.4463 75.8134 78.1887 76.3344 77.2615 77.2616C76.3342 78.1889 75.8133 79.4465 75.8133 80.7578ZM75.8133 52.7398C75.8133 53.7177 76.1033 54.6737 76.6466 55.4867C77.1899 56.2998 77.9621 56.9336 78.8655 57.3078C79.769 57.682 80.7631 57.7799 81.7222 57.5892C82.6814 57.3984 83.5624 56.9275 84.2538 56.236C84.9453 55.5445 85.4162 54.6635 85.607 53.7044C85.7978 52.7453 85.6999 51.7512 85.3256 50.8477C84.9514 49.9442 84.3177 49.172 83.5046 48.6287C82.6915 48.0854 81.7356 47.7955 80.7577 47.7955C79.4463 47.7955 78.1887 48.3164 77.2615 49.2436C76.3342 50.1709 75.8133 51.4285 75.8133 52.7398ZM75.8133 24.7218C75.8133 25.6997 76.1033 26.6557 76.6466 27.4688C77.1899 28.2819 77.9621 28.9156 78.8655 29.2898C79.769 29.664 80.7631 29.762 81.7222 29.5712C82.6814 29.3804 83.5624 28.9095 84.2538 28.218C84.9453 27.5265 85.4162 26.6455 85.607 25.6864C85.7978 24.7273 85.6999 23.7332 85.3256 22.8297C84.9514 21.9263 84.3177 21.1541 83.5046 20.6108C82.6915 20.0675 81.7356 19.7775 80.7577 19.7775C79.4463 19.7775 78.1887 20.2984 77.2615 21.2257C76.3342 22.1529 75.8133 23.4105 75.8133 24.7218ZM47.7953 80.7578C47.7953 81.7357 48.0853 82.6916 48.6286 83.5047C49.1719 84.3178 49.9441 84.9516 50.8476 85.3258C51.751 85.7 52.7452 85.7979 53.7043 85.6071C54.6634 85.4164 55.5444 84.9455 56.2359 84.254C56.9273 83.5625 57.3982 82.6815 57.589 81.7224C57.7798 80.7633 57.6819 79.7691 57.3077 78.8657C56.9334 77.9622 56.2997 77.19 55.4866 76.6467C54.6735 76.1034 53.7176 75.8134 52.7397 75.8134C51.4284 75.8134 50.1707 76.3344 49.2435 77.2616C48.3162 78.1889 47.7953 79.4465 47.7953 80.7578ZM47.7953 52.7398C47.7953 53.7177 48.0853 54.6737 48.6286 55.4867C49.1719 56.2998 49.9441 56.9336 50.8476 57.3078C51.751 57.682 52.7452 57.7799 53.7043 57.5892C54.6634 57.3984 55.5444 56.9275 56.2359 56.236C56.9273 55.5445 57.3982 54.6635 57.589 53.7044C57.7798 52.7453 57.6819 51.7512 57.3077 50.8477C56.9334 49.9442 56.2997 49.172 55.4866 48.6287C54.6735 48.0854 53.7176 47.7955 52.7397 47.7955C51.4284 47.7955 50.1707 48.3164 49.2435 49.2436C48.3162 50.1709 47.7953 51.4285 47.7953 52.7398ZM47.7953 24.7218C47.7953 25.6997 48.0853 26.6557 48.6286 27.4688C49.1719 28.2819 49.9441 28.9156 50.8476 29.2898C51.751 29.664 52.7452 29.762 53.7043 29.5712C54.6634 29.3804 55.5444 28.9095 56.2359 28.218C56.9273 27.5265 57.3982 26.6455 57.589 25.6864C57.7798 24.7273 57.6819 23.7332 57.3077 22.8297C56.9334 21.9263 56.2997 21.1541 55.4866 20.6108C54.6735 20.0675 53.7176 19.7775 52.7397 19.7775C51.4284 19.7775 50.1707 20.2984 49.2435 21.2257C48.3162 22.1529 47.7953 23.4105 47.7953 24.7218Z" fill="#9E6008"/>
<path d="M24.7217 157.32C25.6996 157.32 26.6555 157.61 27.4686 158.154C28.2817 158.697 28.9155 159.469 29.2897 160.373C29.6639 161.276 29.7618 162.27 29.571 163.229C29.3803 164.188 28.9094 165.069 28.2179 165.761C27.5264 166.452 26.6454 166.923 25.6863 167.114C24.7272 167.305 23.733 167.207 22.8296 166.833C21.9261 166.458 21.1539 165.825 20.6106 165.012C20.0673 164.198 19.7773 163.243 19.7773 162.265C19.7773 160.953 20.2983 159.696 21.2255 158.768C22.1528 157.841 23.4104 157.32 24.7217 157.32ZM19.7773 134.247C19.7773 135.225 20.0673 136.18 20.6106 136.994C21.1539 137.807 21.9261 138.44 22.8296 138.815C23.733 139.189 24.7272 139.287 25.6863 139.096C26.6454 138.905 27.5264 138.434 28.2179 137.743C28.9094 137.051 29.3803 136.17 29.571 135.211C29.7618 134.252 29.6639 133.258 29.2897 132.355C28.9155 131.451 28.2817 130.679 27.4686 130.136C26.6555 129.592 25.6996 129.302 24.7217 129.302C23.4104 129.302 22.1528 129.823 21.2255 130.75C20.2983 131.678 19.7773 132.935 19.7773 134.247ZM29.666 106.229C29.666 105.251 29.3761 104.295 28.8328 103.482C28.2895 102.669 27.5173 102.035 26.6138 101.661C25.7104 101.286 24.7162 101.189 23.7571 101.379C22.798 101.57 21.917 102.041 21.2255 102.732C20.534 103.424 20.0631 104.305 19.8724 105.264C19.6816 106.223 19.7795 107.217 20.1537 108.121C20.5279 109.024 21.1617 109.796 21.9748 110.34C22.7879 110.883 23.7438 111.173 24.7217 111.173C26.033 111.173 27.2906 110.652 28.2179 109.725C29.1451 108.798 29.666 107.54 29.666 106.229ZM75.8133 162.265C75.8133 163.243 76.1033 164.198 76.6466 165.012C77.1899 165.825 77.9621 166.458 78.8655 166.833C79.769 167.207 80.7631 167.305 81.7222 167.114C82.6814 166.923 83.5624 166.452 84.2538 165.761C84.9453 165.069 85.4162 164.188 85.607 163.229C85.7978 162.27 85.6999 161.276 85.3256 160.373C84.9514 159.469 84.3177 158.697 83.5046 158.154C82.6915 157.61 81.7356 157.32 80.7577 157.32C79.4463 157.32 78.1887 157.841 77.2615 158.768C76.3342 159.696 75.8133 160.953 75.8133 162.265ZM75.8133 134.247C75.8133 135.225 76.1033 136.18 76.6466 136.994C77.1899 137.807 77.9621 138.44 78.8655 138.815C79.769 139.189 80.7631 139.287 81.7222 139.096C82.6814 138.905 83.5624 138.434 84.2538 137.743C84.9453 137.051 85.4162 136.17 85.607 135.211C85.7978 134.252 85.6999 133.258 85.3256 132.355C84.9514 131.451 84.3177 130.679 83.5046 130.136C82.6915 129.592 81.7356 129.302 80.7577 129.302C79.4463 129.302 78.1887 129.823 77.2615 130.75C76.3342 131.678 75.8133 132.935 75.8133 134.247ZM75.8133 106.229C75.8133 107.207 76.1033 108.163 76.6466 108.976C77.1899 109.789 77.9621 110.422 78.8655 110.797C79.769 111.171 80.7631 111.269 81.7222 111.078C82.6814 110.887 83.5624 110.416 84.2538 109.725C84.9453 109.033 85.4162 108.152 85.607 107.193C85.7978 106.234 85.6999 105.24 85.3256 104.337C84.9514 103.433 84.3177 102.661 83.5046 102.118C82.6915 101.574 81.7356 101.284 80.7577 101.284C79.4463 101.284 78.1887 101.805 77.2615 102.732C76.3342 103.66 75.8133 104.917 75.8133 106.229ZM47.7953 162.265C47.7953 163.243 48.0853 164.198 48.6286 165.012C49.1719 165.825 49.9441 166.458 50.8476 166.833C51.751 167.207 52.7452 167.305 53.7043 167.114C54.6634 166.923 55.5444 166.452 56.2359 165.761C56.9273 165.069 57.3982 164.188 57.589 163.229C57.7798 162.27 57.6819 161.276 57.3077 160.373C56.9334 159.469 56.2997 158.697 55.4866 158.154C54.6735 157.61 53.7176 157.32 52.7397 157.32C51.4284 157.32 50.1707 157.841 49.2435 158.768C48.3162 159.696 47.7953 160.953 47.7953 162.265ZM47.7953 134.247C47.7953 135.225 48.0853 136.18 48.6286 136.994C49.1719 137.807 49.9441 138.44 50.8476 138.815C51.751 139.189 52.7452 139.287 53.7043 139.096C54.6634 138.905 55.5444 138.434 56.2359 137.743C56.9273 137.051 57.3982 136.17 57.589 135.211C57.7798 134.252 57.6819 133.258 57.3077 132.355C56.9334 131.451 56.2997 130.679 55.4866 130.136C54.6735 129.592 53.7176 129.302 52.7397 129.302C51.4284 129.302 50.1707 129.823 49.2435 130.75C48.3162 131.678 47.7953 132.935 47.7953 134.247ZM47.7953 106.229C47.7953 107.207 48.0853 108.163 48.6286 108.976C49.1719 109.789 49.9441 110.422 50.8476 110.797C51.751 111.171 52.7452 111.269 53.7043 111.078C54.6634 110.887 55.5444 110.416 56.2359 109.725C56.9273 109.033 57.3982 108.152 57.589 107.193C57.7798 106.234 57.6819 105.24 57.3077 104.337C56.9334 103.433 56.2997 102.661 55.4866 102.118C54.6735 101.574 53.7176 101.284 52.7397 101.284C51.4284 101.284 50.1707 101.805 49.2435 102.732C48.3162 103.66 47.7953 104.917 47.7953 106.229Z" fill="#9E6008"/>
<path d="M269.242 157.32C270.22 157.32 271.176 157.61 271.989 158.154C272.802 158.697 273.436 159.469 273.81 160.373C274.184 161.276 274.282 162.27 274.092 163.229C273.901 164.188 273.43 165.069 272.738 165.761C272.047 166.452 271.166 166.923 270.207 167.114C269.248 167.305 268.254 167.207 267.35 166.833C266.447 166.458 265.674 165.825 265.131 165.012C264.588 164.198 264.298 163.243 264.298 162.265C264.298 160.953 264.819 159.696 265.746 158.768C266.673 157.841 267.931 157.32 269.242 157.32ZM264.298 134.247C264.298 135.225 264.588 136.18 265.131 136.994C265.674 137.807 266.447 138.44 267.35 138.815C268.254 139.189 269.248 139.287 270.207 139.096C271.166 138.905 272.047 138.434 272.738 137.743C273.43 137.051 273.901 136.17 274.092 135.211C274.282 134.252 274.184 133.258 273.81 132.355C273.436 131.451 272.802 130.679 271.989 130.136C271.176 129.592 270.22 129.302 269.242 129.302C267.931 129.302 266.673 129.823 265.746 130.75C264.819 131.678 264.298 132.935 264.298 134.247ZM274.187 106.229C274.187 105.251 273.897 104.295 273.353 103.482C272.81 102.669 272.038 102.035 271.134 101.661C270.231 101.286 269.237 101.189 268.278 101.379C267.318 101.57 266.437 102.041 265.746 102.732C265.055 103.424 264.584 104.305 264.393 105.264C264.202 106.223 264.3 107.217 264.674 108.121C265.048 109.024 265.682 109.796 266.495 110.34C267.308 110.883 268.264 111.173 269.242 111.173C270.554 111.173 271.811 110.652 272.738 109.725C273.666 108.798 274.187 107.54 274.187 106.229ZM320.334 162.265C320.334 163.243 320.624 164.198 321.167 165.012C321.71 165.825 322.483 166.458 323.386 166.833C324.29 167.207 325.284 167.305 326.243 167.114C327.202 166.923 328.083 166.452 328.774 165.761C329.466 165.069 329.937 164.188 330.128 163.229C330.318 162.27 330.22 161.276 329.846 160.373C329.472 159.469 328.838 158.697 328.025 158.154C327.212 157.61 326.256 157.32 325.278 157.32C323.967 157.32 322.709 157.841 321.782 158.768C320.855 159.696 320.334 160.953 320.334 162.265ZM320.334 134.247C320.334 135.225 320.624 136.18 321.167 136.994C321.71 137.807 322.483 138.44 323.386 138.815C324.29 139.189 325.284 139.287 326.243 139.096C327.202 138.905 328.083 138.434 328.774 137.743C329.466 137.051 329.937 136.17 330.128 135.211C330.318 134.252 330.22 133.258 329.846 132.355C329.472 131.451 328.838 130.679 328.025 130.136C327.212 129.592 326.256 129.302 325.278 129.302C323.967 129.302 322.709 129.823 321.782 130.75C320.855 131.678 320.334 132.935 320.334 134.247ZM320.334 106.229C320.334 107.207 320.624 108.163 321.167 108.976C321.71 109.789 322.483 110.422 323.386 110.797C324.29 111.171 325.284 111.269 326.243 111.078C327.202 110.887 328.083 110.416 328.774 109.725C329.466 109.033 329.937 108.152 330.128 107.193C330.318 106.234 330.22 105.24 329.846 104.337C329.472 103.433 328.838 102.661 328.025 102.118C327.212 101.574 326.256 101.284 325.278 101.284C323.967 101.284 322.709 101.805 321.782 102.732C320.855 103.66 320.334 104.917 320.334 106.229ZM292.316 162.265C292.316 163.243 292.606 164.198 293.149 165.012C293.692 165.825 294.465 166.458 295.368 166.833C296.272 167.207 297.266 167.305 298.225 167.114C299.184 166.923 300.065 166.452 300.756 165.761C301.448 165.069 301.919 164.188 302.11 163.229C302.3 162.27 302.202 161.276 301.828 160.373C301.454 159.469 300.82 158.697 300.007 158.154C299.194 157.61 298.238 157.32 297.26 157.32C295.949 157.32 294.691 157.841 293.764 158.768C292.837 159.696 292.316 160.953 292.316 162.265ZM292.316 134.247C292.316 135.225 292.606 136.18 293.149 136.994C293.692 137.807 294.465 138.44 295.368 138.815C296.272 139.189 297.266 139.287 298.225 139.096C299.184 138.905 300.065 138.434 300.756 137.743C301.448 137.051 301.919 136.17 302.11 135.211C302.3 134.252 302.202 133.258 301.828 132.355C301.454 131.451 300.82 130.679 300.007 130.136C299.194 129.592 298.238 129.302 297.26 129.302C295.949 129.302 294.691 129.823 293.764 130.75C292.837 131.678 292.316 132.935 292.316 134.247ZM292.316 106.229C292.316 107.207 292.606 108.163 293.149 108.976C293.692 109.789 294.465 110.422 295.368 110.797C296.272 111.171 297.266 111.269 298.225 111.078C299.184 110.887 300.065 110.416 300.756 109.725C301.448 109.033 301.919 108.152 302.11 107.193C302.3 106.234 302.202 105.24 301.828 104.337C301.454 103.433 300.82 102.661 300.007 102.118C299.194 101.574 298.238 101.284 297.26 101.284C295.949 101.284 294.691 101.805 293.764 102.732C292.837 103.66 292.316 104.917 292.316 106.229Z" fill="#131517"/>
<path d="M269.242 75.8134C270.22 75.8134 271.176 76.1034 271.989 76.6467C272.802 77.19 273.436 77.9622 273.81 78.8657C274.184 79.7691 274.282 80.7633 274.092 81.7224C273.901 82.6815 273.43 83.5625 272.738 84.254C272.047 84.9455 271.166 85.4164 270.207 85.6071C269.248 85.7979 268.254 85.7 267.35 85.3258C266.447 84.9516 265.674 84.3178 265.131 83.5047C264.588 82.6916 264.298 81.7357 264.298 80.7578C264.298 79.4465 264.819 78.1889 265.746 77.2616C266.673 76.3344 267.931 75.8134 269.242 75.8134ZM264.298 52.7398C264.298 53.7177 264.588 54.6737 265.131 55.4867C265.674 56.2998 266.447 56.9336 267.35 57.3078C268.254 57.682 269.248 57.7799 270.207 57.5892C271.166 57.3984 272.047 56.9275 272.738 56.236C273.43 55.5445 273.901 54.6635 274.092 53.7044C274.282 52.7453 274.184 51.7512 273.81 50.8477C273.436 49.9442 272.802 49.172 271.989 48.6287C271.176 48.0854 270.22 47.7955 269.242 47.7955C267.931 47.7955 266.673 48.3164 265.746 49.2436C264.819 50.1709 264.298 51.4285 264.298 52.7398ZM274.187 24.7218C274.187 23.7439 273.897 22.788 273.353 21.9749C272.81 21.1618 272.038 20.5281 271.134 20.1539C270.231 19.7796 269.237 19.6817 268.278 19.8725C267.318 20.0633 266.437 20.5342 265.746 21.2257C265.055 21.9171 264.584 22.7981 264.393 23.7572C264.202 24.7164 264.3 25.7105 264.674 26.614C265.048 27.5174 265.682 28.2896 266.495 28.8329C267.308 29.3762 268.264 29.6662 269.242 29.6662C270.554 29.6662 271.811 29.1453 272.738 28.218C273.666 27.2908 274.187 26.0332 274.187 24.7218ZM320.334 80.7578C320.334 81.7357 320.624 82.6916 321.167 83.5047C321.71 84.3178 322.483 84.9516 323.386 85.3258C324.29 85.7 325.284 85.7979 326.243 85.6071C327.202 85.4164 328.083 84.9455 328.774 84.254C329.466 83.5625 329.937 82.6815 330.128 81.7224C330.318 80.7633 330.22 79.7691 329.846 78.8657C329.472 77.9622 328.838 77.19 328.025 76.6467C327.212 76.1034 326.256 75.8134 325.278 75.8134C323.967 75.8134 322.709 76.3344 321.782 77.2616C320.855 78.1889 320.334 79.4465 320.334 80.7578ZM320.334 52.7398C320.334 53.7177 320.624 54.6737 321.167 55.4867C321.71 56.2998 322.483 56.9336 323.386 57.3078C324.29 57.682 325.284 57.7799 326.243 57.5892C327.202 57.3984 328.083 56.9275 328.774 56.236C329.466 55.5445 329.937 54.6635 330.128 53.7044C330.318 52.7453 330.22 51.7512 329.846 50.8477C329.472 49.9442 328.838 49.172 328.025 48.6287C327.212 48.0854 326.256 47.7955 325.278 47.7955C323.967 47.7955 322.709 48.3164 321.782 49.2436C320.855 50.1709 320.334 51.4285 320.334 52.7398ZM320.334 24.7218C320.334 25.6997 320.624 26.6557 321.167 27.4688C321.71 28.2819 322.483 28.9156 323.386 29.2898C324.29 29.664 325.284 29.762 326.243 29.5712C327.202 29.3804 328.083 28.9095 328.774 28.218C329.466 27.5265 329.937 26.6455 330.128 25.6864C330.318 24.7273 330.22 23.7332 329.846 22.8297C329.472 21.9263 328.838 21.1541 328.025 20.6108C327.212 20.0675 326.256 19.7775 325.278 19.7775C323.967 19.7775 322.709 20.2984 321.782 21.2257C320.855 22.1529 320.334 23.4105 320.334 24.7218ZM292.316 80.7578C292.316 81.7357 292.606 82.6916 293.149 83.5047C293.692 84.3178 294.465 84.9516 295.368 85.3258C296.272 85.7 297.266 85.7979 298.225 85.6071C299.184 85.4164 300.065 84.9455 300.756 84.254C301.448 83.5625 301.919 82.6815 302.11 81.7224C302.3 80.7633 302.202 79.7691 301.828 78.8657C301.454 77.9622 300.82 77.19 300.007 76.6467C299.194 76.1034 298.238 75.8134 297.26 75.8134C295.949 75.8134 294.691 76.3344 293.764 77.2616C292.837 78.1889 292.316 79.4465 292.316 80.7578ZM292.316 52.7398C292.316 53.7177 292.606 54.6737 293.149 55.4867C293.692 56.2998 294.465 56.9336 295.368 57.3078C296.272 57.682 297.266 57.7799 298.225 57.5892C299.184 57.3984 300.065 56.9275 300.756 56.236C301.448 55.5445 301.919 54.6635 302.11 53.7044C302.3 52.7453 302.202 51.7512 301.828 50.8477C301.454 49.9442 300.82 49.172 300.007 48.6287C299.194 48.0854 298.238 47.7955 297.26 47.7955C295.949 47.7955 294.691 48.3164 293.764 49.2436C292.837 50.1709 292.316 51.4285 292.316 52.7398ZM292.316 24.7218C292.316 25.6997 292.606 26.6557 293.149 27.4688C293.692 28.2819 294.465 28.9156 295.368 29.2898C296.272 29.664 297.266 29.762 298.225 29.5712C299.184 29.3804 300.065 28.9095 300.756 28.218C301.448 27.5265 301.919 26.6455 302.11 25.6864C302.3 24.7273 302.202 23.7332 301.828 22.8297C301.454 21.9263 300.82 21.1541 300.007 20.6108C299.194 20.0675 298.238 19.7775 297.26 19.7775C295.949 19.7775 294.691 20.2984 293.764 21.2257C292.837 22.1529 292.316 23.4105 292.316 24.7218Z" fill="#131517"/>
<path d="M187.735 75.8134C188.713 75.8134 189.669 76.1034 190.482 76.6467C191.295 77.19 191.929 77.9622 192.303 78.8657C192.678 79.7691 192.775 80.7633 192.585 81.7224C192.394 82.6815 191.923 83.5625 191.232 84.254C190.54 84.9455 189.659 85.4164 188.7 85.6071C187.741 85.7979 186.747 85.7 185.843 85.3258C184.94 84.9516 184.168 84.3178 183.624 83.5047C183.081 82.6916 182.791 81.7357 182.791 80.7578C182.791 79.4465 183.312 78.1889 184.239 77.2616C185.166 76.3344 186.424 75.8134 187.735 75.8134ZM182.791 52.7398C182.791 53.7177 183.081 54.6737 183.624 55.4867C184.168 56.2998 184.94 56.9336 185.843 57.3078C186.747 57.682 187.741 57.7799 188.7 57.5892C189.659 57.3984 190.54 56.9275 191.232 56.236C191.923 55.5445 192.394 54.6635 192.585 53.7044C192.775 52.7453 192.678 51.7512 192.303 50.8477C191.929 49.9442 191.295 49.172 190.482 48.6287C189.669 48.0854 188.713 47.7955 187.735 47.7955C186.424 47.7955 185.166 48.3164 184.239 49.2436C183.312 50.1709 182.791 51.4285 182.791 52.7398ZM192.68 24.7218C192.68 23.7439 192.39 22.788 191.846 21.9749C191.303 21.1618 190.531 20.5281 189.627 20.1539C188.724 19.7796 187.73 19.6817 186.771 19.8725C185.812 20.0633 184.931 20.5342 184.239 21.2257C183.548 21.9171 183.077 22.7981 182.886 23.7572C182.695 24.7164 182.793 25.7105 183.167 26.614C183.542 27.5174 184.175 28.2896 184.988 28.8329C185.802 29.3762 186.757 29.6662 187.735 29.6662C189.047 29.6662 190.304 29.1453 191.232 28.218C192.159 27.2908 192.68 26.0332 192.68 24.7218ZM238.827 80.7578C238.827 81.7357 239.117 82.6916 239.66 83.5047C240.204 84.3178 240.976 84.9516 241.879 85.3258C242.783 85.7 243.777 85.7979 244.736 85.6071C245.695 85.4164 246.576 84.9455 247.268 84.254C247.959 83.5625 248.43 82.6815 248.621 81.7224C248.811 80.7633 248.714 79.7691 248.339 78.8657C247.965 77.9622 247.331 77.19 246.518 76.6467C245.705 76.1034 244.749 75.8134 243.771 75.8134C242.46 75.8134 241.202 76.3344 240.275 77.2616C239.348 78.1889 238.827 79.4465 238.827 80.7578ZM238.827 52.7398C238.827 53.7177 239.117 54.6737 239.66 55.4867C240.204 56.2998 240.976 56.9336 241.879 57.3078C242.783 57.682 243.777 57.7799 244.736 57.5892C245.695 57.3984 246.576 56.9275 247.268 56.236C247.959 55.5445 248.43 54.6635 248.621 53.7044C248.811 52.7453 248.714 51.7512 248.339 50.8477C247.965 49.9442 247.331 49.172 246.518 48.6287C245.705 48.0854 244.749 47.7955 243.771 47.7955C242.46 47.7955 241.202 48.3164 240.275 49.2436C239.348 50.1709 238.827 51.4285 238.827 52.7398ZM238.827 24.7218C238.827 25.6997 239.117 26.6557 239.66 27.4688C240.204 28.2819 240.976 28.9156 241.879 29.2898C242.783 29.664 243.777 29.762 244.736 29.5712C245.695 29.3804 246.576 28.9095 247.268 28.218C247.959 27.5265 248.43 26.6455 248.621 25.6864C248.811 24.7273 248.714 23.7332 248.339 22.8297C247.965 21.9263 247.331 21.1541 246.518 20.6108C245.705 20.0675 244.749 19.7775 243.771 19.7775C242.46 19.7775 241.202 20.2984 240.275 21.2257C239.348 22.1529 238.827 23.4105 238.827 24.7218ZM210.809 80.7578C210.809 81.7357 211.099 82.6916 211.642 83.5047C212.186 84.3178 212.958 84.9516 213.861 85.3258C214.765 85.7 215.759 85.7979 216.718 85.6071C217.677 85.4164 218.558 84.9455 219.25 84.254C219.941 83.5625 220.412 82.6815 220.603 81.7224C220.793 80.7633 220.696 79.7691 220.321 78.8657C219.947 77.9622 219.313 77.19 218.5 76.6467C217.687 76.1034 216.731 75.8134 215.753 75.8134C214.442 75.8134 213.184 76.3344 212.257 77.2616C211.33 78.1889 210.809 79.4465 210.809 80.7578ZM210.809 52.7398C210.809 53.7177 211.099 54.6737 211.642 55.4867C212.186 56.2998 212.958 56.9336 213.861 57.3078C214.765 57.682 215.759 57.7799 216.718 57.5892C217.677 57.3984 218.558 56.9275 219.25 56.236C219.941 55.5445 220.412 54.6635 220.603 53.7044C220.793 52.7453 220.696 51.7512 220.321 50.8477C219.947 49.9442 219.313 49.172 218.5 48.6287C217.687 48.0854 216.731 47.7955 215.753 47.7955C214.442 47.7955 213.184 48.3164 212.257 49.2436C211.33 50.1709 210.809 51.4285 210.809 52.7398ZM210.809 24.7218C210.809 25.6997 211.099 26.6557 211.642 27.4688C212.186 28.2819 212.958 28.9156 213.861 29.2898C214.765 29.664 215.759 29.762 216.718 29.5712C217.677 29.3804 218.558 28.9095 219.25 28.218C219.941 27.5265 220.412 26.6455 220.603 25.6864C220.793 24.7273 220.696 23.7332 220.321 22.8297C219.947 21.9263 219.313 21.1541 218.5 20.6108C217.687 20.0675 216.731 19.7775 215.753 19.7775C214.442 19.7775 213.184 20.2984 212.257 21.2257C211.33 22.1529 210.809 23.4105 210.809 24.7218Z" fill="#131517"/>
<path d="M187.735 157.32C188.713 157.32 189.669 157.61 190.482 158.154C191.295 158.697 191.929 159.469 192.303 160.373C192.678 161.276 192.775 162.27 192.585 163.229C192.394 164.188 191.923 165.069 191.232 165.761C190.54 166.452 189.659 166.923 188.7 167.114C187.741 167.305 186.747 167.207 185.843 166.833C184.94 166.458 184.168 165.825 183.624 165.012C183.081 164.198 182.791 163.243 182.791 162.265C182.791 160.953 183.312 159.696 184.239 158.768C185.166 157.841 186.424 157.32 187.735 157.32ZM182.791 134.247C182.791 135.225 183.081 136.18 183.624 136.994C184.168 137.807 184.94 138.44 185.843 138.815C186.747 139.189 187.741 139.287 188.7 139.096C189.659 138.905 190.54 138.434 191.232 137.743C191.923 137.051 192.394 136.17 192.585 135.211C192.775 134.252 192.678 133.258 192.303 132.355C191.929 131.451 191.295 130.679 190.482 130.136C189.669 129.592 188.713 129.302 187.735 129.302C186.424 129.302 185.166 129.823 184.239 130.75C183.312 131.678 182.791 132.935 182.791 134.247ZM192.68 106.229C192.68 105.251 192.39 104.295 191.846 103.482C191.303 102.669 190.531 102.035 189.627 101.661C188.724 101.286 187.73 101.189 186.771 101.379C185.812 101.57 184.931 102.041 184.239 102.732C183.548 103.424 183.077 104.305 182.886 105.264C182.695 106.223 182.793 107.217 183.167 108.121C183.542 109.024 184.175 109.796 184.988 110.34C185.802 110.883 186.757 111.173 187.735 111.173C189.047 111.173 190.304 110.652 191.232 109.725C192.159 108.798 192.68 107.54 192.68 106.229ZM238.827 162.265C238.827 163.243 239.117 164.198 239.66 165.012C240.204 165.825 240.976 166.458 241.879 166.833C242.783 167.207 243.777 167.305 244.736 167.114C245.695 166.923 246.576 166.452 247.268 165.761C247.959 165.069 248.43 164.188 248.621 163.229C248.811 162.27 248.714 161.276 248.339 160.373C247.965 159.469 247.331 158.697 246.518 158.154C245.705 157.61 244.749 157.32 243.771 157.32C242.46 157.32 241.202 157.841 240.275 158.768C239.348 159.696 238.827 160.953 238.827 162.265ZM238.827 134.247C238.827 135.225 239.117 136.18 239.66 136.994C240.204 137.807 240.976 138.44 241.879 138.815C242.783 139.189 243.777 139.287 244.736 139.096C245.695 138.905 246.576 138.434 247.268 137.743C247.959 137.051 248.43 136.17 248.621 135.211C248.811 134.252 248.714 133.258 248.339 132.355C247.965 131.451 247.331 130.679 246.518 130.136C245.705 129.592 244.749 129.302 243.771 129.302C242.46 129.302 241.202 129.823 240.275 130.75C239.348 131.678 238.827 132.935 238.827 134.247ZM238.827 106.229C238.827 107.207 239.117 108.163 239.66 108.976C240.204 109.789 240.976 110.422 241.879 110.797C242.783 111.171 243.777 111.269 244.736 111.078C245.695 110.887 246.576 110.416 247.268 109.725C247.959 109.033 248.43 108.152 248.621 107.193C248.811 106.234 248.714 105.24 248.339 104.337C247.965 103.433 247.331 102.661 246.518 102.118C245.705 101.574 244.749 101.284 243.771 101.284C242.46 101.284 241.202 101.805 240.275 102.732C239.348 103.66 238.827 104.917 238.827 106.229ZM210.809 162.265C210.809 163.243 211.099 164.198 211.642 165.012C212.186 165.825 212.958 166.458 213.861 166.833C214.765 167.207 215.759 167.305 216.718 167.114C217.677 166.923 218.558 166.452 219.25 165.761C219.941 165.069 220.412 164.188 220.603 163.229C220.793 162.27 220.696 161.276 220.321 160.373C219.947 159.469 219.313 158.697 218.5 158.154C217.687 157.61 216.731 157.32 215.753 157.32C214.442 157.32 213.184 157.841 212.257 158.768C211.33 159.696 210.809 160.953 210.809 162.265ZM210.809 134.247C210.809 135.225 211.099 136.18 211.642 136.994C212.186 137.807 212.958 138.44 213.861 138.815C214.765 139.189 215.759 139.287 216.718 139.096C217.677 138.905 218.558 138.434 219.25 137.743C219.941 137.051 220.412 136.17 220.603 135.211C220.793 134.252 220.696 133.258 220.321 132.355C219.947 131.451 219.313 130.679 218.5 130.136C217.687 129.592 216.731 129.302 215.753 129.302C214.442 129.302 213.184 129.823 212.257 130.75C211.33 131.678 210.809 132.935 210.809 134.247ZM210.809 106.229C210.809 107.207 211.099 108.163 211.642 108.976C212.186 109.789 212.958 110.422 213.861 110.797C214.765 111.171 215.759 111.269 216.718 111.078C217.677 110.887 218.558 110.416 219.25 109.725C219.941 109.033 220.412 108.152 220.603 107.193C220.793 106.234 220.696 105.24 220.321 104.337C219.947 103.433 219.313 102.661 218.5 102.118C217.687 101.574 216.731 101.284 215.753 101.284C214.442 101.284 213.184 101.805 212.257 102.732C211.33 103.66 210.809 104.917 210.809 106.229Z" fill="#131517"/>
</svg>
