<svg width="627" height="627" viewBox="0 0 627 627" fill="none" xmlns="http://www.w3.org/2000/svg">
<path d="M545.301 342.355C542.35 342.355 539.682 343.553 537.752 345.483C535.816 347.413 534.624 350.087 534.624 353.033C534.624 350.087 533.432 347.413 531.496 345.483C529.566 343.553 526.898 342.355 523.946 342.355C526.898 342.355 529.566 341.157 531.496 339.227C533.432 337.297 534.624 334.623 534.624 331.678C534.624 334.623 535.816 337.297 537.752 339.227C539.682 341.157 542.35 342.355 545.301 342.355Z" fill="#F59C0C"/>
<path d="M132.452 235.356C129.531 235.356 126.89 236.542 124.98 238.452C123.063 240.362 121.884 243.009 121.884 245.924C121.884 243.009 120.704 240.362 118.787 238.452C116.877 236.542 114.236 235.356 111.315 235.356C114.236 235.356 116.877 234.17 118.787 232.259C120.704 230.349 121.884 227.702 121.884 224.787C121.884 227.702 123.063 230.349 124.98 232.259C126.89 234.17 129.531 235.356 132.452 235.356Z" fill="#2961A9"/>
<path d="M408.918 301.443C407.05 301.443 405.362 302.201 404.141 303.423C402.915 304.644 402.161 306.336 402.161 308.2C402.161 306.336 401.407 304.644 400.181 303.423C398.96 302.201 397.272 301.443 395.404 301.443C397.272 301.443 398.96 300.685 400.181 299.463C401.407 298.242 402.161 296.55 402.161 294.686C402.161 296.55 402.915 298.242 404.141 299.463C405.362 300.685 407.05 301.443 408.918 301.443Z" fill="#2961A9"/>
<path d="M92.2154 324.258C90.7619 324.258 89.448 324.848 88.4976 325.799C87.5441 326.749 86.9571 328.066 86.9571 329.517C86.9571 328.066 86.3701 326.749 85.4165 325.799C84.4661 324.848 83.1523 324.258 81.6987 324.258C83.1523 324.258 84.4661 323.668 85.4165 322.718C86.3701 321.767 86.9571 320.45 86.9571 319C86.9571 320.45 87.5441 321.767 88.4976 322.718C89.448 323.668 90.7619 324.258 92.2154 324.258Z" fill="#F59C0C"/>
<path d="M494.731 301.443C496.005 301.443 497.037 300.41 497.037 299.136C497.037 297.862 496.005 296.83 494.731 296.83C493.457 296.83 492.424 297.862 492.424 299.136C492.424 300.41 493.457 301.443 494.731 301.443Z" fill="#2961A9"/>
<path d="M534.624 566.453C536.451 566.453 537.932 564.972 537.932 563.145C537.932 561.318 536.451 559.836 534.624 559.836C532.797 559.836 531.315 561.318 531.315 563.145C531.315 564.972 532.797 566.453 534.624 566.453Z" fill="#F59C0C"/>
<path d="M129.382 423.606C132.147 423.606 134.387 421.365 134.387 418.601C134.387 415.837 132.147 413.596 129.382 413.596C126.618 413.596 124.377 415.837 124.377 418.601C124.377 421.365 126.618 423.606 129.382 423.606Z" fill="#2961A9"/>
<path d="M512.128 348.385V570.094C512.128 576.503 506.927 581.704 500.518 581.704H180.683C174.274 581.704 169.083 576.503 169.083 570.094V348.385C169.083 341.975 174.274 336.774 180.683 336.774H500.518C506.927 336.774 512.128 341.975 512.128 348.385Z" fill="white" stroke="#262424" stroke-width="2" stroke-miterlimit="10" stroke-linecap="round" stroke-linejoin="round"/>
<path d="M512.128 348.385V374.474H169.083V348.385C169.083 341.975 174.274 336.774 180.683 336.774H500.518C506.927 336.774 512.128 341.975 512.128 348.385Z" fill="#D86A46" stroke="#262424" stroke-width="2" stroke-miterlimit="10" stroke-linecap="round" stroke-linejoin="round"/>
<path d="M428.114 363.243C432.044 363.243 435.229 360.057 435.229 356.127C435.229 352.197 432.044 349.011 428.114 349.011C424.184 349.011 420.998 352.197 420.998 356.127C420.998 360.057 424.184 363.243 428.114 363.243Z" fill="white" stroke="#914228" stroke-width="2" stroke-miterlimit="10" stroke-linecap="round" stroke-linejoin="round"/>
<path d="M453.58 363.243C457.51 363.243 460.696 360.057 460.696 356.127C460.696 352.197 457.51 349.011 453.58 349.011C449.65 349.011 446.465 352.197 446.465 356.127C446.465 360.057 449.65 363.243 453.58 363.243Z" fill="white" stroke="#914228" stroke-width="2" stroke-miterlimit="10" stroke-linecap="round" stroke-linejoin="round"/>
<path d="M479.047 363.243C482.977 363.243 486.163 360.057 486.163 356.127C486.163 352.197 482.977 349.011 479.047 349.011C475.117 349.011 471.931 352.197 471.931 356.127C471.931 360.057 475.117 363.243 479.047 363.243Z" fill="white" stroke="#914228" stroke-width="2" stroke-miterlimit="10" stroke-linecap="round" stroke-linejoin="round"/>
<path d="M201.796 453.944H194.271C192.488 453.944 191.042 452.498 191.042 450.716V411.981C191.042 410.198 192.488 408.753 194.271 408.753H201.796C203.579 408.753 205.024 410.198 205.024 411.981V450.716C205.024 452.498 203.579 453.944 201.796 453.944Z" fill="#7B61FF"/>
<path d="M224.516 453.943H216.991C215.208 453.943 213.763 452.498 213.763 450.715V431.955C213.763 430.172 215.208 428.727 216.991 428.727H224.516C226.299 428.727 227.744 430.172 227.744 431.955V450.715C227.744 452.498 226.299 453.943 224.516 453.943Z" fill="#7B61FF"/>
<path d="M247.236 453.943H239.711C237.928 453.943 236.483 452.498 236.483 450.715V424.464C236.483 422.682 237.928 421.236 239.711 421.236H247.236C249.019 421.236 250.465 422.682 250.465 424.464V450.715C250.465 452.498 249.019 453.943 247.236 453.943Z" fill="#7B61FF"/>
<path d="M289.411 477.095V543.752C289.411 546.652 287.068 548.995 284.168 548.995H195.289C192.389 548.995 190.046 546.652 190.046 543.752V477.095C190.046 474.195 192.389 471.852 195.289 471.852H284.168C287.068 471.852 289.411 474.195 289.411 477.095Z" stroke="#262424" stroke-width="2" stroke-miterlimit="10" stroke-linecap="round" stroke-linejoin="round"/>
<path d="M289.411 477.095V486.331H190.046V477.095C190.046 474.195 192.389 471.852 195.289 471.852H284.168C287.068 471.852 289.411 474.195 289.411 477.095Z" fill="#D86A46"/>
<path d="M213.763 491.073V544.004" stroke="#262424" stroke-width="2" stroke-miterlimit="10" stroke-linecap="round" stroke-linejoin="round"/>
<path d="M239.729 491.073V544.004" stroke="#262424" stroke-width="2" stroke-miterlimit="10" stroke-linecap="round" stroke-linejoin="round"/>
<path d="M265.694 491.073V544.004" stroke="#262424" stroke-width="2" stroke-miterlimit="10" stroke-linecap="round" stroke-linejoin="round"/>
<path d="M281.923 504.556H197.534" stroke="#262424" stroke-width="2" stroke-miterlimit="10" stroke-linecap="round" stroke-linejoin="round"/>
<path d="M281.923 530.521H197.534" stroke="#262424" stroke-width="2" stroke-miterlimit="10" stroke-linecap="round" stroke-linejoin="round"/>
<path d="M339.464 532.051H304.591C302.379 532.051 300.586 530.258 300.586 528.047V528.003C300.586 525.792 302.379 523.999 304.591 523.999H339.464C341.675 523.999 343.468 525.792 343.468 528.003V528.047C343.468 530.258 341.675 532.051 339.464 532.051Z" fill="#F59C0C"/>
<path d="M326.543 548.995H304.591C302.379 548.995 300.586 547.202 300.586 544.991V544.947C300.586 542.736 302.379 540.943 304.591 540.943H326.543C328.754 540.943 330.547 542.736 330.547 544.947V544.991C330.547 547.202 328.754 548.995 326.543 548.995Z" fill="#F59C0C"/>
<path d="M432.397 449.629H486.757C489.122 449.629 491.033 451.973 491.033 454.872V543.752C491.033 546.652 489.122 548.995 486.757 548.995H432.397C430.032 548.995 428.121 546.652 428.121 543.752V454.872C428.121 451.973 430.032 449.629 432.397 449.629Z" fill="white" stroke="#262424" stroke-width="2" stroke-miterlimit="10" stroke-linecap="round" stroke-linejoin="round"/>
<path d="M437.481 523.999H481.673" stroke="#262424" stroke-width="2" stroke-miterlimit="10" stroke-linecap="round" stroke-linejoin="round"/>
<path d="M437.481 533.518H481.673" stroke="#262424" stroke-width="2" stroke-miterlimit="10" stroke-linecap="round" stroke-linejoin="round"/>
<path d="M459.577 463.151C445.621 463.151 434.299 474.473 434.299 488.429C434.299 502.393 445.621 513.707 459.577 513.707C473.533 513.707 484.855 502.393 484.855 488.429C484.855 474.473 473.533 463.151 459.577 463.151ZM459.577 500.155C453.104 500.155 447.851 494.902 447.851 488.429C447.851 481.956 453.104 476.703 459.577 476.703C466.05 476.703 471.303 481.956 471.303 488.429C471.303 494.902 466.05 500.155 459.577 500.155Z" fill="#7B61FF"/>
<path d="M484.855 488.429H471.303C471.303 481.956 466.05 476.703 459.577 476.703V463.151C473.533 463.151 484.855 474.473 484.855 488.429Z" fill="#B6002D"/>
<path d="M491.166 419.212L491.03 419.264V438.093C491.03 440.993 489.117 443.336 486.753 443.336H432.4C430.036 443.336 428.124 440.993 428.124 438.093V418.161L430.971 417.1L452.868 408.999L468.649 414.841L476.173 412.057L491.03 417.562L491.166 419.212Z" fill="#F59C0C"/>
<path d="M491.03 419.264V438.093C491.03 440.993 489.117 443.336 486.753 443.336H432.4C430.036 443.336 428.124 440.993 428.124 438.093V416.049L430.971 417.1L444.189 421.996L451.712 419.211L471.434 426.514L491.03 419.264Z" fill="#123A6C"/>
<path d="M428.124 414.42V416.049V418.161V438.093C428.124 440.993 430.036 443.336 432.4 443.336H486.753C489.117 443.336 491.03 440.993 491.03 438.093V419.264V417.562V414.42" stroke="#262424" stroke-width="2" stroke-miterlimit="10" stroke-linecap="round" stroke-linejoin="round"/>
<path d="M452.868 410.82C453.874 410.82 454.689 410.005 454.689 408.999C454.689 407.993 453.874 407.178 452.868 407.178C451.862 407.178 451.047 407.993 451.047 408.999C451.047 410.005 451.862 410.82 452.868 410.82Z" fill="#123A6C"/>
<path d="M468.656 416.665C469.662 416.665 470.477 415.85 470.477 414.844C470.477 413.838 469.662 413.023 468.656 413.023C467.65 413.023 466.835 413.838 466.835 414.844C466.835 415.85 467.65 416.665 468.656 416.665Z" fill="#123A6C"/>
<path d="M444.199 423.824C445.205 423.824 446.02 423.008 446.02 422.003C446.02 420.997 445.205 420.182 444.199 420.182C443.193 420.182 442.378 420.997 442.378 422.003C442.378 423.008 443.193 423.824 444.199 423.824Z" fill="white"/>
<path d="M451.713 421.027C452.718 421.027 453.534 420.212 453.534 419.206C453.534 418.2 452.718 417.385 451.713 417.385C450.707 417.385 449.892 418.2 449.892 419.206C449.892 420.212 450.707 421.027 451.713 421.027Z" fill="white"/>
<path d="M471.438 428.335C472.444 428.335 473.259 427.52 473.259 426.514C473.259 425.508 472.444 424.693 471.438 424.693C470.433 424.693 469.617 425.508 469.617 426.514C469.617 427.52 470.433 428.335 471.438 428.335Z" fill="white"/>
<path d="M476.193 413.888C477.199 413.888 478.014 413.072 478.014 412.067C478.014 411.061 477.199 410.246 476.193 410.246C475.187 410.246 474.372 411.061 474.372 412.067C474.372 413.072 475.187 413.888 476.193 413.888Z" fill="#123A6C"/>
<path d="M338.817 399.081L316.626 421.271C315.714 422.183 315.617 423.629 316.399 424.655L369.546 494.4C370.328 495.426 370.23 496.872 369.318 497.785L364.775 502.328C363.768 503.334 363.768 504.966 364.775 505.972L379.738 520.936C380.509 521.706 380.711 522.877 380.245 523.862L377.578 529.492C377.267 530.148 377.248 530.905 377.524 531.576L386.732 553.955C387.13 554.921 388.071 555.552 389.116 555.552C390.678 555.552 391.881 554.172 391.669 552.624L389.698 538.265C389.549 537.179 390.103 536.118 391.079 535.619L399.154 531.495C400.258 530.931 400.804 529.66 400.453 528.47L397.935 519.944C397.667 519.039 397.917 518.06 398.584 517.392L410.274 505.702C411.083 504.893 411.262 503.648 410.713 502.644L400.856 484.612C400.404 483.785 399.537 483.271 398.594 483.271H370.963C370.11 483.271 369.313 482.85 368.833 482.145L362.001 472.115C361.304 471.091 361.433 469.717 362.308 468.842L362.795 468.354C363.589 467.561 364.804 467.372 365.801 467.887L375.021 472.652C376.196 473.259 377.64 472.878 378.363 471.77L390.167 453.67C390.75 452.776 390.722 451.617 390.098 450.752L376.092 431.372C375.455 430.491 374.334 430.105 373.289 430.406L364.797 432.853C363.896 433.113 362.924 432.863 362.261 432.199L359.667 429.605C358.466 428.404 358.735 426.39 360.209 425.547L369.241 420.376C370.399 419.713 370.86 418.277 370.304 417.065L364.698 404.84C364.365 404.114 363.714 403.583 362.935 403.403L341.218 398.392C340.353 398.192 339.445 398.452 338.817 399.081Z" fill="#123A6C"/>
<path d="M136.142 516.323C127.548 529.954 118.821 538.498 118.821 538.498C110.359 517.316 111.542 498.483 116.567 483.02C119.902 472.739 124.924 463.957 129.953 456.965C138.537 445.009 147.09 438.274 147.09 438.274C157.172 461.249 152.327 483.978 144.003 501.956C141.578 507.187 138.87 512.016 136.142 516.323Z" fill="#2961A9"/>
<path d="M136.142 516.323C131.767 494.087 127.59 502.616 121.131 493.358C118.838 490.061 117.425 486.397 116.567 483.02C119.902 472.739 124.924 463.957 129.953 456.965C129.432 461.148 129.018 469.735 132.721 477.31C137.655 487.401 143.055 479.768 144.003 501.956C141.578 507.187 138.87 512.017 136.142 516.323Z" fill="white"/>
<path d="M144.786 446.028C144.786 446.028 131.135 503.485 120.117 532.177" stroke="#262424" stroke-width="2" stroke-miterlimit="10" stroke-linecap="round" stroke-linejoin="round"/>
<path d="M122.502 506.687C121.202 525.719 116.906 539.524 116.906 539.524C96.1916 522.202 86.8469 501.912 83.3991 482.977C81.1006 470.39 81.4016 458.418 82.715 448.307C84.9451 431.027 90.0758 419.206 90.0758 419.206C113.485 437.485 121.202 463.891 122.625 487.3C123.035 494.114 122.926 500.667 122.502 506.687Z" fill="#F59C0C"/>
<path d="M122.502 506.687C105.454 485.973 105.892 497.206 93.9615 491.186C89.7201 489.038 86.1902 486.014 83.3991 482.977C81.1006 470.389 81.4016 458.418 82.715 448.307C84.521 452.959 88.9129 462.139 97.0262 467.954C107.835 475.698 109.176 464.712 122.625 487.3C123.035 494.114 122.926 500.667 122.502 506.687Z" fill="white"/>
<path d="M92.0303 428.58C92.0303 428.58 110.074 496.122 114.707 532.209" stroke="#262424" stroke-width="2" stroke-miterlimit="10" stroke-linecap="round" stroke-linejoin="round"/>
<path d="M151.749 530.986C151.749 566.586 138.574 581.705 138.574 581.705H95.6678C95.6678 581.705 82.4922 566.586 82.4922 530.986H151.749Z" fill="white" stroke="#262424" stroke-width="2" stroke-miterlimit="10" stroke-linecap="round" stroke-linejoin="round"/>
<path d="M178.836 137.26L168.097 148H155.495" stroke="#262424" stroke-width="2" stroke-miterlimit="10" stroke-linecap="round" stroke-linejoin="round"/>
<path d="M151.49 152.004C153.702 152.004 155.495 150.212 155.495 148C155.495 145.789 153.702 143.996 151.49 143.996C149.279 143.996 147.486 145.789 147.486 148C147.486 150.212 149.279 152.004 151.49 152.004Z" fill="#F59C0C"/>
<path d="M95.1381 142.801H128.506C131.377 142.801 133.705 145.129 133.705 148V148C133.705 150.871 131.377 153.199 128.506 153.199H95.1381C92.2667 153.199 89.939 150.871 89.939 148V148C89.939 145.129 92.2667 142.801 95.1381 142.801Z" fill="#2961A9"/>
<path d="M425.217 62.96C373.665 62.96 331.844 104.781 331.844 156.334C331.844 207.916 373.665 249.708 425.217 249.708C476.77 249.708 518.591 207.916 518.591 156.334C518.591 104.781 476.77 62.96 425.217 62.96ZM425.217 199.648C401.307 199.648 381.903 180.245 381.903 156.334C381.903 132.423 401.307 113.02 425.217 113.02C449.128 113.02 468.531 132.423 468.531 156.334C468.531 180.245 449.128 199.648 425.217 199.648Z" fill="white" stroke="#262424" stroke-width="2" stroke-miterlimit="10" stroke-linecap="round" stroke-linejoin="round"/>
<path d="M471.561 153.199C470.012 130.08 451.471 111.539 428.352 109.99V66.1484C475.627 67.7685 513.783 105.924 515.403 153.199H471.561Z" fill="#B6002D"/>
<path d="M452.589 61.2338L463.328 50.4941H475.93" stroke="#262424" stroke-width="2" stroke-miterlimit="10" stroke-linecap="round" stroke-linejoin="round"/>
<path d="M479.935 54.4985C482.146 54.4985 483.939 52.7058 483.939 50.4943C483.939 48.2829 482.146 46.4902 479.935 46.4902C477.723 46.4902 475.93 48.2829 475.93 50.4943C475.93 52.7058 477.723 54.4985 479.935 54.4985Z" fill="#F59C0C"/>
<path d="M536.287 55.6937H502.919C500.048 55.6937 497.72 53.3659 497.72 50.4945V50.4945C497.72 47.6231 500.048 45.2954 502.919 45.2954H536.287C539.158 45.2954 541.486 47.6231 541.486 50.4945V50.4945C541.486 53.3659 539.158 55.6937 536.287 55.6937Z" fill="#2961A9"/>
<path d="M452.589 251.434L463.328 262.173H475.93" stroke="#262424" stroke-width="2" stroke-miterlimit="10" stroke-linecap="round" stroke-linejoin="round"/>
<path d="M479.935 266.177C482.146 266.177 483.939 264.384 483.939 262.173C483.939 259.962 482.146 258.169 479.935 258.169C477.723 258.169 475.93 259.962 475.93 262.173C475.93 264.384 477.723 266.177 479.935 266.177Z" fill="#F59C0C"/>
<path d="M536.287 256.974H502.919C500.048 256.974 497.72 259.302 497.72 262.173V262.173C497.72 265.045 500.048 267.372 502.919 267.372H536.287C539.158 267.372 541.486 265.045 541.486 262.173V262.173C541.486 259.302 539.158 256.974 536.287 256.974Z" fill="#2961A9"/>
<path d="M209.939 175.183V191.088L207.118 188.266L189.875 205.509L179.603 195.236L178.558 194.191L167.23 205.509L156.958 195.236L168.285 183.919L178.558 173.646L189.875 184.964L196.845 177.994L194.034 175.183H209.939Z" fill="#F59C0C"/>
<path d="M214.846 96.7506L214.71 96.8029V115.529C214.71 118.413 212.808 120.744 210.457 120.744H156.399C154.048 120.744 152.146 118.413 152.146 115.529V95.7056L154.978 94.6502L176.756 86.5933L192.452 92.4035L199.934 89.6342L214.71 95.11L214.846 96.7506Z" fill="#F59C0C"/>
<path d="M214.71 96.8032V115.53C214.71 118.414 212.808 120.744 210.457 120.744H156.399C154.048 120.744 152.146 118.414 152.146 115.53V93.6055L154.978 94.6505L168.124 99.5202L175.606 96.7509L195.221 104.014L214.71 96.8032Z" fill="#123A6C"/>
<path d="M152.146 91.9854V93.6051V95.7056V115.529C152.146 118.413 154.048 120.744 156.399 120.744H210.457C212.808 120.744 214.71 118.413 214.71 115.529V96.8028V95.1099V91.9854" stroke="#262424" stroke-width="2" stroke-miterlimit="10" stroke-linecap="round" stroke-linejoin="round"/>
<path d="M176.756 88.4045C177.756 88.4045 178.567 87.5937 178.567 86.5934C178.567 85.5931 177.756 84.7822 176.756 84.7822C175.756 84.7822 174.945 85.5931 174.945 86.5934C174.945 87.5937 175.756 88.4045 176.756 88.4045Z" fill="#123A6C"/>
<path d="M192.458 94.218C193.458 94.218 194.269 93.4071 194.269 92.4069C194.269 91.4066 193.458 90.5957 192.458 90.5957C191.458 90.5957 190.647 91.4066 190.647 92.4069C190.647 93.4071 191.458 94.218 192.458 94.218Z" fill="#123A6C"/>
<path d="M168.134 101.338C169.134 101.338 169.945 100.527 169.945 99.527C169.945 98.5267 169.134 97.7158 168.134 97.7158C167.134 97.7158 166.323 98.5267 166.323 99.527C166.323 100.527 167.134 101.338 168.134 101.338Z" fill="white"/>
<path d="M175.607 98.5559C176.607 98.5559 177.418 97.745 177.418 96.7448C177.418 95.7445 176.607 94.9336 175.607 94.9336C174.607 94.9336 173.796 95.7445 173.796 96.7448C173.796 97.745 174.607 98.5559 175.607 98.5559Z" fill="white"/>
<path d="M195.225 105.824C196.226 105.824 197.036 105.014 197.036 104.013C197.036 103.013 196.226 102.202 195.225 102.202C194.225 102.202 193.414 103.013 193.414 104.013C193.414 105.014 194.225 105.824 195.225 105.824Z" fill="white"/>
<path d="M199.954 91.4553C200.954 91.4553 201.765 90.6445 201.765 89.6442C201.765 88.6439 200.954 87.833 199.954 87.833C198.954 87.833 198.143 88.6439 198.143 89.6442C198.143 90.6445 198.954 91.4553 199.954 91.4553Z" fill="#123A6C"/>
<path d="M253.267 256.069C252.881 257.306 252.493 258.444 252.103 259.482C251.622 260.777 251.12 262.033 250.614 263.232C247.643 270.219 240.422 274.412 232.878 273.501C231.971 273.393 231.082 273.225 230.228 272.98C220.992 270.478 215.095 261.071 217.219 251.432L219.487 235.356C219.487 235.356 236.723 168.685 240.408 159.878C244.226 150.752 254.941 144.775 254.941 144.775C265.837 155.141 267.649 169.683 264.264 196.258C263.027 205.965 258.593 239.088 253.267 256.069Z" fill="#F59C0C"/>
<path d="M253.268 256.069C252.881 257.306 252.493 258.443 252.103 259.482C251.622 260.777 251.12 262.032 250.614 263.232C247.643 270.219 240.463 274.578 232.92 273.667C232.012 273.559 231.123 273.39 230.269 273.146C229.486 270.394 229.428 267.234 230.344 264.301C232.858 256.252 241.419 251.766 249.479 254.283C250.855 254.713 252.123 255.317 253.268 256.069Z" fill="white"/>
<path d="M314.594 293.907L308.795 323.398C307.114 331.943 299.623 338.105 290.914 338.105H227.507C215.75 338.105 206.607 327.878 207.919 316.195V316.195C208.949 307.021 216.207 299.791 225.384 298.797L272.877 296.494V277.418H314.594V293.907Z" fill="#2961A9"/>
<path d="M301.433 285.754L296.449 312.954C295.597 317.6 291.549 320.974 286.826 320.974H242.829" stroke="#123A6C" stroke-width="2" stroke-miterlimit="10" stroke-linecap="round" stroke-linejoin="round"/>
<path d="M293.043 285.754L290.159 302.385C289.693 305.072 290.882 307.778 293.177 309.252L296.711 311.521" fill="white"/>
<path d="M293.043 285.754L290.159 302.385C289.693 305.072 290.882 307.778 293.177 309.252L296.711 311.521" stroke="#262424" stroke-width="1.56824" stroke-miterlimit="10" stroke-linecap="round" stroke-linejoin="round"/>
<path d="M248.437 407.332L265.158 441.985L278.34 434.809L264.655 398.25L248.437 407.332Z" fill="white" stroke="#262424" stroke-width="2" stroke-miterlimit="10" stroke-linecap="round" stroke-linejoin="round"/>
<path d="M272.778 515.855L278.283 519.641L325.066 451.599C325.066 451.599 322.344 449.403 317.658 445.87C308.444 438.909 292.803 427.437 274.269 416.555L255.857 435.879C255.857 435.879 262.436 467.851 266.129 494.814C266.513 497.612 266.79 500.475 266.926 503.378C267.186 508.951 269.2 513.395 272.778 515.855Z" fill="#F04B15"/>
<path d="M272.778 515.855L278.283 519.641L325.066 451.599C325.066 451.599 322.344 449.403 317.658 445.87C308.444 438.909 292.803 427.437 274.269 416.555L255.857 435.879C255.857 435.879 262.436 467.851 266.129 494.814C266.513 497.612 266.79 500.475 266.926 503.378C267.186 508.951 269.2 513.395 272.778 515.855Z" stroke="#262424" stroke-width="2" stroke-miterlimit="10" stroke-linecap="round" stroke-linejoin="round"/>
<path d="M268.891 430.504L278.237 474.624" stroke="#262424" stroke-width="2" stroke-miterlimit="10" stroke-linecap="round" stroke-linejoin="round"/>
<path d="M299.182 449.667C301.476 446.331 300.324 441.556 296.61 439.002C292.896 436.448 288.026 437.083 285.732 440.419C283.438 443.756 284.589 448.531 288.303 451.084C292.017 453.638 296.888 453.003 299.182 449.667Z" fill="white"/>
<path d="M272.778 515.855L278.284 519.641L325.066 451.599C325.066 451.599 322.345 449.404 317.659 445.87L292.962 481.79C292.962 481.79 275.381 473.085 266.129 494.814C266.513 497.612 266.791 500.476 266.926 503.378C267.186 508.951 269.2 513.395 272.778 515.855Z" fill="white" stroke="#262424" stroke-width="2" stroke-miterlimit="10" stroke-linecap="round" stroke-linejoin="round"/>
<path d="M246.054 315.118L270.605 404.414L245.573 415.156L202.812 337.844L201.373 335.247L200.58 333.807C196.639 326.667 196.173 318.015 199.732 310.676C201.09 307.859 203.077 305.075 205.938 302.662C206.463 302.214 207.015 301.784 207.604 301.366C208.54 300.696 209.553 300.071 210.65 299.501C216.892 296.212 222.661 295.94 227.573 297.039C236.597 299.074 243.609 306.203 246.054 315.118Z" fill="#2961A9"/>
<path d="M247.296 320.974H233.109L257.98 394.599" stroke="#123A6C" stroke-width="2" stroke-miterlimit="10" stroke-linecap="round" stroke-linejoin="round"/>
<path d="M244.97 407.857L266.481 399.287" stroke="#123A6C" stroke-width="2" stroke-miterlimit="10" stroke-linecap="round" stroke-linejoin="round"/>
<path d="M221.894 308.3C228.299 316.291 227.006 327.961 219.023 334.36C214.285 338.157 208.262 339.247 202.812 337.844L201.373 335.247L200.58 333.807C196.639 326.667 196.173 318.015 199.732 310.675C201.09 307.859 203.077 305.075 205.938 302.661C206.463 302.214 207.015 301.784 207.604 301.366C212.974 301.415 218.28 303.791 221.894 308.3Z" fill="white" stroke="#123A6C" stroke-width="2" stroke-miterlimit="10" stroke-linecap="round" stroke-linejoin="round"/>
<path d="M359.289 293.907L353.49 323.398C351.81 331.943 344.319 338.105 335.61 338.105H298.436C286.679 338.105 277.537 327.878 278.848 316.195V316.195C279.878 307.021 287.136 299.791 296.313 298.797L317.572 296.494V277.418H359.289V293.907Z" fill="#2961A9"/>
<path d="M346.129 285.754L341.144 312.954C340.293 317.6 336.244 320.974 331.522 320.974H312.452" stroke="#123A6C" stroke-width="2" stroke-miterlimit="10" stroke-linecap="round" stroke-linejoin="round"/>
<path d="M337.738 285.754L334.854 302.385C334.388 305.072 335.578 307.778 337.873 309.252L341.407 311.521" stroke="#123A6C" stroke-width="2" stroke-miterlimit="10" stroke-linecap="round" stroke-linejoin="round"/>
<path d="M265.758 407.014L257.132 444.511L271.907 447.156L284.092 410.07L265.758 407.014Z" fill="white" stroke="#262424" stroke-width="2" stroke-miterlimit="10" stroke-linecap="round" stroke-linejoin="round"/>
<path d="M216.88 506.917L218.808 513.314L297.866 489.479C297.866 489.479 297.116 486.064 295.67 480.376C292.832 469.182 287.803 450.449 280.147 430.366L253.695 433.929C253.695 433.929 238.833 462.991 224.851 486.34C223.4 488.764 221.826 491.171 220.117 493.521C216.834 498.033 215.626 502.76 216.88 506.917Z" fill="#F04B15"/>
<path d="M216.88 506.917L218.808 513.314L297.866 489.479C297.866 489.479 297.116 486.064 295.67 480.376C292.832 469.182 287.803 450.449 280.147 430.366L253.695 433.929C253.695 433.929 238.833 462.991 224.851 486.34C223.4 488.764 221.826 491.171 220.117 493.521C216.834 498.033 215.626 502.76 216.88 506.917Z" stroke="#262424" stroke-width="2" stroke-miterlimit="10" stroke-linecap="round" stroke-linejoin="round"/>
<path d="M267.226 437.886L246.926 478.158" stroke="#262424" stroke-width="2" stroke-miterlimit="10" stroke-linecap="round" stroke-linejoin="round"/>
<path d="M278.877 471.783C282.754 470.615 284.842 466.169 283.541 461.854C282.239 457.538 278.042 454.987 274.166 456.156C270.289 457.325 268.201 461.77 269.502 466.086C270.803 470.401 275.001 472.952 278.877 471.783Z" fill="white"/>
<path d="M216.88 506.917L218.808 513.314L297.866 489.479C297.866 489.479 297.116 486.064 295.67 480.376L253.934 492.959C253.934 492.959 245.66 475.171 224.851 486.34C223.4 488.764 221.826 491.171 220.117 493.521C216.834 498.033 215.626 502.76 216.88 506.917Z" fill="white" stroke="#262424" stroke-width="2" stroke-miterlimit="10" stroke-linecap="round" stroke-linejoin="round"/>
<path d="M321.57 333.569L284.88 418.601L258.63 411.328L273.615 324.258L274.117 321.332L274.399 319.713C275.789 311.677 280.836 304.633 288.203 301.133C291.025 299.785 294.317 298.854 298.058 298.76C298.747 298.74 299.448 298.75 300.169 298.792C301.318 298.854 302.499 299.001 303.711 299.241C310.64 300.579 315.311 303.975 318.456 307.904C324.225 315.136 325.238 325.084 321.57 333.569Z" fill="#2961A9"/>
<path d="M259.214 407.934L263.389 383.675" stroke="#123A6C" stroke-width="2" stroke-miterlimit="10" stroke-linecap="round" stroke-linejoin="round"/>
<path d="M323.61 320.974H311.116L280.918 403.73" stroke="#123A6C" stroke-width="2" stroke-miterlimit="10" stroke-linecap="round" stroke-linejoin="round"/>
<path d="M264.246 404.971L285.477 410.743" stroke="#123A6C" stroke-width="2" stroke-miterlimit="10" stroke-linecap="round" stroke-linejoin="round"/>
<path d="M306.982 313.14C306.982 323.381 298.674 331.678 288.444 331.678C282.372 331.678 276.991 328.762 273.615 324.258L274.117 321.332L274.399 319.713C275.789 311.677 280.836 304.633 288.203 301.133C291.025 299.785 294.317 298.854 298.058 298.76C298.747 298.74 299.448 298.75 300.169 298.792C304.328 302.188 306.982 307.361 306.982 313.14Z" fill="white" stroke="#123A6C" stroke-width="2" stroke-miterlimit="10" stroke-linecap="round" stroke-linejoin="round"/>
<path d="M273.615 324.258L271.36 337.358" stroke="#123A6C" stroke-width="1.56824" stroke-miterlimit="10" stroke-linecap="round" stroke-linejoin="round"/>
<path d="M352.573 143.695C352.573 143.695 320.117 126.847 297.848 129.657C275.579 132.467 254.941 144.775 254.941 144.775C240.904 184.586 241.371 299.982 241.371 299.982C241.371 299.982 266.284 306.633 333.621 303.149L334.632 285.974C334.709 284.656 335.813 283.632 337.134 283.654C338.502 283.677 339.59 284.81 339.557 286.178L339.149 303.245C349.327 303.243 361.914 302.069 361.914 302.069C364.182 229.995 352.573 143.695 352.573 143.695Z" fill="#F59C0C"/>
<path d="M253.263 150.123C240.942 193.989 241.371 299.982 241.371 299.982" stroke="#905921" stroke-width="2" stroke-miterlimit="10" stroke-linecap="round" stroke-linejoin="round"/>
<path d="M322.537 137.905C319.224 147.558 311.958 151.913 307.346 153.752C305.628 147.177 301.648 139.046 301.648 139.046C298.316 144.445 296.861 151.363 296.611 154.488C284.321 152.087 282.074 140.616 282.074 140.616C282.669 128.906 291.984 119.419 300.567 119.063C319.536 118.277 322.537 137.905 322.537 137.905Z" fill="white" stroke="#905921" stroke-width="2" stroke-miterlimit="10" stroke-linecap="round" stroke-linejoin="round"/>
<path d="M383.925 251.924C383.925 253.219 383.894 254.421 383.831 255.529C383.758 256.908 383.653 258.256 383.528 259.552C382.776 267.107 377.133 273.262 369.661 274.642C368.762 274.809 367.864 274.914 366.975 274.934C357.414 275.3 348.98 268.079 348.134 258.246L347.277 248.318C347.277 248.318 344.654 170.246 344.988 160.706C345.312 151.175 352.575 143.693 352.575 143.693C366.066 150.339 371.897 165.178 376.589 191.554C378.303 201.189 383.946 234.127 383.925 251.924Z" fill="#F59C0C"/>
<path d="M347.225 246.897C346.88 236.28 344.685 169.483 344.988 160.705C345.202 154.431 348.422 149.044 350.598 146.096" stroke="#905921" stroke-width="2" stroke-miterlimit="10" stroke-linecap="round" stroke-linejoin="round"/>
<path d="M383.925 251.923C383.925 253.219 383.894 254.421 383.831 255.529C383.758 256.908 383.653 258.256 383.528 259.552C382.776 267.107 377.221 273.409 369.75 274.788C368.851 274.955 367.952 275.06 367.064 275.081C365.496 272.688 364.499 269.688 364.499 266.616C364.499 258.183 371.333 251.349 379.776 251.349C381.219 251.349 382.608 251.547 383.925 251.923Z" fill="white"/>
<path d="M383.073 262.176C380.567 269.857 374.021 275.528 366.16 277.391C366.122 277.4 366.084 277.409 366.046 277.418C365.792 277.481 365.528 277.541 365.274 277.605C348.171 281.798 299.664 289.364 299.664 289.364C287.175 281.856 292.162 267.358 292.162 267.358L356.939 237.537C370.633 230.93 383.712 240.191 384.276 253.742C384.396 256.416 384.025 259.257 383.073 262.176Z" fill="#F59C0C"/>
<path d="M353.664 280.092C332.498 284.243 299.664 289.365 299.664 289.365C287.175 281.856 292.162 267.358 292.162 267.358L356.939 237.538" stroke="#905921" stroke-width="2" stroke-miterlimit="10" stroke-linecap="round" stroke-linejoin="round"/>
<path d="M366.16 277.39L366.047 277.417C362.912 273.747 361.574 268.656 362.885 263.641C365.017 255.482 373.357 250.597 381.526 252.732C382.487 252.983 383.413 253.322 384.276 253.742C384.396 256.415 384.025 259.257 383.073 262.176C380.567 269.856 374.021 275.528 366.16 277.39Z" fill="white"/>
<path d="M384.276 253.742C384.396 256.416 384.025 259.257 383.073 262.176C380.567 269.857 374.021 275.528 366.16 277.391L366.046 277.418" stroke="#905921" stroke-width="2" stroke-miterlimit="10" stroke-linecap="round" stroke-linejoin="round"/>
<path d="M295.26 269.555C295.26 269.555 303.499 276.721 301.311 286.242L288.903 295.066L283.178 303.83C282.577 304.749 281.469 305.2 280.397 304.962L268.867 302.398C267.304 302.05 266.409 300.401 266.969 298.9L271.525 286.709L264.346 297.099C263.396 298.475 261.421 298.631 260.267 297.42C259.573 296.691 259.354 295.63 259.703 294.685L265.672 278.551C266.399 276.586 268.088 275.136 270.14 274.714L295.26 269.555Z" fill="white" stroke="#262424" stroke-width="2" stroke-miterlimit="10" stroke-linecap="round" stroke-linejoin="round"/>
<path d="M306.949 285.397C308.235 285.397 309.277 284.355 309.277 283.069C309.277 281.783 308.235 280.741 306.949 280.741C305.664 280.741 304.622 281.783 304.622 283.069C304.622 284.355 305.664 285.397 306.949 285.397Z" fill="white"/>
<path d="M309.88 94.8452L310.449 106.501L311.426 126.439C305.086 131.623 298.614 132.608 291.979 128.367L292.2 119.054L292.535 104.948L309.88 94.8452Z" fill="white" stroke="#262424" stroke-width="2" stroke-miterlimit="10" stroke-linecap="round" stroke-linejoin="round"/>
<path d="M303.89 98.334C304.195 103.596 306.029 121.455 292.072 124.452L292.536 104.948L303.89 98.334Z" fill="#262424"/>
<path d="M274.705 98.938C276.698 108.375 280.698 119.487 291.955 116.475C305.335 112.892 313.094 102.321 311.82 89.3569C310.547 76.3933 303.787 69.7353 288.439 72.8944C287.07 73.1765 285.794 73.5538 284.609 74.0132C275.945 77.3819 272.256 85.2623 273.749 93.8788C274.019 95.4361 274.324 97.1583 274.705 98.938Z" fill="white"/>
<path d="M311.82 89.3569C310.547 76.3933 303.787 69.7353 288.439 72.8944C287.07 73.1765 285.794 73.5538 284.609 74.0132C275.945 77.3819 272.256 85.2623 273.749 93.8788C274.019 95.4361 274.324 97.1583 274.705 98.938C276.698 108.375 280.698 119.487 291.955 116.475C296.579 115.236 300.533 113.163 303.673 110.444" stroke="#262424" stroke-width="2" stroke-miterlimit="10" stroke-linecap="round" stroke-linejoin="round"/>
<path d="M316.133 91.3531C316.133 91.3531 314.499 94.4568 312.305 97.1498L305.487 98.3173L303.499 93.617C303.499 93.617 299.122 93.8936 297.904 91.0515C297.904 91.0515 297.872 90.9901 297.825 90.8517C297.491 89.9138 296.135 85.7151 296.064 78.972C296.064 78.972 286.093 84.7253 280.458 85.9421C278.432 86.381 275.953 85.8517 273.606 84.991C268.907 83.268 264.224 76.4211 264.47 71.4223C264.472 71.3904 264.474 71.3585 264.475 71.3265C264.923 63.9914 269.215 68.5759 269.215 68.5759C269.215 68.5759 269.662 62.6606 273.249 61.8511C276.852 61.0415 279.73 66.1502 279.73 66.1502C279.73 66.1502 289.207 62.4494 300.91 62.9638C315.185 63.5913 312.736 73.6418 312.736 73.6418C312.736 73.6418 323.423 75.844 316.133 91.3531Z" fill="#785113"/>
<path d="M306.899 97.4175C305.726 92.071 308.985 86.6354 314.325 85.4293C315.411 85.1838 316.568 85.1134 317.774 85.3033C324.671 86.3883 324.598 102.182 308.072 102.763L306.899 97.4175Z" fill="white"/>
<path d="M306.899 97.4175C305.726 92.071 308.985 86.6354 314.325 85.4293C315.411 85.1838 316.568 85.1134 317.774 85.3033C324.671 86.3883 324.598 102.182 308.072 102.763" stroke="#262424" stroke-width="2" stroke-miterlimit="10" stroke-linecap="round" stroke-linejoin="round"/>
<path d="M327.045 295.646H297.86C295.094 295.646 292.852 297.888 292.852 300.653C292.852 303.419 295.094 305.661 297.86 305.661H327.045C329.81 305.661 332.052 303.419 332.052 300.653C332.052 297.888 329.81 295.646 327.045 295.646Z" fill="white" stroke="#262424" stroke-width="2" stroke-miterlimit="10" stroke-linecap="round" stroke-linejoin="round"/>
<path d="M292.852 305.661H196.753C193.868 305.661 191.159 303.322 190.702 300.436L179.558 230.058C179.101 227.173 181.07 224.833 183.955 224.833H280.054C282.939 224.833 285.649 227.173 286.106 230.058L297.249 300.436C297.706 303.322 295.737 305.661 292.852 305.661Z" fill="white" stroke="#262424" stroke-width="2" stroke-miterlimit="10" stroke-linecap="round" stroke-linejoin="round"/>
</svg>
