<svg width="715" height="596" viewBox="0 0 715 596" fill="none" xmlns="http://www.w3.org/2000/svg">
<g clip-path="url(#clip0_1_1169)">
<path d="M257.711 274.686C268.41 287.357 305.239 302.029 305.239 302.029C307.801 301.282 310.384 300.441 312.925 299.583C323.721 295.765 334.263 291.262 344.486 286.103C344.486 286.103 352.056 280.28 350.31 270.992C350.31 270.992 346.429 259.093 337.118 259.458C327.806 259.824 285.112 254.118 285.112 254.118C285.112 254.118 274.164 241.415 264.826 243.41C255.488 245.406 247.013 262.01 257.711 274.686Z" fill="#F04B15"/>
<path d="M316.392 289.864C315.114 286.983 317.291 283.223 321.254 281.466C325.218 279.708 329.467 280.618 330.745 283.499C332.022 286.379 329.845 290.139 325.882 291.897C321.919 293.655 317.67 292.744 316.392 289.864Z" fill="white"/>
<path d="M321.856 293.846C323.396 293.836 324.918 293.504 326.324 292.872C328.356 292.007 330.065 290.526 331.21 288.638C332.3 286.748 332.485 284.768 331.739 283.059C330.993 281.349 329.389 280.153 327.255 279.698C325.09 279.285 322.85 279.561 320.85 280.487C316.361 282.477 313.936 286.875 315.45 290.284C316.435 292.575 318.949 293.846 321.856 293.846ZM325.323 281.63C325.818 281.629 326.311 281.68 326.795 281.783C327.441 281.843 328.059 282.075 328.586 282.454C329.113 282.832 329.529 283.345 329.792 283.938C330.055 284.531 330.155 285.184 330.081 285.829C330.007 286.473 329.763 287.087 329.373 287.605C328.451 289.099 327.085 290.267 325.466 290.945C322.041 292.464 318.409 291.792 317.372 289.447C316.334 287.103 318.272 283.964 321.697 282.445C322.833 281.926 324.064 281.649 325.312 281.63H325.323Z" fill="#262424"/>
<path d="M338.917 273.516C339.198 273.516 339.467 273.404 339.666 273.206C339.865 273.007 339.976 272.738 339.976 272.457C339.976 272.177 339.865 271.907 339.666 271.709C339.467 271.51 339.198 271.399 338.917 271.399C338.557 271.399 302.92 271.256 282.925 263.333C282.796 263.28 282.657 263.254 282.518 263.256C282.378 263.258 282.24 263.287 282.112 263.342C281.984 263.397 281.867 263.477 281.77 263.577C281.673 263.677 281.596 263.796 281.545 263.925C281.494 264.055 281.469 264.194 281.471 264.333C281.474 264.473 281.504 264.611 281.56 264.739C281.616 264.867 281.696 264.982 281.797 265.079C281.898 265.175 282.017 265.251 282.147 265.301C302.512 273.373 337.435 273.516 338.912 273.516H338.917Z" fill="#262424"/>
<path d="M257.711 274.686C268.41 287.357 305.239 302.029 305.239 302.029C307.801 301.282 310.384 300.441 312.925 299.583C296.07 293.952 272.004 277.301 272.004 277.301C289.32 270.557 285.122 254.118 285.122 254.118C285.122 254.118 274.175 241.415 264.837 243.41C255.498 245.406 247.013 262.01 257.711 274.686Z" fill="white"/>
<path d="M305.238 303.093C305.339 303.093 305.439 303.078 305.535 303.05C308.034 302.325 310.638 301.494 313.274 300.589C313.484 300.518 313.667 300.383 313.796 300.204C313.925 300.024 313.995 299.808 313.995 299.586C313.995 299.365 313.925 299.149 313.796 298.969C313.667 298.789 313.484 298.654 313.274 298.583C299.23 293.888 279.855 281.291 274.217 277.518C290.098 270.108 286.207 254.028 286.16 253.859C286.12 253.7 286.044 253.554 285.937 253.43C285.472 252.901 274.471 240.277 264.63 242.378C259.627 243.437 255.011 248.158 252.873 254.393C250.363 261.708 251.814 269.356 256.917 275.374C267.663 288.077 303.349 302.415 304.863 303.019C304.982 303.066 305.11 303.091 305.238 303.093ZM309.68 299.552C308.187 300.039 306.71 300.494 305.27 300.917C301.565 299.409 268.362 285.695 258.495 274.008C256.266 271.458 254.753 268.363 254.111 265.038C253.468 261.714 253.719 258.278 254.837 255.081C256.711 249.624 260.803 245.353 265.027 244.453C273.058 242.738 282.735 253.086 284.122 254.626C284.566 256.68 286.88 270.367 271.591 276.327C271.412 276.396 271.255 276.514 271.138 276.666C271.02 276.818 270.946 276.999 270.924 277.19C270.902 277.381 270.932 277.575 271.011 277.75C271.09 277.925 271.216 278.075 271.374 278.184C271.628 278.333 293.158 293.163 309.68 299.552Z" fill="#262424"/>
<path d="M361.861 271.563L344.719 277.819C344.719 277.819 335.042 274.829 337.801 263.624L354.857 254.351L361.861 271.563Z" fill="white"/>
<path d="M344.719 278.878C344.844 278.878 344.968 278.857 345.085 278.814L362.226 272.558C362.36 272.509 362.482 272.434 362.586 272.337C362.69 272.24 362.773 272.123 362.831 271.993C362.889 271.864 362.92 271.723 362.922 271.581C362.925 271.439 362.899 271.298 362.845 271.166L355.842 253.954C355.785 253.816 355.7 253.691 355.593 253.588C355.485 253.485 355.357 253.406 355.216 253.356C355.076 253.306 354.926 253.286 354.778 253.298C354.629 253.31 354.485 253.353 354.354 253.424L337.298 262.697C337.167 262.767 337.052 262.863 336.961 262.98C336.87 263.097 336.804 263.231 336.768 263.375C333.798 275.411 344.291 278.804 344.402 278.835C344.505 278.865 344.612 278.88 344.719 278.878ZM360.468 270.938L344.714 276.692C343.174 276.094 336.811 273.055 338.727 264.322L354.322 255.854L360.468 270.938Z" fill="#262424"/>
<path d="M347.721 244.924C347.721 244.924 349.129 266.445 365.72 277.385L442.654 240.335C442.654 240.335 527.354 276.681 556.295 288.675C585.236 300.669 660.052 260.093 603.938 229.395C603.938 229.395 500.71 198.426 456.809 186.618C446.264 183.776 439.149 182.045 437.715 182.114C435.846 182.204 429.192 186.248 420.282 192.244C393.893 210.007 347.721 244.924 347.721 244.924Z" fill="#2961A9"/>
<path d="M420.282 192.244C424.242 195.129 429.874 196.934 436.126 196.934C445.809 196.934 454.014 192.599 456.809 186.618C446.264 183.776 439.149 182.045 437.715 182.114C435.846 182.204 429.192 186.248 420.282 192.244Z" fill="white"/>
<path d="M364.656 258.315C364.841 258.318 365.023 258.272 365.185 258.182L439.938 216.787L562.06 257.013C562.326 257.1 562.617 257.079 562.868 256.952C563.118 256.825 563.308 256.605 563.396 256.338C563.484 256.071 563.462 255.78 563.336 255.53C563.209 255.279 562.988 255.089 562.721 255.001L440.16 214.633C440.022 214.587 439.876 214.571 439.731 214.585C439.586 214.598 439.446 214.642 439.319 214.712L364.147 256.335C363.945 256.45 363.786 256.628 363.695 256.842C363.604 257.056 363.586 257.294 363.644 257.519C363.702 257.745 363.832 257.945 364.015 258.088C364.198 258.232 364.423 258.312 364.656 258.315Z" fill="#123A6C"/>
<path d="M441.828 237.53H441.934C442.213 237.503 442.47 237.367 442.649 237.15C442.828 236.934 442.913 236.655 442.887 236.376L439.668 203.322C439.654 203.183 439.614 203.048 439.548 202.925C439.482 202.802 439.393 202.693 439.285 202.604C439.177 202.515 439.053 202.449 438.919 202.408C438.785 202.367 438.645 202.353 438.506 202.367C438.367 202.38 438.232 202.421 438.109 202.487C437.985 202.553 437.876 202.642 437.788 202.75C437.699 202.858 437.632 202.982 437.592 203.116C437.551 203.249 437.537 203.39 437.55 203.529L440.769 236.583C440.797 236.844 440.92 237.085 441.116 237.26C441.312 237.435 441.565 237.531 441.828 237.53Z" fill="#123A6C"/>
<path d="M369.245 269.8C369.473 269.802 369.696 269.729 369.879 269.593C370.063 269.458 370.198 269.267 370.264 269.048C370.33 268.83 370.324 268.596 370.246 268.382C370.168 268.167 370.023 267.983 369.833 267.858C358.901 260.628 356.381 244.569 356.355 244.416C356.314 244.135 356.162 243.882 355.935 243.713C355.707 243.544 355.421 243.472 355.14 243.513C354.859 243.555 354.606 243.706 354.437 243.934C354.268 244.162 354.196 244.447 354.238 244.728C354.343 245.427 356.911 261.866 368.642 269.605C368.818 269.73 369.029 269.798 369.245 269.8Z" fill="#123A6C"/>
<path d="M424.48 595.311C441.065 595.131 475.83 576.077 475.83 576.077C476.888 573.626 477.894 571.112 478.836 568.593C482.766 557.838 486.005 546.844 488.535 535.676C488.535 535.676 488.884 526.149 480.594 521.56C480.594 521.56 468.948 516.977 463.299 524.387C457.651 531.797 426.068 561.082 426.068 561.082C426.068 561.082 409.303 561.437 404.893 569.905C400.484 578.374 407.89 595.486 424.48 595.311Z" fill="#F04B15"/>
<path d="M473.571 559.758C470.536 558.909 469.022 554.837 470.189 550.662C471.357 546.487 474.764 543.791 477.799 544.639C480.834 545.487 482.349 549.56 481.181 553.735C480.014 557.91 476.607 560.606 473.571 559.758Z" fill="white"/>
<path d="M474.665 560.945C477.841 560.945 481.017 558.113 482.177 553.995C482.805 551.882 482.755 549.626 482.034 547.543C481.272 545.5 479.863 544.097 478.058 543.595C476.253 543.092 474.321 543.558 472.611 544.913C470.944 546.344 469.738 548.237 469.147 550.353C468.555 552.468 468.604 554.712 469.286 556.8C470.049 558.843 471.457 560.246 473.262 560.754C473.719 560.881 474.191 560.945 474.665 560.945ZM476.624 545.516C476.913 545.515 477.202 545.555 477.481 545.632C478.089 545.837 478.638 546.184 479.084 546.644C479.53 547.105 479.859 547.665 480.043 548.279C480.609 549.941 480.641 551.738 480.133 553.418C479.128 557.023 476.295 559.394 473.829 558.711C473.221 558.507 472.671 558.16 472.226 557.699C471.78 557.239 471.451 556.678 471.266 556.065C470.737 554.397 470.705 552.611 471.175 550.925C471.645 549.24 472.597 547.728 473.913 546.575C474.672 545.924 475.63 545.551 476.629 545.516H476.624Z" fill="#AA3610"/>
<path d="M436.121 572.377C436.306 572.38 436.489 572.335 436.651 572.245C455.841 561.659 478.186 534.846 479.128 533.708C479.298 533.49 479.377 533.215 479.347 532.941C479.318 532.667 479.183 532.415 478.97 532.239C478.757 532.063 478.485 531.977 478.209 531.999C477.934 532.021 477.679 532.15 477.497 532.358C477.27 532.633 454.464 560.024 435.629 570.392C435.425 570.505 435.264 570.682 435.171 570.896C435.078 571.109 435.058 571.348 435.114 571.574C435.17 571.8 435.299 572.001 435.481 572.146C435.663 572.292 435.888 572.373 436.121 572.377Z" fill="#262424"/>
<path d="M427.302 564.083C427.5 564.084 427.694 564.029 427.863 563.924C446.132 552.508 468.625 527.642 468.852 527.404C468.945 527.299 469.017 527.178 469.063 527.046C469.11 526.914 469.129 526.774 469.121 526.635C469.113 526.495 469.078 526.358 469.018 526.232C468.957 526.106 468.872 525.994 468.768 525.901C468.663 525.807 468.542 525.736 468.41 525.69C468.278 525.643 468.138 525.624 467.998 525.632C467.859 525.639 467.722 525.675 467.596 525.735C467.47 525.796 467.357 525.881 467.264 525.985C467.042 526.234 444.739 550.862 426.73 562.141C426.541 562.266 426.396 562.448 426.318 562.661C426.24 562.874 426.233 563.106 426.297 563.324C426.361 563.541 426.493 563.732 426.674 563.869C426.855 564.006 427.075 564.081 427.302 564.083Z" fill="#262424"/>
<path d="M424.48 595.311C441.066 595.131 475.83 576.077 475.83 576.077C476.888 573.626 477.894 571.112 478.836 568.593C463.76 578.003 435.597 585.958 435.597 585.958C441.42 568.317 426.068 561.082 426.068 561.082C426.068 561.082 409.303 561.437 404.893 569.905C400.484 578.374 407.89 595.486 424.48 595.311Z" fill="white"/>
<path d="M424.232 596.369H424.486C441.145 596.189 474.903 577.786 476.333 577.003C476.542 576.884 476.704 576.697 476.793 576.474C477.852 574.076 478.847 571.546 479.821 568.942C479.899 568.735 479.91 568.509 479.852 568.295C479.795 568.082 479.672 567.891 479.501 567.751C479.33 567.611 479.119 567.528 478.898 567.514C478.678 567.499 478.458 567.555 478.27 567.672C465.708 575.516 443.654 582.428 437.154 584.376C441.542 567.439 426.667 560.177 426.513 560.103C426.364 560.033 426.201 559.998 426.037 560.002C425.327 560.002 408.567 560.473 403.946 569.397C401.58 573.933 402.278 580.512 405.725 586.107C407.641 589.287 410.359 591.909 413.607 593.71C416.854 595.512 420.518 596.428 424.232 596.369ZM424.465 594.252C421.076 594.354 417.721 593.553 414.744 591.931C411.767 590.309 409.275 587.924 407.525 585.022C404.507 580.105 403.819 574.224 405.815 570.397C409.605 563.12 423.745 562.241 425.82 562.151C427.688 563.12 439.716 570.048 434.576 585.63C434.516 585.813 434.506 586.008 434.549 586.195C434.591 586.382 434.684 586.554 434.816 586.693C434.949 586.831 435.117 586.931 435.302 586.982C435.487 587.032 435.682 587.032 435.867 586.98C436.132 586.906 461.277 579.75 476.74 571.054C476.163 572.515 475.576 573.944 474.983 575.325C471.452 577.225 439.748 594.088 424.449 594.258L424.465 594.252Z" fill="#262424"/>
<path d="M488.974 514.241L482.886 531.442C482.886 531.442 474.416 537 467.534 527.737L471.24 508.683L488.974 514.241Z" fill="white"/>
<path d="M476.91 534.136C479.215 534.114 481.474 533.49 483.463 532.326C483.657 532.2 483.804 532.014 483.881 531.797L489.969 514.595C490.017 514.461 490.037 514.318 490.029 514.176C490.02 514.034 489.983 513.895 489.919 513.767C489.855 513.639 489.766 513.526 489.657 513.434C489.549 513.341 489.423 513.272 489.286 513.23L471.552 507.672C471.41 507.628 471.26 507.614 471.112 507.631C470.964 507.649 470.821 507.697 470.694 507.774C470.566 507.85 470.455 507.953 470.37 508.075C470.284 508.197 470.225 508.336 470.197 508.482L466.492 527.536C466.464 527.68 466.467 527.829 466.499 527.972C466.532 528.115 466.594 528.249 466.682 528.367C470.049 532.898 473.786 534.136 476.91 534.136ZM482.013 530.728C480.568 531.538 474.178 534.507 468.662 527.473L472.05 510.049L487.608 514.923L482.013 530.728Z" fill="#262424"/>
<path d="M464.183 505.332C477.947 525.794 500.885 516.267 500.885 516.267C513.945 486.982 543.939 396.649 543.939 396.649L641.344 287.616C641.344 287.616 661.46 245.982 631.111 228.691C600.762 211.399 575.352 248.1 575.352 248.1L509.318 352.66L497.354 371.598L490.88 397.713L464.183 505.332Z" fill="#2961A9"/>
<path d="M553.24 284.165C553.419 284.165 553.594 284.12 553.751 284.034C553.907 283.948 554.039 283.824 554.135 283.673L576.247 248.666C576.289 248.608 582.906 239.139 593.187 232.285C593.302 232.208 593.402 232.108 593.479 231.993C593.557 231.877 593.611 231.747 593.638 231.611C593.665 231.475 593.665 231.334 593.638 231.198C593.611 231.061 593.558 230.932 593.481 230.816C593.403 230.7 593.304 230.601 593.189 230.523C593.073 230.446 592.943 230.392 592.807 230.365C592.67 230.338 592.53 230.337 592.394 230.364C592.257 230.391 592.127 230.445 592.012 230.522C585.249 235.146 579.322 240.886 574.484 247.496L552.351 282.54C552.25 282.7 552.193 282.884 552.187 283.073C552.181 283.262 552.226 283.449 552.316 283.615C552.407 283.781 552.541 283.919 552.703 284.016C552.866 284.113 553.051 284.164 553.24 284.165Z" fill="#123A6C"/>
<path d="M564.373 266.54C564.532 266.543 564.69 266.511 564.835 266.445C564.98 266.378 565.108 266.28 565.21 266.158C565.312 266.035 565.385 265.891 565.423 265.736C565.461 265.582 565.464 265.42 565.432 265.264L563.446 255.785C562.981 253.581 563.381 251.282 564.563 249.365L579.074 225.695C579.215 225.456 579.257 225.171 579.19 224.901C579.123 224.631 578.953 224.398 578.716 224.253C578.479 224.108 578.194 224.062 577.923 224.125C577.652 224.187 577.417 224.354 577.268 224.589L562.721 248.253C561.26 250.625 560.764 253.466 561.334 256.192L563.319 265.672C563.364 265.918 563.495 266.14 563.687 266.298C563.88 266.457 564.123 266.543 564.373 266.54Z" fill="#123A6C"/>
<path d="M490.88 397.713C491.145 397.829 491.409 397.94 491.69 398.041C501.293 401.571 512.865 394.204 517.481 381.586C521.981 369.338 518.323 356.635 509.318 352.681L497.354 371.619L490.88 397.713Z" fill="white"/>
<path d="M495.411 502.331C495.63 502.331 495.842 502.263 496.02 502.137C496.199 502.011 496.333 501.833 496.407 501.627C508.99 466.266 531.875 396.829 533.23 392.632L631.567 275.241C631.75 275.027 631.84 274.749 631.819 274.468C631.797 274.187 631.664 273.927 631.45 273.743C631.236 273.56 630.958 273.47 630.677 273.491C630.396 273.513 630.135 273.646 629.952 273.86L531.488 391.43C531.401 391.533 531.335 391.652 531.292 391.779C531.054 392.505 507.328 464.657 494.421 500.918C494.365 501.077 494.347 501.248 494.37 501.415C494.392 501.582 494.455 501.742 494.552 501.88C494.649 502.018 494.777 502.132 494.927 502.21C495.076 502.289 495.242 502.33 495.411 502.331Z" fill="#123A6C"/>
<path d="M541.821 397.358C542.063 397.358 542.298 397.276 542.486 397.124C542.674 396.972 542.805 396.761 542.856 396.524C542.908 396.288 542.877 396.041 542.768 395.825C542.66 395.609 542.481 395.437 542.261 395.336L523.907 386.958C523.652 386.841 523.361 386.831 523.097 386.929C522.834 387.028 522.621 387.226 522.505 387.482C522.388 387.737 522.378 388.029 522.476 388.292C522.574 388.555 522.773 388.768 523.029 388.884L541.382 397.263C541.52 397.326 541.67 397.358 541.821 397.358Z" fill="#123A6C"/>
<path d="M491.351 510.398C494.474 510.416 497.587 510.06 500.626 509.339C500.888 509.261 501.11 509.084 501.244 508.845C501.379 508.607 501.415 508.326 501.347 508.06C501.278 507.795 501.11 507.567 500.877 507.424C500.643 507.28 500.364 507.233 500.096 507.291C499.916 507.339 481.801 511.922 469.514 500.14C469.311 499.946 469.039 499.84 468.759 499.846C468.478 499.852 468.21 499.969 468.016 500.172C467.822 500.375 467.716 500.647 467.722 500.928C467.728 501.209 467.845 501.476 468.048 501.67C475.459 508.805 484.628 510.398 491.351 510.398Z" fill="#123A6C"/>
<path d="M621.582 84.9897C621.582 84.9897 543.399 124.893 538.635 145.535C533.87 166.177 564.675 172.322 593.261 147.181C621.847 122.04 621.582 84.9897 621.582 84.9897Z" fill="#F59C0C"/>
<path d="M560.879 139.157C564.225 140.581 564.32 146.657 562.642 153.977C560.964 161.297 544.818 161.212 543.055 158.566C541.292 155.919 542.086 145.953 544.024 143.216C545.961 140.48 556.734 137.389 560.879 139.157Z" fill="white"/>
<path d="M549.693 161.26C551.266 161.26 552.836 161.12 554.384 160.842C559.614 159.884 562.917 157.528 563.674 154.204C565.103 147.964 565.85 140.115 561.292 138.172C556.771 136.251 545.384 139.464 543.161 142.592C541.043 145.598 540.075 155.999 542.171 159.143C543.134 160.593 546.279 161.26 549.693 161.26ZM560.461 140.125C562.891 141.184 563.325 146.249 561.61 153.733C560.826 157.152 556.03 158.386 554.002 158.756C549.095 159.656 544.474 158.756 543.944 157.968C542.504 155.808 543.145 146.286 544.897 143.82C546.485 141.581 556.628 138.49 560.471 140.115L560.461 140.125Z" fill="#262424"/>
<path d="M568.544 139.506C572.986 140.247 570.837 150.531 569.603 155.385C568.37 160.238 561.133 162.001 561.398 155.385C561.662 148.769 563.251 138.628 568.544 139.506Z" fill="white"/>
<path d="M564.505 160.767C566.946 160.767 569.799 158.857 570.641 155.644C572.636 147.816 572.827 142.586 571.207 140.109C570.935 139.674 570.573 139.302 570.146 139.017C569.719 138.733 569.236 138.542 568.73 138.458C568.076 138.341 567.405 138.37 566.765 138.543C566.124 138.716 565.53 139.029 565.024 139.458C561.271 142.512 560.514 151.584 560.366 155.337C560.186 159.825 563.012 160.593 563.886 160.72C564.091 160.75 564.298 160.766 564.505 160.767ZM568.38 140.549C568.599 140.583 568.807 140.665 568.99 140.79C569.174 140.914 569.327 141.078 569.439 141.268C570.662 143.147 570.355 148.197 568.592 155.12C568.01 157.406 565.781 158.857 564.182 158.624C562.584 158.391 562.425 156.507 562.472 155.448C562.695 149.869 563.833 143.174 566.353 141.126C566.629 140.889 566.956 140.718 567.308 140.627C567.66 140.535 568.029 140.524 568.386 140.596L568.38 140.549Z" fill="#262424"/>
<path d="M638.168 304.204C638.168 304.204 608.877 253.393 537.232 207.17L579.582 176.117C579.582 176.117 589.465 128.391 621.577 84.9898C621.577 84.9898 649.105 78.0191 664.986 79.4323C680.867 80.8455 703.456 114.72 703.456 114.72C703.456 114.72 688.633 208.234 679.459 239.287C670.285 270.34 638.168 304.204 638.168 304.204Z" fill="#F59C0C"/>
<path d="M643.959 133.451C644.385 133.467 644.81 133.396 645.208 133.244C645.854 132.959 646.41 132.715 650.28 118.869C652.133 112.253 653.858 105.637 653.874 105.552C653.915 105.416 653.928 105.273 653.912 105.131C653.896 104.99 653.852 104.853 653.782 104.729C653.712 104.605 653.618 104.496 653.505 104.409C653.392 104.322 653.263 104.259 653.125 104.224C652.987 104.188 652.843 104.181 652.702 104.202C652.562 104.223 652.426 104.272 652.305 104.347C652.184 104.422 652.079 104.52 651.996 104.636C651.914 104.752 651.856 104.884 651.826 105.023C648.84 116.498 645.23 129.291 644.166 131.344C642.593 131.292 641.054 130.873 639.671 130.122C638.803 129.635 638.258 129.09 638.131 128.587C637.797 126.999 641.227 114.37 644.732 103.091C644.815 102.823 644.789 102.533 644.659 102.284C644.528 102.035 644.304 101.849 644.036 101.765C643.768 101.682 643.477 101.708 643.229 101.839C642.98 101.969 642.793 102.193 642.71 102.461C640.984 108.024 635.394 126.374 636.077 129.1C636.384 130.323 637.437 131.403 639.131 132.228C640.641 132.959 642.283 133.375 643.959 133.451Z" fill="#915921"/>
<path d="M641.344 288.68C641.542 288.68 641.737 288.625 641.905 288.52C642.074 288.415 642.209 288.265 642.297 288.086C642.384 287.908 642.419 287.709 642.399 287.512C642.378 287.314 642.302 287.127 642.18 286.97C641.725 286.388 596.231 228.341 549.969 204.772C549.844 204.704 549.708 204.662 549.567 204.647C549.426 204.633 549.284 204.647 549.148 204.688C549.013 204.73 548.887 204.798 548.778 204.889C548.67 204.98 548.581 205.092 548.516 205.218C548.452 205.344 548.413 205.482 548.403 205.623C548.393 205.765 548.411 205.907 548.456 206.041C548.502 206.175 548.574 206.299 548.668 206.404C548.763 206.51 548.877 206.596 549.005 206.657C594.849 230.009 640.058 287.685 640.502 288.267C640.601 288.396 640.729 288.5 640.875 288.572C641.021 288.643 641.181 288.68 641.344 288.68Z" fill="#905921"/>
<path d="M587.528 150.642C587.745 150.642 587.958 150.575 588.136 150.45C588.314 150.325 588.449 150.148 588.523 149.944C593.917 135.018 603.531 112.65 618.697 90.8488C618.857 90.6178 618.919 90.3328 618.869 90.0564C618.819 89.7799 618.661 89.5347 618.43 89.3747C618.199 89.2147 617.914 89.1529 617.637 89.203C617.361 89.2532 617.116 89.4111 616.956 89.642C601.673 111.629 591.98 134.181 586.543 149.224C586.486 149.383 586.467 149.553 586.489 149.721C586.511 149.888 586.573 150.048 586.669 150.187C586.765 150.326 586.894 150.44 587.043 150.519C587.192 150.598 587.359 150.64 587.528 150.642Z" fill="#905921"/>
<path d="M639.317 88.8271C639.708 94.7868 644.859 99.4128 644.859 99.4128C645.918 96.1418 649.359 90.7166 652.89 86.2442C652.89 86.2442 654.351 94.1835 655.298 100.9C659.2 101.72 674.933 101.625 679.316 92.4315C679.316 92.4315 678.591 72.6733 659.729 71.2601C651.619 70.6885 641.905 78.1832 639.317 88.8271Z" fill="white"/>
<path d="M659.597 102.281C666.135 102.281 676.643 100.529 680.29 92.8971C680.363 92.7418 680.398 92.5711 680.391 92.3995C680.391 92.1931 679.406 71.678 659.83 70.233C650.746 69.5609 640.889 77.9553 638.305 88.5728C638.281 88.6767 638.272 88.7838 638.279 88.8904C638.692 95.21 643.948 100.005 644.171 100.185C644.302 100.302 644.46 100.385 644.63 100.425C644.801 100.466 644.979 100.464 645.149 100.419C645.318 100.374 645.474 100.287 645.602 100.167C645.729 100.047 645.825 99.8966 645.881 99.7301C646.733 97.1525 649.221 92.9288 652.286 88.7845C652.815 91.6479 653.641 96.6391 654.266 101.037C654.296 101.253 654.392 101.454 654.541 101.613C654.69 101.773 654.884 101.882 655.097 101.927C656.582 102.187 658.089 102.306 659.597 102.281ZM678.263 92.2249C674.271 100.016 660.74 100.551 656.256 99.9736C655.319 93.5004 653.964 86.1222 653.954 86.0428C653.917 85.8421 653.824 85.6562 653.684 85.5075C653.545 85.3587 653.365 85.2533 653.167 85.2041C652.969 85.1549 652.761 85.164 652.568 85.2301C652.375 85.2963 652.206 85.4167 652.08 85.577C649.306 89.0915 646.098 93.8709 644.499 97.4807C643.07 95.8558 640.714 92.6483 640.407 88.9168C643.054 78.3311 652.487 71.8103 659.676 72.3449C667.087 72.8742 672.476 76.431 675.669 82.8565C677.09 85.7964 677.962 88.9714 678.241 92.2249H678.263Z" fill="#905921"/>
<path d="M615.315 174.968L607.109 170.909C607.109 170.909 596.522 157.057 594.494 154.591C592.467 152.124 574.203 160.238 573.145 161.646C572.086 163.054 572.88 165.441 574.468 166.055C573.079 167.946 572.142 170.13 571.729 172.44C571.316 174.749 571.438 177.122 572.086 179.377C574.293 187.142 587.877 180.346 587.877 180.346C587.877 180.346 591.493 190.577 595.463 191.636C599.433 192.694 609.931 190.312 609.931 190.312L615.315 174.968Z" fill="white"/>
<path d="M598.189 192.964C603.001 192.964 609.836 191.429 610.185 191.35C610.36 191.31 610.521 191.226 610.654 191.107C610.788 190.987 610.888 190.836 610.947 190.667L616.331 175.318C616.416 175.074 616.409 174.808 616.312 174.569C616.214 174.33 616.033 174.135 615.802 174.021L607.819 170.072C606.469 168.31 597.231 156.247 595.331 153.919C594.839 153.321 594.007 153.04 592.8 153.072C587.459 153.188 573.499 159.423 572.314 161.011C571.972 161.49 571.746 162.042 571.654 162.624C571.562 163.205 571.607 163.8 571.784 164.361C571.995 165.121 572.411 165.807 572.986 166.346C571.744 168.306 570.933 170.507 570.604 172.803C570.276 175.099 570.438 177.439 571.08 179.668C571.291 180.516 571.694 181.304 572.259 181.97C572.823 182.637 573.534 183.164 574.336 183.511C578.401 185.3 584.78 182.892 587.3 181.791C588.412 184.638 591.535 191.683 595.209 192.668C596.186 192.89 597.188 192.989 598.189 192.964ZM609.148 189.413C605.913 190.106 598.618 191.381 595.754 190.619C593.256 189.952 590.217 183.739 588.872 179.997C588.822 179.855 588.743 179.726 588.639 179.618C588.535 179.51 588.409 179.425 588.27 179.368C588.131 179.312 587.982 179.287 587.832 179.293C587.682 179.299 587.535 179.337 587.401 179.404C585.162 180.521 578.603 183.109 575.167 181.574C574.653 181.35 574.197 181.009 573.838 180.578C573.479 180.147 573.225 179.638 573.097 179.091C572.488 177.002 572.368 174.801 572.746 172.658C573.124 170.515 573.991 168.487 575.278 166.733C575.384 166.603 575.458 166.451 575.493 166.288C575.529 166.125 575.525 165.955 575.483 165.794C575.441 165.632 575.361 165.483 575.25 165.358C575.139 165.233 575 165.137 574.844 165.076C574.582 164.954 574.351 164.774 574.167 164.551C573.984 164.327 573.854 164.065 573.785 163.784C573.701 163.537 573.673 163.274 573.705 163.014C573.738 162.755 573.828 162.506 573.971 162.287C575.601 160.641 591.779 154.03 593.69 155.3C595.648 157.692 606.146 171.417 606.252 171.56C606.35 171.689 606.477 171.794 606.622 171.867L613.986 175.508L609.148 189.413Z" fill="#262424"/>
<path d="M574.468 167.119C574.61 167.119 574.75 167.09 574.881 167.034L589.439 160.858C589.572 160.807 589.694 160.73 589.796 160.632C589.899 160.533 589.981 160.415 590.037 160.284C590.093 160.153 590.122 160.012 590.122 159.869C590.123 159.727 590.094 159.586 590.038 159.455C589.983 159.323 589.901 159.205 589.799 159.106C589.696 159.007 589.575 158.93 589.442 158.879C589.308 158.828 589.166 158.805 589.024 158.81C588.882 158.815 588.742 158.849 588.613 158.91L574.055 165.087C573.831 165.182 573.646 165.352 573.533 165.568C573.419 165.784 573.384 166.032 573.432 166.271C573.481 166.51 573.611 166.725 573.799 166.879C573.988 167.034 574.224 167.119 574.468 167.119Z" fill="#262424"/>
<path d="M603.938 193.054C603.938 193.054 641.106 232.459 658.655 244.109C659.523 244.684 660.342 245.19 661.111 245.628C671.243 251.355 681.518 252.688 690.645 239.213C696.124 231.115 701.2 217.655 705.578 196.584C717.225 140.48 703.461 114.725 703.461 114.725C693.577 109.607 669.401 117.017 667.109 140.305C664.817 163.594 657.405 189.883 657.405 189.883L612.758 171.888L603.938 193.054Z" fill="#F59C0C"/>
<path d="M656.05 243.347C656.273 243.346 656.49 243.275 656.67 243.144C656.85 243.013 656.984 242.829 657.053 242.617C657.122 242.406 657.123 242.178 657.055 241.965C656.987 241.753 656.854 241.568 656.675 241.436C639.772 229.056 609.327 197.198 605.177 192.827L613.33 173.243L657.008 190.847C657.146 190.902 657.294 190.928 657.442 190.923C657.591 190.917 657.736 190.881 657.869 190.815C658.003 190.75 658.121 190.657 658.216 190.543C658.311 190.429 658.381 190.296 658.422 190.154C658.496 189.889 665.886 163.504 668.162 140.401C669.163 130.228 674.372 124.072 678.559 120.701C684.282 116.096 692.095 113.608 698.464 114.349C698.603 114.366 698.744 114.354 698.878 114.316C699.013 114.278 699.139 114.214 699.249 114.127C699.471 113.952 699.614 113.696 699.647 113.415C699.68 113.134 699.6 112.852 699.425 112.63C699.249 112.408 698.993 112.265 698.712 112.232C691.703 111.401 683.472 114.005 677.23 119.023C672.725 122.649 667.125 129.259 666.05 140.163C664.06 160.371 658.109 183.125 656.691 188.418L613.144 170.866C612.886 170.763 612.597 170.766 612.34 170.874C612.084 170.982 611.88 171.186 611.773 171.443L602.954 192.615C602.875 192.803 602.853 193.011 602.89 193.212C602.926 193.413 603.02 193.599 603.16 193.748C603.499 194.107 637.194 229.739 655.42 243.109C655.599 243.255 655.82 243.338 656.05 243.347Z" fill="#905921"/>
<path d="M672.752 222.694C672.912 222.693 673.07 222.657 673.214 222.587C673.358 222.517 673.484 222.415 673.582 222.289C673.681 222.163 673.75 222.017 673.784 221.86C673.818 221.704 673.817 221.542 673.779 221.386C673.625 220.757 669.909 205.847 660.015 192.943C659.839 192.737 659.591 192.606 659.321 192.578C659.052 192.55 658.782 192.626 658.567 192.791C658.352 192.956 658.208 193.196 658.165 193.464C658.123 193.732 658.184 194.005 658.337 194.229C667.961 206.773 671.698 221.752 671.736 221.889C671.792 222.117 671.922 222.32 672.106 222.465C672.29 222.611 672.517 222.691 672.752 222.694Z" fill="#905921"/>
<path d="M658.639 243.511C658.639 243.712 658.639 243.908 658.639 244.109C659.507 244.684 660.326 245.191 661.095 245.628C671.243 251.355 681.518 252.689 690.645 239.213C688.49 233.719 682.323 229.75 675.049 229.75C665.986 229.75 658.639 235.91 658.639 243.511Z" fill="white"/>
<path d="M616.993 199.051C617.168 199.052 617.34 199.009 617.494 198.927C617.648 198.844 617.78 198.725 617.877 198.58C623.636 189.942 623.7 179.552 623.7 179.113C623.7 178.832 623.588 178.563 623.39 178.364C623.191 178.166 622.922 178.054 622.641 178.054C622.36 178.054 622.091 178.166 621.893 178.364C621.694 178.563 621.582 178.832 621.582 179.113C621.582 179.213 621.508 189.317 616.114 197.405C616.008 197.564 615.947 197.749 615.937 197.941C615.928 198.132 615.971 198.322 616.061 198.491C616.151 198.66 616.285 198.801 616.449 198.9C616.613 198.998 616.801 199.051 616.993 199.051Z" fill="#905921"/>
<path d="M612.318 193.409C610.71 193.409 609.407 192.105 609.407 190.497C609.407 188.89 610.71 187.586 612.318 187.586C613.926 187.586 615.23 188.89 615.23 190.497C615.23 192.105 613.926 193.409 612.318 193.409Z" fill="white"/>
<path d="M612.318 194.467C613.104 194.467 613.871 194.234 614.524 193.798C615.177 193.362 615.686 192.742 615.987 192.017C616.287 191.291 616.366 190.493 616.213 189.723C616.059 188.953 615.681 188.246 615.126 187.691C614.571 187.135 613.863 186.757 613.093 186.604C612.323 186.451 611.525 186.53 610.799 186.83C610.074 187.13 609.454 187.639 609.017 188.292C608.581 188.945 608.348 189.712 608.348 190.497C608.35 191.55 608.768 192.559 609.513 193.303C610.257 194.047 611.266 194.466 612.318 194.467ZM612.318 188.645C612.685 188.645 613.043 188.754 613.348 188.957C613.653 189.161 613.89 189.45 614.03 189.789C614.171 190.127 614.207 190.5 614.136 190.859C614.064 191.218 613.888 191.548 613.629 191.807C613.37 192.066 613.039 192.243 612.68 192.314C612.321 192.386 611.948 192.349 611.609 192.209C611.271 192.069 610.982 191.831 610.778 191.527C610.574 191.222 610.466 190.864 610.466 190.497C610.466 190.006 610.661 189.535 611.008 189.188C611.356 188.84 611.827 188.645 612.318 188.645Z" fill="#905921"/>
<path d="M671.719 48.3843L670.947 59.9809L669.655 79.8291C662.773 84.2328 656.272 84.4657 650.19 79.5116L651.476 70.3232L653.424 56.4082L671.719 48.3843Z" fill="white"/>
<path d="M659.645 84.2381C663.022 84.2381 666.542 83.0667 670.206 80.7237C670.345 80.6346 670.462 80.5139 670.547 80.3715C670.631 80.229 670.681 80.0686 670.693 79.9033L672.778 48.4743C672.794 48.2912 672.762 48.1072 672.685 47.9404C672.608 47.7736 672.488 47.6297 672.339 47.5229C672.189 47.4161 672.015 47.35 671.832 47.3312C671.649 47.3124 671.464 47.3416 671.296 47.4157L652.98 55.4238C652.814 55.4965 652.669 55.6105 652.56 55.7551C652.45 55.8997 652.38 56.0699 652.355 56.2495L649.121 79.3528C649.095 79.5334 649.117 79.7175 649.184 79.8872C649.251 80.0569 649.36 80.2065 649.502 80.3214C652.715 82.9361 656.087 84.2381 659.645 84.2381ZM668.596 79.2205C662.244 83.1425 656.548 83.0896 651.286 79.0564L654.351 57.1387L670.529 50.0622L668.596 79.2205Z" fill="#262424"/>
<path d="M636.479 48.5008C637.204 58.0809 639.687 69.577 651.196 68.0844C664.88 66.3113 673.932 56.9006 674.382 43.9384C674.832 30.9762 669.041 23.5133 653.472 24.6036C652.147 24.6929 650.831 24.893 649.539 25.2017C640.539 27.3823 635.86 34.6759 636.199 43.3773C636.262 44.9546 636.336 46.6907 636.479 48.5008Z" fill="white"/>
<path d="M649.248 69.2753C649.945 69.2743 650.642 69.2284 651.333 69.1377C656.625 68.5361 661.658 66.5255 665.907 63.3156C666.128 63.1422 666.271 62.8881 666.305 62.6092C666.339 62.3303 666.26 62.0494 666.087 61.8283C665.914 61.6072 665.659 61.464 665.38 61.4303C665.102 61.3965 664.821 61.4749 664.599 61.6483C660.651 64.6292 655.974 66.4955 651.058 67.0523C647.882 67.4599 645.378 66.8618 643.361 65.221C639.004 61.6748 637.945 53.9419 637.538 48.4373C637.4 46.6431 637.326 44.9441 637.262 43.3562C636.929 34.7606 641.73 28.208 649.793 26.2497C650.066 26.1837 650.302 26.012 650.448 25.7723C650.594 25.5326 650.64 25.2445 650.574 24.9715C650.508 24.6984 650.336 24.4628 650.096 24.3164C649.856 24.17 649.568 24.1248 649.295 24.1908C640.19 26.3979 634.769 33.7761 635.145 43.4356C635.203 44.9705 635.283 46.7648 635.426 48.5961C635.87 54.4871 637.014 62.7969 642.032 66.8618C644.079 68.4898 646.633 69.3444 649.248 69.2753Z" fill="#262424"/>
<path d="M678.379 46.4788C677.019 48.3468 675.5 50.0929 673.837 51.6976L666.955 51.9516L665.611 47.0504C665.611 47.0504 661.254 46.7487 660.428 43.7794C660.406 43.7118 660.388 43.6429 660.375 43.573C660.169 42.6044 659.385 38.2802 660.206 31.6165C660.206 31.6165 649.618 35.9831 643.88 36.4382C641.821 36.6023 639.444 35.7555 637.241 34.5963C632.832 32.2781 629.11 24.8998 630.01 19.9986V19.9034C631.418 12.721 635.05 17.8127 635.05 17.8127C635.05 17.8127 636.273 12.0329 639.92 11.7047C643.567 11.3766 645.743 16.8018 645.743 16.8018C652.768 15.3519 660.003 15.2334 667.072 16.4524C681.084 18.956 677.336 28.5519 677.336 28.5519C677.336 28.5519 687.622 32.1299 678.379 46.4788Z" fill="#785113"/>
<path d="M668.464 51.2424C668.009 45.8119 671.947 40.8737 677.379 40.3867C678.531 40.2768 679.693 40.3882 680.804 40.7149C687.469 42.6944 685.314 58.2766 668.919 56.6676L668.464 51.2424Z" fill="white"/>
<path d="M671.174 57.8479C679.528 57.8479 684.218 53.1743 685.192 48.1831C685.97 44.2082 684.25 40.6408 681.095 39.7146C679.858 39.3503 678.562 39.2246 677.278 39.3441C674.384 39.6413 671.723 41.0681 669.875 43.3146C668.027 45.5612 667.139 48.4461 667.405 51.343C667.428 51.6237 667.562 51.8838 667.777 52.0659C667.992 52.248 668.27 52.3374 668.551 52.3142C668.832 52.291 669.092 52.1573 669.274 51.9424C669.457 51.7275 669.546 51.449 669.523 51.1683C669.302 48.8304 670.012 46.4998 671.498 44.6817C672.985 42.8636 675.128 41.7046 677.463 41.4559C678.482 41.3598 679.51 41.4586 680.491 41.747C682.577 42.3663 683.668 44.9227 683.138 47.7915C682.323 51.9675 678.136 56.5247 669.041 55.6355C668.76 55.6081 668.48 55.6934 668.262 55.8725C668.044 56.0517 667.906 56.3101 667.879 56.5908C667.852 56.8716 667.937 57.1517 668.116 57.3696C668.295 57.5875 668.554 57.7252 668.834 57.7526C669.639 57.8161 670.419 57.8479 671.174 57.8479Z" fill="#262424"/>
<path d="M472.096 110.282L523.162 145.773C526.183 147.872 526.929 152.023 524.83 155.043L524.827 155.047C522.727 158.067 518.576 158.814 515.555 156.714L464.489 121.223C461.468 119.124 460.722 114.974 462.822 111.953L462.825 111.949C464.924 108.929 469.075 108.182 472.096 110.282Z" fill="white"/>
<path d="M518.995 160.741C519.472 160.741 519.949 160.696 520.419 160.609C521.924 160.331 523.312 159.614 524.409 158.547C525.505 157.48 526.26 156.112 526.578 154.615C526.896 153.119 526.763 151.562 526.195 150.141C525.627 148.721 524.651 147.501 523.389 146.636L472.066 111.369C470.376 110.208 468.294 109.766 466.278 110.14C464.263 110.514 462.478 111.673 461.317 113.362C460.156 115.051 459.713 117.133 460.087 119.148C460.461 121.164 461.62 122.948 463.31 124.109L514.633 159.375C515.914 160.263 517.436 160.739 518.995 160.741ZM467.704 112.126C468.838 112.125 469.947 112.47 470.88 113.116L522.203 148.382C522.81 148.799 523.33 149.332 523.732 149.95C524.133 150.567 524.409 151.258 524.544 151.983C524.679 152.707 524.669 153.451 524.517 154.172C524.364 154.893 524.07 155.576 523.653 156.184C523.236 156.791 522.703 157.311 522.086 157.712C521.468 158.114 520.777 158.39 520.052 158.525C519.328 158.659 518.584 158.65 517.863 158.497C517.142 158.344 516.458 158.051 515.85 157.634L464.527 122.368L463.929 123.241L464.527 122.368C463.611 121.74 462.901 120.854 462.488 119.823C462.076 118.791 461.978 117.661 462.209 116.574C462.44 115.487 462.988 114.493 463.785 113.719C464.581 112.944 465.589 112.423 466.682 112.221C467.017 112.161 467.357 112.131 467.698 112.131L467.704 112.126Z" fill="#262424"/>
<path d="M518.627 144.658L597.728 199.013C600.764 201.099 601.533 205.251 599.447 208.286L599.444 208.291C597.357 211.326 593.205 212.095 590.169 210.009L511.068 155.654C508.032 153.568 507.263 149.416 509.349 146.381L509.352 146.376C511.439 143.341 515.591 142.571 518.627 144.658Z" fill="white"/>
<path d="M593.954 212.235C594.432 212.235 594.909 212.191 595.378 212.103C596.883 211.826 598.272 211.108 599.368 210.041C600.465 208.974 601.22 207.606 601.538 206.11C601.856 204.613 601.723 203.056 601.155 201.636C600.587 200.215 599.61 198.995 598.348 198.13L519.228 143.783C517.538 142.622 515.456 142.18 513.441 142.553C511.425 142.927 509.64 144.086 508.479 145.776C507.318 147.465 506.876 149.546 507.249 151.562C507.623 153.577 508.782 155.362 510.472 156.523L589.571 210.875C590.859 211.765 592.389 212.239 593.954 212.235ZM514.861 144.54C515.995 144.539 517.104 144.884 518.037 145.529L597.131 199.882C597.738 200.299 598.258 200.831 598.66 201.449C599.061 202.067 599.337 202.758 599.472 203.482C599.607 204.207 599.597 204.951 599.445 205.671C599.292 206.392 598.998 207.076 598.581 207.683C598.164 208.291 597.631 208.81 597.014 209.212C596.396 209.614 595.705 209.89 594.98 210.024C594.256 210.159 593.512 210.15 592.791 209.997C592.07 209.844 591.386 209.551 590.778 209.134L511.674 154.771C510.757 154.143 510.047 153.257 509.635 152.226C509.222 151.194 509.125 150.064 509.356 148.977C509.586 147.89 510.135 146.896 510.931 146.122C511.727 145.347 512.736 144.826 513.828 144.624C514.169 144.565 514.515 144.536 514.861 144.54Z" fill="#262424"/>
<path d="M498.397 32.0559L541.462 61.6483C542.861 62.6121 543.927 63.9869 544.511 65.5828C545.096 67.1786 545.169 68.9165 544.723 70.5561L525.173 142.481C525.001 143.121 524.677 143.711 524.23 144.2C523.782 144.69 523.223 145.064 522.6 145.292C521.977 145.52 521.308 145.594 520.651 145.509C519.993 145.425 519.365 145.183 518.82 144.804L475.756 115.212C474.356 114.249 473.29 112.876 472.705 111.281C472.119 109.686 472.044 107.949 472.489 106.309L492.066 34.3794C492.239 33.7423 492.562 33.1558 493.008 32.6691C493.455 32.1825 494.011 31.8098 494.631 31.5823C495.251 31.3547 495.916 31.279 496.572 31.3614C497.227 31.4438 497.853 31.682 498.397 32.0559Z" fill="white"/>
<path d="M521.176 146.599C521.792 146.598 522.403 146.489 522.981 146.276C523.761 145.993 524.461 145.524 525.021 144.911C525.581 144.298 525.983 143.559 526.194 142.756L545.75 70.8315C546.25 68.9779 546.162 67.0148 545.498 65.2134C544.834 63.412 543.627 61.8611 542.044 60.775L498.979 31.1827L498.381 32.056L498.979 31.1827C498.296 30.7155 497.511 30.4184 496.69 30.3162C495.868 30.2139 495.034 30.3094 494.257 30.5948C493.48 30.8802 492.783 31.3471 492.223 31.9566C491.663 32.5662 491.257 33.3007 491.039 34.099L471.489 106.024C470.989 107.877 471.077 109.84 471.74 111.642C472.404 113.443 473.611 114.994 475.194 116.08L518.254 145.678C519.112 146.274 520.131 146.595 521.176 146.599ZM496.068 32.3841C496.685 32.3813 497.289 32.5659 497.799 32.9134L540.863 62.5058C542.083 63.3444 543.012 64.5407 543.522 65.9296C544.032 67.3186 544.098 68.8316 543.711 70.2598L524.162 142.184C524.033 142.659 523.793 143.096 523.461 143.458C523.129 143.821 522.715 144.098 522.253 144.268C521.792 144.437 521.297 144.494 520.809 144.432C520.321 144.371 519.855 144.194 519.45 143.915L476.386 114.323C475.173 113.487 474.249 112.297 473.74 110.915C473.23 109.534 473.159 108.029 473.537 106.606L493.087 34.6548C493.214 34.1793 493.453 33.7415 493.786 33.3792C494.119 33.0169 494.535 32.7408 494.998 32.5747C495.339 32.4493 495.699 32.3848 496.062 32.3841H496.068Z" fill="#262424"/>
<path d="M493.373 28.605L536.438 58.1974C537.838 59.1602 538.904 60.5339 539.489 62.1287C540.074 63.7235 540.149 65.4606 539.704 67.1L520.16 139.03C519.988 139.67 519.664 140.26 519.216 140.75C518.769 141.239 518.21 141.613 517.587 141.841C516.964 142.069 516.295 142.143 515.637 142.059C514.98 141.974 514.352 141.732 513.807 141.353L470.742 111.761C469.343 110.798 468.276 109.425 467.691 107.83C467.106 106.235 467.031 104.498 467.476 102.859L487.021 30.918C487.194 30.2784 487.518 29.6897 487.967 29.2017C488.415 28.7137 488.974 28.3405 489.597 28.1138C490.22 27.887 490.888 27.8133 491.545 27.8988C492.202 27.9843 492.829 28.2265 493.373 28.605Z" fill="white"/>
<path d="M516.136 143.127C516.752 143.126 517.363 143.017 517.941 142.804C518.723 142.522 519.425 142.055 519.986 141.443C520.548 140.831 520.952 140.092 521.165 139.289L540.731 67.3804C541.231 65.5269 541.143 63.5638 540.48 61.7624C539.816 59.9609 538.609 58.4101 537.025 57.324L493.977 27.7422C493.293 27.2751 492.508 26.978 491.687 26.8757C490.866 26.7735 490.032 26.869 489.255 27.1544C488.478 27.4397 487.78 27.9066 487.22 28.5162C486.66 29.1258 486.254 29.8603 486.036 30.6586L466.486 102.583C465.986 104.437 466.074 106.4 466.738 108.201C467.402 110.003 468.608 111.554 470.192 112.64L513.225 142.227C514.082 142.813 515.097 143.127 516.136 143.127ZM491.044 28.9331C491.661 28.9303 492.265 29.1149 492.775 29.4624L535.84 59.0548C537.059 59.8933 537.988 61.0897 538.498 62.4786C539.008 63.8675 539.074 65.3806 538.688 66.8088L519.138 138.733C519.009 139.208 518.769 139.645 518.437 140.007C518.105 140.37 517.691 140.647 517.23 140.817C516.768 140.986 516.273 141.043 515.785 140.981C515.297 140.92 514.831 140.743 514.426 140.464L471.362 110.872C470.142 110.037 469.211 108.845 468.697 107.459C468.183 106.073 468.112 104.562 468.493 103.134L488.079 31.2091C488.206 30.7335 488.446 30.2958 488.778 29.9335C489.111 29.5711 489.527 29.295 489.99 29.129C490.328 29.003 490.684 28.9367 491.044 28.9331Z" fill="#262424"/>
<path d="M29.233 342.36C29.5138 342.36 29.7831 342.249 29.9816 342.05C30.1802 341.852 30.2917 341.582 30.2917 341.302V335.882C30.2917 335.601 30.1802 335.332 29.9816 335.133C29.7831 334.935 29.5138 334.823 29.233 334.823C28.9522 334.823 28.6829 334.935 28.4843 335.133C28.2858 335.332 28.1742 335.601 28.1742 335.882V341.302C28.1742 341.582 28.2858 341.852 28.4843 342.05C28.6829 342.249 28.9522 342.36 29.233 342.36Z" fill="#F59C0C"/>
<path d="M21.0595 345.112H26.4644C26.7452 345.112 27.0145 345.001 27.2131 344.802C27.4116 344.604 27.5232 344.334 27.5232 344.054C27.5232 343.773 27.4116 343.504 27.2131 343.305C27.0145 343.107 26.7452 342.995 26.4644 342.995H21.0436C20.7628 342.997 20.4944 343.111 20.2973 343.311C20.1003 343.511 19.9907 343.781 19.9928 344.062C19.9949 344.342 20.1085 344.611 20.3085 344.808C20.5085 345.005 20.7787 345.114 21.0595 345.112Z" fill="#2961A9"/>
<path d="M29.233 353.29C29.5138 353.29 29.7831 353.178 29.9816 352.98C30.1802 352.781 30.2917 352.512 30.2917 352.231V346.812C30.2917 346.531 30.1802 346.261 29.9816 346.063C29.7831 345.864 29.5138 345.753 29.233 345.753C28.9522 345.753 28.6829 345.864 28.4843 346.063C28.2858 346.261 28.1742 346.531 28.1742 346.812V352.231C28.1742 352.512 28.2858 352.781 28.4843 352.98C28.6829 353.178 28.9522 353.29 29.233 353.29Z" fill="#2961A9"/>
<path d="M31.9911 345.112H37.412C37.6928 345.112 37.962 345.001 38.1606 344.802C38.3591 344.604 38.4707 344.334 38.4707 344.054C38.4707 343.773 38.3591 343.504 38.1606 343.305C37.962 343.107 37.6928 342.995 37.412 342.995H31.9911C31.7103 342.995 31.441 343.107 31.2425 343.305C31.0439 343.504 30.9324 343.773 30.9324 344.054C30.9324 344.334 31.0439 344.604 31.2425 344.802C31.441 345.001 31.7103 345.112 31.9911 345.112Z" fill="#F59C0C"/>
<path d="M393.946 100.254C394.227 100.254 394.496 100.143 394.695 99.9441C394.893 99.7456 395.005 99.4764 395.005 99.1956V91.7856C395.005 91.5049 394.893 91.2356 394.695 91.0371C394.496 90.8386 394.227 90.7271 393.946 90.7271C393.665 90.7271 393.396 90.8386 393.197 91.0371C392.999 91.2356 392.887 91.5049 392.887 91.7856V99.1956C392.887 99.4764 392.999 99.7456 393.197 99.9441C393.396 100.143 393.665 100.254 393.946 100.254Z" fill="#2961A9"/>
<path d="M382.734 104.033H390.145C390.426 104.033 390.695 103.922 390.893 103.723C391.092 103.525 391.204 103.255 391.204 102.975C391.204 102.694 391.092 102.425 390.893 102.226C390.695 102.028 390.426 101.916 390.145 101.916H382.734C382.453 101.916 382.184 102.028 381.985 102.226C381.786 102.425 381.675 102.694 381.675 102.975C381.675 103.255 381.786 103.525 381.985 103.723C382.184 103.922 382.453 104.033 382.734 104.033Z" fill="#F59C0C"/>
<path d="M393.946 115.243C394.227 115.243 394.496 115.132 394.695 114.933C394.893 114.735 395.005 114.466 395.005 114.185V106.775C395.005 106.494 394.893 106.225 394.695 106.026C394.496 105.828 394.227 105.716 393.946 105.716C393.665 105.716 393.396 105.828 393.197 106.026C392.999 106.225 392.887 106.494 392.887 106.775V114.185C392.887 114.466 392.999 114.735 393.197 114.933C393.396 115.132 393.665 115.243 393.946 115.243Z" fill="#F59C0C"/>
<path d="M397.726 104.033H405.137C405.418 104.033 405.687 103.922 405.885 103.723C406.084 103.525 406.196 103.255 406.196 102.975C406.196 102.694 406.084 102.425 405.885 102.226C405.687 102.028 405.418 101.916 405.137 101.916H397.726C397.445 101.916 397.175 102.028 396.977 102.226C396.778 102.425 396.667 102.694 396.667 102.975C396.667 103.255 396.778 103.525 396.977 103.723C397.175 103.922 397.445 104.033 397.726 104.033Z" fill="#2961A9"/>
<path d="M93.6949 66.8722C93.9757 66.8722 94.245 66.7607 94.4436 66.5622C94.6421 66.3636 94.7537 66.0944 94.7537 65.8136V59.6845C94.7537 59.4038 94.6421 59.1345 94.4436 58.936C94.245 58.7375 93.9757 58.626 93.6949 58.626C93.4142 58.626 93.1449 58.7375 92.9463 58.936C92.7478 59.1345 92.6362 59.4038 92.6362 59.6845V65.8136C92.6362 66.0944 92.7478 66.3636 92.9463 66.5622C93.1449 66.7607 93.4142 66.8722 93.6949 66.8722Z" fill="#F59C0C"/>
<path d="M84.4574 69.9843H90.5875C90.8683 69.9843 91.1376 69.8728 91.3361 69.6743C91.5347 69.4758 91.6462 69.2065 91.6462 68.9258C91.6462 68.645 91.5347 68.3758 91.3361 68.1772C91.1376 67.9787 90.8683 67.8672 90.5875 67.8672H84.4574C84.1766 67.8672 83.9072 67.9787 83.7087 68.1772C83.5101 68.3758 83.3986 68.645 83.3986 68.9258C83.3986 69.2065 83.5101 69.4758 83.7087 69.6743C83.9072 69.8728 84.1766 69.9843 84.4574 69.9843Z" fill="#F59C0C"/>
<path d="M93.6949 79.2258C93.9757 79.2258 94.245 79.1143 94.4436 78.9158C94.6421 78.7172 94.7537 78.448 94.7537 78.1672V72.0434C94.7537 71.7627 94.6421 71.4934 94.4436 71.2949C94.245 71.0964 93.9757 70.9849 93.6949 70.9849C93.4142 70.9849 93.1449 71.0964 92.9463 71.2949C92.7478 71.4934 92.6362 71.7627 92.6362 72.0434V78.1725C92.6376 78.4524 92.7498 78.7203 92.9482 78.9176C93.1466 79.115 93.4151 79.2258 93.6949 79.2258Z" fill="#2961A9"/>
<path d="M96.8131 69.9843H102.943C103.224 69.9843 103.493 69.8728 103.692 69.6743C103.89 69.4758 104.002 69.2065 104.002 68.9258C104.002 68.645 103.89 68.3758 103.692 68.1772C103.493 67.9787 103.224 67.8672 102.943 67.8672H96.8131C96.5323 67.8672 96.263 67.9787 96.0644 68.1772C95.8659 68.3758 95.7543 68.645 95.7543 68.9258C95.7543 69.2065 95.8659 69.4758 96.0644 69.6743C96.263 69.8728 96.5323 69.9843 96.8131 69.9843Z" fill="#2961A9"/>
<path d="M592.742 40.6724C590.225 40.6724 588.184 38.6321 588.184 36.1153C588.184 33.5984 590.225 31.5581 592.742 31.5581C595.259 31.5581 597.3 33.5984 597.3 36.1153C597.3 38.6321 595.259 40.6724 592.742 40.6724Z" fill="#2961A9"/>
<path d="M103.33 197.511C98.0086 197.511 93.6951 193.198 93.6951 187.878C93.6951 182.557 98.0086 178.245 103.33 178.245C108.651 178.245 112.964 182.557 112.964 187.878C112.964 193.198 108.651 197.511 103.33 197.511Z" fill="#F59C0C"/>
<path d="M622.641 544.203C618.785 544.203 615.659 541.078 615.659 537.222C615.659 533.366 618.785 530.241 622.641 530.241C626.498 530.241 629.624 533.366 629.624 537.222C629.624 541.078 626.498 544.203 622.641 544.203Z" fill="#F59C0C"/>
<path d="M602.652 424.177C600.605 424.177 598.946 422.518 598.946 420.472C598.946 418.426 600.605 416.767 602.652 416.767C604.699 416.767 606.358 418.426 606.358 420.472C606.358 422.518 604.699 424.177 602.652 424.177Z" fill="#2961A9"/>
<path d="M375.762 498.441C375.995 498.441 376.221 498.364 376.405 498.222C376.59 498.08 376.722 497.882 376.783 497.657C376.843 497.432 376.828 497.194 376.739 496.979C376.65 496.764 376.493 496.584 376.291 496.467L346.863 479.371L368.568 466.859C368.728 466.766 368.861 466.632 368.954 466.471C369.047 466.311 369.095 466.129 369.095 465.943C369.095 465.758 369.047 465.575 368.954 465.415C368.861 465.254 368.728 465.121 368.568 465.027L336.456 446.37C336.214 446.244 335.932 446.215 335.67 446.291C335.408 446.368 335.185 446.542 335.048 446.778C334.912 447.015 334.872 447.295 334.937 447.56C335.002 447.825 335.167 448.055 335.397 448.201L365.926 465.943L344.222 478.455C344.061 478.549 343.928 478.682 343.836 478.843C343.743 479.003 343.694 479.186 343.694 479.371C343.694 479.557 343.743 479.739 343.836 479.899C343.928 480.06 344.061 480.194 344.222 480.287L375.227 498.283C375.388 498.382 375.573 498.437 375.762 498.441Z" fill="#2961A9"/>
<path d="M443.342 483.796C443.573 483.794 443.797 483.716 443.98 483.574C444.162 483.433 444.294 483.235 444.354 483.012C444.414 482.789 444.399 482.553 444.312 482.339C444.225 482.125 444.07 481.945 443.871 481.827L406.227 459.687L444.184 437.78C444.344 437.687 444.477 437.553 444.57 437.393C444.662 437.232 444.711 437.05 444.711 436.864C444.711 436.679 444.662 436.497 444.57 436.336C444.477 436.175 444.344 436.042 444.184 435.949L401.262 411.003C401.02 410.877 400.738 410.849 400.476 410.925C400.214 411.001 399.991 411.175 399.855 411.412C399.718 411.648 399.678 411.928 399.743 412.193C399.808 412.458 399.973 412.688 400.203 412.835L441.542 436.88L403.607 458.777C403.447 458.87 403.313 459.003 403.221 459.164C403.128 459.325 403.08 459.507 403.08 459.692C403.08 459.878 403.128 460.06 403.221 460.221C403.313 460.381 403.447 460.515 403.607 460.608L442.818 483.669C442.979 483.756 443.159 483.8 443.342 483.796Z" fill="#F59C0C"/>
<path d="M446.116 493.027C451.891 493.027 456.417 490.486 456.417 487.242C456.417 483.997 451.891 481.457 446.116 481.457C440.34 481.457 435.814 483.997 435.814 487.242C435.814 490.486 440.34 493.027 446.116 493.027ZM446.116 483.579C450.938 483.579 454.3 485.511 454.3 487.247C454.3 488.983 450.938 490.915 446.116 490.915C441.293 490.915 437.932 488.983 437.932 487.247C437.932 485.511 441.293 483.579 446.116 483.579Z" fill="#2961A9"/>
<path d="M430.155 387.624H459.742C460.023 387.624 460.292 387.513 460.491 387.314C460.689 387.116 460.801 386.847 460.801 386.566C460.801 386.285 460.689 386.016 460.491 385.817C460.292 385.619 460.023 385.507 459.742 385.507H430.161C429.88 385.507 429.61 385.617 429.411 385.816C429.212 386.014 429.1 386.283 429.099 386.563C429.098 386.844 429.209 387.114 429.407 387.313C429.605 387.512 429.874 387.624 430.155 387.624Z" fill="#2961A9"/>
<path d="M468.985 392.351C474.76 392.351 479.286 389.811 479.286 386.566C479.286 383.322 474.766 380.776 468.985 380.776C463.204 380.776 458.683 383.316 458.683 386.561C458.683 389.806 463.199 392.351 468.985 392.351ZM468.985 382.904C473.807 382.904 477.169 384.836 477.169 386.572C477.169 388.308 473.807 390.24 468.985 390.24C464.162 390.24 460.801 388.308 460.801 386.572C460.801 384.836 464.162 382.893 468.985 382.893V382.904Z" fill="#F59C0C"/>
<path d="M113.213 498.441C113.399 498.441 113.582 498.392 113.742 498.298L144.748 480.303C144.908 480.21 145.042 480.076 145.134 479.915C145.227 479.755 145.275 479.572 145.275 479.387C145.275 479.202 145.227 479.019 145.134 478.859C145.042 478.698 144.908 478.564 144.748 478.471L123.044 465.959L153.573 448.217C153.699 448.151 153.811 448.06 153.901 447.949C153.992 447.839 154.059 447.711 154.099 447.574C154.138 447.437 154.15 447.293 154.133 447.152C154.116 447.01 154.07 446.873 153.998 446.75C153.927 446.626 153.831 446.518 153.717 446.432C153.603 446.347 153.472 446.285 153.334 446.251C153.195 446.217 153.051 446.212 152.91 446.235C152.769 446.258 152.634 446.309 152.514 446.386L120.402 465.043C120.242 465.136 120.108 465.27 120.016 465.431C119.923 465.591 119.874 465.773 119.874 465.959C119.874 466.144 119.923 466.327 120.016 466.487C120.108 466.648 120.242 466.782 120.402 466.875L142.106 479.387L112.678 496.483C112.484 496.603 112.334 496.783 112.251 496.995C112.167 497.208 112.154 497.441 112.214 497.662C112.275 497.882 112.404 498.077 112.584 498.217C112.764 498.358 112.985 498.436 113.213 498.441Z" fill="#2961A9"/>
<path d="M33.6162 490.497C33.8021 490.497 33.9847 490.447 34.1456 490.354L85.3732 460.592C85.5336 460.499 85.6668 460.366 85.7594 460.205C85.852 460.044 85.9007 459.862 85.9007 459.677C85.9007 459.491 85.852 459.309 85.7594 459.148C85.6668 458.988 85.5336 458.854 85.3732 458.761L47.4329 436.88L88.7823 412.856C88.9089 412.79 89.0207 412.699 89.1111 412.588C89.2015 412.478 89.2686 412.35 89.3084 412.213C89.3482 412.076 89.3598 411.932 89.3426 411.79C89.3254 411.649 89.2797 411.512 89.2083 411.388C89.1368 411.265 89.0411 411.157 88.9268 411.071C88.8126 410.985 88.6822 410.924 88.5435 410.89C88.4048 410.856 88.2607 410.85 88.1198 410.873C87.9789 410.897 87.8441 410.948 87.7236 411.025L44.7966 435.97C44.6361 436.063 44.503 436.196 44.4104 436.357C44.3178 436.518 44.2691 436.7 44.2691 436.886C44.2691 437.071 44.3178 437.253 44.4104 437.414C44.503 437.575 44.6361 437.708 44.7966 437.801L82.7316 459.698L33.0868 488.544C32.8954 488.665 32.7477 488.844 32.6655 489.055C32.5833 489.266 32.5709 489.497 32.6301 489.716C32.6894 489.934 32.8171 490.128 32.9945 490.269C33.172 490.409 33.3899 490.489 33.6162 490.497Z" fill="#F59C0C"/>
<path d="M30.8424 499.727C36.6179 499.727 41.144 497.187 41.144 493.942C41.144 490.698 36.6179 488.157 30.8424 488.157C25.0669 488.157 20.5407 490.698 20.5407 493.942C20.5407 497.187 25.0669 499.727 30.8424 499.727ZM30.8424 490.28C35.665 490.28 39.0265 492.212 39.0265 493.948C39.0265 495.684 35.665 497.616 30.8424 497.616C26.0197 497.616 22.6582 495.684 22.6582 493.948C22.6582 492.212 26.0197 490.28 30.8424 490.28Z" fill="#2961A9"/>
<path d="M153.059 279.243C153.292 279.242 153.518 279.165 153.702 279.024C153.887 278.882 154.02 278.683 154.08 278.458C154.14 278.234 154.125 277.995 154.036 277.78C153.947 277.565 153.79 277.385 153.588 277.269L123.059 259.527L144.764 247.015C144.924 246.922 145.057 246.788 145.15 246.627C145.243 246.467 145.291 246.284 145.291 246.099C145.291 245.914 145.243 245.731 145.15 245.571C145.057 245.41 144.924 245.276 144.764 245.183L113.758 227.188C113.638 227.111 113.503 227.06 113.362 227.037C113.221 227.013 113.077 227.019 112.938 227.053C112.8 227.087 112.669 227.148 112.555 227.234C112.441 227.32 112.345 227.428 112.274 227.551C112.202 227.675 112.156 227.812 112.139 227.953C112.122 228.095 112.134 228.239 112.173 228.376C112.213 228.513 112.28 228.641 112.371 228.751C112.461 228.862 112.573 228.953 112.7 229.019L142.127 246.115L120.423 258.627C120.263 258.72 120.129 258.854 120.037 259.015C119.944 259.175 119.896 259.357 119.896 259.543C119.896 259.728 119.944 259.911 120.037 260.071C120.129 260.232 120.263 260.366 120.423 260.459L152.535 279.116C152.696 279.203 152.876 279.246 153.059 279.243Z" fill="#2961A9"/>
<path d="M98.0253 331.981C98.258 331.981 98.484 331.904 98.6686 331.762C98.8531 331.62 98.9857 331.421 99.046 331.197C99.1063 330.972 99.0908 330.734 99.0019 330.518C98.9131 330.303 98.7559 330.124 98.5546 330.007L63.5471 309.661L101.482 287.765C101.642 287.672 101.776 287.538 101.868 287.377C101.961 287.217 102.01 287.034 102.01 286.849C102.01 286.663 101.961 286.481 101.868 286.321C101.776 286.16 101.642 286.026 101.482 285.933L50.2862 256.166C50.1657 256.09 50.0309 256.038 49.89 256.015C49.7491 255.992 49.605 255.997 49.4663 256.031C49.3276 256.065 49.1973 256.127 49.0831 256.213C48.9688 256.298 48.8731 256.406 48.8016 256.53C48.7302 256.653 48.6844 256.79 48.6672 256.932C48.65 257.074 48.6616 257.217 48.7014 257.354C48.7412 257.492 48.8083 257.619 48.8987 257.73C48.9891 257.84 49.101 257.931 49.2275 257.998L98.8722 286.844L60.9372 308.74C60.7768 308.833 60.6436 308.967 60.5511 309.127C60.4585 309.288 60.4097 309.47 60.4097 309.656C60.4097 309.841 60.4585 310.023 60.5511 310.184C60.6436 310.345 60.7768 310.478 60.9372 310.571L97.5276 331.833C97.6786 331.923 97.8497 331.974 98.0253 331.981Z" fill="#F59C0C"/>
<path d="M46.9566 258.357C52.7321 258.357 57.2583 255.817 57.2583 252.572C57.2583 249.328 52.7321 246.787 46.9566 246.787C41.1811 246.787 36.655 249.328 36.655 252.572C36.655 255.817 41.1811 258.357 46.9566 258.357ZM46.9566 248.91C51.7792 248.91 55.1408 250.841 55.1408 252.577C55.1408 254.314 51.7792 256.245 46.9566 256.245C42.134 256.245 38.7725 254.314 38.7725 252.577C38.7725 250.841 42.134 248.91 46.9566 248.91Z" fill="#2961A9"/>
<path d="M389.192 324.963C389.378 324.962 389.561 324.913 389.722 324.82L425.401 304.088C425.562 303.995 425.695 303.861 425.788 303.7C425.88 303.54 425.929 303.357 425.929 303.172C425.929 302.986 425.88 302.804 425.788 302.644C425.695 302.483 425.562 302.349 425.401 302.256L394.131 284.208L410.261 274.744C410.393 274.681 410.51 274.591 410.605 274.481C410.701 274.37 410.772 274.241 410.815 274.101C410.858 273.962 410.872 273.815 410.855 273.67C410.839 273.525 410.793 273.385 410.719 273.259C410.646 273.132 410.548 273.023 410.43 272.936C410.312 272.85 410.178 272.789 410.036 272.757C409.893 272.725 409.746 272.723 409.602 272.75C409.459 272.778 409.323 272.835 409.203 272.918L391.527 283.297C391.366 283.39 391.233 283.524 391.141 283.685C391.048 283.845 390.999 284.027 390.999 284.213C390.999 284.398 391.048 284.581 391.141 284.741C391.233 284.902 391.366 285.035 391.527 285.129L422.786 303.177L388.689 322.988C388.49 323.104 388.333 323.281 388.244 323.494C388.155 323.706 388.137 323.942 388.194 324.166C388.251 324.389 388.379 324.588 388.559 324.732C388.74 324.875 388.962 324.957 389.192 324.963Z" fill="#F59C0C"/>
<path d="M412.003 275.072C416.984 275.072 420.743 272.955 420.743 270.086C420.743 267.218 416.984 265.101 412.003 265.101C407.022 265.101 403.263 267.218 403.263 270.086C403.263 272.955 407.022 275.072 412.003 275.072ZM412.003 267.218C415.793 267.218 418.625 268.731 418.625 270.086C418.625 271.441 415.793 272.955 412.003 272.955C408.213 272.955 405.38 271.441 405.38 270.086C405.38 268.731 408.213 267.218 412.003 267.218Z" fill="#2961A9"/>
<path d="M29.233 387.624H58.8145C59.0953 387.624 59.3646 387.513 59.5632 387.314C59.7617 387.116 59.8733 386.847 59.8733 386.566C59.8733 386.285 59.7617 386.016 59.5632 385.817C59.3646 385.619 59.0953 385.507 58.8145 385.507H29.233C28.9522 385.507 28.6829 385.619 28.4844 385.817C28.2858 386.016 28.1743 386.285 28.1743 386.566C28.1743 386.847 28.2858 387.116 28.4844 387.314C28.6829 387.513 28.9522 387.624 29.233 387.624Z" fill="#2961A9"/>
<path d="M19.9901 392.351C25.7656 392.351 30.2917 389.811 30.2917 386.566C30.2917 383.322 25.7656 380.781 19.9901 380.781C14.2146 380.781 9.68848 383.322 9.68848 386.566C9.68848 389.811 14.2146 392.351 19.9901 392.351ZM19.9901 382.904C24.8127 382.904 28.1742 384.836 28.1742 386.572C28.1742 388.308 24.8127 390.24 19.9901 390.24C15.1675 390.24 11.806 388.308 11.806 386.572C11.806 384.836 15.1675 382.893 19.9901 382.893V382.904Z" fill="#F59C0C"/>
<path d="M245.049 541.424C245.329 541.424 245.599 541.313 245.797 541.114C245.996 540.916 246.107 540.647 246.107 540.366V502.982C246.107 502.702 245.996 502.432 245.797 502.234C245.599 502.035 245.329 501.924 245.049 501.924C244.768 501.924 244.499 502.035 244.3 502.234C244.101 502.432 243.99 502.702 243.99 502.982V540.366C243.99 540.647 244.101 540.916 244.3 541.114C244.499 541.313 244.768 541.424 245.049 541.424Z" fill="#F59C0C"/>
<path d="M245.049 555.752C250.824 555.752 255.35 553.212 255.35 549.967C255.35 546.723 250.824 544.182 245.049 544.182C239.273 544.182 234.747 546.723 234.747 549.967C234.747 553.212 239.273 555.752 245.049 555.752ZM245.049 546.305C249.871 546.305 253.233 548.236 253.233 549.973C253.233 551.709 249.871 553.64 245.049 553.64C240.226 553.64 236.865 551.709 236.865 549.973C236.865 548.236 240.226 546.305 245.049 546.305Z" fill="#2961A9"/>
<path d="M71.2071 362.727L244.487 463.413L418.895 362.732L245.615 262.051L71.2071 362.727Z" fill="#3B444C"/>
<path d="M244.487 464.466C244.673 464.466 244.856 464.417 245.017 464.323L419.425 363.648C419.585 363.555 419.718 363.421 419.811 363.261C419.903 363.1 419.952 362.918 419.952 362.732C419.952 362.547 419.903 362.365 419.811 362.204C419.718 362.043 419.585 361.91 419.425 361.817L246.155 261.157C245.994 261.064 245.811 261.015 245.626 261.015C245.44 261.015 245.257 261.064 245.096 261.157L70.6883 361.832C70.5279 361.925 70.3946 362.059 70.3021 362.22C70.2095 362.38 70.1608 362.563 70.1608 362.748C70.1608 362.934 70.2095 363.116 70.3021 363.276C70.3946 363.437 70.5279 363.571 70.6883 363.664L243.969 464.344C244.128 464.429 244.307 464.47 244.487 464.466ZM416.783 362.732L244.493 462.19L73.3193 362.732L245.626 263.274L416.783 362.732Z" fill="#262424"/>
<path d="M284.662 397.819L312.999 381.458C313.186 381.349 313.399 381.292 313.616 381.292C313.833 381.292 314.045 381.349 314.232 381.458L350.23 402.376L347.768 403.794L313.618 383.951L287.737 398.888L304.677 408.717L321.898 418.725L319.436 420.149L303.423 410.844L284.656 399.952C284.472 399.842 284.32 399.688 284.213 399.502C284.106 399.317 284.049 399.107 284.048 398.893C284.046 398.676 284.101 398.462 284.209 398.273C284.317 398.084 284.473 397.927 284.662 397.819Z" fill="white"/>
<path d="M214.991 412.374L243.54 428.94L214.271 445.878L216.732 447.307L246.002 430.412L273.757 446.513L276.218 445.094L246.616 427.882L215.615 409.886C215.427 409.777 215.213 409.72 214.996 409.72C214.779 409.72 214.565 409.777 214.377 409.886L183.271 427.845L185.722 429.269L214.991 412.374Z" fill="white"/>
<path d="M88.2796 372.646L90.7306 374.075L141.836 344.578L185.711 370.079L206.981 382.427L155.881 411.924L158.342 413.353L210.057 383.496C210.243 383.389 210.398 383.234 210.505 383.049C210.613 382.863 210.67 382.652 210.671 382.437C210.669 382.224 210.612 382.014 210.506 381.828C210.399 381.643 210.246 381.488 210.062 381.379L188.781 369.009L276.255 318.516L385.513 382.03L387.975 380.606L276.859 316.023H276.827L276.7 315.97L276.599 315.933L276.478 315.901H276.366H276.134H276.007H275.895C275.857 315.91 275.82 315.923 275.784 315.938L275.668 315.991H275.631L186.336 367.58L142.466 342.085C142.279 341.975 142.066 341.918 141.85 341.918C141.633 341.918 141.42 341.975 141.233 342.085L88.2796 372.646Z" fill="white"/>
<path d="M170.756 305.257L187.542 315.012L191.211 312.894L221.947 295.153L205.16 285.398L207.622 283.98L224.408 293.734L262.401 271.801L264.863 273.23L225.028 296.222L188.167 317.499C188.073 317.554 187.971 317.595 187.865 317.621C187.764 317.65 187.659 317.664 187.553 317.663H187.447C187.376 317.659 187.305 317.649 187.235 317.632C187.199 317.622 187.164 317.61 187.13 317.595C187.064 317.571 187 317.543 186.939 317.51L168.305 306.681L170.756 305.257Z" fill="white"/>
<path d="M311.014 318.489L326.932 309.322L329.394 310.751L314.09 319.579L354.507 343.064L369.812 334.198L372.263 335.622L355.122 345.52C354.935 345.628 354.723 345.684 354.507 345.684C354.289 345.684 354.073 345.628 353.883 345.52L311.003 320.606C310.819 320.497 310.667 320.342 310.56 320.157C310.453 319.971 310.396 319.761 310.395 319.548C310.395 319.332 310.452 319.121 310.561 318.935C310.67 318.749 310.826 318.595 311.014 318.489Z" fill="white"/>
<path d="M244.487 463.413L244.657 487.242L419.065 386.566L418.895 362.732L244.487 463.413Z" fill="white"/>
<path d="M244.657 488.3C244.843 488.299 245.025 488.25 245.186 488.157L419.594 387.481C419.756 387.388 419.891 387.253 419.984 387.09C420.077 386.927 420.125 386.743 420.123 386.555L419.954 362.737C419.953 362.552 419.903 362.37 419.81 362.21C419.716 362.05 419.583 361.917 419.422 361.825C419.261 361.733 419.079 361.685 418.894 361.685C418.708 361.685 418.526 361.734 418.366 361.827L243.958 462.502C243.796 462.596 243.661 462.731 243.568 462.894C243.475 463.057 243.427 463.241 243.429 463.429L243.598 487.246C243.599 487.526 243.712 487.794 243.91 487.992C244.108 488.189 244.377 488.3 244.657 488.3ZM418.001 385.957L245.705 485.415L245.551 464.016L417.847 364.558L418.001 385.957Z" fill="#262424"/>
<path d="M244.826 463.413L244.657 487.242L71.0376 386.566L71.207 362.732L244.826 463.413Z" fill="white"/>
<path d="M244.657 488.3C244.938 488.3 245.207 488.188 245.406 487.99C245.604 487.791 245.716 487.522 245.716 487.241L245.885 463.423C245.886 463.237 245.837 463.053 245.744 462.892C245.651 462.73 245.517 462.596 245.356 462.502L71.7206 361.827C71.5602 361.734 71.3782 361.685 71.1929 361.685C71.0076 361.685 70.8254 361.733 70.6647 361.825C70.5039 361.917 70.3701 362.05 70.2767 362.21C70.1834 362.37 70.1336 362.552 70.1325 362.737L69.9631 386.555C69.9624 386.742 70.0109 386.925 70.1039 387.087C70.1968 387.249 70.3309 387.383 70.4925 387.476L244.127 488.152C244.288 488.247 244.47 488.298 244.657 488.3ZM243.762 464.016L243.609 485.41L72.0912 385.957L72.2447 364.563L243.762 464.016Z" fill="#262424"/>
<path d="M162.117 335.067L244.752 383.078L327.928 335.067L245.292 287.055L162.117 335.067Z" fill="white"/>
<path d="M244.752 384.137C244.938 384.136 245.121 384.087 245.282 383.994L328.452 335.988C328.612 335.895 328.745 335.761 328.838 335.6C328.93 335.44 328.979 335.257 328.979 335.072C328.979 334.886 328.93 334.704 328.838 334.544C328.745 334.383 328.612 334.249 328.452 334.156L245.816 286.145C245.655 286.052 245.473 286.003 245.287 286.003C245.101 286.003 244.918 286.052 244.758 286.145L161.587 334.156C161.427 334.249 161.294 334.383 161.201 334.544C161.109 334.704 161.06 334.886 161.06 335.072C161.06 335.257 161.109 335.44 161.201 335.6C161.294 335.761 161.427 335.895 161.587 335.988L244.223 384.004C244.385 384.094 244.567 384.14 244.752 384.137ZM325.81 335.067L244.752 381.834L164.229 335.045L245.287 288.257L325.81 335.067Z" fill="#262424"/>
<path d="M244.741 317.986L244.831 396.151L340.892 340.703L340.797 262.533L244.741 317.986Z" fill="#D7D7D7"/>
<path d="M329.855 292.544L297.266 311.349V342.149L329.892 323.317L329.855 292.544Z" fill="#2961A9"/>
<path d="M297.266 343.196C297.452 343.196 297.635 343.147 297.795 343.053L330.421 324.221C330.582 324.128 330.716 323.994 330.809 323.832C330.902 323.67 330.951 323.487 330.95 323.3L330.908 292.528C330.908 292.342 330.859 292.16 330.766 291.999C330.673 291.838 330.539 291.705 330.378 291.612C330.217 291.519 330.035 291.47 329.849 291.47C329.663 291.47 329.481 291.519 329.32 291.612L296.731 310.418C296.571 310.51 296.437 310.644 296.344 310.805C296.251 310.965 296.202 311.148 296.202 311.333V342.138C296.202 342.277 296.23 342.415 296.283 342.544C296.337 342.673 296.415 342.79 296.514 342.888C296.613 342.986 296.73 343.064 296.859 343.117C296.988 343.17 297.127 343.197 297.266 343.196ZM328.833 322.697L298.325 340.306V311.968L328.796 294.38L328.833 322.697Z" fill="#D7D7D7"/>
<path d="M255.737 335.326L255.768 366.109L288.362 347.293V316.494L255.737 335.326Z" fill="white"/>
<path d="M255.769 367.168C255.954 367.167 256.137 367.118 256.298 367.025L288.892 348.209C289.052 348.116 289.186 347.983 289.279 347.822C289.372 347.661 289.421 347.479 289.421 347.293V316.494C289.421 316.308 289.372 316.126 289.279 315.965C289.186 315.804 289.052 315.671 288.891 315.578C288.73 315.485 288.548 315.436 288.362 315.437C288.176 315.437 287.994 315.485 287.833 315.578L255.207 334.41C255.047 334.503 254.913 334.637 254.82 334.797C254.727 334.958 254.678 335.14 254.678 335.326L254.71 366.109C254.71 366.39 254.821 366.659 255.02 366.858C255.218 367.056 255.488 367.168 255.769 367.168ZM287.303 346.684L256.822 364.278L256.79 335.94L287.303 318.32V346.674V346.684Z" fill="#D7D7D7"/>
<path d="M244.927 317.986L244.831 396.151L149.21 340.703L149.306 262.533L244.927 317.986Z" fill="white"/>
<path d="M244.832 397.21C245.113 397.21 245.382 397.098 245.58 396.9C245.779 396.701 245.89 396.432 245.89 396.151L245.98 317.981C245.98 317.795 245.931 317.613 245.838 317.452C245.745 317.292 245.612 317.158 245.451 317.065L149.809 261.617C149.648 261.525 149.466 261.476 149.28 261.476C149.094 261.476 148.911 261.524 148.751 261.617C148.59 261.71 148.456 261.843 148.363 262.004C148.27 262.165 148.221 262.347 148.221 262.533L148.131 340.703C148.131 340.889 148.18 341.071 148.273 341.232C148.366 341.393 148.499 341.526 148.66 341.619L244.302 397.067C244.463 397.16 244.646 397.21 244.832 397.21ZM243.863 318.59L243.773 394.315L150.269 340.095L150.338 264.37L243.863 318.59Z" fill="#262424"/>
<path d="M159.814 292.544L192.397 311.349V342.149L159.772 323.317L159.814 292.544Z" fill="#F59C0C"/>
<path d="M233.932 335.326L233.9 366.109L201.301 347.293V316.494L233.932 335.326Z" fill="#515D6C"/>
<path d="M149.306 262.533L244.742 317.987L340.797 262.533L245.361 207.085L149.306 262.533Z" fill="white"/>
<path d="M244.742 319.045C244.928 319.045 245.11 318.995 245.271 318.902L341.326 263.454C341.486 263.361 341.62 263.228 341.712 263.067C341.805 262.906 341.854 262.724 341.854 262.539C341.854 262.353 341.805 262.171 341.712 262.01C341.62 261.85 341.486 261.716 341.326 261.623L245.89 206.17C245.729 206.077 245.547 206.028 245.361 206.028C245.175 206.028 244.992 206.077 244.832 206.17L148.75 261.618C148.59 261.711 148.456 261.844 148.364 262.005C148.271 262.166 148.222 262.348 148.222 262.533C148.222 262.719 148.271 262.901 148.364 263.062C148.456 263.222 148.59 263.356 148.75 263.449L244.207 318.897C244.369 318.993 244.553 319.044 244.742 319.045ZM338.684 262.533L244.742 316.764L151.397 262.533L245.361 208.308L338.684 262.533Z" fill="#262424"/>
<path d="M195.504 262.533L244.89 291.226L294.598 262.533L245.213 233.841L195.504 262.533Z" fill="white"/>
<path d="M244.89 292.284C245.076 292.284 245.258 292.235 245.419 292.142L295.128 263.449C295.288 263.356 295.421 263.222 295.514 263.062C295.606 262.901 295.655 262.719 295.655 262.533C295.655 262.348 295.606 262.166 295.514 262.005C295.421 261.844 295.288 261.711 295.128 261.618L245.742 232.925C245.581 232.832 245.399 232.783 245.213 232.783C245.027 232.783 244.844 232.832 244.683 232.925L194.975 261.618C194.815 261.711 194.681 261.844 194.589 262.005C194.496 262.166 194.448 262.348 194.448 262.533C194.448 262.719 194.496 262.901 194.589 263.062C194.681 263.222 194.815 263.356 194.975 263.449L244.36 292.142C244.521 292.235 244.704 292.284 244.89 292.284ZM292.486 262.533L244.895 290.009L197.622 262.539L245.213 235.063L292.486 262.533Z" fill="#262424"/>
<path d="M244.752 286.277L244.832 310.28L328.007 262.269L327.928 238.266L244.752 286.277Z" fill="white"/>
<path d="M244.832 311.339C245.018 311.338 245.2 311.289 245.361 311.196L328.536 263.19C328.698 263.096 328.832 262.962 328.925 262.8C329.018 262.639 329.066 262.455 329.066 262.269L328.986 238.265C328.986 238.08 328.937 237.897 328.844 237.737C328.751 237.576 328.617 237.442 328.456 237.35C328.296 237.257 328.113 237.208 327.927 237.208C327.741 237.208 327.559 237.257 327.398 237.35L244.228 285.361C244.067 285.455 243.932 285.589 243.84 285.751C243.747 285.912 243.698 286.096 243.699 286.282L243.778 310.285C243.78 310.564 243.891 310.831 244.088 311.029C244.285 311.226 244.553 311.337 244.832 311.339ZM326.943 261.686L245.885 308.475L245.811 286.907L326.869 240.118L326.943 261.686Z" fill="#262424"/>
<path d="M244.911 286.277L244.831 310.28L161.661 262.269L161.741 238.266L244.911 286.277Z" fill="white"/>
<path d="M244.832 311.339C245.112 311.339 245.382 311.228 245.58 311.029C245.779 310.83 245.89 310.561 245.89 310.28L245.97 286.277C245.97 286.091 245.922 285.907 245.829 285.746C245.736 285.584 245.602 285.45 245.44 285.356L162.27 237.34C162.109 237.247 161.927 237.198 161.741 237.198C161.555 237.198 161.373 237.247 161.212 237.339C161.051 237.432 160.917 237.566 160.824 237.726C160.731 237.887 160.682 238.07 160.682 238.255L160.603 262.258C160.602 262.445 160.651 262.628 160.743 262.79C160.836 262.952 160.97 263.086 161.132 263.179L244.302 311.201C244.464 311.293 244.646 311.34 244.832 311.339ZM243.852 286.886L243.778 308.454L162.72 261.687L162.794 240.118L243.852 286.886Z" fill="#262424"/>
<path d="M162.117 238.261L244.752 286.277L327.928 238.266L245.292 190.249L162.117 238.261Z" fill="white"/>
<path d="M244.752 287.336C244.938 287.335 245.121 287.286 245.282 287.193L328.452 239.181C328.612 239.088 328.745 238.955 328.838 238.794C328.93 238.633 328.979 238.451 328.979 238.266C328.979 238.08 328.93 237.898 328.838 237.737C328.745 237.577 328.612 237.443 328.452 237.35L245.816 189.333C245.655 189.24 245.473 189.191 245.287 189.191C245.101 189.191 244.918 189.24 244.758 189.333L161.587 237.339C161.427 237.433 161.294 237.566 161.201 237.727C161.109 237.887 161.06 238.07 161.06 238.255C161.06 238.441 161.109 238.623 161.201 238.783C161.294 238.944 161.427 239.078 161.587 239.171L244.223 287.188C244.383 287.283 244.566 287.334 244.752 287.336ZM325.81 238.26L244.752 285.049L164.229 238.26L245.287 191.472L325.81 238.26Z" fill="#262424"/>
<path d="M244.741 221.18L244.831 299.351L340.892 243.903L340.797 165.732L244.741 221.18Z" fill="#D7D7D7"/>
<path d="M329.855 195.738L297.266 214.543V245.342L329.892 226.516L329.855 195.738Z" fill="white"/>
<path d="M297.266 246.401C297.452 246.401 297.635 246.351 297.795 246.258L330.421 227.426C330.582 227.333 330.715 227.2 330.808 227.039C330.901 226.878 330.95 226.696 330.95 226.51L330.908 195.738C330.908 195.552 330.859 195.37 330.766 195.209C330.673 195.048 330.539 194.915 330.378 194.822C330.217 194.729 330.035 194.68 329.849 194.68C329.663 194.68 329.481 194.729 329.32 194.822L296.731 213.628C296.571 213.72 296.437 213.854 296.344 214.014C296.251 214.175 296.202 214.358 296.202 214.543V245.342C296.202 245.482 296.23 245.62 296.283 245.749C296.337 245.877 296.415 245.994 296.514 246.093C296.613 246.191 296.73 246.269 296.859 246.322C296.988 246.375 297.127 246.402 297.266 246.401ZM328.833 225.902L298.325 243.511V215.157L328.796 197.569L328.833 225.902Z" fill="#D7D7D7"/>
<path d="M255.737 238.52L255.768 269.303L288.362 250.492V219.688L255.737 238.52Z" fill="#2961A9"/>
<path d="M255.769 270.362C255.954 270.361 256.137 270.312 256.298 270.219L288.892 251.403C289.052 251.31 289.186 251.176 289.279 251.016C289.372 250.855 289.421 250.673 289.421 250.487V219.693C289.421 219.507 289.372 219.325 289.279 219.164C289.186 219.004 289.052 218.87 288.891 218.777C288.73 218.685 288.548 218.636 288.362 218.636C288.176 218.636 287.994 218.685 287.833 218.778L255.207 237.604C255.047 237.697 254.913 237.831 254.82 237.991C254.727 238.152 254.678 238.334 254.678 238.52L254.71 269.303C254.71 269.584 254.821 269.853 255.02 270.052C255.218 270.25 255.488 270.362 255.769 270.362ZM287.303 249.878L256.822 267.472L256.79 239.134L287.298 221.525V249.878H287.303Z" fill="#D7D7D7"/>
<path d="M244.927 221.18L244.831 299.351L149.21 243.903L149.306 165.732L244.927 221.18Z" fill="white"/>
<path d="M244.832 300.409C245.113 300.409 245.382 300.298 245.58 300.099C245.779 299.901 245.89 299.631 245.89 299.351L245.98 221.18C245.98 220.995 245.931 220.812 245.838 220.652C245.745 220.491 245.612 220.358 245.451 220.265L149.809 164.827C149.648 164.735 149.466 164.686 149.28 164.686C149.094 164.685 148.911 164.734 148.751 164.827C148.59 164.92 148.456 165.053 148.363 165.214C148.27 165.375 148.221 165.557 148.221 165.743L148.131 243.913C148.131 244.099 148.18 244.281 148.273 244.442C148.366 244.603 148.499 244.736 148.66 244.829L244.302 300.266C244.463 300.36 244.646 300.409 244.832 300.409ZM243.863 221.789L243.773 297.514L150.269 243.294L150.338 167.569L243.863 221.789Z" fill="#262424"/>
<path d="M159.814 195.738L192.397 214.543V245.342L159.772 226.516L159.814 195.738Z" fill="#515D6C"/>
<path d="M233.932 238.52L233.9 269.303L201.301 250.492V219.688L233.932 238.52Z" fill="#F59C0C"/>
<path d="M149.306 165.727L244.742 221.181L340.797 165.733L245.361 110.279L149.306 165.727Z" fill="white"/>
<path d="M244.742 222.239C244.928 222.239 245.11 222.189 245.271 222.096L341.326 166.648C341.486 166.555 341.62 166.421 341.712 166.261C341.805 166.1 341.854 165.918 341.854 165.732C341.854 165.547 341.805 165.365 341.712 165.204C341.62 165.043 341.486 164.91 341.326 164.817L245.89 109.363C245.729 109.271 245.547 109.222 245.361 109.222C245.175 109.222 244.992 109.271 244.832 109.363L148.75 164.827C148.59 164.92 148.456 165.054 148.364 165.215C148.271 165.375 148.222 165.558 148.222 165.743C148.222 165.928 148.271 166.111 148.364 166.271C148.456 166.432 148.59 166.566 148.75 166.659L244.207 222.096C244.369 222.19 244.554 222.24 244.742 222.239ZM338.684 165.727L244.742 219.958L151.397 165.732L245.361 111.502L338.684 165.727Z" fill="#262424"/>
<path d="M195.504 165.727L244.89 194.425L294.598 165.733L245.213 137.035L195.504 165.727Z" fill="white"/>
<path d="M244.89 195.484C245.076 195.483 245.258 195.434 245.419 195.341L295.128 166.648C295.288 166.555 295.421 166.421 295.514 166.261C295.606 166.1 295.655 165.918 295.655 165.732C295.655 165.547 295.606 165.365 295.514 165.204C295.421 165.043 295.288 164.91 295.128 164.817L245.742 136.119C245.581 136.026 245.399 135.977 245.213 135.977C245.027 135.977 244.844 136.026 244.683 136.119L194.975 164.811C194.815 164.905 194.681 165.038 194.589 165.199C194.496 165.359 194.448 165.542 194.448 165.727C194.448 165.913 194.496 166.095 194.589 166.255C194.681 166.416 194.815 166.55 194.975 166.643L244.36 195.341C244.521 195.434 244.704 195.483 244.89 195.484ZM292.486 165.727L244.895 193.202L197.622 165.732L245.213 138.257L292.486 165.727Z" fill="#262424"/>
<path d="M244.752 189.47L244.832 213.479L328.007 165.467L327.928 141.459L244.752 189.47Z" fill="white"/>
<path d="M244.832 214.538C245.018 214.537 245.2 214.488 245.361 214.395L328.536 166.383C328.698 166.29 328.832 166.156 328.925 165.994C329.018 165.832 329.066 165.649 329.066 165.462L328.986 141.459C328.986 141.274 328.937 141.091 328.844 140.93C328.751 140.77 328.617 140.636 328.456 140.543C328.296 140.451 328.113 140.402 327.927 140.402C327.741 140.402 327.559 140.451 327.398 140.544L244.228 188.555C244.067 188.648 243.932 188.783 243.84 188.944C243.747 189.106 243.698 189.29 243.699 189.476L243.778 213.479C243.778 213.759 243.889 214.028 244.086 214.226C244.284 214.424 244.552 214.536 244.832 214.538ZM326.943 164.859L245.885 211.648L245.811 190.085L326.869 143.296L326.943 164.859Z" fill="#262424"/>
<path d="M244.911 189.47L244.831 213.479L161.661 165.467L161.741 141.459L244.911 189.47Z" fill="white"/>
<path d="M244.832 214.538C245.112 214.538 245.382 214.426 245.58 214.228C245.779 214.029 245.89 213.76 245.89 213.479L245.97 189.476C245.97 189.29 245.922 189.106 245.829 188.944C245.736 188.783 245.602 188.648 245.44 188.555L162.27 140.544C162.109 140.451 161.927 140.402 161.741 140.402C161.555 140.402 161.373 140.451 161.212 140.543C161.051 140.636 160.917 140.77 160.824 140.93C160.731 141.091 160.682 141.274 160.682 141.459L160.603 165.462C160.602 165.649 160.651 165.832 160.743 165.994C160.836 166.156 160.97 166.29 161.132 166.383L244.302 214.395C244.463 214.488 244.646 214.537 244.832 214.538ZM243.852 190.085L243.778 211.648L162.72 164.859L162.794 143.296L243.852 190.085Z" fill="#262424"/>
<path d="M162.117 141.459L244.752 189.471L327.928 141.459L245.292 93.4478L162.117 141.459Z" fill="white"/>
<path d="M244.752 190.529C244.938 190.529 245.121 190.48 245.282 190.386L328.452 142.38C328.612 142.287 328.745 142.153 328.838 141.993C328.93 141.832 328.979 141.65 328.979 141.464C328.979 141.279 328.93 141.097 328.838 140.936C328.745 140.775 328.612 140.642 328.452 140.549L245.816 92.532C245.655 92.439 245.473 92.3901 245.287 92.3901C245.101 92.3901 244.918 92.439 244.758 92.532L161.587 140.543C161.427 140.637 161.294 140.77 161.201 140.931C161.109 141.092 161.06 141.274 161.06 141.459C161.06 141.645 161.109 141.827 161.201 141.988C161.294 142.148 161.427 142.282 161.587 142.375L244.223 190.392C244.384 190.483 244.567 190.531 244.752 190.529ZM325.81 141.459L244.752 188.248L164.229 141.459L245.287 94.6703L325.81 141.459Z" fill="#262424"/>
<path d="M244.741 124.374L244.831 202.544L340.892 147.096L340.797 68.9258L244.741 124.374Z" fill="#D7D7D7"/>
<path d="M329.855 98.9365L297.266 117.742V148.541L329.892 129.709L329.855 98.9365Z" fill="#2961A9"/>
<path d="M297.266 149.6C297.452 149.599 297.635 149.55 297.795 149.457L330.421 130.625C330.582 130.532 330.715 130.398 330.808 130.238C330.901 130.077 330.95 129.895 330.95 129.709L330.908 98.9364C330.908 98.7507 330.859 98.5683 330.766 98.4075C330.673 98.2467 330.539 98.1132 330.378 98.0205C330.217 97.9277 330.035 97.8789 329.849 97.8789C329.663 97.879 329.481 97.9279 329.32 98.0207L296.731 116.826C296.571 116.919 296.437 117.053 296.344 117.213C296.251 117.374 296.202 117.556 296.202 117.742V148.541C296.202 148.681 296.23 148.819 296.283 148.947C296.337 149.076 296.415 149.193 296.514 149.291C296.613 149.39 296.73 149.468 296.859 149.521C296.988 149.573 297.127 149.6 297.266 149.6ZM328.833 129.1L298.325 146.71V118.351L328.796 100.784L328.833 129.1Z" fill="#D7D7D7"/>
<path d="M255.737 141.719L255.768 172.502L288.362 153.686V122.887L255.737 141.719Z" fill="white"/>
<path d="M255.769 173.56C255.954 173.56 256.137 173.511 256.298 173.418L288.892 154.601C289.052 154.509 289.186 154.375 289.279 154.214C289.372 154.054 289.421 153.871 289.421 153.686V122.887C289.421 122.701 289.372 122.518 289.279 122.358C289.186 122.197 289.052 122.063 288.891 121.971C288.73 121.878 288.548 121.829 288.362 121.829C288.176 121.829 287.994 121.878 287.833 121.971L255.207 140.803C255.047 140.896 254.913 141.029 254.82 141.19C254.727 141.351 254.678 141.533 254.678 141.719L254.71 172.502C254.71 172.783 254.821 173.052 255.02 173.25C255.218 173.449 255.488 173.56 255.769 173.56ZM287.303 153.077L256.827 170.649L256.796 142.311L287.303 124.702V153.056V153.077Z" fill="#D7D7D7"/>
<path d="M244.927 124.374L244.831 202.544L149.21 147.096L149.306 68.9258L244.927 124.374Z" fill="white"/>
<path d="M244.832 203.602C245.113 203.602 245.382 203.491 245.58 203.292C245.779 203.094 245.89 202.825 245.89 202.544L245.98 124.374C245.98 124.188 245.931 124.006 245.838 123.845C245.745 123.684 245.612 123.551 245.451 123.458L149.809 68.01C149.648 67.9171 149.466 67.8682 149.28 67.8682C149.094 67.8681 148.911 67.9169 148.751 68.0097C148.59 68.1025 148.456 68.236 148.363 68.3967C148.27 68.5575 148.221 68.7399 148.221 68.9256L148.131 147.096C148.131 147.281 148.18 147.464 148.273 147.625C148.366 147.785 148.499 147.919 148.66 148.012L244.302 203.465C244.464 203.556 244.646 203.604 244.832 203.602ZM243.863 124.982L243.773 200.707L150.269 146.487L150.338 70.7623L243.863 124.982Z" fill="#262424"/>
<path d="M159.814 98.9365L192.397 117.742V148.541L159.772 129.709L159.814 98.9365Z" fill="#F59C0C"/>
<path d="M233.932 141.719L233.9 172.502L201.301 153.686V122.887L233.932 141.719Z" fill="#515D6C"/>
<path d="M149.306 68.9259L244.742 124.374L340.797 68.9259L245.361 13.4727L149.306 68.9259Z" fill="white"/>
<path d="M244.742 125.432C244.928 125.432 245.11 125.383 245.271 125.289L341.326 69.8468C341.486 69.7538 341.62 69.6202 341.712 69.4595C341.805 69.2988 341.854 69.1166 341.854 68.9312C341.854 68.7457 341.805 68.5635 341.712 68.4028C341.62 68.2421 341.486 68.1085 341.326 68.0155L245.89 12.5622C245.729 12.4693 245.547 12.4204 245.361 12.4204C245.175 12.4204 244.992 12.4693 244.832 12.5622L148.75 68.0049C148.59 68.098 148.456 68.2315 148.364 68.3922C148.271 68.5529 148.222 68.7351 148.222 68.9206C148.222 69.106 148.271 69.2882 148.364 69.4489C148.456 69.6096 148.59 69.7432 148.75 69.8362L244.207 125.289C244.369 125.384 244.554 125.433 244.742 125.432ZM338.684 68.9259L244.742 123.156L151.397 68.9259L245.361 14.7005L338.684 68.9259Z" fill="#262424"/>
<path d="M195.504 68.926L244.89 97.6186L294.598 68.926L245.213 40.2334L195.504 68.926Z" fill="#3B444C"/>
</g>
<defs>
<clipPath id="clip0_1_1169">
<rect width="715" height="596" fill="white" transform="matrix(-1 0 0 1 715 0)"/>
</clipPath>
</defs>
</svg>
