<svg width="315" height="220" viewBox="0 0 315 220" fill="none" xmlns="http://www.w3.org/2000/svg">
<path d="M305.603 130.286L313.318 129.837C314.493 123.871 314.493 117.733 313.318 111.767L305.603 111.318C304.678 107.644 303.219 104.127 301.273 100.88L306.41 95.092C303.037 90.0418 298.71 85.703 293.673 82.3205L287.899 87.4653C284.656 85.5163 281.145 84.0568 277.478 83.1336L277.03 75.3984C271.081 74.2199 264.959 74.2199 259.009 75.3984L258.562 83.1336C254.895 84.0568 251.383 85.5163 248.141 87.4653L242.369 82.3142C237.332 85.6966 233.005 90.0354 229.632 95.0856L234.769 100.873C232.825 104.125 231.37 107.646 230.449 111.322L222.728 111.767C221.553 117.733 221.553 123.871 222.728 129.837L230.443 130.286C231.363 133.963 232.819 137.483 234.762 140.735L229.625 146.523C232.999 151.573 237.326 155.911 242.362 159.294L248.134 154.143C251.377 156.092 254.888 157.551 258.555 158.474L259.003 166.21C264.952 167.388 271.074 167.388 277.024 166.21L277.472 158.474C281.14 157.557 284.653 156.102 287.899 154.158L293.671 159.309C298.707 155.926 303.035 151.588 306.408 146.537L301.273 140.746C303.221 137.491 304.68 133.967 305.603 130.286ZM268.029 136.163C264.999 136.163 262.037 135.262 259.518 133.574C256.998 131.886 255.035 129.487 253.875 126.68C252.716 123.873 252.412 120.784 253.003 117.804C253.594 114.824 255.054 112.087 257.196 109.938C259.339 107.79 262.069 106.327 265.04 105.734C268.012 105.141 271.093 105.446 273.892 106.608C276.692 107.771 279.084 109.74 280.768 112.266C282.451 114.792 283.35 117.763 283.35 120.801C283.351 122.819 282.956 124.818 282.186 126.683C281.417 128.549 280.288 130.243 278.866 131.671C277.443 133.099 275.753 134.231 273.893 135.004C272.033 135.776 270.04 136.174 268.027 136.173L268.029 136.163Z" fill="#2A71CB"/>
<path d="M230.143 9.59126L117.06 26.4564C111.118 27.3426 107.017 32.891 107.901 38.8492L131.581 198.483C132.464 204.442 137.998 208.553 143.94 207.667L257.023 190.802C262.965 189.916 267.065 184.367 266.181 178.409L242.502 18.7748C241.618 12.8167 236.085 8.70507 230.143 9.59126Z" fill="white" stroke="#262424" stroke-width="3" stroke-linecap="round" stroke-linejoin="round"/>
<path d="M119.225 52.1665L105.915 54.1516C104.176 54.411 102.975 56.0353 103.234 57.7795L103.339 58.4869C103.598 60.2311 105.218 61.4347 106.957 61.1753L120.267 59.1902C122.007 58.9308 123.207 57.3065 122.948 55.5623L122.843 54.8549C122.585 53.1107 120.965 51.9071 119.225 52.1665Z" fill="#D1791F"/>
<path d="M125.319 93.2495L112.009 95.2346C110.269 95.494 109.069 97.1183 109.328 98.8625L109.433 99.5699C109.691 101.314 111.311 102.518 113.051 102.258L126.361 100.273C128.1 100.014 129.301 98.3895 129.042 96.6453L128.937 95.9379C128.678 94.1937 127.059 92.9901 125.319 93.2495Z" fill="#D1791F"/>
<path d="M131.414 134.33L118.104 136.315C116.364 136.575 115.164 138.199 115.423 139.943L115.527 140.65C115.786 142.395 117.406 143.598 119.146 143.339L132.456 141.354C134.195 141.094 135.396 139.47 135.137 137.726L135.032 137.018C134.773 135.274 133.153 134.071 131.414 134.33Z" fill="#D1791F"/>
<path d="M137.507 175.413L124.196 177.398C122.457 177.658 121.257 179.282 121.515 181.026L121.62 181.734C121.879 183.478 123.499 184.681 125.238 184.422L138.548 182.437C140.288 182.177 141.488 180.553 141.23 178.809L141.125 178.102C140.866 176.357 139.246 175.154 137.507 175.413Z" fill="#D1791F"/>
<path d="M282.045 26.1576L170.118 2.79326C164.236 1.56556 158.476 5.35096 157.252 11.2482L124.447 169.251C123.223 175.148 126.998 180.924 132.879 182.152L244.806 205.516C250.688 206.744 256.448 202.958 257.672 197.061L290.477 39.0584C291.701 33.1612 287.926 27.3853 282.045 26.1576Z" fill="white" stroke="#262424" stroke-width="3" stroke-linecap="round" stroke-linejoin="round"/>
<path d="M188.515 25.1869L175.63 22.4972C173.507 22.0539 171.427 23.4206 170.985 25.5498L168.302 38.4699C167.86 40.5991 169.223 42.6844 171.347 43.1277L184.232 45.8174C186.355 46.2607 188.435 44.894 188.877 42.7648L191.56 29.8447C192.002 27.7155 190.639 25.6302 188.515 25.1869Z" fill="#2961A9"/>
<path d="M267.565 48.102L204.801 35.0004C202.505 34.5212 200.257 35.9987 199.779 38.3005C199.301 40.6023 200.775 42.8567 203.07 43.3359L265.834 56.4376C268.13 56.9168 270.378 55.4393 270.856 53.1374C271.334 50.8356 269.86 48.5812 267.565 48.102Z" fill="#F59C0C"/>
<path d="M179.991 66.2404L167.106 63.5506C164.982 63.1074 162.902 64.4741 162.46 66.6032L159.778 79.5234C159.336 81.6525 160.699 83.7379 162.822 84.1812L175.707 86.8709C177.831 87.3142 179.911 85.9475 180.353 83.8183L183.035 70.8982C183.477 68.769 182.114 66.6836 179.991 66.2404Z" fill="#2961A9"/>
<path d="M259.04 89.1555L196.277 76.0538C193.981 75.5746 191.733 77.0521 191.255 79.3539C190.777 81.6557 192.25 83.9102 194.546 84.3894L257.31 97.491C259.605 97.9702 261.854 96.4927 262.332 94.1909C262.809 91.8891 261.336 89.6347 259.04 89.1555Z" fill="#F59C0C"/>
<path d="M171.468 107.292L158.583 104.602C156.46 104.159 154.38 105.525 153.938 107.655L151.255 120.575C150.813 122.704 152.176 124.789 154.3 125.233L167.185 127.922C169.308 128.366 171.388 126.999 171.83 124.87L174.513 111.95C174.955 109.82 173.592 107.735 171.468 107.292Z" fill="#2961A9"/>
<path d="M250.516 130.209L187.752 117.107C185.457 116.628 183.208 118.105 182.73 120.407C182.252 122.709 183.726 124.963 186.022 125.442L248.785 138.544C251.081 139.023 253.329 137.546 253.807 135.244C254.285 132.942 252.811 130.688 250.516 130.209Z" fill="#F59C0C"/>
<path d="M162.946 148.345L150.061 145.655C147.937 145.212 145.857 146.579 145.415 148.708L142.733 161.628C142.291 163.757 143.654 165.843 145.777 166.286L158.663 168.976C160.786 169.419 162.866 168.052 163.308 165.923L165.99 153.003C166.432 150.874 165.069 148.788 162.946 148.345Z" fill="#2961A9"/>
<path d="M241.991 171.262L179.228 158.16C176.932 157.681 174.684 159.159 174.206 161.461C173.728 163.762 175.202 166.017 177.497 166.496L240.261 179.598C242.556 180.077 244.805 178.599 245.283 176.297C245.761 173.996 244.287 171.741 241.991 171.262Z" fill="#F59C0C"/>
<path d="M34.7266 111.446C34.7266 111.446 40.0167 113 41.0314 114.202C42.0461 115.405 40.7427 116.757 40.7427 116.757C40.7427 116.757 42.7169 121.116 42.6108 122.717C42.5047 124.317 40.2757 123.466 40.2757 123.466C40.2757 123.466 34.8073 125.618 33.2449 124.751C31.6825 123.885 30.8249 113.419 30.8249 113.419C30.8249 113.419 21.442 98.7318 20.4485 90.8369C19.455 82.942 23.4926 81.1732 28.2032 83.4337C30.7017 84.6321 33.6079 106.563 34.7266 111.446Z" fill="white" stroke="#262424" stroke-width="2" stroke-linecap="round" stroke-linejoin="round"/>
<path d="M19.3619 84.1298C19.3619 84.1298 19.2197 88.6935 23.3698 91.1669C27.5199 93.6403 31.4365 91.1094 31.4365 91.1094C31.4365 91.1094 48.1304 70.4985 48.3937 64.928C48.6569 59.3575 44.9122 57.0118 39.6773 59.4193C32.7697 62.5972 19.3619 84.1298 19.3619 84.1298Z" fill="#EA3360"/>
<path d="M21.3887 83.3784C21.3887 83.3784 21.9449 87.2098 25.1503 88.9127C28.5468 90.7177 31.5846 88.7531 31.5846 88.7531" stroke="#AA0B32" stroke-width="2" stroke-linecap="round" stroke-linejoin="round"/>
<path d="M36.2635 188.089L25.21 183.592L30.3047 161.122C30.3047 161.122 27.9845 113.879 37.6624 104.094C46.5783 95.0791 58.4789 99.3256 56.2435 110.332C54.5453 118.734 50.0873 145.49 48.0855 157.683C47.4614 161.465 47.075 163.855 47.075 163.855L44.4512 169.741L36.2635 188.089Z" fill="#F2F3D9"/>
<path d="M40.7318 127.893L37.6431 128.851C37.4663 128.907 37.2765 128.907 37.0997 128.851L34.1277 127.893C33.9493 127.835 33.7956 127.719 33.6915 127.562C33.5875 127.406 33.5392 127.219 33.5545 127.031L33.9197 121.497C33.9387 121.253 34.0478 121.025 34.2257 120.858C34.4036 120.69 34.6374 120.596 34.8813 120.592H40.9314C41.0481 120.59 41.1641 120.612 41.2718 120.657C41.3795 120.702 41.4765 120.77 41.5565 120.855C41.6366 120.941 41.6979 121.042 41.7364 121.152C41.775 121.263 41.79 121.38 41.7805 121.497L41.4154 127.031C41.4002 127.227 41.3271 127.413 41.2052 127.567C41.0834 127.721 40.9185 127.834 40.7318 127.893V127.893Z" fill="#B3B4A2"/>
<path d="M44.4517 169.732C44.2584 169.668 44.0697 169.591 43.887 169.5C41.2675 168.202 40.4035 164.605 41.9531 161.457C43.2268 158.855 45.7742 157.38 48.086 157.685C47.4619 161.467 47.0755 163.858 47.0755 163.858L44.4517 169.732Z" fill="white"/>
<path d="M43.7576 131.823L38.1406 162.814L32.082 182.697" stroke="#B3B4A2" stroke-width="2" stroke-linecap="round" stroke-linejoin="round"/>
<path d="M27.9828 185.156L22.6396 200.714L27.987 202.378L35.056 188.551L27.9828 185.156Z" fill="white" stroke="#262424" stroke-width="2" stroke-linecap="round" stroke-linejoin="round"/>
<path d="M45.0222 216.218V218.515H16.8799C16.8799 218.515 16.8799 217.432 16.9712 215.724C17.1834 211.644 17.9392 203.99 20.4802 199.073H30.8693C30.8693 199.073 33.629 207.225 42.4918 211.989C43.1815 212.359 43.7703 212.894 44.2069 213.545C44.6435 214.196 44.9146 214.944 44.9967 215.724C45.0135 215.889 45.022 216.053 45.0222 216.218Z" fill="#0F110C"/>
<path d="M45.0222 216.218V218.515H16.8799C16.8799 218.515 16.8799 217.432 16.9712 215.724H44.9924C45.0106 215.888 45.0206 216.053 45.0222 216.218V216.218Z" fill="white" stroke="#262424" stroke-width="2" stroke-linecap="round" stroke-linejoin="round"/>
<path d="M23.9643 181.271L38.5714 188.064L34.3492 195.66L21.4912 189.649L23.9643 181.271Z" fill="#B3B4A2" stroke="#B3B4A2" stroke-width="2" stroke-linecap="round" stroke-linejoin="round"/>
<path d="M85.9331 185.893L75.0557 186.842L68.872 163.406C68.872 163.406 53.4412 139.992 51.6007 134.458C49.7602 128.924 45.2322 122.627 46.7627 110.024C48.2933 97.4207 66.6218 96.4415 69.4833 107.297C71.6677 115.599 79.5073 141.567 83.0949 153.381C84.2072 157.048 84.912 159.356 84.912 159.356L85.1689 165.797L85.9331 185.893Z" fill="#F2F3D9"/>
<path d="M59.9391 127.893L57.1285 128.851C56.9517 128.907 56.7619 128.907 56.5851 128.851L53.3456 127.893C53.146 127.833 52.9653 127.722 52.821 127.571C52.6767 127.42 52.5737 127.234 52.522 127.031L51.2886 121.497C51.2563 121.389 51.2501 121.276 51.2706 121.166C51.291 121.055 51.3374 120.952 51.406 120.863C51.4746 120.775 51.5633 120.704 51.6648 120.657C51.7662 120.61 51.8775 120.587 51.9892 120.592H58.0392C58.2958 120.604 58.5418 120.698 58.7407 120.861C58.9396 121.024 59.0807 121.247 59.1431 121.497L60.3764 127.031C60.4275 127.204 60.4107 127.389 60.3293 127.55C60.248 127.71 60.1083 127.833 59.9391 127.893V127.893Z" fill="#B3B4A2"/>
<path d="M49.9958 130.416C47.9855 125.665 45.5867 119.705 46.7649 110.026C46.879 109.06 47.1085 108.111 47.4484 107.199" stroke="#B3B4A2" stroke-width="2" stroke-linecap="round" stroke-linejoin="round"/>
<path d="M85.1697 165.797C84.9678 165.825 84.7642 165.839 84.5604 165.839C81.6394 165.839 79.2725 162.995 79.2725 159.488C79.2725 156.586 80.8922 154.139 83.0936 153.381C84.2059 157.048 84.9107 159.356 84.9107 159.356L85.1697 165.797Z" fill="white"/>
<path d="M64.366 110.601L65.2874 114.568C65.519 115.567 65.4932 116.607 65.2125 117.593C64.9317 118.578 64.4051 119.476 63.6825 120.201L63.0732 120.811" stroke="#B3B4A2" stroke-width="2" stroke-linecap="round" stroke-linejoin="round"/>
<path d="M60.0098 111.273L76.4468 162.399L79.8009 182.915" stroke="#B3B4A2" stroke-width="2" stroke-linecap="round" stroke-linejoin="round"/>
<path d="M78.5479 186.942L80.6325 203.262L86.1624 202.378L86.3896 186.842L78.5479 186.942Z" fill="white" stroke="#262424" stroke-width="2" stroke-linecap="round" stroke-linejoin="round"/>
<path d="M103.198 216.218V218.515H75.0557C75.0557 218.515 75.0557 217.432 75.147 215.724C75.3592 211.644 76.115 203.99 78.656 199.073H89.0451C89.0451 199.073 91.8048 207.225 100.668 211.989C101.357 212.359 101.946 212.894 102.383 213.545C102.819 214.196 103.09 214.944 103.172 215.724C103.189 215.889 103.198 216.053 103.198 216.218Z" fill="#0F110C"/>
<path d="M103.198 216.218V218.515H75.0557C75.0557 218.515 75.0557 217.432 75.147 215.724H103.168C103.186 215.888 103.196 216.053 103.198 216.218V216.218Z" fill="white" stroke="#262424" stroke-width="2" stroke-linecap="round" stroke-linejoin="round"/>
<path d="M72.1758 185.067L89.324 184.843L88.8973 193.53L73.6618 193.675L72.1758 185.067Z" fill="#B3B4A2" stroke="#B3B4A2" stroke-width="2" stroke-linecap="round" stroke-linejoin="round"/>
<path d="M50.0709 45.6112C50.4127 46.6222 55.9787 53.4571 60.7678 50.2068C65.5569 46.9564 63.3513 34.8981 59.7552 33.2208C56.1592 31.5434 45.441 31.9457 50.0709 45.6112Z" fill="white" stroke="#262424" stroke-width="2" stroke-linecap="round" stroke-linejoin="round"/>
<path d="M47.5293 54.8108L49.0153 46.9074L53.5921 46.1837L54.3266 54.9854L47.5293 54.8108Z" fill="white" stroke="#262424" stroke-width="2" stroke-linecap="round" stroke-linejoin="round"/>
<path d="M48.0561 47.363C49.247 47.7887 52.2572 47.9782 53.7156 47.6589L54.2696 44.7172C54.2696 44.7172 50.8115 40.2962 53.0617 38.4486C55.3119 36.601 57.6407 39.3128 57.9018 41.8798C58.1629 44.4469 65.3317 41.3966 65.2319 37.2268C65.1321 33.0569 60.653 31.767 60.653 31.767C60.653 31.767 57.3562 27.2757 50.2511 30.4898C43.146 33.704 44.114 40.9539 48.0561 47.363Z" fill="#262424"/>
<path d="M44.1289 58.9084C44.1289 58.9084 44.6936 53.8424 49.3447 53.6402C53.9958 53.4379 57.0293 54.0467 57.4348 58.406L44.1289 58.9084Z" fill="white" stroke="#AA0B32" stroke-width="2" stroke-linecap="round" stroke-linejoin="round"/>
<path d="M48.0647 57.3758C38.6394 57.3758 35.4976 65.9262 33.8524 76.1263C32.2072 86.3264 30.2627 117.012 30.2627 117.012C30.2627 117.012 47.4236 119.868 73.6023 117.167L67.6584 88.8765C67.6584 88.8765 70.6494 78.3762 71.3988 75.3771C72.1481 72.3779 62.4235 59.4767 59.7232 58.1357C57.023 56.7947 48.0647 57.3758 48.0647 57.3758Z" fill="#EA3360"/>
<path d="M40.5051 60.0151C36.6967 63.3144 34.9454 69.3574 33.8521 76.1263C33.383 79.0275 32.8926 83.5763 32.4277 88.6253" stroke="#AA0B32" stroke-width="2" stroke-linecap="round" stroke-linejoin="round"/>
<path d="M33.0459 114.321C33.0459 114.321 50.5486 116.595 69.9066 114.321" stroke="#AA0B32" stroke-width="2" stroke-linecap="round" stroke-linejoin="round"/>
<path d="M92.1555 43.5443C92.1555 45.8155 91.0941 47.6588 89.7609 47.6588C89.51 47.657 89.2634 47.5926 89.0434 47.4715L67.3906 45.8729V41.2135L89.0434 39.6171C89.2628 39.4941 89.5096 39.4289 89.7609 39.4276C91.0835 39.4276 92.1555 41.271 92.1555 43.5443Z" fill="white" stroke="#262424" stroke-width="2" stroke-linecap="round" stroke-linejoin="round"/>
<path d="M67.3817 45.8729C68.1297 45.8729 68.7361 44.8303 68.7361 43.5442C68.7361 42.2582 68.1297 41.2156 67.3817 41.2156C66.6337 41.2156 66.0273 42.2582 66.0273 43.5442C66.0273 44.8303 66.6337 45.8729 67.3817 45.8729Z" fill="white" stroke="#262424" stroke-width="2" stroke-linecap="round" stroke-linejoin="round"/>
<path d="M73.5596 68.6891C73.5596 68.6891 76.5825 58.3996 77.1684 53.2038C77.1684 53.2038 72.4982 49.8364 71.9123 48.308C71.3264 46.7797 73.0799 45.8921 73.0799 45.8921C73.0799 45.8921 72.6426 40.9134 73.2921 39.3766C73.9417 37.8397 75.8395 39.4489 75.8395 39.4489C75.8395 39.4489 81.9724 39.2361 83.2142 40.6196C84.4561 42.0032 81.6816 52.6248 81.6816 52.6248C81.6816 52.6248 84.9783 68.9424 83.227 77.0715C81.4756 85.2005 75.7801 84.8301 71.5514 81.3903C67.3228 77.9506 73.5596 68.6891 73.5596 68.6891Z" fill="white" stroke="#262424" stroke-width="2" stroke-linecap="round" stroke-linejoin="round"/>
<path d="M70.6552 83.4146C70.6552 83.4146 75.3806 83.9361 78.2868 79.8088C81.1929 75.6815 78.8876 71.3882 78.8876 71.3882C78.8876 71.3882 66.4881 59.0169 60.7183 58.2847C54.9484 57.5524 52.227 61.2647 54.2882 66.9288C57.0182 74.3873 70.6552 83.4146 70.6552 83.4146Z" fill="#EA3360"/>
<path d="M70.0439 81.2286C70.0439 81.2286 74.0773 80.9625 76.1025 77.7569C78.2529 74.3682 76.4634 71.0284 76.4634 71.0284" stroke="#AA0B32" stroke-width="2" stroke-linecap="round" stroke-linejoin="round"/>
<path d="M53.9637 61.3093C53.4011 62.7802 53.4712 64.715 54.2842 66.9287C56.407 72.7142 65.0788 79.4426 68.868 82.1714" stroke="#AA0B32" stroke-width="2" stroke-linecap="round" stroke-linejoin="round"/>
<path d="M44.7256 33.3633C44.7256 33.3633 41.7154 25.5259 34.7059 27.3522C27.6963 29.1785 27.051 37.9844 28.0933 43.6847C29.1356 49.3851 23.82 50.9389 20.4235 51.486C17.027 52.033 16.9676 64.5469 29.3988 62.1011C41.8301 59.6554 40.2465 48.5081 39.9875 42.795C39.7285 37.0819 41.8152 35.428 44.7001 35.9623C47.5851 36.4966 44.7256 33.3633 44.7256 33.3633Z" fill="#262424"/>
<path d="M44.8076 33.6826L44.3109 36.0496C44.2733 36.2289 44.3071 36.4159 44.405 36.5706C44.503 36.7253 44.6574 36.8355 44.8352 36.8776L46.699 37.3225C46.7921 37.3442 46.8885 37.3466 46.9825 37.3295C47.0765 37.3124 47.166 37.2762 47.2455 37.2232C47.325 37.1702 47.3929 37.1014 47.445 37.0211C47.497 36.9408 47.5321 36.8507 47.5482 36.7563L47.9727 34.2808C48.0031 34.0992 47.9612 33.9129 47.856 33.7621C47.7508 33.6112 47.5907 33.5077 47.4102 33.474L45.6249 33.1398C45.4449 33.1051 45.2586 33.1425 45.1058 33.244C44.953 33.3455 44.846 33.5029 44.8076 33.6826V33.6826Z" fill="white" stroke="#262424" stroke-width="4" stroke-linecap="round" stroke-linejoin="round"/>
<path d="M79.8008 5.04907V7.93755" stroke="#2961A9" stroke-width="2" stroke-linecap="round" stroke-linejoin="round"/>
<path d="M84.1463 9.40625H81.2656" stroke="#2961A9" stroke-width="2" stroke-linecap="round" stroke-linejoin="round"/>
<path d="M79.8008 13.7635V10.875" stroke="#F59C0C" stroke-width="2" stroke-linecap="round" stroke-linejoin="round"/>
<path d="M75.457 9.40625H78.3377" stroke="#F59C0C" stroke-width="2" stroke-linecap="round" stroke-linejoin="round"/>
<path d="M5.03027 132.353V134.817" stroke="#2961A9" stroke-width="2" stroke-linecap="round" stroke-linejoin="round"/>
<path d="M8.73655 136.069H6.27832" stroke="#F59C0C" stroke-width="2" stroke-linecap="round" stroke-linejoin="round"/>
<path d="M5.03027 139.785V137.321" stroke="#F59C0C" stroke-width="2" stroke-linecap="round" stroke-linejoin="round"/>
<path d="M1.32422 136.069H3.78032" stroke="#2961A9" stroke-width="2" stroke-linecap="round" stroke-linejoin="round"/>
<path d="M92.1553 106.884V109.349" stroke="#F59C0C" stroke-width="2" stroke-linecap="round" stroke-linejoin="round"/>
<path d="M95.8615 110.601H93.4033" stroke="#2961A9" stroke-width="2" stroke-linecap="round" stroke-linejoin="round"/>
<path d="M92.1553 114.317V111.852" stroke="#2961A9" stroke-width="2" stroke-linecap="round" stroke-linejoin="round"/>
<path d="M88.4492 110.601H90.9075" stroke="#F59C0C" stroke-width="2" stroke-linecap="round" stroke-linejoin="round"/>
<path d="M117.326 200.933C119.299 200.933 120.898 199.329 120.898 197.351C120.898 195.372 119.299 193.768 117.326 193.768C115.352 193.768 113.753 195.372 113.753 197.351C113.753 199.329 115.352 200.933 117.326 200.933Z" fill="#2A71CB"/>
</svg>
