<svg width="471" height="551" viewBox="0 0 471 551" fill="none" xmlns="http://www.w3.org/2000/svg">
<g clip-path="url(#clip0_1_353)">
<path d="M471.301 305.355C468.35 305.355 465.682 306.553 463.752 308.483C461.816 310.413 460.624 313.087 460.624 316.033C460.624 313.087 459.432 310.413 457.496 308.483C455.566 306.553 452.898 305.355 449.946 305.355C452.898 305.355 455.566 304.157 457.496 302.227C459.432 300.297 460.624 297.623 460.624 294.678C460.624 297.623 461.816 300.297 463.752 302.227C465.682 304.157 468.35 305.355 471.301 305.355Z" fill="#F59C0C"/>
<path d="M58.4521 198.356C55.5306 198.356 52.89 199.542 50.9798 201.452C49.0633 203.362 47.8835 206.009 47.8835 208.924C47.8835 206.009 46.7037 203.362 44.7872 201.452C42.877 199.542 40.2365 198.356 37.3149 198.356C40.2365 198.356 42.877 197.17 44.7872 195.259C46.7037 193.349 47.8835 190.702 47.8835 187.787C47.8835 190.702 49.0633 193.349 50.9798 195.259C52.89 197.17 55.5306 198.356 58.4521 198.356Z" fill="#2961A9"/>
<path d="M334.918 264.443C333.05 264.443 331.362 265.201 330.141 266.423C328.915 267.644 328.161 269.336 328.161 271.2C328.161 269.336 327.407 267.644 326.181 266.423C324.96 265.201 323.272 264.443 321.404 264.443C323.272 264.443 324.96 263.685 326.181 262.463C327.407 261.242 328.161 259.55 328.161 257.686C328.161 259.55 328.915 261.242 330.141 262.463C331.362 263.685 333.05 264.443 334.918 264.443Z" fill="#2961A9"/>
<path d="M18.2154 287.258C16.7619 287.258 15.448 287.848 14.4976 288.799C13.5441 289.749 12.9571 291.066 12.9571 292.517C12.9571 291.066 12.3701 289.749 11.4165 288.799C10.4661 287.848 9.15232 287.258 7.69873 287.258C9.15232 287.258 10.4661 286.668 11.4165 285.718C12.3701 284.767 12.9571 283.45 12.9571 282C12.9571 283.45 13.5441 284.767 14.4976 285.718C15.448 286.668 16.7619 287.258 18.2154 287.258Z" fill="#F59C0C"/>
<path d="M420.731 264.443C422.005 264.443 423.037 263.41 423.037 262.136C423.037 260.862 422.005 259.83 420.731 259.83C419.457 259.83 418.424 260.862 418.424 262.136C418.424 263.41 419.457 264.443 420.731 264.443Z" fill="#2961A9"/>
<path d="M460.624 529.453C462.451 529.453 463.932 527.972 463.932 526.145C463.932 524.318 462.451 522.836 460.624 522.836C458.797 522.836 457.315 524.318 457.315 526.145C457.315 527.972 458.797 529.453 460.624 529.453Z" fill="#F59C0C"/>
<path d="M55.3825 386.606C58.1467 386.606 60.3875 384.365 60.3875 381.601C60.3875 378.837 58.1467 376.596 55.3825 376.596C52.6183 376.596 50.3774 378.837 50.3774 381.601C50.3774 384.365 52.6183 386.606 55.3825 386.606Z" fill="#2961A9"/>
<path d="M438.128 311.385V533.094C438.128 539.503 432.927 544.704 426.518 544.704H106.683C100.274 544.704 95.0835 539.503 95.0835 533.094V311.385C95.0835 304.975 100.274 299.774 106.683 299.774H426.518C432.927 299.774 438.128 304.975 438.128 311.385Z" fill="white" stroke="#262424" stroke-width="2" stroke-miterlimit="10" stroke-linecap="round" stroke-linejoin="round"/>
<path d="M438.128 311.385V337.474H95.0835V311.385C95.0835 304.975 100.274 299.774 106.683 299.774H426.518C432.927 299.774 438.128 304.975 438.128 311.385Z" fill="#D86A46" stroke="#262424" stroke-width="2" stroke-miterlimit="10" stroke-linecap="round" stroke-linejoin="round"/>
<path d="M354.114 326.243C358.044 326.243 361.229 323.057 361.229 319.127C361.229 315.197 358.044 312.011 354.114 312.011C350.184 312.011 346.998 315.197 346.998 319.127C346.998 323.057 350.184 326.243 354.114 326.243Z" fill="white" stroke="#914228" stroke-width="2" stroke-miterlimit="10" stroke-linecap="round" stroke-linejoin="round"/>
<path d="M379.58 326.243C383.51 326.243 386.696 323.057 386.696 319.127C386.696 315.197 383.51 312.011 379.58 312.011C375.65 312.011 372.465 315.197 372.465 319.127C372.465 323.057 375.65 326.243 379.58 326.243Z" fill="white" stroke="#914228" stroke-width="2" stroke-miterlimit="10" stroke-linecap="round" stroke-linejoin="round"/>
<path d="M405.047 326.243C408.977 326.243 412.163 323.057 412.163 319.127C412.163 315.197 408.977 312.011 405.047 312.011C401.117 312.011 397.931 315.197 397.931 319.127C397.931 323.057 401.117 326.243 405.047 326.243Z" fill="white" stroke="#914228" stroke-width="2" stroke-miterlimit="10" stroke-linecap="round" stroke-linejoin="round"/>
<path d="M127.796 416.944H120.271C118.488 416.944 117.042 415.498 117.042 413.716V374.981C117.042 373.198 118.488 371.753 120.271 371.753H127.796C129.579 371.753 131.024 373.198 131.024 374.981V413.716C131.024 415.498 129.579 416.944 127.796 416.944Z" fill="#7B61FF"/>
<path d="M150.516 416.943H142.991C141.208 416.943 139.763 415.498 139.763 413.715V394.955C139.763 393.172 141.208 391.727 142.991 391.727H150.516C152.299 391.727 153.744 393.172 153.744 394.955V413.715C153.744 415.498 152.299 416.943 150.516 416.943Z" fill="#7B61FF"/>
<path d="M173.236 416.943H165.711C163.928 416.943 162.483 415.498 162.483 413.715V387.464C162.483 385.682 163.928 384.236 165.711 384.236H173.236C175.019 384.236 176.465 385.682 176.465 387.464V413.715C176.465 415.498 175.019 416.943 173.236 416.943Z" fill="#7B61FF"/>
<path d="M215.411 440.095V506.752C215.411 509.652 213.068 511.995 210.168 511.995H121.289C118.389 511.995 116.046 509.652 116.046 506.752V440.095C116.046 437.195 118.389 434.852 121.289 434.852H210.168C213.068 434.852 215.411 437.195 215.411 440.095Z" stroke="#262424" stroke-width="2" stroke-miterlimit="10" stroke-linecap="round" stroke-linejoin="round"/>
<path d="M215.411 440.095V449.331H116.046V440.095C116.046 437.195 118.389 434.852 121.289 434.852H210.168C213.068 434.852 215.411 437.195 215.411 440.095Z" fill="#D86A46"/>
<path d="M139.763 454.073V507.004" stroke="#262424" stroke-width="2" stroke-miterlimit="10" stroke-linecap="round" stroke-linejoin="round"/>
<path d="M165.729 454.073V507.004" stroke="#262424" stroke-width="2" stroke-miterlimit="10" stroke-linecap="round" stroke-linejoin="round"/>
<path d="M191.694 454.073V507.004" stroke="#262424" stroke-width="2" stroke-miterlimit="10" stroke-linecap="round" stroke-linejoin="round"/>
<path d="M207.923 467.556H123.534" stroke="#262424" stroke-width="2" stroke-miterlimit="10" stroke-linecap="round" stroke-linejoin="round"/>
<path d="M207.923 493.521H123.534" stroke="#262424" stroke-width="2" stroke-miterlimit="10" stroke-linecap="round" stroke-linejoin="round"/>
<path d="M265.464 495.051H230.591C228.379 495.051 226.586 493.258 226.586 491.047V491.003C226.586 488.792 228.379 486.999 230.591 486.999H265.464C267.675 486.999 269.468 488.792 269.468 491.003V491.047C269.468 493.258 267.675 495.051 265.464 495.051Z" fill="#F59C0C"/>
<path d="M252.543 511.995H230.591C228.379 511.995 226.586 510.202 226.586 507.991V507.947C226.586 505.736 228.379 503.943 230.591 503.943H252.543C254.754 503.943 256.547 505.736 256.547 507.947V507.991C256.547 510.202 254.754 511.995 252.543 511.995Z" fill="#F59C0C"/>
<path d="M358.397 412.629H412.757C415.122 412.629 417.033 414.973 417.033 417.872V506.752C417.033 509.652 415.122 511.995 412.757 511.995H358.397C356.032 511.995 354.121 509.652 354.121 506.752V417.872C354.121 414.973 356.032 412.629 358.397 412.629Z" fill="white" stroke="#262424" stroke-width="2" stroke-miterlimit="10" stroke-linecap="round" stroke-linejoin="round"/>
<path d="M363.481 486.999H407.673" stroke="#262424" stroke-width="2" stroke-miterlimit="10" stroke-linecap="round" stroke-linejoin="round"/>
<path d="M363.481 496.518H407.673" stroke="#262424" stroke-width="2" stroke-miterlimit="10" stroke-linecap="round" stroke-linejoin="round"/>
<path d="M385.577 426.151C371.621 426.151 360.299 437.473 360.299 451.429C360.299 465.393 371.621 476.707 385.577 476.707C399.533 476.707 410.855 465.393 410.855 451.429C410.855 437.473 399.533 426.151 385.577 426.151ZM385.577 463.155C379.104 463.155 373.851 457.902 373.851 451.429C373.851 444.956 379.104 439.703 385.577 439.703C392.05 439.703 397.303 444.956 397.303 451.429C397.303 457.902 392.05 463.155 385.577 463.155Z" fill="#7B61FF"/>
<path d="M410.855 451.429H397.303C397.303 444.956 392.05 439.703 385.577 439.703V426.151C399.533 426.151 410.855 437.473 410.855 451.429Z" fill="#B6002D"/>
<path d="M417.166 382.212L417.03 382.264V401.093C417.03 403.993 415.117 406.336 412.753 406.336H358.4C356.036 406.336 354.124 403.993 354.124 401.093V381.161L356.971 380.1L378.868 371.999L394.649 377.841L402.173 375.057L417.03 380.562L417.166 382.212Z" fill="#F59C0C"/>
<path d="M417.03 382.264V401.093C417.03 403.993 415.117 406.336 412.753 406.336H358.4C356.036 406.336 354.124 403.993 354.124 401.093V379.049L356.971 380.1L370.189 384.996L377.712 382.211L397.434 389.514L417.03 382.264Z" fill="#123A6C"/>
<path d="M354.124 377.42V379.049V381.161V401.093C354.124 403.993 356.036 406.336 358.4 406.336H412.753C415.117 406.336 417.03 403.993 417.03 401.093V382.264V380.562V377.42" stroke="#262424" stroke-width="2" stroke-miterlimit="10" stroke-linecap="round" stroke-linejoin="round"/>
<path d="M378.868 373.82C379.874 373.82 380.689 373.005 380.689 371.999C380.689 370.993 379.874 370.178 378.868 370.178C377.862 370.178 377.047 370.993 377.047 371.999C377.047 373.005 377.862 373.82 378.868 373.82Z" fill="#123A6C"/>
<path d="M394.656 379.665C395.662 379.665 396.477 378.85 396.477 377.844C396.477 376.838 395.662 376.023 394.656 376.023C393.65 376.023 392.835 376.838 392.835 377.844C392.835 378.85 393.65 379.665 394.656 379.665Z" fill="#123A6C"/>
<path d="M370.199 386.824C371.205 386.824 372.02 386.008 372.02 385.003C372.02 383.997 371.205 383.182 370.199 383.182C369.193 383.182 368.378 383.997 368.378 385.003C368.378 386.008 369.193 386.824 370.199 386.824Z" fill="white"/>
<path d="M377.713 384.027C378.718 384.027 379.534 383.212 379.534 382.206C379.534 381.2 378.718 380.385 377.713 380.385C376.707 380.385 375.892 381.2 375.892 382.206C375.892 383.212 376.707 384.027 377.713 384.027Z" fill="white"/>
<path d="M397.438 391.335C398.444 391.335 399.259 390.52 399.259 389.514C399.259 388.508 398.444 387.693 397.438 387.693C396.433 387.693 395.617 388.508 395.617 389.514C395.617 390.52 396.433 391.335 397.438 391.335Z" fill="white"/>
<path d="M402.193 376.888C403.199 376.888 404.014 376.072 404.014 375.067C404.014 374.061 403.199 373.246 402.193 373.246C401.187 373.246 400.372 374.061 400.372 375.067C400.372 376.072 401.187 376.888 402.193 376.888Z" fill="#123A6C"/>
<path d="M264.817 362.081L242.626 384.271C241.714 385.183 241.617 386.629 242.399 387.655L295.546 457.4C296.328 458.426 296.23 459.872 295.318 460.785L290.775 465.328C289.768 466.334 289.768 467.966 290.775 468.972L305.738 483.936C306.509 484.706 306.711 485.877 306.245 486.862L303.578 492.492C303.267 493.148 303.248 493.905 303.524 494.576L312.732 516.955C313.13 517.921 314.071 518.552 315.116 518.552C316.678 518.552 317.881 517.172 317.669 515.624L315.698 501.265C315.549 500.179 316.103 499.118 317.079 498.619L325.154 494.495C326.258 493.931 326.804 492.66 326.453 491.47L323.935 482.944C323.667 482.039 323.917 481.06 324.584 480.392L336.274 468.702C337.083 467.893 337.262 466.648 336.713 465.644L326.856 447.612C326.404 446.786 325.537 446.271 324.594 446.271H296.963C296.11 446.271 295.313 445.85 294.833 445.145L288.001 435.115C287.304 434.091 287.433 432.717 288.308 431.842L288.795 431.354C289.589 430.561 290.804 430.372 291.801 430.887L301.021 435.652C302.196 436.259 303.64 435.878 304.363 434.77L316.167 416.67C316.75 415.776 316.722 414.617 316.098 413.752L302.092 394.372C301.455 393.491 300.334 393.105 299.289 393.406L290.797 395.853C289.896 396.113 288.924 395.863 288.261 395.199L285.667 392.605C284.466 391.404 284.735 389.39 286.209 388.547L295.241 383.376C296.399 382.713 296.86 381.277 296.304 380.065L290.698 367.84C290.365 367.114 289.714 366.583 288.935 366.403L267.218 361.392C266.353 361.192 265.445 361.452 264.817 362.081Z" fill="#123A6C"/>
<path d="M62.142 479.323C53.5482 492.954 44.8209 501.498 44.8209 501.498C36.3592 480.316 37.542 461.483 42.567 446.02C45.9025 435.739 50.9242 426.957 55.9531 419.965C64.5369 408.009 73.0898 401.274 73.0898 401.274C83.172 424.249 78.3273 446.978 70.0035 464.956C67.578 470.187 64.8701 475.016 62.142 479.323Z" fill="#2961A9"/>
<path d="M62.1419 479.323C57.7667 457.087 53.5904 465.616 47.1313 456.358C44.8382 453.061 43.4251 449.397 42.5669 446.02C45.9023 435.739 50.9241 426.957 55.9529 419.965C55.4316 424.148 55.0182 432.735 58.721 440.31C63.655 450.401 69.0551 442.768 70.0033 464.956C67.5778 470.187 64.8699 475.017 62.1419 479.323Z" fill="white"/>
<path d="M70.7865 409.028C70.7865 409.028 57.135 466.485 46.1172 495.177" stroke="#262424" stroke-width="2" stroke-miterlimit="10" stroke-linecap="round" stroke-linejoin="round"/>
<path d="M48.5017 469.687C47.2019 488.719 42.9058 502.524 42.9058 502.524C22.1916 485.202 12.8469 464.912 9.39908 445.977C7.10056 433.39 7.4016 421.418 8.71499 411.307C10.9451 394.027 16.0758 382.206 16.0758 382.206C39.4854 400.485 47.2019 426.891 48.6248 450.3C49.0353 457.114 48.9258 463.667 48.5017 469.687Z" fill="#F59C0C"/>
<path d="M48.5017 469.687C31.4541 448.973 31.8919 460.206 19.9615 454.186C15.7201 452.038 12.1902 449.014 9.39908 445.977C7.10056 433.389 7.4016 421.418 8.71499 411.307C10.521 415.959 14.9129 425.139 23.0262 430.954C33.8348 438.698 35.1756 427.712 48.6248 450.3C49.0353 457.114 48.9258 463.667 48.5017 469.687Z" fill="white"/>
<path d="M18.0303 391.58C18.0303 391.58 36.074 459.122 40.7068 495.209" stroke="#262424" stroke-width="2" stroke-miterlimit="10" stroke-linecap="round" stroke-linejoin="round"/>
<path d="M77.7494 493.986C77.7494 529.586 64.5739 544.705 64.5739 544.705H21.6678C21.6678 544.705 8.49219 529.586 8.49219 493.986H77.7494Z" fill="white" stroke="#262424" stroke-width="2" stroke-miterlimit="10" stroke-linecap="round" stroke-linejoin="round"/>
<path d="M104.836 100.26L94.0967 111H81.4946" stroke="#262424" stroke-width="2" stroke-miterlimit="10" stroke-linecap="round" stroke-linejoin="round"/>
<path d="M77.4904 115.004C79.7018 115.004 81.4945 113.212 81.4945 111C81.4945 108.789 79.7018 106.996 77.4904 106.996C75.279 106.996 73.4863 108.789 73.4863 111C73.4863 113.212 75.279 115.004 77.4904 115.004Z" fill="#F59C0C"/>
<path d="M21.1381 105.801H54.5057C57.3771 105.801 59.7048 108.129 59.7048 111V111C59.7048 113.871 57.3771 116.199 54.5057 116.199H21.1381C18.2667 116.199 15.939 113.871 15.939 111V111C15.939 108.129 18.2667 105.801 21.1381 105.801Z" fill="#2961A9"/>
<path d="M351.217 25.96C299.665 25.96 257.844 67.7812 257.844 119.334C257.844 170.916 299.665 212.708 351.217 212.708C402.77 212.708 444.591 170.916 444.591 119.334C444.591 67.7812 402.77 25.96 351.217 25.96ZM351.217 162.648C327.307 162.648 307.903 143.245 307.903 119.334C307.903 95.4233 327.307 76.0202 351.217 76.0202C375.128 76.0202 394.531 95.4233 394.531 119.334C394.531 143.245 375.128 162.648 351.217 162.648Z" fill="white" stroke="#262424" stroke-width="2" stroke-miterlimit="10" stroke-linecap="round" stroke-linejoin="round"/>
<path d="M397.561 116.199C396.012 93.0802 377.471 74.5386 354.352 72.99V29.1484C401.627 30.7685 439.783 68.9243 441.403 116.199H397.561Z" fill="#B6002D"/>
<path d="M378.589 24.2338L389.328 13.4941H401.93" stroke="#262424" stroke-width="2" stroke-miterlimit="10" stroke-linecap="round" stroke-linejoin="round"/>
<path d="M405.935 17.4985C408.146 17.4985 409.939 15.7058 409.939 13.4943C409.939 11.2829 408.146 9.49023 405.935 9.49023C403.723 9.49023 401.93 11.2829 401.93 13.4943C401.93 15.7058 403.723 17.4985 405.935 17.4985Z" fill="#F59C0C"/>
<path d="M462.287 18.6937H428.919C426.048 18.6937 423.72 16.3659 423.72 13.4945V13.4945C423.72 10.6231 426.048 8.29541 428.919 8.29541H462.287C465.158 8.29541 467.486 10.6231 467.486 13.4945V13.4945C467.486 16.3659 465.158 18.6937 462.287 18.6937Z" fill="#2961A9"/>
<path d="M378.589 214.434L389.328 225.173H401.93" stroke="#262424" stroke-width="2" stroke-miterlimit="10" stroke-linecap="round" stroke-linejoin="round"/>
<path d="M405.935 229.177C408.146 229.177 409.939 227.384 409.939 225.173C409.939 222.962 408.146 221.169 405.935 221.169C403.723 221.169 401.93 222.962 401.93 225.173C401.93 227.384 403.723 229.177 405.935 229.177Z" fill="#F59C0C"/>
<path d="M462.287 219.974H428.919C426.048 219.974 423.72 222.302 423.72 225.173V225.173C423.72 228.045 426.048 230.372 428.919 230.372H462.287C465.158 230.372 467.486 228.045 467.486 225.173V225.173C467.486 222.302 465.158 219.974 462.287 219.974Z" fill="#2961A9"/>
<path d="M135.939 138.183V154.088L133.118 151.266L115.875 168.509L105.603 158.236L104.558 157.191L93.2298 168.509L82.9575 158.236L94.2853 146.919L104.558 136.646L115.875 147.964L122.845 140.994L120.034 138.183H135.939Z" fill="#F59C0C"/>
<path d="M140.846 59.7506L140.71 59.8029V78.5293C140.71 81.4135 138.808 83.7439 136.457 83.7439H82.3991C80.0478 83.7439 78.146 81.4135 78.146 78.5293V58.7056L80.9779 57.6502L102.756 49.5933L118.452 55.4035L125.934 52.6342L140.71 58.11L140.846 59.7506Z" fill="#F59C0C"/>
<path d="M140.71 59.8032V78.5296C140.71 81.4138 138.808 83.7441 136.457 83.7441H82.3991C80.0478 83.7441 78.146 81.4138 78.146 78.5296V56.6055L80.9779 57.6505L94.124 62.5202L101.606 59.7509L121.221 67.0137L140.71 59.8032Z" fill="#123A6C"/>
<path d="M78.146 54.9854V56.6051V58.7056V78.5292C78.146 81.4134 80.0479 83.7438 82.3992 83.7438H136.457C138.808 83.7438 140.71 81.4134 140.71 78.5292V59.8028V58.1099V54.9854" stroke="#262424" stroke-width="2" stroke-miterlimit="10" stroke-linecap="round" stroke-linejoin="round"/>
<path d="M102.756 51.4045C103.756 51.4045 104.567 50.5937 104.567 49.5934C104.567 48.5931 103.756 47.7822 102.756 47.7822C101.756 47.7822 100.945 48.5931 100.945 49.5934C100.945 50.5937 101.756 51.4045 102.756 51.4045Z" fill="#123A6C"/>
<path d="M118.458 57.218C119.458 57.218 120.269 56.4071 120.269 55.4069C120.269 54.4066 119.458 53.5957 118.458 53.5957C117.458 53.5957 116.647 54.4066 116.647 55.4069C116.647 56.4071 117.458 57.218 118.458 57.218Z" fill="#123A6C"/>
<path d="M94.1339 64.3382C95.1342 64.3382 95.9451 63.5273 95.9451 62.527C95.9451 61.5267 95.1342 60.7158 94.1339 60.7158C93.1336 60.7158 92.3228 61.5267 92.3228 62.527C92.3228 63.5273 93.1336 64.3382 94.1339 64.3382Z" fill="white"/>
<path d="M101.607 61.5559C102.607 61.5559 103.418 60.745 103.418 59.7448C103.418 58.7445 102.607 57.9336 101.607 57.9336C100.607 57.9336 99.7959 58.7445 99.7959 59.7448C99.7959 60.745 100.607 61.5559 101.607 61.5559Z" fill="white"/>
<path d="M121.225 68.8245C122.226 68.8245 123.036 68.0136 123.036 67.0133C123.036 66.013 122.226 65.2021 121.225 65.2021C120.225 65.2021 119.414 66.013 119.414 67.0133C119.414 68.0136 120.225 68.8245 121.225 68.8245Z" fill="white"/>
<path d="M125.954 54.4553C126.954 54.4553 127.765 53.6445 127.765 52.6442C127.765 51.6439 126.954 50.833 125.954 50.833C124.954 50.833 124.143 51.6439 124.143 52.6442C124.143 53.6445 124.954 54.4553 125.954 54.4553Z" fill="#123A6C"/>
<path d="M179.267 219.069C178.881 220.306 178.493 221.444 178.103 222.482C177.622 223.777 177.12 225.033 176.614 226.232C173.643 233.219 166.422 237.412 158.878 236.501C157.971 236.393 157.082 236.225 156.228 235.98C146.992 233.478 141.095 224.071 143.219 214.432L145.487 198.356C145.487 198.356 162.723 131.685 166.408 122.878C170.226 113.752 180.941 107.775 180.941 107.775C191.837 118.141 193.649 132.683 190.264 159.258C189.027 168.965 184.593 202.088 179.267 219.069Z" fill="#F59C0C"/>
<path d="M179.268 219.069C178.881 220.306 178.493 221.443 178.103 222.482C177.622 223.777 177.12 225.032 176.614 226.232C173.643 233.219 166.463 237.578 158.92 236.667C158.012 236.559 157.123 236.39 156.269 236.146C155.486 233.394 155.428 230.234 156.344 227.301C158.858 219.252 167.419 214.766 175.479 217.283C176.855 217.713 178.123 218.317 179.268 219.069Z" fill="white"/>
<path d="M240.594 256.907L234.795 286.398C233.114 294.943 225.623 301.105 216.914 301.105H153.507C141.75 301.105 132.607 290.878 133.919 279.195V279.195C134.949 270.021 142.207 262.791 151.384 261.797L198.877 259.494V240.418H240.594V256.907Z" fill="#2961A9"/>
<path d="M227.433 248.754L222.449 275.954C221.597 280.6 217.549 283.974 212.826 283.974H168.829" stroke="#123A6C" stroke-width="2" stroke-miterlimit="10" stroke-linecap="round" stroke-linejoin="round"/>
<path d="M219.043 248.754L216.159 265.385C215.693 268.072 216.882 270.778 219.177 272.252L222.711 274.521" fill="white"/>
<path d="M219.043 248.754L216.159 265.385C215.693 268.072 216.882 270.778 219.177 272.252L222.711 274.521" stroke="#262424" stroke-width="1.56824" stroke-miterlimit="10" stroke-linecap="round" stroke-linejoin="round"/>
<path d="M174.437 370.332L191.158 404.985L204.34 397.809L190.655 361.25L174.437 370.332Z" fill="white" stroke="#262424" stroke-width="2" stroke-miterlimit="10" stroke-linecap="round" stroke-linejoin="round"/>
<path d="M198.778 478.855L204.283 482.641L251.066 414.599C251.066 414.599 248.344 412.403 243.658 408.87C234.444 401.909 218.803 390.437 200.269 379.555L181.857 398.879C181.857 398.879 188.436 430.851 192.129 457.814C192.513 460.612 192.79 463.475 192.926 466.378C193.186 471.951 195.2 476.395 198.778 478.855Z" fill="#F04B15"/>
<path d="M198.778 478.855L204.283 482.641L251.066 414.599C251.066 414.599 248.344 412.403 243.658 408.87C234.444 401.909 218.803 390.437 200.269 379.555L181.857 398.879C181.857 398.879 188.436 430.851 192.129 457.814C192.513 460.612 192.79 463.475 192.926 466.378C193.186 471.951 195.2 476.395 198.778 478.855Z" stroke="#262424" stroke-width="2" stroke-miterlimit="10" stroke-linecap="round" stroke-linejoin="round"/>
<path d="M194.891 393.504L204.237 437.624" stroke="#262424" stroke-width="2" stroke-miterlimit="10" stroke-linecap="round" stroke-linejoin="round"/>
<path d="M225.182 412.667C227.476 409.331 226.324 404.556 222.61 402.002C218.896 399.448 214.026 400.083 211.732 403.419C209.438 406.756 210.589 411.531 214.303 414.084C218.017 416.638 222.888 416.003 225.182 412.667Z" fill="white"/>
<path d="M198.778 478.855L204.284 482.641L251.066 414.599C251.066 414.599 248.345 412.404 243.659 408.87L218.962 444.79C218.962 444.79 201.381 436.085 192.129 457.814C192.513 460.612 192.791 463.476 192.926 466.378C193.186 471.951 195.2 476.395 198.778 478.855Z" fill="white" stroke="#262424" stroke-width="2" stroke-miterlimit="10" stroke-linecap="round" stroke-linejoin="round"/>
<path d="M172.054 278.118L196.605 367.414L171.573 378.156L128.812 300.844L127.373 298.247L126.58 296.807C122.639 289.667 122.173 281.015 125.732 273.676C127.09 270.859 129.077 268.075 131.938 265.662C132.463 265.214 133.015 264.784 133.604 264.366C134.54 263.696 135.553 263.071 136.65 262.501C142.892 259.212 148.661 258.94 153.573 260.039C162.597 262.074 169.609 269.203 172.054 278.118Z" fill="#2961A9"/>
<path d="M173.296 283.974H159.109L183.98 357.599" stroke="#123A6C" stroke-width="2" stroke-miterlimit="10" stroke-linecap="round" stroke-linejoin="round"/>
<path d="M170.97 370.857L192.481 362.287" stroke="#123A6C" stroke-width="2" stroke-miterlimit="10" stroke-linecap="round" stroke-linejoin="round"/>
<path d="M147.894 271.3C154.299 279.291 153.006 290.961 145.023 297.36C140.285 301.157 134.262 302.247 128.812 300.844L127.373 298.247L126.58 296.807C122.639 289.667 122.173 281.015 125.732 273.675C127.09 270.859 129.077 268.075 131.938 265.661C132.463 265.214 133.015 264.784 133.604 264.366C138.974 264.415 144.28 266.791 147.894 271.3Z" fill="white" stroke="#123A6C" stroke-width="2" stroke-miterlimit="10" stroke-linecap="round" stroke-linejoin="round"/>
<path d="M285.289 256.907L279.49 286.398C277.81 294.943 270.319 301.105 261.61 301.105H224.436C212.679 301.105 203.537 290.878 204.848 279.195V279.195C205.878 270.021 213.136 262.791 222.313 261.797L243.572 259.494V240.418H285.289V256.907V256.907Z" fill="#2961A9"/>
<path d="M272.129 248.754L267.144 275.954C266.293 280.6 262.244 283.974 257.522 283.974H238.452" stroke="#123A6C" stroke-width="2" stroke-miterlimit="10" stroke-linecap="round" stroke-linejoin="round"/>
<path d="M263.738 248.754L260.854 265.385C260.388 268.072 261.578 270.778 263.873 272.252L267.407 274.521" stroke="#123A6C" stroke-width="2" stroke-miterlimit="10" stroke-linecap="round" stroke-linejoin="round"/>
<path d="M191.758 370.014L183.132 407.511L197.907 410.156L210.092 373.07L191.758 370.014Z" fill="white" stroke="#262424" stroke-width="2" stroke-miterlimit="10" stroke-linecap="round" stroke-linejoin="round"/>
<path d="M142.88 469.917L144.808 476.314L223.866 452.479C223.866 452.479 223.116 449.064 221.67 443.376C218.832 432.182 213.803 413.449 206.147 393.366L179.695 396.929C179.695 396.929 164.833 425.991 150.851 449.34C149.4 451.764 147.826 454.171 146.117 456.521C142.834 461.033 141.626 465.76 142.88 469.917Z" fill="#F04B15"/>
<path d="M142.88 469.917L144.808 476.314L223.866 452.479C223.866 452.479 223.116 449.064 221.67 443.376C218.832 432.182 213.803 413.449 206.147 393.366L179.695 396.929C179.695 396.929 164.833 425.991 150.851 449.34C149.4 451.764 147.826 454.171 146.117 456.521C142.834 461.033 141.626 465.76 142.88 469.917Z" stroke="#262424" stroke-width="2" stroke-miterlimit="10" stroke-linecap="round" stroke-linejoin="round"/>
<path d="M193.226 400.886L172.926 441.158" stroke="#262424" stroke-width="2" stroke-miterlimit="10" stroke-linecap="round" stroke-linejoin="round"/>
<path d="M204.877 434.783C208.754 433.615 210.842 429.169 209.541 424.854C208.239 420.538 204.042 417.987 200.166 419.156C196.289 420.325 194.201 424.77 195.502 429.086C196.803 433.401 201.001 435.952 204.877 434.783Z" fill="white"/>
<path d="M142.88 469.917L144.808 476.314L223.866 452.479C223.866 452.479 223.116 449.064 221.67 443.376L179.934 455.959C179.934 455.959 171.66 438.171 150.851 449.34C149.4 451.764 147.826 454.171 146.117 456.521C142.834 461.033 141.626 465.76 142.88 469.917Z" fill="white" stroke="#262424" stroke-width="2" stroke-miterlimit="10" stroke-linecap="round" stroke-linejoin="round"/>
<path d="M247.57 296.569L210.88 381.601L184.63 374.328L199.615 287.258L200.117 284.332L200.399 282.713C201.789 274.677 206.836 267.633 214.203 264.133C217.025 262.785 220.317 261.854 224.058 261.76C224.747 261.74 225.448 261.75 226.169 261.792C227.318 261.854 228.499 262.001 229.711 262.241C236.64 263.579 241.311 266.975 244.456 270.904C250.225 278.136 251.238 288.084 247.57 296.569Z" fill="#2961A9"/>
<path d="M185.214 370.934L189.389 346.675" stroke="#123A6C" stroke-width="2" stroke-miterlimit="10" stroke-linecap="round" stroke-linejoin="round"/>
<path d="M249.61 283.974H237.116L206.918 366.73" stroke="#123A6C" stroke-width="2" stroke-miterlimit="10" stroke-linecap="round" stroke-linejoin="round"/>
<path d="M190.246 367.971L211.477 373.743" stroke="#123A6C" stroke-width="2" stroke-miterlimit="10" stroke-linecap="round" stroke-linejoin="round"/>
<path d="M232.982 276.14C232.982 286.381 224.674 294.678 214.444 294.678C208.372 294.678 202.991 291.762 199.615 287.258L200.117 284.332L200.399 282.713C201.789 274.677 206.836 267.633 214.203 264.133C217.025 262.785 220.317 261.854 224.058 261.76C224.747 261.74 225.448 261.75 226.169 261.792C230.328 265.188 232.982 270.361 232.982 276.14Z" fill="white" stroke="#123A6C" stroke-width="2" stroke-miterlimit="10" stroke-linecap="round" stroke-linejoin="round"/>
<path d="M199.615 287.258L197.36 300.358" stroke="#123A6C" stroke-width="1.56824" stroke-miterlimit="10" stroke-linecap="round" stroke-linejoin="round"/>
<path d="M278.573 106.695C278.573 106.695 246.117 89.8468 223.848 92.657C201.579 95.4671 180.941 107.775 180.941 107.775C166.904 147.586 167.371 262.982 167.371 262.982C167.371 262.982 192.284 269.633 259.621 266.149L260.632 248.974C260.709 247.656 261.813 246.632 263.134 246.654C264.502 246.677 265.59 247.81 265.557 249.178L265.149 266.245C275.327 266.243 287.914 265.069 287.914 265.069C290.182 192.995 278.573 106.695 278.573 106.695Z" fill="#F59C0C"/>
<path d="M179.263 113.123C166.942 156.989 167.371 262.982 167.371 262.982" stroke="#905921" stroke-width="2" stroke-miterlimit="10" stroke-linecap="round" stroke-linejoin="round"/>
<path d="M248.537 100.905C245.224 110.558 237.958 114.913 233.346 116.752C231.628 110.177 227.648 102.046 227.648 102.046C224.316 107.445 222.861 114.363 222.611 117.488C210.321 115.087 208.074 103.616 208.074 103.616C208.669 91.9057 217.984 82.4186 226.567 82.063C245.536 81.277 248.537 100.905 248.537 100.905Z" fill="white" stroke="#905921" stroke-width="2" stroke-miterlimit="10" stroke-linecap="round" stroke-linejoin="round"/>
<path d="M309.925 214.924C309.925 216.219 309.894 217.421 309.831 218.529C309.758 219.908 309.653 221.256 309.528 222.552C308.776 230.107 303.133 236.262 295.661 237.642C294.762 237.809 293.864 237.914 292.975 237.934C283.414 238.3 274.98 231.079 274.134 221.246L273.277 211.318C273.277 211.318 270.654 133.246 270.988 123.706C271.312 114.175 278.575 106.693 278.575 106.693C292.066 113.339 297.897 128.178 302.589 154.554C304.303 164.189 309.946 197.127 309.925 214.924Z" fill="#F59C0C"/>
<path d="M273.225 209.897C272.88 199.28 270.685 132.483 270.988 123.705C271.202 117.431 274.422 112.044 276.598 109.096" stroke="#905921" stroke-width="2" stroke-miterlimit="10" stroke-linecap="round" stroke-linejoin="round"/>
<path d="M309.925 214.923C309.925 216.219 309.894 217.421 309.831 218.529C309.758 219.908 309.653 221.256 309.528 222.552C308.776 230.107 303.221 236.409 295.75 237.788C294.851 237.955 293.952 238.06 293.064 238.081C291.496 235.688 290.499 232.688 290.499 229.616C290.499 221.183 297.333 214.349 305.776 214.349C307.219 214.349 308.608 214.547 309.925 214.923Z" fill="white"/>
<path d="M309.073 225.176C306.567 232.857 300.021 238.528 292.16 240.391C292.122 240.4 292.084 240.409 292.046 240.418C291.792 240.481 291.528 240.541 291.274 240.605C274.171 244.798 225.664 252.364 225.664 252.364C213.175 244.856 218.162 230.358 218.162 230.358L282.939 200.537C296.633 193.93 309.712 203.191 310.276 216.742C310.396 219.416 310.025 222.257 309.073 225.176Z" fill="#F59C0C"/>
<path d="M279.664 243.092C258.498 247.243 225.664 252.365 225.664 252.365C213.175 244.856 218.162 230.358 218.162 230.358L282.939 200.538" stroke="#905921" stroke-width="2" stroke-miterlimit="10" stroke-linecap="round" stroke-linejoin="round"/>
<path d="M292.16 240.39L292.047 240.417C288.912 236.747 287.574 231.656 288.885 226.641C291.017 218.482 299.357 213.597 307.526 215.732C308.487 215.983 309.413 216.322 310.276 216.742C310.396 219.415 310.025 222.257 309.073 225.176C306.567 232.856 300.021 238.528 292.16 240.39Z" fill="white"/>
<path d="M310.276 216.742C310.396 219.416 310.025 222.257 309.073 225.176C306.567 232.857 300.021 238.528 292.16 240.391L292.046 240.418" stroke="#905921" stroke-width="2" stroke-miterlimit="10" stroke-linecap="round" stroke-linejoin="round"/>
<path d="M221.26 232.555C221.26 232.555 229.499 239.721 227.311 249.242L214.903 258.066L209.178 266.83C208.577 267.749 207.469 268.2 206.397 267.962L194.867 265.398C193.304 265.05 192.409 263.401 192.969 261.9L197.525 249.709L190.346 260.099C189.396 261.475 187.421 261.631 186.267 260.42C185.573 259.691 185.354 258.63 185.703 257.685L191.672 241.551C192.399 239.586 194.088 238.136 196.14 237.714L221.26 232.555Z" fill="white" stroke="#262424" stroke-width="2" stroke-miterlimit="10" stroke-linecap="round" stroke-linejoin="round"/>
<path d="M232.949 248.397C234.235 248.397 235.277 247.355 235.277 246.069C235.277 244.783 234.235 243.741 232.949 243.741C231.664 243.741 230.622 244.783 230.622 246.069C230.622 247.355 231.664 248.397 232.949 248.397Z" fill="white"/>
<path d="M235.88 57.8452L236.449 69.5009L237.426 89.439C231.086 94.6228 224.614 95.6084 217.979 91.3666L218.2 82.0535L218.535 67.948L235.88 57.8452Z" fill="white" stroke="#262424" stroke-width="2" stroke-miterlimit="10" stroke-linecap="round" stroke-linejoin="round"/>
<path d="M229.89 61.334C230.195 66.596 232.029 84.4545 218.072 87.4519L218.536 67.9481L229.89 61.334Z" fill="#262424"/>
<path d="M200.705 61.938C202.698 71.3751 206.698 82.4873 217.955 79.4746C231.335 75.8917 239.094 65.3206 237.82 52.3569C236.547 39.3933 229.787 32.7353 214.439 35.8944C213.07 36.1765 211.794 36.5538 210.609 37.0132C201.945 40.3819 198.256 48.2623 199.749 56.8788C200.019 58.4361 200.324 60.1583 200.705 61.938Z" fill="white"/>
<path d="M237.82 52.3569C236.547 39.3933 229.787 32.7353 214.439 35.8944C213.07 36.1765 211.794 36.5538 210.609 37.0132C201.945 40.3819 198.256 48.2623 199.749 56.8788C200.019 58.4361 200.324 60.1583 200.705 61.938C202.698 71.3751 206.698 82.4873 217.955 79.4746C222.579 78.2362 226.533 76.1629 229.673 73.4445" stroke="#262424" stroke-width="2" stroke-miterlimit="10" stroke-linecap="round" stroke-linejoin="round"/>
<path d="M242.133 54.3531C242.133 54.3531 240.499 57.4568 238.305 60.1498L231.487 61.3173L229.499 56.617C229.499 56.617 225.122 56.8936 223.904 54.0515C223.904 54.0515 223.872 53.9901 223.825 53.8517C223.491 52.9138 222.135 48.7151 222.064 41.972C222.064 41.972 212.093 47.7253 206.458 48.9421C204.432 49.381 201.953 48.8517 199.606 47.991C194.907 46.268 190.224 39.4211 190.47 34.4223C190.472 34.3904 190.474 34.3585 190.475 34.3265C190.923 26.9914 195.215 31.5759 195.215 31.5759C195.215 31.5759 195.662 25.6606 199.249 24.8511C202.852 24.0415 205.73 29.1502 205.73 29.1502C205.73 29.1502 215.207 25.4494 226.91 25.9638C241.185 26.5913 238.736 36.6418 238.736 36.6418C238.736 36.6418 249.423 38.844 242.133 54.3531Z" fill="#785113"/>
<path d="M232.899 60.4175C231.726 55.071 234.985 49.6354 240.325 48.4293C241.411 48.1838 242.568 48.1134 243.774 48.3033C250.671 49.3883 250.598 65.1817 234.072 65.763L232.899 60.4175Z" fill="white"/>
<path d="M232.899 60.4175C231.726 55.071 234.985 49.6354 240.325 48.4293C241.411 48.1838 242.568 48.1134 243.774 48.3033C250.671 49.3883 250.598 65.1817 234.072 65.763" stroke="#262424" stroke-width="2" stroke-miterlimit="10" stroke-linecap="round" stroke-linejoin="round"/>
<path d="M253.045 258.646H223.86C221.094 258.646 218.852 260.888 218.852 263.653C218.852 266.419 221.094 268.661 223.86 268.661H253.045C255.81 268.661 258.052 266.419 258.052 263.653C258.052 260.888 255.81 258.646 253.045 258.646Z" fill="white" stroke="#262424" stroke-width="2" stroke-miterlimit="10" stroke-linecap="round" stroke-linejoin="round"/>
<path d="M218.852 268.661H122.753C119.868 268.661 117.159 266.322 116.702 263.436L105.558 193.058C105.101 190.173 107.07 187.833 109.955 187.833H206.054C208.939 187.833 211.649 190.173 212.106 193.058L223.249 263.436C223.706 266.322 221.737 268.661 218.852 268.661Z" fill="white" stroke="#262424" stroke-width="2" stroke-miterlimit="10" stroke-linecap="round" stroke-linejoin="round"/>
</g>
<defs>
<clipPath id="clip0_1_353">
<rect width="471" height="551" fill="white"/>
</clipPath>
</defs>
</svg>
