<?xml version="1.0" encoding="utf-8"?>
<!-- Generator: Adobe Illustrator 24.3.0, SVG Export Plug-In . SVG Version: 6.00 Build 0)  -->
<svg version="1.1" id="Calque_1" xmlns="http://www.w3.org/2000/svg" xmlns:xlink="http://www.w3.org/1999/xlink" x="0px" y="0px"
	 viewBox="0 0 211 151" style="enable-background:new 0 0 211 151;" xml:space="preserve">
<style type="text/css">
	.st0{fill:#F0EFEF;}
	.st1{fill:#F2A533;}
	.st2{fill:#54C0E5;}
</style>
<g>
	<path class="st0" d="M10.9,124c1-0.2,2.6-0.3,4.3-0.3c2.1,0,3.6,0.3,4.6,1.1c0.8,0.7,1.3,1.7,1.3,3c0,1.8-1.3,3-2.5,3.5v0.1
		c1,0.4,1.5,1.3,1.9,2.6c0.4,1.6,0.9,3.4,1.2,4h-3.3c-0.2-0.4-0.6-1.6-1-3.3c-0.4-1.8-1-2.2-2.3-2.3h-1v5.6h-3.2V124z M14,130.1h1.3
		c1.6,0,2.5-0.8,2.5-2c0-1.3-0.9-2-2.4-2c-0.8,0-1.2,0.1-1.4,0.1V130.1z"/>
	<path class="st0" d="M31,134.4l-1,3.6h-3.3l4.3-14.2h4.2l4.4,14.2h-3.4l-1.1-3.6H31z M34.6,132l-0.9-3c-0.3-0.8-0.5-1.9-0.7-2.7h0
		c-0.2,0.8-0.4,1.9-0.7,2.7l-0.8,3H34.6z"/>
	<path class="st0" d="M48.9,123.8V138h-3.2v-14.2H48.9z"/>
	<path class="st0" d="M56,134.7c0.9,0.4,2.2,0.9,3.6,0.9c1.5,0,2.2-0.6,2.2-1.5c0-0.9-0.7-1.4-2.4-2c-2.4-0.8-3.9-2.1-3.9-4.2
		c0-2.4,2-4.3,5.4-4.3c1.6,0,2.8,0.3,3.6,0.7l-0.7,2.6c-0.6-0.3-1.6-0.7-3-0.7c-1.4,0-2.1,0.6-2.1,1.4c0,0.9,0.8,1.3,2.6,2
		c2.5,0.9,3.7,2.2,3.7,4.2c0,2.4-1.8,4.4-5.7,4.4c-1.6,0-3.2-0.4-4-0.9L56,134.7z"/>
	<path class="st0" d="M74.6,123.8V138h-3.2v-14.2H74.6z"/>
	<path class="st0" d="M81.6,138v-14.2h3.7l2.9,5.2c0.8,1.5,1.7,3.3,2.3,4.9h0.1c-0.2-1.9-0.3-3.8-0.3-5.9v-4.1h2.9V138H90l-3-5.5
		c-0.8-1.5-1.8-3.3-2.5-5l-0.1,0c0.1,1.9,0.1,3.9,0.1,6.2v4.3H81.6z"/>
	<path class="st0" d="M112.1,137.3c-1,0.3-2.9,0.8-4.7,0.8c-2.6,0-4.5-0.7-5.8-1.9c-1.3-1.2-2-3.1-2-5.1c0-4.7,3.4-7.4,8.1-7.4
		c1.8,0,3.2,0.4,3.9,0.7l-0.7,2.6c-0.8-0.3-1.7-0.6-3.3-0.6c-2.7,0-4.7,1.5-4.7,4.6c0,2.9,1.8,4.6,4.5,4.6c0.7,0,1.3-0.1,1.6-0.2v-3
		h-2.2v-2.5h5.3V137.3z"/>
	<path class="st0" d="M127.2,135.8c0.8,0.5,2,0.9,3.3,0.9c1.9,0,3-1,3-2.4c0-1.3-0.8-2.1-2.7-2.8c-2.3-0.8-3.7-2-3.7-4
		c0-2.2,1.8-3.8,4.6-3.8c1.4,0,2.5,0.3,3.1,0.7l-0.5,1.5c-0.5-0.3-1.4-0.7-2.7-0.7c-1.9,0-2.7,1.2-2.7,2.1c0,1.3,0.9,2,2.8,2.7
		c2.4,0.9,3.6,2.1,3.6,4.2c0,2.2-1.6,4.1-5,4.1c-1.4,0-2.9-0.4-3.6-0.9L127.2,135.8z"/>
	<path class="st0" d="M142.1,123.8h1.8v6.8h0.1c0.4-0.5,0.8-1.1,1.1-1.5l4.3-5.3h2.3l-5.1,6l5.5,8.2h-2.2l-4.7-7l-1.3,1.6v5.4h-1.8
		V123.8z"/>
	<path class="st0" d="M159.5,123.8V138h-1.8v-14.2H159.5z"/>
	<path class="st0" d="M166.9,123.8h1.8v12.6h6.1v1.5h-7.9V123.8z"/>
	<path class="st0" d="M181,123.8h1.8v12.6h6.1v1.5H181V123.8z"/>
	<path class="st0" d="M194.8,135.8c0.8,0.5,2,0.9,3.3,0.9c1.9,0,3-1,3-2.4c0-1.3-0.8-2.1-2.7-2.8c-2.3-0.8-3.7-2-3.7-4
		c0-2.2,1.8-3.8,4.6-3.8c1.4,0,2.5,0.3,3.1,0.7l-0.5,1.5c-0.5-0.3-1.4-0.7-2.7-0.7c-1.9,0-2.7,1.2-2.7,2.1c0,1.3,0.9,2,2.8,2.7
		c2.4,0.9,3.6,2.1,3.6,4.2c0,2.2-1.6,4.1-5,4.1c-1.4,0-2.9-0.4-3.6-0.9L194.8,135.8z"/>
</g>
<g>
	<g>
		<path class="st0" d="M122,75.8V55.1l14.9-8.1V35.9h-36.1c-5.5,0-9.9,4.4-9.9,9.9V72L76,80.1v9.9h31.8
			C115.7,89.9,122,83.6,122,75.8z"/>
		<path class="st0" d="M139.3,45.8l-1.5,0.8c0,0.2,0,0.3,0,0.5v0.7L139.3,45.8z"/>
	</g>
	<g>
		<path class="st1" d="M122,55.1v20.7c0,7.8-6.3,14.2-14.2,14.2H76V80l-15.8,8.6v1.2c0,8.8,7.1,16,16,16h61.7V47.1
			c0-0.2,0-0.4,0-0.6L122,55.1z"/>
		<path class="st2" d="M90.9,45.7c0-5.5,4.4-9.9,9.9-9.9h36.1V47l15.8-8.6c-0.3-10.2-8.7-18.4-18.9-18.4H75.1v60.5L90.9,72V45.7z"/>
	</g>
</g>
</svg>
