<svg width="152" height="109" viewBox="0 0 152 109" fill="none" xmlns="http://www.w3.org/2000/svg">
<path d="M7.85205 89.51C8.57243 89.3656 9.72504 89.2935 10.9497 89.2935C12.4625 89.2935 13.543 89.51 14.2634 90.0875C14.8397 90.5928 15.1999 91.3147 15.1999 92.2531C15.1999 93.5524 14.2634 94.4186 13.399 94.7796V94.8517C14.1193 95.1405 14.4795 95.7901 14.7677 96.7286C15.0558 97.8835 15.416 99.1829 15.6321 99.616H13.2549C13.1108 99.3272 12.8227 98.461 12.5345 97.2339C12.2464 95.9345 11.8141 95.6458 10.8776 95.5736H10.1573V99.616H7.85205V89.51V89.51ZM10.0852 93.9133H11.0217C12.1743 93.9133 12.8227 93.3358 12.8227 92.4696C12.8227 91.5312 12.1743 91.0259 11.0938 91.0259C10.5175 91.0259 10.2293 91.0981 10.0852 91.0981V93.9133Z" fill="#F0EFEF"/>
<path d="M22.3315 97.0174L21.6111 99.6161H19.2339L22.3315 89.3657H25.3571L28.5268 99.6161H26.0775L25.2851 97.0174H22.3315ZM24.9249 95.2849L24.2765 93.1194C24.0604 92.5419 23.9164 91.7478 23.7723 91.1704C23.6282 91.7478 23.4841 92.5419 23.268 93.1194L22.6917 95.2849H24.9249Z" fill="#F0EFEF"/>
<path d="M35.2266 89.3657V99.6161H32.9214V89.3657H35.2266Z" fill="#F0EFEF"/>
<path d="M40.3412 97.2338C40.9895 97.5225 41.926 97.8834 42.9345 97.8834C44.0151 97.8834 44.5194 97.4503 44.5194 96.8007C44.5194 96.151 44.0151 95.7901 42.7905 95.357C41.0616 94.7795 39.981 93.8411 39.981 92.3252C39.981 90.5927 41.4217 89.2212 43.871 89.2212C45.0236 89.2212 45.8881 89.4378 46.4644 89.7265L45.9601 91.6033C45.5279 91.3868 44.8075 91.098 43.799 91.098C42.7905 91.098 42.2862 91.5311 42.2862 92.1086C42.2862 92.7583 42.8625 93.047 44.1592 93.5523C45.9601 94.202 46.8246 95.1404 46.8246 96.5841C46.8246 98.3166 45.5279 99.7603 42.7184 99.7603C41.5658 99.7603 40.4132 99.4715 39.8369 99.1106L40.3412 97.2338Z" fill="#F0EFEF"/>
<path d="M53.7403 89.3657V99.6161H51.4351V89.3657H53.7403Z" fill="#F0EFEF"/>
<path d="M58.7827 99.6161V89.3657H61.4481L63.5372 93.1194C64.1135 94.2021 64.7619 95.5015 65.1941 96.6564H65.2661C65.1221 95.2849 65.05 93.9134 65.05 92.3975V89.4379H67.1391V99.6161H64.8339L62.6728 95.6459C62.0965 94.5631 61.3761 93.2637 60.8718 92.0366H60.7998C60.8718 93.4081 60.8718 94.8518 60.8718 96.5121V99.6161H58.7827Z" fill="#F0EFEF"/>
<path d="M80.7543 99.1107C80.0339 99.3272 78.6652 99.6882 77.3685 99.6882C75.4955 99.6882 74.1268 99.1829 73.1903 98.3166C72.2538 97.4504 71.7495 96.0789 71.7495 94.6352C71.7495 91.2425 74.1988 89.2935 77.5846 89.2935C78.8813 89.2935 79.8898 89.5822 80.3941 89.7988L79.8898 91.6756C79.3135 91.459 78.6652 91.2425 77.5125 91.2425C75.5675 91.2425 74.1268 92.3252 74.1268 94.563C74.1268 96.6564 75.4234 97.8835 77.3685 97.8835C77.8727 97.8835 78.305 97.8113 78.5211 97.7392V95.5736H76.9362V93.769H80.7543V99.1107V99.1107Z" fill="#F0EFEF"/>
<path d="M91.6322 98.0279C92.2085 98.3888 93.0729 98.6776 94.0094 98.6776C95.3781 98.6776 96.1706 97.9557 96.1706 96.9451C96.1706 96.0067 95.5943 95.4292 94.2255 94.9239C92.5687 94.3464 91.5601 93.4802 91.5601 92.0365C91.5601 90.4484 92.8568 89.2935 94.8739 89.2935C95.8824 89.2935 96.6748 89.51 97.107 89.7988L96.7469 90.8815C96.3867 90.665 95.7383 90.3762 94.8018 90.3762C93.4331 90.3762 92.8568 91.2425 92.8568 91.8921C92.8568 92.8305 93.5051 93.3358 94.8739 93.8411C96.6028 94.4908 97.4672 95.357 97.4672 96.8729C97.4672 98.461 96.3146 99.8325 93.8653 99.8325C92.8568 99.8325 91.7762 99.5438 91.272 99.1829L91.6322 98.0279Z" fill="#F0EFEF"/>
<path d="M102.366 89.3657H103.662V94.2743H103.734C104.023 93.9134 104.311 93.4803 104.527 93.1916L107.624 89.3657H109.281L105.607 93.6968L109.57 99.6161H107.985L104.599 94.5631L103.662 95.718V99.6161H102.366V89.3657V89.3657Z" fill="#F0EFEF"/>
<path d="M114.9 89.3657V99.6161H113.604V89.3657H114.9Z" fill="#F0EFEF"/>
<path d="M120.231 89.3657H121.528V98.4611H125.922V99.5439H120.231V89.3657Z" fill="#F0EFEF"/>
<path d="M130.389 89.3657H131.685V98.4611H136.08V99.5439H130.389V89.3657Z" fill="#F0EFEF"/>
<path d="M140.33 98.0279C140.906 98.3888 141.771 98.6776 142.707 98.6776C144.076 98.6776 144.868 97.9557 144.868 96.9451C144.868 96.0067 144.292 95.4292 142.923 94.9239C141.266 94.3464 140.258 93.4802 140.258 92.0365C140.258 90.4484 141.555 89.2935 143.572 89.2935C144.58 89.2935 145.373 89.51 145.805 89.7988L145.445 90.8815C145.084 90.665 144.436 90.3762 143.5 90.3762C142.131 90.3762 141.555 91.2425 141.555 91.8921C141.555 92.8305 142.203 93.3358 143.572 93.8411C145.301 94.4908 146.165 95.357 146.165 96.8729C146.165 98.461 145.012 99.8325 142.563 99.8325C141.555 99.8325 140.474 99.5438 139.97 99.1829L140.33 98.0279Z" fill="#F0EFEF"/>
<path d="M87.886 54.7165V39.7742L98.6196 33.9271V25.9146H72.6139C68.6519 25.9146 65.4822 29.0907 65.4822 33.0609V51.9735L54.7485 57.8205V64.9669H77.6566C83.3476 64.8947 87.886 60.347 87.886 54.7165Z" fill="#F0EFEF"/>
<path d="M87.8861 39.7739V54.7163C87.8861 60.3467 83.3477 64.9666 77.6567 64.9666H54.7487V57.748L43.3667 63.956V64.8222C43.3667 71.1745 48.4814 76.3719 54.8928 76.3719H99.3402V33.999C99.3402 33.8547 99.3402 33.7103 99.3402 33.5659L87.8861 39.7739Z" fill="#F2A533"/>
<path d="M65.4826 32.9887C65.4826 29.0185 68.6522 25.8423 72.6143 25.8423H98.62V33.9271L110.002 27.7191C109.786 20.3562 103.735 14.437 96.3868 14.437H54.1006V58.1092L65.4826 51.9734V32.9887Z" fill="#54C0E5"/>
</svg>
