<?xml version="1.0" encoding="utf-8"?>
<!-- Generator: Adobe Illustrator 24.3.0, SVG Export Plug-In . SVG Version: 6.00 Build 0)  -->
<svg version="1.1" id="Calque_1" xmlns="http://www.w3.org/2000/svg" xmlns:xlink="http://www.w3.org/1999/xlink" x="0px" y="0px"
	 viewBox="0 0 284 80" style="enable-background:new 0 0 284 80;" xml:space="preserve">
<style type="text/css">
	.st0{fill:#F0EFEF;}
	.st1{fill:#F2A533;}
	.st2{fill:#54C0E5;}
</style>
<g>
	<path class="st0" d="M76.3,37.9c1-0.2,2.6-0.3,4.3-0.3c2.1,0,3.6,0.3,4.6,1.1c0.8,0.7,1.3,1.7,1.3,3c0,1.8-1.3,3-2.5,3.5v0.1
		c1,0.4,1.5,1.3,1.9,2.6c0.4,1.6,0.9,3.4,1.2,4h-3.3c-0.2-0.4-0.6-1.6-1-3.3c-0.4-1.8-1-2.2-2.3-2.3h-1v5.6h-3.2V37.9z M79.5,44h1.3
		c1.6,0,2.5-0.8,2.5-2c0-1.3-0.9-2-2.4-2c-0.8,0-1.2,0.1-1.4,0.1V44z"/>
	<path class="st0" d="M96.5,48.3l-1,3.6h-3.3l4.3-14.2h4.2l4.4,14.2h-3.4l-1.1-3.6H96.5z M100,45.9l-0.9-3c-0.3-0.8-0.5-1.9-0.7-2.7
		h0C98.2,41,98,42,97.8,42.9l-0.8,3H100z"/>
	<path class="st0" d="M114.4,37.7v14.2h-3.2V37.7H114.4z"/>
	<path class="st0" d="M121.4,48.6c0.9,0.4,2.2,0.9,3.6,0.9c1.5,0,2.2-0.6,2.2-1.5c0-0.9-0.7-1.4-2.4-2c-2.4-0.8-3.9-2.1-3.9-4.2
		c0-2.4,2-4.3,5.4-4.3c1.6,0,2.8,0.3,3.6,0.7l-0.7,2.6c-0.6-0.3-1.6-0.7-3-0.7c-1.4,0-2.1,0.6-2.1,1.4c0,0.9,0.8,1.3,2.6,2
		c2.5,0.9,3.7,2.2,3.7,4.2c0,2.4-1.8,4.4-5.7,4.4c-1.6,0-3.2-0.4-4-0.9L121.4,48.6z"/>
	<path class="st0" d="M140.1,37.7v14.2h-3.2V37.7H140.1z"/>
	<path class="st0" d="M147.1,51.9V37.7h3.7l2.9,5.2c0.8,1.5,1.7,3.3,2.3,4.9h0.1c-0.2-1.9-0.3-3.8-0.3-5.9v-4.1h2.9v14.2h-3.4
		l-3-5.5c-0.8-1.5-1.8-3.3-2.5-5l-0.1,0c0.1,1.9,0.1,3.9,0.1,6.2v4.3H147.1z"/>
	<path class="st0" d="M177.6,51.3c-1,0.3-2.9,0.8-4.7,0.8c-2.6,0-4.5-0.7-5.8-1.9c-1.3-1.2-2-3.1-2-5.1c0-4.7,3.4-7.4,8.1-7.4
		c1.8,0,3.2,0.4,3.9,0.7l-0.7,2.6c-0.8-0.3-1.7-0.6-3.3-0.6c-2.7,0-4.7,1.5-4.7,4.6c0,2.9,1.8,4.6,4.5,4.6c0.7,0,1.3-0.1,1.6-0.2v-3
		h-2.2v-2.5h5.3V51.3z"/>
	<path class="st0" d="M192.7,49.7c0.8,0.5,2,0.9,3.3,0.9c1.9,0,3-1,3-2.4c0-1.3-0.8-2.1-2.7-2.8c-2.3-0.8-3.7-2-3.7-4
		c0-2.2,1.8-3.8,4.6-3.8c1.4,0,2.5,0.3,3.1,0.7l-0.5,1.5c-0.5-0.3-1.4-0.7-2.7-0.7c-1.9,0-2.7,1.2-2.7,2.1c0,1.3,0.9,2,2.8,2.7
		c2.4,0.9,3.6,2.1,3.6,4.2c0,2.2-1.6,4.1-5,4.1c-1.4,0-2.9-0.4-3.6-0.9L192.7,49.7z"/>
	<path class="st0" d="M207.5,37.7h1.8v6.8h0.1c0.4-0.5,0.8-1.1,1.1-1.5l4.3-5.3h2.3l-5.1,6l5.5,8.2h-2.2l-4.7-7l-1.3,1.6v5.4h-1.8
		V37.7z"/>
	<path class="st0" d="M224.9,37.7v14.2h-1.8V37.7H224.9z"/>
	<path class="st0" d="M232.3,37.7h1.8v12.6h6.1v1.5h-7.9V37.7z"/>
	<path class="st0" d="M246.4,37.7h1.8v12.6h6.1v1.5h-7.9V37.7z"/>
	<path class="st0" d="M260.3,49.7c0.8,0.5,2,0.9,3.3,0.9c1.9,0,3-1,3-2.4c0-1.3-0.8-2.1-2.7-2.8c-2.3-0.8-3.7-2-3.7-4
		c0-2.2,1.8-3.8,4.6-3.8c1.4,0,2.5,0.3,3.1,0.7l-0.5,1.5c-0.5-0.3-1.4-0.7-2.7-0.7c-1.9,0-2.7,1.2-2.7,2.1c0,1.3,0.9,2,2.8,2.7
		c2.4,0.9,3.6,2.1,3.6,4.2c0,2.2-1.6,4.1-5,4.1c-1.4,0-2.9-0.4-3.6-0.9L260.3,49.7z"/>
</g>
<g>
	<g>
		<path class="st0" d="M44.4,50.7V38.8l8.5-4.6v-6.4H32.3c-3.1,0-5.6,2.5-5.6,5.6v15l-8.5,4.6v5.6h18.2
			C40.8,58.7,44.4,55.1,44.4,50.7z"/>
		<path class="st0" d="M54.3,33.5L53.4,34c0,0.1,0,0.2,0,0.3v0.4L54.3,33.5z"/>
	</g>
	<g>
		<path class="st1" d="M44.4,38.8v11.8c0,4.5-3.6,8.1-8.1,8.1H18.1v-5.7l-9,4.9v0.7c0,5,4.1,9.1,9.1,9.1h35.2V34.3
			c0-0.1,0-0.2,0-0.3L44.4,38.8z"/>
		<path class="st2" d="M26.7,33.5c0-3.1,2.5-5.6,5.6-5.6h20.6v6.4l9-4.9c-0.2-5.8-4.9-10.5-10.8-10.5H17.6v34.6l9-4.9V33.5z"/>
	</g>
</g>
</svg>
