<svg width="152" height="108" viewBox="0 0 152 108" fill="none" xmlns="http://www.w3.org/2000/svg">
<path d="M7.85254 88.51C8.57292 88.3656 9.72552 88.2935 10.9502 88.2935C12.463 88.2935 13.5435 88.51 14.2639 89.0875C14.8402 89.5928 15.2004 90.3147 15.2004 91.2531C15.2004 92.5524 14.2639 93.4186 13.3995 93.7796V93.8517C14.1198 94.1405 14.48 94.7901 14.7682 95.7286C15.0563 96.8835 15.4165 98.1829 15.6326 98.616H13.2554C13.1113 98.3272 12.8232 97.461 12.535 96.2339C12.2469 94.9345 11.8146 94.6458 10.8781 94.5736H10.1578V98.616H7.85254V88.51ZM10.0857 92.9133H11.0222C12.1748 92.9133 12.8232 92.3358 12.8232 91.4696C12.8232 90.5312 12.1748 90.0259 11.0942 90.0259C10.5179 90.0259 10.2298 90.0981 10.0857 90.0981V92.9133Z" fill="#F0EFEF"/>
<path d="M22.332 96.0174L21.6116 98.6161H19.2344L22.332 88.3657H25.3576L28.5273 98.6161H26.078L25.2856 96.0174H22.332ZM24.9254 94.2849L24.277 92.1194C24.0609 91.5419 23.9168 90.7478 23.7728 90.1704C23.6287 90.7478 23.4846 91.5419 23.2685 92.1194L22.6922 94.2849H24.9254Z" fill="#F0EFEF"/>
<path d="M35.2271 88.3657V98.6161H32.9219V88.3657H35.2271Z" fill="#F0EFEF"/>
<path d="M40.3412 96.2338C40.9895 96.5225 41.926 96.8834 42.9345 96.8834C44.0151 96.8834 44.5194 96.4503 44.5194 95.8007C44.5194 95.151 44.0151 94.7901 42.7905 94.357C41.0616 93.7795 39.981 92.8411 39.981 91.3252C39.981 89.5927 41.4217 88.2212 43.871 88.2212C45.0236 88.2212 45.8881 88.4378 46.4644 88.7265L45.9601 90.6033C45.5279 90.3868 44.8075 90.098 43.799 90.098C42.7905 90.098 42.2862 90.5311 42.2862 91.1086C42.2862 91.7583 42.8625 92.047 44.1592 92.5523C45.9601 93.202 46.8246 94.1404 46.8246 95.5841C46.8246 97.3166 45.5279 98.7603 42.7184 98.7603C41.5658 98.7603 40.4132 98.4715 39.8369 98.1106L40.3412 96.2338Z" fill="#F0EFEF"/>
<path d="M53.7408 88.3657V98.6161H51.4355V88.3657H53.7408Z" fill="#F0EFEF"/>
<path d="M58.7832 98.6161V88.3657H61.4486L63.5377 92.1194C64.114 93.2021 64.7624 94.5015 65.1946 95.6564H65.2666C65.1225 94.2849 65.0505 92.9134 65.0505 91.3975V88.4379H67.1396V98.6161H64.8344L62.6733 94.6459C62.0969 93.5631 61.3766 92.2637 60.8723 91.0366H60.8003C60.8723 92.4081 60.8723 93.8518 60.8723 95.5121V98.6161H58.7832Z" fill="#F0EFEF"/>
<path d="M80.7547 98.1107C80.0344 98.3272 78.6656 98.6882 77.369 98.6882C75.496 98.6882 74.1273 98.1829 73.1908 97.3166C72.2543 96.4504 71.75 95.0789 71.75 93.6352C71.75 90.2425 74.1993 88.2935 77.5851 88.2935C78.8818 88.2935 79.8903 88.5822 80.3946 88.7988L79.8903 90.6756C79.314 90.459 78.6656 90.2425 77.513 90.2425C75.568 90.2425 74.1273 91.3252 74.1273 93.563C74.1273 95.6564 75.4239 96.8835 77.369 96.8835C77.8732 96.8835 78.3055 96.8113 78.5216 96.7392V94.5736H76.9367V92.769H80.7547V98.1107Z" fill="#F0EFEF"/>
<path d="M91.6327 97.0279C92.209 97.3888 93.0734 97.6776 94.0099 97.6776C95.3786 97.6776 96.171 96.9557 96.171 95.9451C96.171 95.0067 95.5947 94.4292 94.226 93.9239C92.5691 93.3464 91.5606 92.4802 91.5606 91.0365C91.5606 89.4484 92.8573 88.2935 94.8744 88.2935C95.8829 88.2935 96.6753 88.51 97.1075 88.7988L96.7473 89.8815C96.3872 89.665 95.7388 89.3762 94.8023 89.3762C93.4336 89.3762 92.8573 90.2425 92.8573 90.8921C92.8573 91.8305 93.5056 92.3358 94.8744 92.8411C96.6033 93.4908 97.4677 94.357 97.4677 95.8729C97.4677 97.461 96.3151 98.8325 93.8658 98.8325C92.8573 98.8325 91.7767 98.5438 91.2725 98.1829L91.6327 97.0279Z" fill="#F0EFEF"/>
<path d="M102.366 88.3657H103.663V93.2743H103.735C104.023 92.9134 104.311 92.4803 104.527 92.1916L107.625 88.3657H109.282L105.608 92.6968L109.57 98.6161H107.985L104.599 93.5631L103.663 94.718V98.6161H102.366V88.3657Z" fill="#F0EFEF"/>
<path d="M114.901 88.3657V98.6161H113.604V88.3657H114.901Z" fill="#F0EFEF"/>
<path d="M120.231 88.3657H121.528V97.4611H125.922V98.5439H120.231V88.3657Z" fill="#F0EFEF"/>
<path d="M130.389 88.3657H131.685V97.4611H136.08V98.5439H130.389V88.3657Z" fill="#F0EFEF"/>
<path d="M140.33 97.0279C140.906 97.3888 141.771 97.6776 142.707 97.6776C144.076 97.6776 144.868 96.9557 144.868 95.9451C144.868 95.0067 144.292 94.4292 142.923 93.9239C141.266 93.3464 140.258 92.4802 140.258 91.0365C140.258 89.4484 141.555 88.2935 143.572 88.2935C144.58 88.2935 145.373 88.51 145.805 88.7988L145.445 89.8815C145.084 89.665 144.436 89.3762 143.5 89.3762C142.131 89.3762 141.555 90.2425 141.555 90.8921C141.555 91.8305 142.203 92.3358 143.572 92.8411C145.301 93.4908 146.165 94.357 146.165 95.8729C146.165 97.461 145.012 98.8325 142.563 98.8325C141.555 98.8325 140.474 98.5438 139.97 98.1829L140.33 97.0279Z" fill="#F0EFEF"/>
<path d="M87.8865 53.7165V38.7742L98.6201 32.9271V24.9146H72.6144C68.6523 24.9146 65.4827 28.0907 65.4827 32.0609V50.9735L54.749 56.8205V63.9669H77.6571C83.3481 63.8947 87.8865 59.347 87.8865 53.7165Z" fill="#F0EFEF"/>
<path d="M87.8866 38.7739V53.7162C87.8866 59.3467 83.3482 63.9666 77.6572 63.9666H54.7492V56.748L43.3672 62.956V63.8222C43.3672 70.1745 48.4819 75.3719 54.8933 75.3719H99.3406V32.999C99.3406 32.8547 99.3406 32.7103 99.3406 32.5659L87.8866 38.7739Z" fill="#F2A533"/>
<path d="M65.4826 31.9887C65.4826 28.0185 68.6522 24.8423 72.6143 24.8423H98.62V32.9271L110.002 26.7191C109.786 19.3562 103.735 13.437 96.3868 13.437H54.1006V57.1092L65.4826 50.9734V31.9887Z" fill="#54C0E5"/>
</svg>
