<svg width="305" height="279" viewBox="0 0 305 279" fill="none" xmlns="http://www.w3.org/2000/svg">
<g clip-path="url(#clip0_567_227)">
<path d="M35.5928 229.936C35.5928 229.936 39.6772 222.685 38.2687 208.734C36.8339 194.519 33.486 202.54 33.486 202.54C33.486 202.54 23.9206 154.339 5.98551 149.51C-8.40324 145.636 7.65945 173.952 7.65945 173.952C7.65945 173.952 -3.08486 173.573 22.0243 206.211C22.0267 206.211 7.66186 202.54 35.5928 229.936Z" fill="#F59C0C"/>
<path d="M7.07612 156.244C7.15908 156.24 7.24173 156.257 7.31595 156.294C7.39017 156.332 7.4534 156.387 7.49939 156.456C13.3223 165.986 18.2605 176.847 22.2708 187.141C23.2584 185.061 23.0647 181.997 22.847 180.294C22.8315 180.113 22.8844 179.932 22.9956 179.788C23.1067 179.644 23.2679 179.546 23.4477 179.514C23.6274 179.482 23.8126 179.518 23.9669 179.615C24.1213 179.712 24.2336 179.863 24.2819 180.039C25.3819 184.989 23.8562 188.291 23.1579 189.47C26.2834 197.72 29.0478 205.308 30.9107 211.595C31.6807 209.884 31.2694 207.607 31.0948 206.228C31.0669 206.07 31.1031 205.907 31.1955 205.776C31.2879 205.644 31.4289 205.555 31.5874 205.527C31.746 205.499 31.9091 205.536 32.041 205.628C32.1728 205.72 32.2626 205.86 32.2905 206.018C33.247 210.285 32.0729 212.877 31.5444 213.722C33.8783 221.791 35.0908 225.503 34.6077 226.604C33.8457 224.185 33.0844 221.823 32.324 219.519C31.4392 219.316 28.3735 218.366 25.9965 214.551C25.9129 214.42 25.8839 214.261 25.9155 214.109C25.9471 213.956 26.0368 213.822 26.1658 213.734C26.2948 213.647 26.453 213.612 26.607 213.639C26.761 213.665 26.8988 213.749 26.9913 213.875C27.9167 215.095 29.7796 217.236 31.7261 217.713C29.1172 209.896 26.5345 202.769 24.0738 196.362C22.749 196.005 19.3389 194.709 16.6606 190.407C16.5512 190.247 16.51 190.05 16.5461 189.86C16.5822 189.67 16.6927 189.502 16.8531 189.393C16.9326 189.339 17.0219 189.301 17.1161 189.282C17.2102 189.262 17.3073 189.261 17.4018 189.279C17.5926 189.315 17.7613 189.425 17.8707 189.585C18.9324 190.981 21.0033 193.377 23.2177 194.13C14.9532 172.942 8.20722 160.135 6.62654 156.999C6.58656 156.921 6.56706 156.835 6.56985 156.747C6.57264 156.659 6.59764 156.574 6.64251 156.499C6.68738 156.423 6.75066 156.36 6.82647 156.316C6.90229 156.271 6.98818 156.247 7.07612 156.244Z" fill="white"/>
<path d="M43.1855 230.841C43.1855 230.841 36.3582 223.909 33.6679 207.754C30.9274 191.293 37.1617 199.316 37.1617 199.316C37.1617 199.316 33.1657 142.067 51.9043 131.168C66.9387 122.422 57.5121 159.231 57.5121 159.231C57.5121 159.231 69.5094 155.537 51.2085 199.969C51.2061 199.967 66.2763 191.457 43.1855 230.841Z" fill="#2961A9"/>
<path d="M52.7412 139.089C52.6468 139.11 52.5595 139.156 52.4875 139.22C52.4155 139.285 52.3613 139.367 52.3299 139.458C48.6831 151.963 46.4448 165.721 45.0865 178.542C43.336 176.496 42.6139 172.984 42.3365 170.998C42.3047 170.782 42.1913 170.587 42.0195 170.452C41.8477 170.317 41.6307 170.252 41.4128 170.272C41.195 170.292 40.9929 170.393 40.848 170.557C40.7031 170.72 40.6265 170.932 40.6338 171.15C40.9112 177.065 43.6421 180.322 44.7924 181.442C43.7976 191.686 43.3576 201.215 43.1782 208.876C41.7865 207.18 41.2078 204.35 40.9806 202.744C40.9515 202.569 40.8572 202.412 40.7166 202.304C40.576 202.195 40.3994 202.144 40.2223 202.159C40.0451 202.175 39.8805 202.257 39.7612 202.388C39.642 202.52 39.577 202.691 39.5793 202.868C39.8184 207.969 42.2719 210.67 43.128 211.461C42.6043 220.645 42.8147 224.059 43.2787 226.779C43.395 223.821 43.5289 220.927 43.6804 218.098C44.6178 217.6 47.7816 215.594 49.2929 210.575C49.3395 210.403 49.319 210.22 49.2355 210.063C49.1521 209.906 49.0119 209.786 48.8432 209.728C48.6745 209.669 48.49 209.677 48.3267 209.749C48.1634 209.821 48.0336 209.952 47.9633 210.115C47.2937 211.783 45.8517 214.754 43.8024 215.883C44.3476 206.277 45.0746 197.456 45.8852 189.487C47.2698 188.681 50.7182 186.18 52.4256 180.505C52.4829 180.297 52.4584 180.074 52.3572 179.883C52.2559 179.691 52.0854 179.545 51.8802 179.474C51.675 179.404 51.4505 179.413 51.252 179.501C51.0536 179.589 50.8961 179.749 50.8114 179.948C50.0438 181.854 48.444 185.177 46.177 186.699C48.9988 160.299 52.6767 143.818 53.4969 139.792C53.5173 139.69 53.5114 139.586 53.4797 139.487C53.448 139.389 53.3916 139.301 53.3159 139.23C53.2401 139.16 53.1476 139.11 53.047 139.085C52.9464 139.06 52.8412 139.062 52.7412 139.089Z" fill="white"/>
<path d="M8.95333 220.917C9.41008 242.882 18.8918 270.521 21.1923 276.92C21.3358 277.32 21.5999 277.666 21.9484 277.91C22.2969 278.155 22.7127 278.286 23.1388 278.285H51.8111C52.2372 278.286 52.653 278.155 53.0015 277.91C53.35 277.666 53.6141 277.32 53.7576 276.92C56.0581 270.521 65.5398 242.882 65.9966 220.917C66.001 220.644 65.9507 220.372 65.8487 220.119C65.7467 219.865 65.595 219.634 65.4024 219.44C65.2098 219.245 64.9802 219.091 64.7271 218.986C64.4739 218.881 64.2023 218.827 63.928 218.828H11.0219C10.7476 218.827 10.4759 218.881 10.2228 218.986C9.96965 219.091 9.74007 219.245 9.54749 219.44C9.3549 219.634 9.20317 219.865 9.10115 220.119C8.99913 220.372 8.94888 220.644 8.95333 220.917Z" fill="#A85F6A"/>
<path d="M28.3876 263.458C26.5917 259.715 22.2251 267.582 20.2116 274.126C19.5564 272.22 18.7266 269.719 17.8202 266.791C20.7777 258.504 26.2554 251.342 33.4907 246.303C49.0775 235.48 52.7698 227.006 53.4418 218.828H59.3484C58.5449 225.939 56.0436 235.98 48.6352 242.968C35.7506 255.117 36.0184 269.611 30.5685 278.285H23.7532C26.4554 273.983 30.1189 267.074 28.3876 263.458Z" fill="#F4ACB7"/>
<path d="M54.5731 250.831C58.3993 252.499 52.0622 270.605 44.7686 268.342C42.2577 267.551 50.7469 249.164 54.5731 250.831Z" fill="#F4ACB7"/>
<path d="M22.6485 227.485C25.7573 225.891 27.7469 222.303 29.0048 218.83H34.7966C33.3212 223.428 30.3391 229.777 24.5329 233.679C17.4952 238.41 14.8456 247.813 13.901 252.883C12.6312 247.825 11.4403 242.379 10.5531 236.895C12.7005 234.256 16.4645 230.663 22.6485 227.485Z" fill="#F4ACB7"/>
<path d="M127.153 263.455V162.684H139.229V263.455H127.153Z" fill="white"/>
<path d="M127.151 264.172H139.227C139.417 264.172 139.6 264.097 139.734 263.963C139.869 263.829 139.944 263.647 139.944 263.458V162.686C139.944 162.496 139.869 162.315 139.734 162.181C139.6 162.046 139.417 161.971 139.227 161.971H127.151C126.96 161.971 126.778 162.046 126.643 162.181C126.509 162.315 126.433 162.496 126.433 162.686V263.458C126.433 263.647 126.509 263.829 126.643 263.963C126.778 264.097 126.96 264.172 127.151 264.172ZM138.51 262.743H127.868V163.401H138.51V262.743Z" fill="#262424"/>
<path d="M100.188 162.684H166.189C168.335 162.684 170.075 164.417 170.075 166.555V175.25C170.075 177.388 168.335 179.122 166.189 179.122H100.188C98.0419 179.122 96.3021 177.388 96.3021 175.25V166.555C96.3021 164.417 98.0419 162.684 100.188 162.684Z" fill="#262424"/>
<path d="M109.275 227.304H157.102C159.248 227.304 160.988 229.037 160.988 231.175C160.988 233.313 159.248 235.046 157.102 235.046H109.275C107.129 235.046 105.389 233.313 105.389 231.175C105.389 229.037 107.129 227.304 109.275 227.304Z" fill="#262424"/>
<path d="M99.1717 278.288H167.213C167.671 278.288 168.119 278.158 168.506 277.914C168.892 277.669 169.2 277.319 169.393 276.905C169.587 276.492 169.658 276.032 169.598 275.579C169.538 275.127 169.349 274.701 169.054 274.352C163.707 268.03 151.358 256.311 133.184 256.311C115.01 256.311 102.665 268.03 97.3136 274.352C97.0179 274.703 96.8291 275.13 96.7695 275.584C96.71 276.037 96.7823 276.499 96.9778 276.913C97.1733 277.327 97.4839 277.677 97.8727 277.92C98.2615 278.164 98.7123 278.292 99.1717 278.288Z" fill="#262424"/>
<path d="M182.152 233.085C185.858 233.085 187.771 261.911 187.771 261.911V273.704H172.347L162.901 241.014C162.901 241.014 174.801 233.085 182.152 233.085Z" fill="#F04B15"/>
<path d="M164.484 239.742L173.662 271.617H179.282C179.282 271.617 180.238 261.552 190.88 261.552C201.521 261.552 201.521 274.416 201.521 278.288H170.434L160.491 242.243L164.484 239.742Z" fill="white"/>
<path d="M170.434 279.002H201.521C201.712 279.002 201.894 278.927 202.029 278.793C202.163 278.659 202.239 278.477 202.239 278.288C202.239 276.26 202.239 272.043 200.866 268.227C199.128 263.393 195.675 260.842 190.88 260.842C181.338 260.842 179.119 268.589 178.67 270.907H174.203L165.173 239.544C165.142 239.437 165.087 239.34 165.012 239.258C164.936 239.176 164.843 239.113 164.739 239.074C164.635 239.034 164.524 239.019 164.413 239.03C164.302 239.041 164.196 239.078 164.102 239.137L160.108 241.638C159.978 241.719 159.877 241.841 159.821 241.983C159.765 242.126 159.757 242.283 159.797 242.431L169.74 278.476C169.782 278.627 169.872 278.761 169.998 278.856C170.123 278.951 170.276 279.003 170.434 279.002ZM200.804 277.573H170.979L161.323 242.567L164.058 240.854L172.973 271.824C173.016 271.973 173.107 272.104 173.231 272.197C173.355 272.291 173.507 272.341 173.662 272.341H179.282C179.461 272.342 179.634 272.276 179.767 272.156C179.9 272.036 179.982 271.871 179.999 271.693C180.037 271.31 181.039 262.276 190.882 262.276C200.264 262.266 200.773 273.049 200.804 277.573Z" fill="#262424"/>
<path d="M179.877 264.172C179.981 264.173 180.085 264.152 180.179 264.11C180.274 264.067 180.359 264.005 180.427 263.927C180.495 263.848 180.546 263.756 180.575 263.657C180.604 263.557 180.611 263.453 180.595 263.35C179.122 253.664 178.337 242.789 178.33 242.681C178.317 242.492 178.228 242.315 178.084 242.191C177.94 242.067 177.752 242.004 177.561 242.018C177.371 242.032 177.194 242.12 177.069 242.264C176.944 242.407 176.882 242.594 176.896 242.784C176.896 242.893 177.692 253.824 179.174 263.567C179.201 263.735 179.286 263.888 179.414 263.998C179.543 264.109 179.707 264.171 179.877 264.172Z" fill="#262424"/>
<path d="M167.261 244.204C166.418 242.829 167.561 240.602 169.816 239.23C172.07 237.858 174.581 237.861 175.424 239.237C176.267 240.612 175.124 242.839 172.87 244.211C170.616 245.583 168.105 245.58 167.261 244.204Z" fill="white"/>
<path d="M169.542 245.95C170.852 245.89 172.125 245.501 173.244 244.822C174.363 244.142 175.292 243.192 175.946 242.06C176.546 240.89 176.577 239.758 176.035 238.872C174.968 237.133 172.072 237.026 169.439 238.634C168.303 239.297 167.368 240.255 166.735 241.405C166.134 242.574 166.103 243.706 166.646 244.592C167.189 245.478 168.215 245.967 169.533 245.967L169.542 245.95ZM173.129 238.922C173.93 238.922 174.55 239.175 174.815 239.608C175.183 240.209 174.884 240.988 174.674 241.4C174.142 242.3 173.396 243.055 172.502 243.6C171.608 244.144 170.593 244.461 169.547 244.523C169.083 244.523 168.251 244.433 167.873 243.832C167.495 243.232 167.804 242.453 168.014 242.041C168.526 241.125 169.277 240.365 170.188 239.839C171.066 239.276 172.08 238.959 173.124 238.922H173.129Z" fill="#AA3610"/>
<path d="M188.489 233.917L183.347 240.111C183.347 240.111 176.412 242.017 176.532 235.585L179.88 227.961L188.489 233.917Z" fill="white"/>
<path d="M181.195 241.088C181.985 241.088 182.772 240.991 183.538 240.799C183.681 240.759 183.807 240.676 183.9 240.561L189.041 234.367C189.104 234.291 189.151 234.202 189.179 234.107C189.206 234.012 189.213 233.912 189.199 233.814C189.186 233.716 189.152 233.622 189.1 233.537C189.048 233.453 188.979 233.38 188.897 233.324L180.289 227.368C180.202 227.308 180.102 227.268 179.998 227.25C179.893 227.233 179.786 227.238 179.684 227.267C179.582 227.296 179.488 227.347 179.408 227.416C179.328 227.485 179.265 227.571 179.222 227.668L175.874 235.292C175.836 235.378 175.816 235.471 175.814 235.566C175.776 237.581 176.376 239.082 177.596 240.025C178.674 240.869 180.042 241.088 181.195 241.088ZM182.948 239.47C182.23 239.62 179.904 240.009 178.471 238.898C177.656 238.267 177.244 237.202 177.247 235.737L180.186 229.043L187.436 234.06L182.948 239.47Z" fill="#262424"/>
<path d="M135.042 158.636C141.259 169.833 189.804 196.991 189.804 196.991L177.13 226.532C177.967 236.836 190.641 237.431 190.641 237.431C190.641 237.431 210.489 221.208 219.258 207.147C222.02 202.721 223.685 198.509 223.283 195.086C222.991 192.589 221.238 189.118 218.543 185.08C205.826 166.064 172.108 134.575 172.108 134.575C138.39 104.796 128.824 147.439 135.042 158.636Z" fill="#2961A9"/>
<path d="M208.696 197.706C209.815 206.347 215.08 208.464 219.258 207.147C222.02 202.721 223.685 198.509 223.283 195.085C222.991 192.589 221.238 189.118 218.543 185.08C213.182 183.617 207.323 187.097 208.696 197.706Z" fill="white"/>
<path d="M183.187 228.118C183.317 228.119 183.445 228.084 183.556 228.018C183.668 227.951 183.759 227.856 183.821 227.742L200.4 197.01C200.481 196.86 200.506 196.685 200.469 196.518C200.432 196.351 200.336 196.203 200.199 196.1L153.195 161.044C153.119 160.988 153.034 160.947 152.942 160.924C152.851 160.9 152.756 160.895 152.663 160.909C152.57 160.922 152.48 160.953 152.399 161.001C152.318 161.049 152.247 161.112 152.19 161.187C152.134 161.262 152.093 161.348 152.069 161.439C152.046 161.53 152.041 161.624 152.054 161.717C152.067 161.81 152.099 161.899 152.147 161.98C152.195 162.061 152.258 162.131 152.334 162.188L198.843 196.877L182.556 227.068C182.498 227.176 182.469 227.298 182.472 227.422C182.475 227.545 182.51 227.665 182.573 227.771C182.637 227.876 182.727 227.964 182.834 228.025C182.942 228.086 183.063 228.118 183.187 228.118Z" fill="#123A6C"/>
<path d="M190.361 233.789C190.988 233.794 191.615 233.753 192.236 233.667C192.424 233.636 192.591 233.531 192.701 233.376C192.812 233.222 192.856 233.03 192.824 232.843C192.792 232.656 192.687 232.489 192.532 232.379C192.377 232.269 192.185 232.225 191.997 232.257C191.607 232.321 182.443 233.746 180.583 225.069C180.563 224.978 180.526 224.891 180.472 224.813C180.419 224.736 180.351 224.67 180.272 224.619C180.193 224.568 180.104 224.532 180.012 224.515C179.919 224.498 179.824 224.5 179.732 224.519C179.639 224.539 179.552 224.576 179.474 224.629C179.397 224.683 179.33 224.75 179.279 224.829C179.228 224.908 179.193 224.996 179.175 225.088C179.158 225.181 179.16 225.275 179.179 225.367C180.777 232.817 187.147 233.789 190.361 233.789Z" fill="#123A6C"/>
<path d="M190.839 197.625H190.851L205.36 197.387C205.55 197.387 205.732 197.312 205.867 197.178C206.002 197.044 206.077 196.862 206.077 196.672C206.077 196.483 206.002 196.301 205.867 196.167C205.732 196.033 205.55 195.958 205.36 195.958H205.348L190.839 196.196C190.649 196.196 190.467 196.271 190.332 196.405C190.198 196.539 190.122 196.721 190.122 196.91C190.122 197.1 190.198 197.282 190.332 197.416C190.467 197.55 190.649 197.625 190.839 197.625Z" fill="#123A6C"/>
<path d="M119.857 235.866L121.411 248.568C121.411 249.833 129.422 250.512 129.422 248.568C129.422 247.854 130.857 234.496 130.857 234.496L119.857 235.866Z" fill="white"/>
<path d="M126.031 250.489C126.9 250.505 127.767 250.399 128.607 250.174C129.939 249.76 130.14 248.983 130.14 248.557C130.14 248.011 130.998 239.887 131.574 234.56C131.586 234.453 131.573 234.344 131.537 234.243C131.5 234.141 131.441 234.049 131.364 233.973C131.287 233.898 131.193 233.84 131.09 233.806C130.988 233.772 130.878 233.761 130.771 233.774L119.771 235.144C119.582 235.167 119.41 235.264 119.293 235.413C119.176 235.562 119.124 235.752 119.147 235.94L120.694 248.614C120.792 250.467 125.816 250.489 126.031 250.489ZM130.046 235.306C129.707 238.47 128.702 247.92 128.702 248.557C128.664 248.611 128.315 248.859 127.313 248.985C125.175 249.255 122.631 248.764 122.109 248.383L120.653 236.471L130.046 235.306Z" fill="#262424"/>
<path d="M114.275 278.288H145.363V273.957C145.363 270.527 144.433 267.161 142.67 264.215L142.465 263.872C139.595 259.034 135.322 251.225 133.287 244.392H117.623C117.623 244.392 115.041 258.819 114.412 272.623C114.326 274.54 114.275 276.441 114.275 278.288Z" fill="#F04B15"/>
<path d="M136.594 260.104C136.716 260.103 136.837 260.072 136.944 260.012C137.051 259.952 137.141 259.866 137.205 259.762C137.269 259.658 137.305 259.539 137.31 259.417C137.315 259.295 137.288 259.174 137.232 259.065C134.736 254.169 131.924 245.612 131.895 245.526C131.831 245.353 131.702 245.211 131.535 245.13C131.367 245.049 131.176 245.036 130.999 245.094C130.823 245.151 130.675 245.274 130.588 245.438C130.501 245.601 130.481 245.792 130.532 245.969C130.649 246.324 133.401 254.717 135.953 259.711C136.013 259.829 136.104 259.928 136.218 259.998C136.331 260.067 136.461 260.104 136.594 260.104Z" fill="#262424"/>
<path d="M127.789 260.994C127.916 260.994 128.04 260.961 128.15 260.898C128.259 260.834 128.35 260.743 128.412 260.634C128.475 260.524 128.507 260.4 128.506 260.274C128.505 260.147 128.471 260.024 128.406 259.915C125.161 254.453 123.726 246.574 123.712 246.496C123.679 246.309 123.572 246.143 123.416 246.035C123.26 245.926 123.067 245.884 122.88 245.917C122.692 245.95 122.526 246.056 122.417 246.211C122.308 246.367 122.265 246.559 122.299 246.746C122.358 247.079 123.796 254.96 127.17 260.642C127.233 260.749 127.324 260.838 127.432 260.9C127.541 260.962 127.664 260.995 127.789 260.994Z" fill="#262424"/>
<path d="M119.539 262.424C118.152 262.424 117.028 260.184 117.028 257.421C117.028 254.658 118.152 252.418 119.539 252.418C120.926 252.418 122.05 254.658 122.05 257.421C122.05 260.184 120.926 262.424 119.539 262.424Z" fill="white"/>
<path d="M119.536 263.139C121.378 263.139 122.765 260.68 122.765 257.421C122.765 254.162 121.378 251.704 119.536 251.704C117.695 251.704 116.308 254.162 116.308 257.421C116.308 260.68 117.697 263.139 119.536 263.139ZM119.536 253.133C120.285 253.133 121.33 254.765 121.33 257.421C121.33 260.077 120.285 261.709 119.536 261.709C118.788 261.709 117.743 260.077 117.743 257.421C117.743 254.765 118.781 253.133 119.536 253.133Z" fill="#AA3610"/>
<path d="M114.275 278.287H145.363V273.956C145.363 270.527 144.433 267.161 142.67 264.215L142.465 263.872C140.506 262.424 137.778 261.335 134.004 261.335C120.732 261.335 118.819 272.622 118.819 272.622H114.412C114.326 274.54 114.275 276.441 114.275 278.287Z" fill="white"/>
<path d="M114.275 279.002H145.363C145.553 279.002 145.736 278.927 145.87 278.793C146.005 278.659 146.08 278.477 146.08 278.288V273.957C146.079 270.401 145.114 266.912 143.287 263.858L143.082 263.517C143.033 263.436 142.969 263.364 142.893 263.308C140.501 261.53 137.5 260.63 134.004 260.63C126.851 260.63 122.911 263.853 120.852 266.557C119.641 268.159 118.753 269.979 118.235 271.917H114.409C114.224 271.917 114.046 271.988 113.913 272.116C113.779 272.243 113.7 272.417 113.692 272.601C113.601 274.619 113.556 276.532 113.556 278.29C113.556 278.384 113.575 278.477 113.611 278.563C113.647 278.65 113.701 278.729 113.767 278.795C113.834 278.861 113.913 278.913 114.001 278.949C114.088 278.984 114.181 279.003 114.275 279.002ZM144.646 277.573H114.993C114.993 276.239 115.036 274.824 115.096 273.344H118.819C118.99 273.347 119.157 273.288 119.288 273.179C119.42 273.07 119.508 272.917 119.536 272.749C119.975 270.795 120.834 268.958 122.054 267.367C124.749 263.844 128.772 262.057 134.011 262.057C137.137 262.057 139.798 262.836 141.931 264.37L142.063 264.589C143.758 267.422 144.653 270.659 144.655 273.957V277.573H144.646Z" fill="#262424"/>
<path d="M112.085 131.239C112.085 131.239 106.346 185.477 106.346 190.161C106.346 194.845 117.585 237.431 117.585 237.431C117.585 237.431 123.896 242.731 132.651 237.431C132.651 237.431 141.499 205.567 142.694 193.418C143.89 181.268 146.812 153.171 146.611 139.079C146.41 124.988 121.411 110.513 112.085 131.239Z" fill="#2961A9"/>
<path d="M145.365 165.383C145.546 165.383 145.721 165.316 145.854 165.194C145.987 165.072 146.068 164.905 146.083 164.725C146.992 153.359 147.412 144.726 147.331 139.068C147.295 136.592 146.516 133.972 145.076 131.492C145.031 131.406 144.97 131.331 144.895 131.27C144.82 131.209 144.733 131.164 144.64 131.137C144.547 131.11 144.45 131.102 144.354 131.114C144.258 131.125 144.165 131.156 144.081 131.204C143.998 131.253 143.925 131.317 143.867 131.394C143.808 131.471 143.767 131.559 143.744 131.653C143.721 131.747 143.717 131.844 143.733 131.939C143.748 132.034 143.783 132.125 143.835 132.207C145.153 134.477 145.865 136.854 145.896 139.087C145.975 144.699 145.557 153.288 144.653 164.608C144.638 164.797 144.698 164.984 144.822 165.129C144.945 165.273 145.121 165.363 145.31 165.378H145.368L145.365 165.383Z" fill="#123A6C"/>
<path d="M123.898 208.81C118.585 208.81 114.278 203.134 114.278 196.133C114.278 189.132 118.585 183.457 123.898 183.457C129.211 183.457 133.519 189.132 133.519 196.133C133.519 203.134 129.211 208.81 123.898 208.81Z" fill="white"/>
<path d="M124.226 236.683C128.308 236.683 132.053 234.591 132.287 234.458C132.452 234.363 132.573 234.207 132.623 234.023C132.672 233.84 132.646 233.644 132.551 233.48C132.456 233.315 132.299 233.195 132.115 233.146C131.931 233.096 131.735 233.122 131.57 233.217C131.464 233.276 123.587 237.653 118.946 233.317C118.806 233.19 118.623 233.123 118.434 233.13C118.245 233.138 118.067 233.219 117.938 233.356C117.809 233.493 117.74 233.676 117.745 233.864C117.75 234.052 117.829 234.23 117.965 234.36C119.84 236.104 122.081 236.683 124.226 236.683Z" fill="#123A6C"/>
<path d="M220.92 76.6437L229.739 60.7227L241.854 71.0095C238.657 75.0308 233.881 79.0069 228.183 82.9616L220.92 76.6437Z" fill="white"/>
<path d="M228.185 83.6719C228.331 83.6715 228.474 83.6266 228.594 83.5432C234.907 79.1645 239.427 75.2051 242.416 71.4482C242.532 71.3029 242.586 71.1186 242.568 70.9341C242.549 70.7497 242.46 70.5795 242.318 70.4595L230.201 60.1751C230.12 60.1064 230.025 60.0565 229.922 60.029C229.82 60.0014 229.712 59.997 229.607 60.0159C229.503 60.0348 229.404 60.0767 229.317 60.1384C229.231 60.2001 229.16 60.2802 229.108 60.3728L220.294 76.2986C220.214 76.4414 220.186 76.607 220.215 76.7678C220.243 76.9286 220.326 77.0749 220.449 77.1824L227.714 83.4956C227.844 83.6091 228.012 83.6717 228.185 83.6719ZM240.859 71.098C238.033 74.4976 233.893 78.0901 228.235 82.0566L221.829 76.4892L229.943 61.8379L240.859 71.098Z" fill="#262424"/>
<path d="M267.432 51.5581C261.619 54.2359 251.864 60.549 245.699 74.3235C245.576 74.5964 245.399 74.842 245.179 75.0456C244.959 75.2492 244.7 75.4067 244.418 75.5089C244.136 75.6111 243.836 75.6558 243.536 75.6404C243.236 75.6251 242.942 75.5499 242.672 75.4194L219.813 64.4226C219.309 64.1805 218.913 63.7596 218.704 63.2423C218.495 62.725 218.487 62.1486 218.682 61.6258C220.595 56.5014 226.856 42.584 240.137 36.9117C240.963 36.5559 241.855 36.3797 242.754 36.3949C243.654 36.4101 244.54 36.6164 245.353 36.9998L267.449 47.5058C267.834 47.6884 268.159 47.9763 268.386 48.336C268.613 48.6957 268.733 49.1124 268.731 49.5373C268.729 49.9622 268.606 50.3778 268.376 50.7357C268.146 51.0935 267.819 51.3788 267.432 51.5581Z" fill="#A632C2"/>
<path d="M243.781 62.9215L229.833 57.0658C229.452 56.9078 229.15 56.6058 228.993 56.226C228.836 55.8462 228.837 55.4199 228.996 55.0408C229.154 54.6617 229.457 54.3609 229.839 54.2045C230.22 54.0482 230.648 54.049 231.028 54.207L244.977 60.0627C245.165 60.141 245.337 60.2554 245.481 60.3995C245.625 60.5436 245.739 60.7145 245.817 60.9025C245.894 61.0906 245.934 61.292 245.934 61.4954C245.933 61.6987 245.893 61.9 245.814 62.0877C245.655 62.4668 245.352 62.7676 244.971 62.924C244.782 63.0014 244.58 63.0411 244.376 63.0406C244.172 63.0402 243.97 62.9997 243.781 62.9215Z" fill="white"/>
<path d="M248.287 56.9538L234.338 51.098C234.15 51.0198 233.978 50.9054 233.834 50.7613C233.69 50.6172 233.576 50.4463 233.499 50.2582C233.421 50.0702 233.381 49.8687 233.381 49.6654C233.382 49.462 233.422 49.2608 233.501 49.073C233.58 48.8853 233.694 48.7149 233.839 48.5714C233.984 48.4279 234.155 48.3142 234.344 48.2368C234.533 48.1593 234.735 48.1197 234.939 48.1201C235.143 48.1205 235.345 48.161 235.534 48.2392L249.492 54.095C249.872 54.2529 250.174 54.555 250.331 54.9348C250.488 55.3145 250.487 55.7408 250.329 56.1199C250.17 56.499 249.867 56.7999 249.486 56.9562C249.105 57.1126 248.677 57.1117 248.296 56.9538" fill="white"/>
<path d="M254.272 51.0245L240.324 45.1688C239.943 45.0109 239.641 44.7088 239.484 44.329C239.327 43.9493 239.328 43.5229 239.487 43.1438C239.645 42.7647 239.948 42.4639 240.33 42.3076C240.711 42.1512 241.139 42.1521 241.519 42.31L255.468 48.1658C255.656 48.244 255.828 48.3584 255.972 48.5025C256.116 48.6466 256.23 48.8175 256.307 49.0056C256.385 49.1936 256.425 49.395 256.425 49.5984C256.424 49.8017 256.383 50.003 256.305 50.1907C256.226 50.3784 256.112 50.5489 255.967 50.6924C255.822 50.8359 255.651 50.9496 255.462 51.027C255.273 51.1044 255.071 51.1441 254.867 51.1436C254.663 51.1432 254.461 51.1027 254.272 51.0245Z" fill="white"/>
<path d="M229.864 60.43C230.024 60.6073 230.129 60.8265 230.168 61.0617C230.206 61.2969 230.176 61.5382 230.081 61.7569L227.669 67.3149C227.669 67.3149 231.452 71.9628 228.305 76.3272C225.158 80.6916 221.968 77.0014 222.087 74.5405C222.168 72.8538 222.365 69.3947 222.477 67.3935C222.537 66.4052 222.958 65.473 223.661 64.773L228.049 60.4014C228.168 60.2805 228.31 60.1849 228.467 60.1205C228.624 60.0562 228.793 60.0243 228.962 60.027C229.132 60.0297 229.3 60.0668 229.455 60.1361C229.61 60.2054 229.749 60.3054 229.864 60.43Z" fill="white"/>
<path d="M225.246 79.0641C226.231 79.0641 227.549 78.5876 228.886 76.7413C231.786 72.7176 229.335 68.4699 228.486 67.2121L230.739 62.0281C230.887 61.684 230.934 61.3047 230.874 60.935C230.813 60.5652 230.648 60.2204 230.397 59.9412C230.218 59.7432 230.001 59.5835 229.758 59.4718C229.516 59.3601 229.253 59.2989 228.986 59.2917C228.719 59.2846 228.453 59.3317 228.204 59.4303C227.956 59.5289 227.731 59.6768 227.542 59.865L223.154 64.2365C222.324 65.0638 221.828 66.1661 221.762 67.3336C221.652 69.2751 221.453 72.7867 221.372 74.4948C221.293 76.1076 222.417 78.2565 224.215 78.8806C224.546 78.9987 224.895 79.0607 225.246 79.0641ZM229.328 60.9061C229.396 60.9815 229.441 61.0747 229.457 61.1748C229.474 61.2748 229.461 61.3775 229.421 61.4707L227.008 67.0286C226.956 67.1484 226.938 67.2801 226.956 67.4095C226.973 67.5388 227.026 67.6609 227.109 67.7624C227.248 67.9339 230.505 72.0505 227.721 75.9075C227.004 76.8866 225.916 77.9658 224.684 77.5394C223.543 77.1439 222.749 75.6455 222.802 74.5734C222.886 72.8701 223.082 69.3633 223.192 67.4265C223.239 66.6102 223.585 65.8395 224.165 65.2609L228.544 60.887C228.595 60.8363 228.656 60.7964 228.723 60.7699C228.79 60.7434 228.862 60.7307 228.934 60.7327C229.007 60.7347 229.078 60.7513 229.143 60.7815C229.209 60.8118 229.268 60.8549 229.316 60.9084L229.328 60.9061Z" fill="#262424"/>
<path d="M172.043 56.2561C172.043 56.2561 194.826 77.7565 203.554 87.1667L220.652 75.6125L229.381 82.9976C229.381 82.9976 211.565 112.3 202.597 112.3C193.63 112.3 168.042 94.3136 159.553 86.0946C151.064 77.8757 152.977 45.0021 172.043 56.2561Z" fill="#F59C0C"/>
<path d="M203.016 103.423C203.141 103.424 203.263 103.385 203.364 103.313C203.466 103.24 203.542 103.138 203.583 103.021C203.659 102.782 205.47 97.3723 204.267 89.3987C204.258 89.3187 204.234 89.2412 204.195 89.171C204.155 89.1007 204.102 89.0391 204.038 88.9899C203.974 88.9406 203.901 88.9048 203.823 88.8845C203.745 88.8642 203.664 88.8599 203.584 88.8718C203.504 88.8837 203.427 88.9116 203.359 88.9538C203.29 88.996 203.23 89.0517 203.184 89.1174C203.137 89.1831 203.105 89.2575 203.088 89.3362C203.071 89.4148 203.07 89.496 203.086 89.575C204.243 97.2412 202.471 102.582 202.452 102.635C202.421 102.724 202.412 102.82 202.426 102.914C202.44 103.007 202.475 103.096 202.531 103.174C202.586 103.251 202.659 103.313 202.743 103.357C202.828 103.4 202.921 103.423 203.016 103.423Z" fill="#905921"/>
<path d="M224.478 87.5215C224.621 87.5192 224.76 87.4744 224.877 87.3928C224.994 87.3113 225.084 87.1968 225.136 87.0639C225.187 86.9311 225.198 86.786 225.166 86.6473C225.134 86.5085 225.061 86.3824 224.957 86.2851L217.842 79.6742C217.703 79.545 217.518 79.4762 217.328 79.4829C217.138 79.4896 216.958 79.5712 216.828 79.7099C216.699 79.8486 216.63 80.033 216.636 80.2224C216.643 80.4118 216.725 80.5908 216.864 80.72L224 87.331C224.13 87.4513 224.301 87.5192 224.478 87.5215Z" fill="#905921"/>
<path d="M224.797 84.4648C224.136 84.4648 223.601 83.9315 223.601 83.2737C223.601 82.6158 224.136 82.0825 224.797 82.0825C225.457 82.0825 225.992 82.6158 225.992 83.2737C225.992 83.9315 225.457 84.4648 224.797 84.4648Z" fill="white"/>
<path d="M224.796 85.1799C225.175 85.1799 225.545 85.0681 225.859 84.8587C226.174 84.6492 226.419 84.3516 226.564 84.0033C226.709 83.6551 226.747 83.2719 226.673 82.9022C226.599 82.5325 226.417 82.1929 226.149 81.9264C225.882 81.6598 225.541 81.4783 225.17 81.4048C224.799 81.3312 224.414 81.369 224.064 81.5132C223.715 81.6575 223.416 81.9018 223.206 82.2152C222.996 82.5286 222.883 82.8971 222.883 83.274C222.883 83.7795 223.085 84.2642 223.444 84.6216C223.802 84.9791 224.289 85.1799 224.796 85.1799ZM224.796 82.7976C224.891 82.7976 224.983 82.8255 225.062 82.8778C225.141 82.9302 225.202 83.0046 225.238 83.0917C225.274 83.1787 225.284 83.2745 225.265 83.367C225.247 83.4594 225.201 83.5443 225.135 83.6109C225.068 83.6776 224.982 83.7229 224.89 83.7413C224.797 83.7597 224.701 83.7503 224.613 83.7142C224.526 83.6781 224.451 83.6171 224.399 83.5387C224.346 83.4604 224.318 83.3682 224.318 83.274C224.318 83.1476 224.369 83.0265 224.458 82.9371C224.548 82.8477 224.67 82.7976 224.796 82.7976Z" fill="#905921"/>
<path d="M111.867 55.4769C111.867 55.4769 131.893 45.171 145.617 46.922C159.341 48.673 172.046 56.2559 172.046 56.2559C180.65 80.7199 180.239 145.778 180.239 145.778C180.239 145.778 164.874 149.828 123.372 147.613L122.77 137.064C122.748 136.674 122.576 136.307 122.289 136.04C122.001 135.774 121.622 135.628 121.23 135.635C121.029 135.637 120.831 135.68 120.647 135.759C120.463 135.838 120.297 135.953 120.158 136.097C120.019 136.241 119.909 136.41 119.836 136.596C119.763 136.783 119.728 136.981 119.733 137.181L119.972 147.663C116.271 147.663 112.574 147.415 108.907 146.92C107.594 102.663 111.867 55.4769 111.867 55.4769Z" fill="#F59C0C"/>
<path d="M178.655 98.3443H178.706C178.784 98.338 178.86 98.3163 178.93 98.2805C179 98.2448 179.063 98.1956 179.113 98.1359C179.164 98.0761 179.203 98.0069 179.227 97.9323C179.251 97.8577 179.26 97.7791 179.253 97.701L178.297 86.0611C177.359 75.243 175.537 65.1706 173.16 57.6925C173.136 57.6179 173.098 57.5486 173.048 57.4887C172.997 57.4288 172.935 57.3794 172.865 57.3434C172.796 57.3073 172.719 57.2853 172.641 57.2786C172.563 57.2718 172.484 57.2805 172.409 57.3042C172.334 57.3278 172.265 57.3659 172.205 57.4162C172.145 57.4666 172.095 57.5283 172.059 57.5978C172.023 57.6672 172.001 57.7431 171.994 57.8211C171.987 57.8991 171.996 57.9776 172.019 58.0522C174.37 65.4374 176.176 75.4312 177.106 86.1635L178.062 97.8011C178.076 97.949 178.144 98.0867 178.253 98.1871C178.363 98.2876 178.506 98.3437 178.655 98.3443Z" fill="#905921"/>
<path d="M130.389 51.9513C132.419 57.8833 136.893 60.5658 139.734 61.6998C140.8 57.6641 143.264 52.6756 143.264 52.6756C145.311 55.9941 146.2 60.2442 146.351 62.1643C153.929 60.704 155.328 53.6642 155.328 53.6642C154.976 46.472 149.244 40.6353 143.955 40.4066C132.261 39.9087 130.389 51.9513 130.389 51.9513Z" fill="white"/>
<path d="M146.348 62.8858C146.394 62.8862 146.44 62.8822 146.485 62.8739C154.445 61.3421 156.014 53.8854 156.029 53.8211C156.04 53.7638 156.044 53.7054 156.04 53.6472C155.653 45.726 149.373 39.9441 143.983 39.7107C137.601 39.4367 134.047 42.7696 132.184 45.6164C130.953 47.5164 130.102 49.636 129.678 51.8581C129.66 51.9723 129.67 52.0892 129.707 52.1988C130.491 54.5013 131.77 56.6054 133.456 58.3641C135.141 60.1228 137.191 61.4936 139.464 62.3808C139.557 62.4178 139.658 62.4347 139.759 62.4304C139.86 62.4261 139.959 62.4006 140.049 62.3556C140.139 62.3107 140.219 62.2472 140.283 62.1694C140.347 62.0917 140.394 62.0013 140.42 61.9043C141.138 59.1861 142.522 55.989 143.311 54.2642C144.542 56.7698 145.326 59.4694 145.629 62.2426C145.646 62.4199 145.73 62.5842 145.863 62.7032C145.996 62.8222 146.169 62.8873 146.348 62.8858ZM154.603 53.6186C154.429 54.3762 152.987 59.7483 146.972 61.304C146.681 59.1766 145.777 55.4196 143.864 52.3155C143.797 52.2065 143.701 52.1175 143.588 52.0577C143.474 51.9979 143.347 51.9696 143.218 51.9757C143.09 51.9818 142.966 52.0221 142.858 52.0923C142.751 52.1625 142.665 52.2602 142.608 52.375C142.513 52.568 140.403 56.8609 139.26 60.7346C137.377 59.8899 135.685 58.6732 134.288 57.158C132.89 55.6429 131.816 53.8609 131.13 51.92C131.546 49.9456 132.321 48.0636 133.416 46.3669C135.829 42.7076 139.361 40.9518 143.924 41.1472C148.673 41.333 154.218 46.7099 154.603 53.6186Z" fill="#905921"/>
<path d="M111.867 55.4771C103.715 59.7652 91.2803 80.9678 91.2803 80.9678L83.8073 68.282L72.8071 74.9263C72.8071 74.9263 79.9214 111.704 90.0846 111.704C100.248 111.704 115.552 95.0282 115.552 95.0282C120.574 78.5903 119.517 56.1155 111.867 55.4771Z" fill="#F59C0C"/>
<path d="M92.6363 98.7993C92.7888 98.7989 92.9354 98.7405 93.0461 98.6359C93.1568 98.5314 93.2232 98.3887 93.2317 98.237C93.6287 91.3426 92.2034 82.5519 92.1891 82.4637C92.1792 82.3841 92.1532 82.3074 92.1128 82.238C92.0724 82.1686 92.0184 82.1081 91.9539 82.0601C91.8895 82.0121 91.8159 81.9775 91.7377 81.9584C91.6595 81.9394 91.5783 81.9363 91.4989 81.9493C91.4194 81.9623 91.3434 81.9911 91.2755 82.0341C91.2075 82.0771 91.1489 82.1333 91.1033 82.1993C91.0577 82.2654 91.0259 82.3399 91.0099 82.4185C90.9939 82.4971 90.9939 82.5781 91.0101 82.6567C91.0245 82.7424 92.4306 91.4093 92.0384 98.1703C92.0293 98.328 92.0833 98.4827 92.1887 98.6007C92.2941 98.7186 92.4422 98.79 92.6004 98.7993H92.6363Z" fill="#905921"/>
<path d="M75.33 80.6558C75.4406 80.656 75.5491 80.6255 75.6432 80.5677L85.3234 74.65C85.4585 74.5673 85.5551 74.4344 85.5919 74.2807C85.6286 74.127 85.6026 73.9651 85.5195 73.8305C85.4365 73.6959 85.3031 73.5997 85.1488 73.5631C84.9946 73.5265 84.832 73.5524 84.6969 73.6352L75.0191 79.5528C74.9083 79.6206 74.8227 79.7226 74.7753 79.8432C74.728 79.9638 74.7213 80.0966 74.7565 80.2213C74.7916 80.346 74.8667 80.4559 74.9701 80.5343C75.0736 80.6127 75.2 80.6554 75.33 80.6558Z" fill="#905921"/>
<path d="M76.0737 76.8629C75.5071 76.8629 75.0478 76.4053 75.0478 75.8409C75.0478 75.2764 75.5071 74.8188 76.0737 74.8188C76.6403 74.8188 77.0996 75.2764 77.0996 75.8409C77.0996 76.4053 76.6403 76.8629 76.0737 76.8629Z" fill="white"/>
<path d="M76.0736 77.5799C76.4184 77.5799 76.7554 77.478 77.0421 77.2872C77.3288 77.0963 77.5523 76.8251 77.6842 76.5078C77.8161 76.1904 77.8507 75.8412 77.7834 75.5043C77.7161 75.1675 77.5501 74.858 77.3063 74.6151C77.0625 74.3722 76.7519 74.2068 76.4137 74.1398C76.0755 74.0728 75.725 74.1072 75.4065 74.2386C75.088 74.3701 74.8157 74.5927 74.6241 74.8783C74.4326 75.1639 74.3303 75.4997 74.3303 75.8432C74.331 76.3036 74.5148 76.7449 74.8416 77.0705C75.1684 77.3961 75.6115 77.5792 76.0736 77.5799ZM76.0736 75.5335C76.1346 75.5335 76.1943 75.5515 76.245 75.5852C76.2957 75.619 76.3353 75.667 76.3586 75.7232C76.382 75.7793 76.3881 75.8411 76.3762 75.9007C76.3643 75.9603 76.3349 76.0151 76.2917 76.0581C76.2486 76.1011 76.1936 76.1303 76.1338 76.1422C76.0739 76.154 76.0119 76.148 75.9556 76.1247C75.8992 76.1014 75.851 76.062 75.8171 76.0115C75.7832 75.961 75.7651 75.9016 75.7651 75.8408C75.7658 75.7597 75.7985 75.6821 75.8563 75.625C75.9141 75.5679 75.9922 75.5358 76.0736 75.5358V75.5335Z" fill="#262424"/>
<path d="M111.879 99.3139C112.033 99.3145 112.182 99.2556 112.293 99.1495C114.539 97.0055 115.981 95.445 115.995 95.4307C116.057 95.3625 116.102 95.281 116.127 95.1925C118.341 87.9431 119.458 79.3597 119.19 71.6457C119.027 66.9478 118.174 58.6407 114.295 55.789C114.232 55.7421 114.16 55.708 114.084 55.6886C114.008 55.6691 113.929 55.6648 113.851 55.6759C113.774 55.687 113.699 55.7132 113.631 55.753C113.564 55.7929 113.505 55.8456 113.458 55.9081C113.411 55.9707 113.376 56.0419 113.357 56.1177C113.337 56.1935 113.333 56.2723 113.344 56.3497C113.355 56.4272 113.382 56.5016 113.422 56.5689C113.462 56.6362 113.515 56.695 113.577 56.742C118.838 60.6085 119.556 79.7361 115.012 94.7089C114.665 95.0805 113.355 96.4694 111.459 98.2824C111.37 98.3646 111.308 98.4719 111.282 98.5898C111.256 98.7078 111.266 98.8308 111.312 98.9428C111.358 99.0547 111.436 99.1501 111.538 99.2164C111.639 99.2827 111.758 99.3167 111.879 99.3139Z" fill="#905921"/>
<path d="M76.4539 64.5345C76.4539 64.5345 80.9186 62.4691 83.0708 65.0896C85.223 67.7102 79.4049 84.0695 75.3396 86.8473C71.2743 89.6251 66.0133 89.07 66.4127 87.1642C66.812 85.2583 69.2823 80.4937 69.2823 80.4937C69.2823 80.4937 65.7407 87.6406 62.2685 87.1642C59.3988 86.7663 64.1815 81.4466 66.2548 78.271C67.4944 76.3825 68.2853 74.2372 68.5673 71.9983C68.5673 71.9983 62.9882 75.8887 61.5534 75.0167C60.1186 74.1448 68.1918 64.8157 69.9973 64.1367C73.185 62.9455 76.4539 64.5345 76.4539 64.5345Z" fill="white"/>
<path d="M69.3299 89.4775C71.6183 89.437 73.8449 88.7316 75.7364 87.4478C79.2326 85.0655 83.2883 74.5976 84.087 69.0373C84.4003 66.8479 84.2472 65.4138 83.6087 64.6467C81.4565 62.0261 77.5706 63.3173 76.4347 63.7652C75.4973 63.3817 72.6085 62.3978 69.7221 63.477C68.2873 64.0177 64.9562 67.8961 64.5807 68.3369C63.1722 70.0045 60.788 73.0014 60.6445 74.4999C60.6079 74.7177 60.6361 74.9415 60.7258 75.1435C60.8155 75.3454 60.9627 75.5168 61.1491 75.6363C62.4572 76.432 65.4536 74.8549 67.5245 73.5422C67.132 75.0858 66.4908 76.5557 65.6257 77.8947C65.1809 78.5761 64.607 79.3622 63.9972 80.1937C61.5939 83.4789 60.1711 85.5729 60.7593 86.9428C60.9148 87.3072 61.2807 87.7647 62.1415 87.8957C63.4568 88.0767 64.7266 87.4192 65.8481 86.4258C65.7788 86.6497 65.7214 86.8594 65.6831 87.0428C65.5373 87.7456 65.8338 88.4007 66.501 88.8438C67.1682 89.2869 68.1677 89.4775 69.3299 89.4775ZM79.9093 64.4751C80.8658 64.4751 81.8463 64.73 82.5135 65.5424C82.6402 65.6949 83.0229 66.3834 82.6713 68.8252C81.8654 74.4547 77.8145 84.2865 74.9305 86.259C72.0465 88.2316 68.4739 88.4031 67.3212 87.6312C67.0821 87.4692 67.1012 87.3668 67.1108 87.312C67.4288 85.7969 69.2032 82.2258 69.7532 81.1418C69.8321 80.9917 69.8871 80.8798 69.9206 80.8131C70.0062 80.6437 70.0208 80.4475 69.9612 80.2674C69.9015 80.0874 69.7725 79.9383 69.6026 79.853C69.4326 79.7677 69.2356 79.7531 69.0548 79.8126C68.8741 79.872 68.7245 80.0005 68.6388 80.1698L68.4786 80.4795C67.4575 82.414 64.6525 86.776 62.3592 86.4591C62.267 86.4575 62.1773 86.4294 62.1009 86.3781C62.1009 86.3781 61.9215 86.0208 62.7537 84.57C63.5005 83.3447 64.3099 82.1583 65.1786 81.0156C65.7979 80.1674 66.3742 79.367 66.8525 78.6523C68.1593 76.6674 68.9899 74.4094 69.2797 72.0533C69.2902 71.9183 69.262 71.7831 69.1983 71.6635C69.1347 71.5439 69.0383 71.4447 68.9202 71.3776C68.8022 71.3104 68.6675 71.2781 68.5318 71.2842C68.396 71.2904 68.2648 71.3349 68.1534 71.4124C65.7142 73.1134 63.0383 74.4451 62.1368 74.4451C62.3233 73.7995 63.3109 72.0914 65.5803 69.3994C67.7325 66.8336 69.691 65.0159 70.2578 64.8039C73.1274 63.7319 76.1166 65.1589 76.1477 65.1732C76.2441 65.2189 76.3495 65.2426 76.4562 65.2426C76.5629 65.2426 76.6683 65.2189 76.7647 65.1732C77.761 64.7475 78.8282 64.5108 79.9117 64.4751H79.9093Z" fill="#262424"/>
<path d="M138.242 25.5312L137.876 32.6782L137.249 44.9209C141.152 48.1108 145.141 48.7326 149.235 46.1287L149.11 40.4112L148.912 31.7562L138.242 25.5312Z" fill="white"/>
<path d="M144.108 48.4728C145.957 48.4728 147.794 47.8947 149.62 46.7384C149.724 46.6724 149.809 46.5807 149.867 46.4722C149.926 46.3637 149.955 46.2421 149.952 46.119L149.629 31.7394C149.626 31.6176 149.592 31.4985 149.531 31.3934C149.469 31.2883 149.381 31.2008 149.275 31.139L138.595 24.9141C138.489 24.8521 138.368 24.8185 138.245 24.8165C138.122 24.8145 138 24.8441 137.892 24.9025C137.784 24.9609 137.692 25.0461 137.627 25.15C137.561 25.2538 137.523 25.3728 137.517 25.4953L136.527 44.8945C136.521 45.0061 136.542 45.1174 136.587 45.2196C136.632 45.3218 136.701 45.412 136.788 45.483C139.232 47.4746 141.676 48.4728 144.108 48.4728ZM148.508 45.7426C145.026 47.7938 141.573 47.4102 137.986 44.6015L138.899 26.7341L148.211 32.1777L148.508 45.7426Z" fill="#262424"/>
<path d="M141.929 27.6826C141.735 30.913 140.583 41.8764 149.182 43.7346L148.919 31.7588L141.929 27.6826Z" fill="#262424"/>
<path d="M159.912 28.0873C158.671 33.8787 156.193 40.6993 149.259 38.8363C141.016 36.6208 136.245 30.1194 137.046 22.1601C137.847 14.2008 142.02 10.1199 151.478 12.0782C152.282 12.2426 153.072 12.4737 153.838 12.769C159.173 14.8488 161.438 19.692 160.507 24.9808C160.345 25.9361 160.151 26.9938 159.912 28.0873Z" fill="white"/>
<path d="M151.478 39.8611C152.77 39.8755 154.039 39.5155 155.129 38.8248C158.956 36.402 160.276 30.4724 161.223 25.105C161.792 21.8722 161.239 18.8705 159.628 16.4287C157.932 13.8581 155.165 12.1119 151.631 11.3805C151.537 11.3573 151.44 11.3531 151.344 11.3683C151.249 11.3835 151.158 11.4177 151.076 11.4689C150.994 11.5201 150.924 11.5872 150.869 11.6662C150.813 11.7452 150.775 11.8345 150.755 11.9286C150.736 12.0228 150.735 12.12 150.754 12.2143C150.773 12.3087 150.811 12.3982 150.865 12.4776C150.92 12.557 150.99 12.6246 151.071 12.6764C151.153 12.7282 151.244 12.7631 151.339 12.779C157.557 14.0654 160.873 18.8062 159.809 24.8597C159.166 28.5213 157.966 35.3418 154.359 37.6217C152.984 38.4936 151.38 38.6652 149.452 38.1482C146.379 37.3215 143.809 35.9017 141.8 33.922C141.665 33.7884 141.482 33.7137 141.292 33.7143C141.101 33.715 140.919 33.791 140.785 33.9256C140.651 34.0601 140.576 34.2423 140.576 34.4319C140.577 34.6216 140.653 34.8032 140.788 34.9368C142.941 37.0619 145.81 38.6485 149.07 39.5276C149.854 39.7442 150.664 39.8563 151.478 39.8611Z" fill="#262424"/>
<path d="M134.389 23.3801C135.068 24.6371 135.855 25.8328 136.742 26.9536L140.944 27.6683L142.175 24.7929C142.175 24.7929 144.873 24.9691 145.626 23.2253C145.645 23.1859 145.662 23.1453 145.676 23.1038C145.884 22.5273 146.724 19.952 146.776 15.8115C146.776 15.8115 152.915 19.3564 156.387 20.0997C157.635 20.3713 159.164 20.0497 160.613 19.5232C163.511 18.4702 166.407 14.2821 166.261 11.2017V11.1422C165.993 6.63723 163.344 9.44836 163.344 9.44836C163.344 9.44836 163.076 5.81534 160.866 5.31505C158.657 4.81476 156.865 7.9356 156.865 7.9356C152.674 6.47252 148.244 5.80663 143.806 5.97257C135.006 6.34183 136.505 12.5144 136.505 12.5144C136.505 12.5144 129.915 13.8485 134.389 23.3801Z" fill="#785113"/>
<path d="M140.064 27.1157C140.793 23.8329 138.792 20.4929 135.501 19.7448C134.804 19.5832 134.083 19.5558 133.375 19.6638C129.123 20.3214 129.15 30.0198 139.335 30.3962L140.064 27.1157Z" fill="white"/>
<path d="M139.346 31.1108C139.537 31.1142 139.72 31.0423 139.858 30.9107C139.995 30.7791 140.073 30.5987 140.077 30.4092C140.08 30.2196 140.008 30.0364 139.876 29.9C139.744 29.7635 139.563 29.6848 139.373 29.6814C133.76 29.4741 131.591 26.3723 131.438 23.778C131.333 22.0032 132.199 20.569 133.497 20.3689C134.115 20.2752 134.744 20.2994 135.353 20.4404C138.222 21.0931 140.028 24.0138 139.375 26.9584C139.355 27.05 139.353 27.1448 139.369 27.2373C139.385 27.3298 139.42 27.4181 139.47 27.4973C139.521 27.5765 139.587 27.645 139.664 27.6989C139.741 27.7527 139.828 27.7909 139.92 27.8112C140.012 27.8316 140.107 27.8337 140.2 27.8174C140.293 27.8011 140.382 27.7667 140.461 27.7163C140.541 27.6659 140.61 27.6003 140.664 27.5234C140.718 27.4465 140.756 27.3597 140.776 27.2681C141.601 23.5612 139.31 19.8829 135.673 19.0467C134.889 18.866 134.078 18.8353 133.282 18.9562C131.237 19.273 129.862 21.3385 130.011 23.8614C130.214 27.3038 133.172 30.882 139.325 31.1084H139.346V31.1108Z" fill="#262424"/>
<path d="M70.7146 185.673V275.427H78.3669V185.673C78.3625 181.808 79.1234 177.98 80.606 174.409C82.0886 170.837 84.2638 167.592 87.0071 164.859C89.7504 162.126 93.0079 159.959 96.593 158.482C100.178 157.005 104.02 156.247 107.9 156.251H232.25C236.13 156.248 239.972 157.006 243.557 158.483C247.141 159.961 250.399 162.128 253.142 164.86C255.885 167.593 258.06 170.838 259.543 174.409C261.026 177.981 261.787 181.808 261.783 185.673V275.427H269.436V185.673C269.439 180.807 268.479 175.989 266.612 171.493C264.744 166.997 262.005 162.912 258.551 159.471C255.098 156.031 250.997 153.302 246.484 151.441C241.971 149.581 237.134 148.625 232.25 148.628H107.9C103.015 148.623 98.1774 149.577 93.6635 151.437C89.1495 153.297 85.0481 156.025 81.594 159.466C78.14 162.907 75.4011 166.993 73.5342 171.49C71.6674 175.987 70.7092 180.807 70.7146 185.673Z" fill="white"/>
<path d="M70.7147 276.141H78.367C78.5573 276.141 78.7398 276.066 78.8743 275.932C79.0089 275.798 79.0844 275.616 79.0844 275.426V185.673C79.08 181.902 79.8224 178.167 81.2689 174.682C82.7155 171.197 84.8379 168.031 87.5146 165.364C90.1912 162.698 93.3696 160.583 96.8677 159.142C100.366 157.701 104.115 156.962 107.9 156.966H232.25C236.036 156.962 239.784 157.702 243.282 159.143C246.78 160.585 249.958 162.699 252.635 165.366C255.311 168.032 257.434 171.198 258.88 174.683C260.327 178.167 261.07 181.902 261.066 185.673V275.426C261.066 275.616 261.142 275.798 261.276 275.932C261.411 276.066 261.593 276.141 261.784 276.141H269.436C269.626 276.141 269.809 276.066 269.943 275.932C270.078 275.798 270.153 275.616 270.153 275.426V185.673C270.156 180.713 269.178 175.802 267.275 171.219C265.371 166.636 262.579 162.473 259.059 158.966C255.539 155.459 251.359 152.678 246.759 150.781C242.159 148.885 237.229 147.91 232.25 147.913H107.9C102.921 147.908 97.9901 148.881 93.3891 150.777C88.7881 152.672 84.6076 155.453 81.0869 158.961C77.5662 162.468 74.7745 166.633 72.8716 171.216C70.9687 175.8 69.992 180.713 69.9973 185.673V275.426C69.9973 275.616 70.0729 275.798 70.2074 275.932C70.342 276.066 70.5244 276.141 70.7147 276.141ZM77.6496 274.712H71.4321V185.673C71.429 180.901 72.3701 176.175 74.2017 171.766C76.0332 167.357 78.7194 163.351 82.1064 159.976C85.4934 156.602 89.5148 153.926 93.9408 152.102C98.3667 150.277 103.11 149.339 107.9 149.342H232.25C237.041 149.337 241.786 150.273 246.212 152.097C250.639 153.921 254.662 156.597 258.049 159.972C261.437 163.346 264.123 167.353 265.953 171.763C267.784 176.174 268.724 180.9 268.719 185.673V274.712H262.501V185.673C262.505 181.714 261.726 177.793 260.207 174.135C258.689 170.477 256.461 167.153 253.651 164.353C250.841 161.554 247.504 159.335 243.832 157.822C240.16 156.309 236.224 155.532 232.25 155.537H107.9C103.927 155.533 99.9912 156.31 96.3194 157.823C92.6475 159.336 89.3112 161.556 86.5014 164.355C83.6916 167.154 81.4635 170.478 79.9446 174.136C78.4257 177.794 77.6459 181.714 77.6496 185.673V274.712Z" fill="#262424"/>
<path d="M261.066 271.615H270.153C270.847 271.615 271.409 272.175 271.409 272.865V277.034C271.409 277.725 270.847 278.285 270.153 278.285H261.066C260.373 278.285 259.811 277.725 259.811 277.034V272.865C259.811 272.175 260.373 271.615 261.066 271.615Z" fill="#626262"/>
<path d="M79.0843 278.285H69.9972C69.3038 278.285 68.7417 277.725 68.7417 277.034V272.865C68.7417 272.175 69.3038 271.615 69.9972 271.615H79.0843C79.7776 271.615 80.3397 272.175 80.3397 272.865V277.034C80.3397 277.725 79.7776 278.285 79.0843 278.285Z" fill="#626262"/>
<path d="M66.4102 134.096H273.74V149.819H66.4102V134.096Z" fill="#A5A5A5"/>
<path d="M131.056 146.122C123.442 146.134 119.029 147.761 116.492 149.819H103.101C107.405 144.34 117.635 140.306 135.36 140.623C147.061 140.833 150.55 137.469 151.143 134.096H161.949C161.227 143.222 150.885 146.091 131.056 146.122Z" fill="white"/>
<path d="M110.65 134.691H178.658C178.816 134.691 178.968 134.628 179.081 134.517C179.193 134.405 179.256 134.254 179.256 134.096C179.256 133.938 179.193 133.786 179.081 133.674C178.968 133.563 178.816 133.5 178.658 133.5H110.65C110.492 133.5 110.34 133.563 110.227 133.674C110.115 133.786 110.052 133.938 110.052 134.096C110.052 134.254 110.115 134.405 110.227 134.517C110.34 134.628 110.492 134.691 110.65 134.691Z" fill="#626262"/>
<path d="M80.8372 134.098H88.5588C83.8838 138.575 82.37 144.914 81.9731 149.821H75.7771C75.526 142.848 77.9293 137.714 80.8372 134.098Z" fill="white"/>
<path d="M206.782 146.122C205.588 147.144 204.619 148.403 203.939 149.819H194.39C195.038 147.877 196.312 146.202 198.013 145.054C201.782 142.553 199.745 137.926 196.961 134.096H205.4C208.193 138.062 210.37 143.044 206.782 146.122Z" fill="white"/>
<path d="M234.355 134.098H246.223C251.778 139.189 254.115 145.729 255.071 149.821H245.644C243.052 142.229 238.231 137.155 234.355 134.098Z" fill="white"/>
<path d="M175.654 56.7732C170.13 56.7732 165.651 50.8877 165.651 43.6275C165.651 36.3674 170.13 30.4819 175.654 30.4819C181.179 30.4819 185.657 36.3674 185.657 43.6275C185.657 50.8877 181.179 56.7732 175.654 56.7732Z" fill="#262424"/>
<path d="M175.654 54.8672C180.116 54.8672 183.744 49.8262 183.744 43.6275C183.744 37.4287 180.114 32.3877 175.654 32.3877C171.194 32.3877 167.564 37.4191 167.564 43.6275C167.564 49.8358 171.192 54.8672 175.654 54.8672Z" fill="white"/>
<path d="M182.092 44.3848C182.235 44.3847 182.375 44.3419 182.494 44.2619C182.612 44.1818 182.704 44.0683 182.757 43.9358C182.811 43.8032 182.823 43.6579 182.792 43.5184C182.762 43.3789 182.69 43.2517 182.587 43.1531L182.544 43.1103L174.069 34.665C173.933 34.5387 173.753 34.47 173.567 34.4733C173.381 34.4765 173.204 34.5515 173.073 34.6825C172.941 34.8134 172.866 34.9901 172.863 35.1752C172.859 35.3604 172.928 35.5396 173.055 35.6751L181.599 44.1871C181.732 44.3133 181.908 44.3841 182.092 44.3848Z" fill="#262424"/>
<path d="M181.508 48.0511C181.65 48.0509 181.789 48.009 181.907 47.9304C182.024 47.8519 182.116 47.7403 182.171 47.6098C182.225 47.4793 182.239 47.3357 182.211 47.1971C182.184 47.0586 182.115 46.9313 182.015 46.8313L171.756 36.6088C171.62 36.4826 171.441 36.4138 171.255 36.4171C171.069 36.4204 170.891 36.4954 170.76 36.6263C170.629 36.7573 170.553 36.9339 170.55 37.1191C170.547 37.3042 170.616 37.4834 170.742 37.6189L181.001 47.8414C181.136 47.9755 181.318 48.0509 181.508 48.0511Z" fill="#262424"/>
<path d="M180.059 50.8553C180.201 50.8551 180.339 50.8132 180.457 50.7346C180.575 50.6561 180.667 50.5445 180.721 50.414C180.776 50.2835 180.79 50.1399 180.762 50.0013C180.734 49.8628 180.666 49.7355 180.566 49.6355L170.307 39.413C170.171 39.2868 169.991 39.218 169.805 39.2213C169.62 39.2246 169.442 39.2996 169.311 39.4305C169.179 39.5615 169.104 39.7381 169.101 39.9233C169.098 40.1084 169.167 40.2876 169.293 40.4231L179.552 50.6456C179.687 50.7797 179.869 50.8551 180.059 50.8553Z" fill="#262424"/>
<path d="M177.747 52.7991C177.888 52.799 178.027 52.757 178.145 52.6784C178.263 52.5999 178.355 52.4883 178.409 52.3578C178.463 52.2273 178.477 52.0837 178.45 51.9451C178.422 51.8066 178.354 51.6793 178.254 51.5793L169.736 43.0935C169.671 43.0228 169.593 42.9656 169.507 42.9253C169.42 42.8849 169.326 42.8624 169.23 42.8589C169.134 42.8554 169.039 42.871 168.949 42.9049C168.86 42.9387 168.778 42.9901 168.708 43.0559C168.639 43.1218 168.584 43.2009 168.546 43.2884C168.507 43.3759 168.487 43.4702 168.486 43.5656C168.485 43.6611 168.504 43.7557 168.54 43.844C168.576 43.9323 168.63 44.0125 168.698 44.0798L168.741 44.1227L177.242 52.5894C177.376 52.7229 177.557 52.7983 177.747 52.7991Z" fill="#262424"/>
<path d="M169.217 44.3849C169.407 44.3847 169.589 44.3093 169.724 44.1752L178.254 35.6775C178.38 35.542 178.449 35.3628 178.446 35.1777C178.443 34.9925 178.368 34.8159 178.236 34.6849C178.105 34.554 177.927 34.479 177.742 34.4757C177.556 34.4724 177.376 34.5412 177.24 34.6674L168.707 43.1675C168.608 43.2677 168.54 43.395 168.513 43.5334C168.486 43.6718 168.501 43.815 168.555 43.9451C168.61 44.0753 168.702 44.1864 168.819 44.2647C168.937 44.3429 169.075 44.3847 169.217 44.3849Z" fill="#262424"/>
<path d="M169.8 48.0511C169.99 48.0509 170.173 47.9755 170.307 47.8414L180.566 37.6189C180.693 37.4834 180.762 37.3042 180.758 37.1191C180.755 36.9339 180.68 36.7573 180.548 36.6263C180.417 36.4954 180.24 36.4204 180.054 36.4171C179.868 36.4138 179.688 36.4826 179.552 36.6088L169.293 46.8313C169.193 46.9313 169.125 47.0586 169.097 47.1971C169.07 47.3357 169.084 47.4793 169.138 47.6098C169.192 47.7403 169.284 47.8519 169.402 47.9304C169.52 48.009 169.658 48.0509 169.8 48.0511Z" fill="#262424"/>
<path d="M171.247 50.8553C171.437 50.8551 171.619 50.7797 171.754 50.6456L182.013 40.4231C182.14 40.2876 182.208 40.1084 182.205 39.9233C182.202 39.7381 182.127 39.5615 181.995 39.4305C181.864 39.2996 181.686 39.2246 181.501 39.2213C181.315 39.218 181.135 39.2868 180.999 39.413L170.74 49.6355C170.64 49.7355 170.572 49.8628 170.544 50.0013C170.516 50.1399 170.53 50.2835 170.585 50.414C170.639 50.5445 170.731 50.6561 170.849 50.7346C170.967 50.8132 171.105 50.8551 171.247 50.8553Z" fill="#262424"/>
<path d="M173.559 52.7994C173.75 52.7992 173.932 52.7238 174.066 52.5897L182.599 44.0896C182.725 43.9541 182.794 43.7749 182.791 43.5898C182.788 43.4046 182.713 43.228 182.581 43.097C182.45 42.9661 182.272 42.8911 182.087 42.8878C181.901 42.8845 181.721 42.9533 181.585 43.0795L173.064 51.5772C172.964 51.6763 172.895 51.8028 172.867 51.9406C172.838 52.0785 172.851 52.2217 172.904 52.3522C172.957 52.4827 173.047 52.5948 173.164 52.6743C173.281 52.7539 173.418 52.7974 173.559 52.7994Z" fill="#262424"/>
<path d="M186.745 60.2485H187.7C188.113 60.2485 188.448 60.5824 188.448 60.9942V64.6249C188.448 65.0367 188.113 65.3705 187.7 65.3705H186.745C186.332 65.3705 185.997 65.0367 185.997 64.6249V60.9942C185.997 60.5824 186.332 60.2485 186.745 60.2485Z" fill="white"/>
<path d="M186.745 66.0853H187.702C188.09 66.0847 188.462 65.9309 188.736 65.6576C189.01 65.3843 189.165 65.0138 189.166 64.6274V61.0039C189.165 60.617 189.01 60.2461 188.735 59.9728C188.46 59.6994 188.088 59.5459 187.7 59.5459H186.743C186.354 59.5459 185.981 59.6998 185.707 59.9736C185.432 60.2475 185.277 60.6189 185.277 61.0063V64.6393C185.281 65.0245 185.437 65.3927 185.712 65.6635C185.987 65.9344 186.359 66.086 186.745 66.0853ZM187.702 60.9634C187.71 60.964 187.717 60.9675 187.722 60.9732C187.728 60.979 187.731 60.9865 187.731 60.9943V64.6274C187.731 64.6356 187.727 64.6434 187.722 64.6493C187.716 64.6551 187.708 64.6583 187.7 64.6583H186.743C186.735 64.6584 186.728 64.6554 186.722 64.6501C186.716 64.6448 186.713 64.6375 186.712 64.6297V61.0039C186.713 60.9965 186.716 60.9895 186.721 60.9843C186.726 60.979 186.733 60.9758 186.741 60.9753H187.697L187.702 60.9634Z" fill="#262424"/>
<path d="M185.49 55.6626H188.955C189.368 55.6626 189.703 55.9964 189.703 56.4083V60.2771C189.703 60.689 189.368 61.0228 188.955 61.0228H185.49C185.076 61.0228 184.741 60.689 184.741 60.2771V56.4083C184.741 55.9964 185.076 55.6626 185.49 55.6626Z" fill="white"/>
<path d="M185.499 61.7379H188.967C189.355 61.7373 189.727 61.5835 190.001 61.3102C190.275 61.0369 190.43 60.6664 190.43 60.2799V56.4087C190.43 56.0218 190.275 55.6509 190 55.3776C189.725 55.1042 189.353 54.9507 188.965 54.9507H185.499C185.111 54.9507 184.738 55.1045 184.463 55.3784C184.188 55.6523 184.034 56.0237 184.034 56.411V60.2894C184.037 60.6747 184.193 61.0431 184.467 61.3144C184.742 61.5857 185.113 61.7379 185.499 61.7379ZM188.967 56.3777C188.975 56.3783 188.982 56.3818 188.987 56.3876C188.993 56.3933 188.996 56.4008 188.996 56.4087V60.2894C188.996 60.2977 188.992 60.3055 188.987 60.3113C188.981 60.3172 188.973 60.3204 188.965 60.3204H185.499C185.492 60.3204 185.484 60.3175 185.478 60.3122C185.473 60.3069 185.469 60.2996 185.468 60.2918V56.4087C185.469 56.4013 185.472 56.3943 185.477 56.3891C185.483 56.3838 185.49 56.3806 185.497 56.3801H188.965L188.967 56.3777Z" fill="#262424"/>
<path d="M187.221 30.3887H187.224C191.031 30.3887 194.118 33.4637 194.118 37.2569V49.8855C194.118 53.6787 191.031 56.7537 187.224 56.7537H187.221C183.414 56.7537 180.327 53.6787 180.327 49.8855V37.2569C180.327 33.4637 183.414 30.3887 187.221 30.3887Z" fill="#363636"/>
<path d="M180.327 41.3569H194.118V45.8952H180.327V41.3569Z" fill="white"/>
<path d="M192.394 54.5264C192.664 55.6471 193.37 56.6149 194.357 57.2171C195.343 57.8192 196.53 58.0065 197.655 57.7378L236.196 48.5015C237.321 48.232 238.293 47.5286 238.897 46.5458C239.502 45.563 239.69 44.3813 239.42 43.2604C239.149 42.1398 238.443 41.172 237.457 40.5698C236.47 39.9676 235.284 39.7803 234.159 40.0491L195.61 49.2853C194.487 49.5564 193.517 50.2605 192.914 51.2431C192.311 52.2257 192.124 53.4065 192.394 54.5264Z" fill="white"/>
<path d="M196.629 58.5762C197.032 58.5755 197.433 58.5275 197.825 58.4332L236.373 49.197C237.675 48.8747 238.795 48.0529 239.491 46.9108C240.187 45.7688 240.401 44.399 240.088 43.1001C239.774 41.8011 238.958 40.6784 237.817 39.9765C236.676 39.2747 235.302 39.0507 233.996 39.3533L195.448 48.5895C194.24 48.8814 193.182 49.6035 192.473 50.6195C191.764 51.6355 191.452 52.8751 191.598 54.1041C191.743 55.3332 192.335 56.4667 193.262 57.2906C194.189 58.1145 195.387 58.5718 196.629 58.5762ZM235.194 40.6397C236.087 40.6406 236.948 40.9676 237.615 41.559C238.282 42.1503 238.708 42.9648 238.813 43.8481C238.917 44.7314 238.692 45.6222 238.182 46.3516C237.671 47.081 236.909 47.5984 236.041 47.8057L197.492 57.042C196.553 57.2653 195.563 57.1084 194.74 56.6056C193.916 56.1028 193.327 55.2951 193.1 54.3599C192.874 53.4246 193.029 52.4381 193.532 51.6167C194.035 50.7953 194.844 50.2061 195.782 49.9784L234.331 40.7422C234.614 40.6741 234.903 40.6397 235.194 40.6397Z" fill="#262424"/>
<path d="M198.292 54.2797C197.682 54.4258 197.068 54.0516 196.922 53.444C196.775 52.8363 197.151 52.2253 197.761 52.0792L233.52 43.5133C234.13 43.3672 234.744 43.7414 234.89 44.349C235.037 44.9567 234.661 45.5677 234.052 45.7138L198.292 54.2797Z" fill="white"/>
<path d="M198.033 55.0241C198.178 55.0237 198.324 55.0061 198.465 54.9717L234.226 46.3954C234.462 46.3386 234.685 46.236 234.882 46.0933C235.079 45.9506 235.246 45.7707 235.373 45.5639C235.629 45.1462 235.709 44.644 235.593 44.1679C235.478 43.6919 235.178 43.2808 234.759 43.0253C234.339 42.7697 233.835 42.6906 233.358 42.8053L197.597 51.3816C197.361 51.4383 197.138 51.541 196.941 51.6837C196.744 51.8263 196.577 52.0062 196.45 52.2131C196.323 52.4199 196.238 52.6497 196.2 52.8892C196.163 53.1287 196.172 53.3733 196.229 53.609C196.327 54.0122 196.558 54.371 196.885 54.6276C197.212 54.8843 197.616 55.024 198.033 55.0241ZM233.793 44.1918C233.895 44.1921 233.994 44.2296 234.07 44.2974C234.146 44.3651 234.195 44.4583 234.207 44.5595C234.219 44.6606 234.194 44.7626 234.135 44.8463C234.077 44.93 233.99 44.9895 233.891 45.0137L198.131 53.59C198.023 53.6158 197.909 53.5979 197.814 53.5403C197.72 53.4827 197.652 53.39 197.626 53.2827C197.6 53.1753 197.618 53.062 197.676 52.9678C197.734 52.8735 197.827 52.806 197.934 52.78L233.695 44.2037C233.727 44.1959 233.76 44.1919 233.793 44.1918Z" fill="#262424"/>
<path d="M195.195 53.8497C194.963 52.8902 195.556 51.9254 196.519 51.6947C197.482 51.464 198.451 52.0548 198.683 53.0142C198.914 53.9737 198.321 54.9385 197.358 55.1692C196.395 55.3999 195.426 54.8091 195.195 53.8497Z" fill="white"/>
<path d="M196.923 55.944C197.122 55.9442 197.32 55.921 197.514 55.8749C198.132 55.7265 198.671 55.3484 199.019 54.8178C199.367 54.2871 199.499 53.6441 199.387 53.02C199.275 52.3959 198.928 51.8379 198.417 51.46C197.907 51.0821 197.27 50.9128 196.638 50.9867C196.006 51.0606 195.426 51.3722 195.017 51.8577C194.608 52.3432 194.4 52.9661 194.437 53.599C194.473 54.2319 194.751 54.8271 195.213 55.263C195.675 55.6988 196.287 55.9424 196.923 55.944ZM196.923 52.3705C197.187 52.3695 197.443 52.4653 197.64 52.6398C197.838 52.8143 197.965 53.0552 197.996 53.3167C198.027 53.5781 197.96 53.8418 197.809 54.0574C197.657 54.2731 197.431 54.4256 197.174 54.486C197.027 54.519 196.874 54.5208 196.726 54.4913C196.578 54.4617 196.438 54.4015 196.315 54.3145C196.192 54.2275 196.089 54.1157 196.012 53.9863C195.935 53.8569 195.886 53.7129 195.869 53.5635C195.851 53.4142 195.866 53.2628 195.911 53.1194C195.956 52.9759 196.031 52.8435 196.131 52.7308C196.231 52.6181 196.353 52.5275 196.491 52.465C196.628 52.4026 196.777 52.3695 196.928 52.3681L196.923 52.3705Z" fill="#262424"/>
<path d="M277.522 69.9844C278.781 67.9367 281.467 67.2931 283.523 68.547C285.579 69.8009 286.225 72.4774 284.966 74.5252L256.369 121.051C255.111 123.099 252.424 123.742 250.368 122.488C248.313 121.234 247.667 118.558 248.925 116.51L277.522 69.9844Z" fill="white"/>
<path d="M252.644 123.854C253.515 123.856 254.372 123.634 255.132 123.211C255.893 122.787 256.531 122.176 256.987 121.436L285.58 74.9072C286.284 73.7629 286.504 72.3867 286.19 71.0813C285.876 69.7759 285.054 68.6482 283.906 67.9461C282.757 67.2443 281.376 67.0258 280.066 67.3385C278.755 67.6513 277.623 68.4696 276.918 69.6137L248.325 116.14C247.851 116.907 247.591 117.785 247.572 118.685C247.552 119.584 247.774 120.473 248.214 121.259C248.654 122.045 249.296 122.7 250.075 123.156C250.854 123.612 251.74 123.853 252.644 123.854ZM281.252 68.6274C281.922 68.627 282.579 68.8117 283.15 69.161C283.975 69.6667 284.563 70.4778 284.788 71.4159C285.012 72.354 284.853 73.3424 284.346 74.1639L255.753 120.691C255.508 121.109 255.182 121.475 254.794 121.766C254.406 122.057 253.964 122.268 253.492 122.386C253.021 122.505 252.531 122.528 252.051 122.455C251.57 122.382 251.109 122.214 250.695 121.962C250.281 121.709 249.921 121.376 249.638 120.983C249.355 120.589 249.153 120.144 249.045 119.672C248.937 119.2 248.924 118.711 249.009 118.234C249.093 117.758 249.272 117.302 249.535 116.895L278.136 70.3665C278.462 69.8349 278.92 69.3958 279.465 69.0912C280.011 68.7867 280.626 68.627 281.252 68.6274Z" fill="#262424"/>
<path d="M279.526 72.8833C279.854 72.3503 280.553 72.1828 281.088 72.5092C281.623 72.8355 281.791 73.5322 281.463 74.0652L254.365 118.153C254.038 118.686 253.338 118.853 252.803 118.527C252.268 118.201 252.1 117.504 252.428 116.971L279.526 72.8833Z" fill="white"/>
<path d="M253.397 119.42C253.544 119.42 253.691 119.403 253.835 119.368C254.072 119.312 254.295 119.21 254.492 119.067C254.689 118.924 254.856 118.744 254.982 118.537L282.076 74.4471C282.326 74.0297 282.401 73.5311 282.284 73.0594C282.167 72.5876 281.868 72.1809 281.452 71.9272C281.036 71.6736 280.536 71.5936 280.061 71.7045C279.586 71.8155 279.175 72.1084 278.915 72.5198L251.821 116.609C251.649 116.889 251.555 117.209 251.548 117.537C251.542 117.864 251.623 118.188 251.783 118.474C251.944 118.761 252.178 118.999 252.461 119.165C252.745 119.332 253.068 119.42 253.397 119.42ZM280.498 73.0654C280.575 73.0656 280.65 73.087 280.716 73.1273C280.763 73.1559 280.804 73.1934 280.836 73.2377C280.869 73.2821 280.892 73.3324 280.905 73.3857C280.918 73.439 280.92 73.4944 280.911 73.5486C280.903 73.6027 280.883 73.6547 280.854 73.7014L253.758 117.791C253.7 117.886 253.607 117.954 253.498 117.98C253.39 118.006 253.276 117.988 253.181 117.93C253.085 117.872 253.017 117.779 252.991 117.671C252.965 117.564 252.983 117.45 253.041 117.355L280.139 73.2655C280.177 73.2042 280.23 73.1536 280.292 73.1185C280.355 73.0835 280.426 73.0652 280.498 73.0654Z" fill="#262424"/>
<path d="M280.151 74.0339C279.306 73.5186 279.041 72.4187 279.558 71.5771C280.075 70.7356 281.179 70.4711 282.024 70.9864C282.869 71.5017 283.134 72.6016 282.617 73.4432C282.1 74.2848 280.996 74.5492 280.151 74.0339Z" fill="white"/>
<path d="M281.086 75.019C281.524 75.0192 281.955 74.9053 282.335 74.6886C282.715 74.472 283.031 74.1601 283.253 73.7839C283.475 73.4077 283.594 72.9804 283.598 72.5442C283.603 72.108 283.493 71.6782 283.279 71.2974C283.066 70.9166 282.756 70.5981 282.381 70.3734C282.005 70.1488 281.578 70.0258 281.14 70.0167C280.702 70.0075 280.27 70.1126 279.885 70.3215C279.501 70.5303 279.178 70.8357 278.949 71.2073C278.715 71.5862 278.586 72.0205 278.577 72.4653C278.568 72.9101 278.678 73.3493 278.896 73.7377C279.113 74.1261 279.431 74.4495 279.816 74.6748C280.201 74.9 280.64 75.0188 281.086 75.019ZM281.086 71.4455C281.325 71.4439 281.557 71.5211 281.746 71.6649C281.935 71.8087 282.071 72.0111 282.133 72.2402C282.195 72.4694 282.178 72.7125 282.086 72.9313C281.994 73.1502 281.832 73.3325 281.625 73.4497C281.418 73.5669 281.178 73.6123 280.942 73.5789C280.706 73.5455 280.488 73.4351 280.322 73.265C280.156 73.095 280.051 72.8748 280.024 72.6391C279.997 72.4034 280.05 72.1654 280.173 71.9625C280.269 71.805 280.403 71.6748 280.564 71.5842C280.725 71.4937 280.906 71.4459 281.091 71.4455H281.086Z" fill="#262424"/>
<path d="M283.631 68.9643C285.687 70.2182 286.333 72.8948 285.074 74.9426C283.815 76.9903 281.129 77.6339 279.073 76.38L232.371 47.8913C230.315 46.6374 229.669 43.9609 230.928 41.9131C232.187 39.8653 234.873 39.2218 236.929 40.4757L283.631 68.9643Z" fill="white"/>
<path d="M281.335 77.7348C282.206 77.7362 283.063 77.5145 283.824 77.0911C284.584 76.6677 285.223 76.0567 285.678 75.3167C286.381 74.1721 286.6 72.7964 286.286 71.4913C285.972 70.1863 285.151 69.0586 284.004 68.3556L237.301 39.8703C236.151 39.1693 234.769 38.9519 233.459 39.266C232.149 39.58 231.017 40.3999 230.313 41.545C229.61 42.6902 229.391 44.067 229.707 45.3725C230.022 46.6779 230.845 47.8052 231.994 48.5062L278.69 76.9915C279.486 77.4779 280.402 77.7352 281.335 77.7348ZM284.444 74.5711C283.936 75.3922 283.122 75.9789 282.181 76.2022C281.239 76.4256 280.247 76.2673 279.422 75.7622L232.719 47.2769C231.918 46.7627 231.351 45.9566 231.139 45.0312C230.927 44.1058 231.087 43.1346 231.585 42.3252C232.083 41.5159 232.879 40.9327 233.803 40.7006C234.727 40.4684 235.705 40.6056 236.528 41.0829L283.248 69.5801C284.072 70.0858 284.661 70.8969 284.886 71.835C285.11 72.7731 284.951 73.7615 284.444 74.583V74.5711Z" fill="#262424"/>
<path d="M280.722 70.9604C281.257 71.2868 281.425 71.9834 281.097 72.5164C280.769 73.0494 280.07 73.2169 279.535 72.8905L235.28 45.8947C234.745 45.5684 234.577 44.8717 234.905 44.3387C235.232 43.8058 235.932 43.6382 236.467 43.9646L280.722 70.9604Z" fill="white"/>
<path d="M280.118 73.7756C280.266 73.7754 280.412 73.7578 280.556 73.7232C280.912 73.6379 281.236 73.4491 281.484 73.1807C281.733 72.9123 281.897 72.5763 281.954 72.2154C282.011 71.8544 281.959 71.4847 281.805 71.153C281.651 70.8214 281.402 70.5427 281.089 70.3522L236.832 43.3606C236.625 43.2306 236.393 43.143 236.151 43.1028C235.909 43.0626 235.662 43.0706 235.423 43.1264C235.184 43.1822 234.959 43.2846 234.76 43.4277C234.562 43.5708 234.393 43.7518 234.265 43.9602C234.137 44.1686 234.052 44.4002 234.015 44.6416C233.977 44.883 233.988 45.1295 234.047 45.3666C234.106 45.6038 234.211 45.827 234.357 46.0233C234.503 46.2195 234.687 46.385 234.898 46.51L279.154 73.5016C279.444 73.68 279.778 73.7748 280.118 73.7756ZM235.866 44.5184C235.943 44.5186 236.018 44.5401 236.084 44.5803L280.34 71.572C280.387 71.6005 280.428 71.6381 280.461 71.6824C280.493 71.7267 280.517 71.777 280.529 71.8304C280.542 71.8837 280.545 71.9391 280.536 71.9932C280.527 72.0474 280.508 72.0994 280.479 72.1461C280.45 72.1929 280.413 72.2337 280.368 72.266C280.324 72.2983 280.273 72.3215 280.22 72.3344C280.166 72.3472 280.111 72.3494 280.056 72.3408C280.002 72.3322 279.95 72.313 279.903 72.2843L235.646 45.2807C235.573 45.2315 235.517 45.1604 235.487 45.0776C235.457 44.9948 235.453 44.9046 235.478 44.8199C235.502 44.7352 235.553 44.6604 235.623 44.6063C235.693 44.5521 235.778 44.5213 235.866 44.5184Z" fill="#262424"/>
<path d="M280.151 74.0339C279.306 73.5186 279.041 72.4187 279.558 71.5771C280.075 70.7356 281.179 70.4711 282.024 70.9864C282.869 71.5017 283.134 72.6016 282.617 73.4432C282.1 74.2848 280.996 74.5492 280.151 74.0339Z" fill="white"/>
<path d="M281.086 75.019C281.634 75.0195 282.166 74.8419 282.603 74.5132C283.039 74.1845 283.356 73.7228 283.505 73.1982C283.654 72.6736 283.627 72.115 283.427 71.6072C283.228 71.0995 282.868 70.6704 282.402 70.3854C282.071 70.1833 281.698 70.0603 281.312 70.026C280.925 69.9917 280.536 70.047 280.175 70.1876C279.814 70.3283 279.49 70.5503 279.229 70.8365C278.969 71.1226 278.778 71.4651 278.673 71.8369C278.567 72.2087 278.549 72.5999 278.621 72.9796C278.693 73.3594 278.852 73.7175 279.085 74.0257C279.319 74.334 279.622 74.5841 279.969 74.7565C280.316 74.9288 280.699 75.0186 281.086 75.019ZM281.653 71.6027C281.835 71.713 281.98 71.8745 282.069 72.0667C282.159 72.2589 282.189 72.4732 282.157 72.6827C282.124 72.8921 282.03 73.0871 281.886 73.2432C281.742 73.3993 281.555 73.5095 281.348 73.5597C281.142 73.6099 280.925 73.598 280.725 73.5254C280.525 73.4529 280.351 73.3229 280.225 73.152C280.1 72.9811 280.027 72.7768 280.018 72.5651C280.009 72.3534 280.063 72.1437 280.173 71.9625C280.247 71.8423 280.344 71.7378 280.458 71.6549C280.572 71.572 280.702 71.5123 280.839 71.4794C280.977 71.4464 281.119 71.4408 281.259 71.4627C281.399 71.4847 281.533 71.5339 281.653 71.6075V71.6027Z" fill="#262424"/>
<path d="M234.78 46.5144C233.936 45.9991 233.67 44.8992 234.187 44.0576C234.705 43.216 235.809 42.9516 236.654 43.4669C237.498 43.9822 237.764 45.0821 237.247 45.9237C236.729 46.7652 235.625 47.0297 234.78 46.5144Z" fill="white"/>
<path d="M235.718 47.4985C236.265 47.4989 236.797 47.3213 237.234 46.9927C237.67 46.664 237.987 46.2022 238.136 45.6777C238.285 45.1531 238.258 44.5945 238.059 44.0867C237.86 43.579 237.499 43.1499 237.033 42.8649C236.702 42.6628 236.329 42.5398 235.943 42.5055C235.557 42.4712 235.168 42.5265 234.806 42.6671C234.445 42.8077 234.121 43.0298 233.861 43.316C233.6 43.6021 233.409 43.9445 233.304 44.3164C233.198 44.6882 233.181 45.0793 233.252 45.4591C233.324 45.8389 233.483 46.1969 233.717 46.5052C233.951 46.8135 234.253 47.0636 234.6 47.2359C234.947 47.4082 235.33 47.4981 235.718 47.4985ZM236.28 44.0894C236.461 44.2001 236.606 44.3619 236.695 44.5544C236.784 44.7469 236.814 44.9614 236.781 45.1708C236.747 45.3802 236.653 45.5751 236.508 45.7308C236.364 45.8866 236.176 45.9962 235.969 46.0458C235.763 46.0954 235.546 46.0828 235.346 46.0096C235.146 45.9363 234.973 45.8058 234.848 45.6344C234.722 45.463 234.651 45.2584 234.642 45.0466C234.634 44.8348 234.689 44.6252 234.8 44.4443C234.873 44.3241 234.97 44.2196 235.084 44.1367C235.199 44.0538 235.328 43.9942 235.466 43.9612C235.603 43.9283 235.746 43.9226 235.886 43.9446C236.025 43.9666 236.159 44.0158 236.28 44.0894Z" fill="#262424"/>
<path d="M251.8 120.895C251.913 120.895 252.024 120.869 252.125 120.818C252.226 120.767 252.314 120.693 252.38 120.602C252.447 120.511 252.491 120.405 252.509 120.294C252.527 120.183 252.518 120.069 252.484 119.961C250.525 113.898 250.367 109.534 252.005 106.62C253.156 104.567 255.174 103.209 258.173 102.47C259.356 102.18 260.59 101.896 261.786 101.622C270.357 99.6569 279.219 97.6272 278.647 90.5636C278.348 86.8591 275.388 83.2832 272.255 79.4954C268.752 75.2668 265.131 70.8976 264.414 65.7447C263.637 60.2653 262.092 55.8366 259.823 52.6133C257.242 48.947 253.78 46.8958 249.54 46.5503C246.352 46.2835 243.322 46.9696 240.383 47.6343C235.424 48.7588 231.141 49.7284 227.535 45.7142C223.106 40.7828 216.214 36.3612 210.795 37.5976C207.383 38.379 204.956 41.2044 203.58 45.9929C200.792 55.7127 197.86 64.4939 196.361 68.8631C196.07 69.7088 195.523 70.4437 194.795 70.9661C194.066 71.4884 193.193 71.7725 192.296 71.7791H192.274C191.127 71.7784 190.026 71.3238 189.215 70.5153C188.404 69.7067 187.948 68.6103 187.948 67.4671V65.3706C187.948 65.1811 187.873 64.9993 187.738 64.8653C187.604 64.7312 187.421 64.6559 187.231 64.6559C187.041 64.6559 186.858 64.7312 186.724 64.8653C186.589 64.9993 186.513 65.1811 186.513 65.3706V67.4671C186.513 68.9894 187.12 70.4493 188.201 71.526C189.281 72.6026 190.746 73.2078 192.274 73.2084H192.305C193.502 73.2022 194.667 72.8252 195.638 72.1299C196.61 71.4345 197.341 70.4552 197.729 69.3277C199.233 64.9466 202.174 56.1392 204.97 46.3883C206.189 42.1359 208.26 39.6488 211.125 39.0032C215.937 37.9025 222.448 42.2098 226.463 46.679C230.634 51.3221 235.524 50.2143 240.699 49.0399C243.526 48.399 246.438 47.7367 249.415 47.9869C258.644 48.7635 261.894 58.188 262.994 65.9567C263.78 71.5099 267.695 76.2411 271.148 80.4149C274.135 84.0242 276.954 87.4332 277.217 90.6899C277.696 96.5218 269.804 98.3276 261.465 100.241C260.27 100.517 259.024 100.8 257.828 101.093C254.468 101.92 252.089 103.55 250.752 105.937C248.892 109.272 249.009 113.863 251.125 120.412C251.173 120.552 251.264 120.674 251.385 120.761C251.506 120.847 251.651 120.894 251.8 120.895Z" fill="#262424"/>
<path d="M234.941 125.162H268.659C269.55 125.162 270.273 125.882 270.273 126.77V132.488C270.273 133.376 269.55 134.096 268.659 134.096H234.941C234.049 134.096 233.326 133.376 233.326 132.488V126.77C233.326 125.882 234.049 125.162 234.941 125.162Z" fill="white"/>
<path d="M234.941 134.81H268.659C269.277 134.81 269.87 134.565 270.307 134.129C270.744 133.694 270.99 133.103 270.99 132.488V126.77C270.99 126.154 270.744 125.564 270.307 125.128C269.87 124.693 269.277 124.448 268.659 124.447H234.941C234.322 124.448 233.73 124.693 233.293 125.128C232.856 125.564 232.61 126.154 232.609 126.77V132.488C232.61 133.103 232.856 133.694 233.293 134.129C233.73 134.565 234.322 134.81 234.941 134.81ZM268.659 125.877C268.897 125.877 269.125 125.971 269.293 126.138C269.461 126.306 269.555 126.533 269.555 126.77V132.488C269.555 132.725 269.461 132.952 269.293 133.119C269.125 133.287 268.897 133.381 268.659 133.381H234.941C234.703 133.381 234.475 133.287 234.307 133.119C234.138 132.952 234.044 132.725 234.044 132.488V126.77C234.044 126.533 234.138 126.306 234.307 126.138C234.475 125.971 234.703 125.877 234.941 125.877H268.659Z" fill="#262424"/>
<path d="M251.8 115.197C250.304 115.197 248.87 115.789 247.812 116.842C246.755 117.896 246.161 119.324 246.161 120.814V123.554C246.161 123.98 246.331 124.389 246.634 124.691C246.936 124.993 247.347 125.162 247.775 125.162H255.824C256.252 125.162 256.663 124.993 256.966 124.691C257.268 124.389 257.438 123.98 257.438 123.554V120.814C257.438 119.324 256.844 117.896 255.787 116.842C254.729 115.789 253.295 115.197 251.8 115.197Z" fill="white"/>
<path d="M247.773 125.877H255.824C256.442 125.876 257.035 125.631 257.472 125.196C257.909 124.76 258.155 124.17 258.156 123.554V120.814C258.156 119.135 257.486 117.524 256.294 116.336C255.101 115.148 253.484 114.481 251.798 114.481C250.112 114.481 248.495 115.148 247.303 116.336C246.111 117.524 245.441 119.135 245.441 120.814V123.554C245.442 124.17 245.687 124.76 246.125 125.196C246.562 125.631 247.154 125.876 247.773 125.877ZM251.797 115.912C253.102 115.913 254.352 116.431 255.275 117.35C256.198 118.269 256.717 119.515 256.719 120.814V123.554C256.719 123.791 256.624 124.018 256.456 124.186C256.288 124.353 256.06 124.447 255.822 124.447H247.77C247.532 124.447 247.304 124.353 247.136 124.186C246.968 124.018 246.873 123.791 246.873 123.554V120.814C246.875 119.514 247.395 118.267 248.319 117.348C249.242 116.429 250.494 115.912 251.8 115.912H251.797Z" fill="#262424"/>
<path d="M251.8 121.946C250.82 121.946 250.025 121.155 250.025 120.178C250.025 119.202 250.82 118.411 251.8 118.411C252.78 118.411 253.574 119.202 253.574 120.178C253.574 121.155 252.78 121.946 251.8 121.946Z" fill="white"/>
<path d="M251.8 122.661C252.293 122.661 252.774 122.515 253.184 122.242C253.594 121.969 253.913 121.582 254.102 121.128C254.29 120.675 254.34 120.175 254.244 119.694C254.147 119.212 253.91 118.77 253.562 118.423C253.213 118.076 252.769 117.839 252.286 117.744C251.802 117.648 251.301 117.697 250.846 117.885C250.391 118.073 250.002 118.391 249.728 118.799C249.454 119.207 249.308 119.687 249.308 120.178C249.309 120.836 249.571 121.467 250.038 121.933C250.506 122.398 251.139 122.66 251.8 122.661ZM251.8 119.128C252.009 119.128 252.213 119.189 252.387 119.305C252.561 119.421 252.696 119.585 252.776 119.778C252.856 119.97 252.877 120.182 252.836 120.386C252.796 120.59 252.695 120.778 252.547 120.925C252.399 121.072 252.211 121.173 252.006 121.213C251.801 121.254 251.588 121.233 251.395 121.153C251.202 121.074 251.037 120.939 250.921 120.766C250.805 120.592 250.743 120.389 250.743 120.181C250.744 119.902 250.856 119.636 251.054 119.439C251.252 119.243 251.52 119.132 251.8 119.132V119.128Z" fill="#262424"/>
<path d="M69.1436 4.85998V22.8131C69.1436 23.451 69.2697 24.0827 69.5147 24.672C69.7597 25.2613 70.1189 25.7968 70.5717 26.2479C71.0245 26.699 71.562 27.0568 72.1536 27.3009C72.7451 27.545 73.3792 27.6706 74.0195 27.6706H91.2109L99.968 36.3947V27.6706H103.78C105.073 27.6706 106.313 27.1589 107.228 26.2479C108.142 25.3369 108.656 24.1014 108.656 22.8131V4.85998C108.656 3.57168 108.142 2.33615 107.228 1.42518C106.313 0.514216 105.073 0.00244141 103.78 0.00244141H74.0195C73.3792 0.00244141 72.7451 0.128085 72.1536 0.372199C71.562 0.616313 71.0245 0.974117 70.5717 1.42518C70.1189 1.87625 69.7597 2.41174 69.5147 3.00108C69.2697 3.59042 69.1436 4.22208 69.1436 4.85998Z" fill="#2961A9"/>
<path d="M78.5966 7.77832H99.2004C100.134 7.77832 100.891 8.53241 100.891 9.46262C100.891 10.3928 100.134 11.1469 99.2004 11.1469H78.5966C77.6629 11.1469 76.9059 10.3928 76.9059 9.46262C76.9059 8.53241 77.6629 7.77832 78.5966 7.77832Z" fill="white"/>
<path d="M78.5966 14.8276H99.2004C100.134 14.8276 100.891 15.5817 100.891 16.5119C100.891 17.4421 100.134 18.1962 99.2004 18.1962H78.5966C77.6629 18.1962 76.9059 17.4421 76.9059 16.5119C76.9059 15.5817 77.6629 14.8276 78.5966 14.8276Z" fill="white"/>
<path d="M225.196 12.9933C222.775 12.9933 220.812 11.0383 220.812 8.62655C220.812 6.21484 222.775 4.25977 225.196 4.25977C227.617 4.25977 229.579 6.21484 229.579 8.62655C229.579 11.0383 227.617 12.9933 225.196 12.9933Z" fill="#2961A9"/>
<path d="M209.891 12.9933C207.47 12.9933 205.508 11.0383 205.508 8.62655C205.508 6.21484 207.47 4.25977 209.891 4.25977C212.312 4.25977 214.275 6.21484 214.275 8.62655C214.275 11.0383 212.312 12.9933 209.891 12.9933Z" fill="#2961A9"/>
<path d="M194.587 12.9933C192.166 12.9933 190.203 11.0383 190.203 8.62655C190.203 6.21484 192.166 4.25977 194.587 4.25977C197.007 4.25977 198.97 6.21484 198.97 8.62655C198.97 11.0383 197.007 12.9933 194.587 12.9933Z" fill="#2961A9"/>
<path d="M27.4717 120.938C23.9653 120.938 21.1227 118.106 21.1227 114.613C21.1227 111.12 23.9653 108.288 27.4717 108.288C30.9782 108.288 33.8208 111.12 33.8208 114.613C33.8208 118.106 30.9782 120.938 27.4717 120.938Z" fill="#F59C0C"/>
<path d="M54.982 101.003C53.3695 101.003 52.0622 99.7008 52.0622 98.0944C52.0622 96.4879 53.3695 95.1855 54.982 95.1855C56.5946 95.1855 57.9019 96.4879 57.9019 98.0944C57.9019 99.7008 56.5946 101.003 54.982 101.003Z" fill="#2961A9"/>
<path d="M298.651 121.165C295.144 121.165 292.302 118.333 292.302 114.84C292.302 111.346 295.144 108.515 298.651 108.515C302.157 108.515 305 111.346 305 114.84C305 118.333 302.157 121.165 298.651 121.165Z" fill="#F59C0C"/>
<path d="M287.376 197.746C285.141 197.746 283.33 195.942 283.33 193.715C283.33 191.489 285.141 189.685 287.376 189.685C289.61 189.685 291.422 191.489 291.422 193.715C291.422 195.942 289.61 197.746 287.376 197.746Z" fill="#F59C0C"/>
<path d="M286.584 107.9C284.972 107.9 283.664 106.597 283.664 104.991C283.664 103.384 284.972 102.082 286.584 102.082C288.197 102.082 289.504 103.384 289.504 104.991C289.504 106.597 288.197 107.9 286.584 107.9Z" fill="#2961A9"/>
<path d="M37.4749 53.6638C37.6335 53.6638 37.7856 53.6011 37.8977 53.4894C38.0098 53.3777 38.0728 53.2262 38.0728 53.0682V50.3715C38.0728 50.2135 38.0098 50.062 37.8977 49.9503C37.7856 49.8386 37.6335 49.7759 37.4749 49.7759C37.3164 49.7759 37.1643 49.8386 37.0522 49.9503C36.9401 50.062 36.8771 50.2135 36.8771 50.3715V53.0682C36.8771 53.2262 36.9401 53.3777 37.0522 53.4894C37.1643 53.6011 37.3164 53.6638 37.4749 53.6638Z" fill="#F59C0C"/>
<path d="M32.972 55.4626H35.679C35.8376 55.4626 35.9896 55.3999 36.1018 55.2882C36.2139 55.1765 36.2769 55.025 36.2769 54.8671C36.2769 54.7091 36.2139 54.5576 36.1018 54.4459C35.9896 54.3342 35.8376 54.2715 35.679 54.2715H32.972C32.8134 54.2715 32.6614 54.3342 32.5492 54.4459C32.4371 54.5576 32.3742 54.7091 32.3742 54.8671C32.3742 55.025 32.4371 55.1765 32.5492 55.2882C32.6614 55.3999 32.8134 55.4626 32.972 55.4626Z" fill="#F59C0C"/>
<path d="M37.4749 59.9558C37.6335 59.9558 37.7856 59.8931 37.8977 59.7814C38.0098 59.6697 38.0728 59.5182 38.0728 59.3602V56.6634C38.0728 56.5852 38.0573 56.5078 38.0272 56.4355C37.9972 56.3633 37.9532 56.2976 37.8977 56.2423C37.8422 56.187 37.7762 56.1431 37.7037 56.1132C37.6312 56.0833 37.5534 56.0679 37.4749 56.0679C37.3964 56.0679 37.3187 56.0833 37.2462 56.1132C37.1736 56.1431 37.1077 56.187 37.0522 56.2423C36.9967 56.2976 36.9527 56.3633 36.9226 56.4355C36.8926 56.5078 36.8771 56.5852 36.8771 56.6634V59.3602C36.8771 59.5182 36.9401 59.6697 37.0522 59.7814C37.1643 59.8931 37.3164 59.9558 37.4749 59.9558Z" fill="#2961A9"/>
<path d="M39.2874 55.4626H41.9944C42.153 55.4626 42.3051 55.3999 42.4172 55.2882C42.5293 55.1765 42.5923 55.025 42.5923 54.8671C42.5923 54.7091 42.5293 54.5576 42.4172 54.4459C42.3051 54.3342 42.153 54.2715 41.9944 54.2715H39.2874C39.1289 54.2715 38.9768 54.3342 38.8647 54.4459C38.7526 54.5576 38.6896 54.7091 38.6896 54.8671C38.6896 55.025 38.7526 55.1765 38.8647 55.2882C38.9768 55.3999 39.1289 55.4626 39.2874 55.4626Z" fill="#2961A9"/>
<path d="M244.714 242.005C244.873 242.005 245.025 241.942 245.137 241.831C245.249 241.719 245.312 241.567 245.312 241.409V238.724C245.312 238.567 245.249 238.415 245.137 238.303C245.025 238.192 244.873 238.129 244.714 238.129C244.556 238.129 244.404 238.192 244.291 238.303C244.179 238.415 244.116 238.567 244.116 238.724V241.421C244.119 241.577 244.184 241.726 244.296 241.835C244.407 241.944 244.558 242.005 244.714 242.005Z" fill="#2961A9"/>
<path d="M240.202 243.803H242.909C243.067 243.803 243.219 243.741 243.331 243.629C243.443 243.517 243.506 243.366 243.506 243.208C243.506 243.05 243.443 242.898 243.331 242.787C243.219 242.675 243.067 242.612 242.909 242.612H240.202C240.043 242.612 239.891 242.675 239.779 242.787C239.667 242.898 239.604 243.05 239.604 243.208C239.604 243.366 239.667 243.517 239.779 243.629C239.891 243.741 240.043 243.803 240.202 243.803Z" fill="#2961A9"/>
<path d="M244.714 248.297C244.873 248.297 245.025 248.234 245.137 248.122C245.249 248.01 245.312 247.859 245.312 247.701V245.004C245.312 244.846 245.249 244.695 245.137 244.583C245.025 244.471 244.873 244.409 244.714 244.409C244.556 244.409 244.404 244.471 244.291 244.583C244.179 244.695 244.116 244.846 244.116 245.004V247.701C244.116 247.859 244.179 248.01 244.291 248.122C244.404 248.234 244.556 248.297 244.714 248.297Z" fill="#F59C0C"/>
<path d="M246.517 243.803H249.224C249.383 243.803 249.535 243.741 249.647 243.629C249.759 243.517 249.822 243.366 249.822 243.208C249.822 243.05 249.759 242.898 249.647 242.787C249.535 242.675 249.383 242.612 249.224 242.612H246.517C246.359 242.612 246.207 242.675 246.094 242.787C245.982 242.898 245.919 243.05 245.919 243.208C245.919 243.366 245.982 243.517 246.094 243.629C246.207 243.741 246.359 243.803 246.517 243.803Z" fill="#F59C0C"/>
<path d="M219.457 118.978C219.615 118.978 219.767 118.915 219.879 118.803C219.991 118.692 220.054 118.54 220.054 118.382V115.685C220.054 115.527 219.991 115.376 219.879 115.264C219.767 115.153 219.615 115.09 219.457 115.09C219.298 115.09 219.146 115.153 219.034 115.264C218.922 115.376 218.859 115.527 218.859 115.685V118.382C218.859 118.54 218.922 118.692 219.034 118.803C219.146 118.915 219.298 118.978 219.457 118.978Z" fill="#F59C0C"/>
<path d="M214.949 120.776H217.656C217.814 120.776 217.966 120.713 218.079 120.602C218.191 120.49 218.254 120.338 218.254 120.181C218.254 120.023 218.191 119.871 218.079 119.759C217.966 119.648 217.814 119.585 217.656 119.585H214.949C214.79 119.585 214.638 119.648 214.526 119.759C214.414 119.871 214.351 120.023 214.351 120.181C214.351 120.338 214.414 120.49 214.526 120.602C214.638 120.713 214.79 120.776 214.949 120.776Z" fill="#F59C0C"/>
<path d="M219.457 125.269C219.615 125.269 219.767 125.207 219.879 125.095C219.991 124.983 220.054 124.832 220.054 124.674V121.977C220.054 121.819 219.991 121.667 219.879 121.556C219.767 121.444 219.615 121.381 219.457 121.381C219.298 121.381 219.146 121.444 219.034 121.556C218.922 121.667 218.859 121.819 218.859 121.977V124.674C218.859 124.832 218.922 124.983 219.034 125.095C219.146 125.207 219.298 125.269 219.457 125.269Z" fill="#2961A9"/>
<path d="M221.264 120.776H223.971C224.13 120.776 224.282 120.713 224.394 120.602C224.506 120.49 224.569 120.338 224.569 120.181C224.569 120.023 224.506 119.871 224.394 119.759C224.282 119.648 224.13 119.585 223.971 119.585H221.264C221.106 119.585 220.954 119.648 220.842 119.759C220.73 119.871 220.667 120.023 220.667 120.181C220.667 120.338 220.73 120.49 220.842 120.602C220.954 120.713 221.106 120.776 221.264 120.776Z" fill="#2961A9"/>
<path d="M282.442 20.1399C282.601 20.1399 282.753 20.0772 282.865 19.9655C282.977 19.8538 283.04 19.7023 283.04 19.5444V16.85C283.04 16.692 282.977 16.5405 282.865 16.4288C282.753 16.3171 282.601 16.2544 282.442 16.2544C282.284 16.2544 282.132 16.3171 282.02 16.4288C281.908 16.5405 281.845 16.692 281.845 16.85V19.5515C281.847 19.7082 281.91 19.8579 282.022 19.968C282.134 20.0782 282.285 20.14 282.442 20.1399Z" fill="#2961A9"/>
<path d="M277.932 21.9338H280.639C280.798 21.9338 280.95 21.8711 281.062 21.7594C281.174 21.6477 281.237 21.4962 281.237 21.3383C281.237 21.1803 281.174 21.0288 281.062 20.9171C280.95 20.8054 280.798 20.7427 280.639 20.7427H277.932C277.774 20.7427 277.622 20.8054 277.509 20.9171C277.397 21.0288 277.334 21.1803 277.334 21.3383C277.334 21.4962 277.397 21.6477 277.509 21.7594C277.622 21.8711 277.774 21.9338 277.932 21.9338Z" fill="#2961A9"/>
<path d="M282.442 26.4319C282.601 26.4319 282.753 26.3691 282.865 26.2574C282.977 26.1457 283.04 25.9943 283.04 25.8363V23.1395C283.04 22.9816 282.977 22.8301 282.865 22.7184C282.753 22.6067 282.601 22.5439 282.442 22.5439C282.284 22.5439 282.132 22.6067 282.02 22.7184C281.908 22.8301 281.845 22.9816 281.845 23.1395V25.8363C281.845 25.9943 281.908 26.1457 282.02 26.2574C282.132 26.3691 282.284 26.4319 282.442 26.4319Z" fill="#F59C0C"/>
<path d="M284.248 21.9338H286.955C287.113 21.9338 287.266 21.8711 287.378 21.7594C287.49 21.6477 287.553 21.4962 287.553 21.3383C287.553 21.1803 287.49 21.0288 287.378 20.9171C287.266 20.8054 287.113 20.7427 286.955 20.7427H284.248C284.089 20.7427 283.937 20.8054 283.825 20.9171C283.713 21.0288 283.65 21.1803 283.65 21.3383C283.65 21.4962 283.713 21.6477 283.825 21.7594C283.937 21.8711 284.089 21.9338 284.248 21.9338Z" fill="#F59C0C"/>
</g>
<defs>
<clipPath id="clip0_567_227">
<rect width="305" height="279" fill="white" transform="matrix(-1 0 0 1 305 0)"/>
</clipPath>
</defs>
</svg>
