<svg width="342" height="300" viewBox="0 0 342 300" fill="none" xmlns="http://www.w3.org/2000/svg">
<path d="M97.7863 112.796C96.7646 115.271 94.952 116.327 92.761 116.55L92.5473 116.572C90.8779 116.7 89.0845 116.644 87.2228 115.552C84.1555 113.756 80.9022 109.149 77.7045 97.9201C72.5745 79.8709 70.6507 62.788 80.8188 65.7773C84.9527 66.9944 91.688 79.9501 95.5227 91.1659C96.7881 94.8644 97.7371 98.3744 98.1753 101.212C99.0196 106.734 98.7674 110.419 97.7863 112.796Z" fill="#F59C0C"/>
<path d="M113.745 84.5227L104.919 108.148C104.919 108.148 102.172 112.676 98.3249 115.112C97.2861 115.797 96.1247 116.274 94.9049 116.516C94.199 116.644 93.477 116.655 92.7674 116.55C92.1142 116.451 91.479 116.257 90.8821 115.973C89.8211 115.482 88.9126 114.712 88.253 113.745C87.2398 112.245 86.7888 110.237 87.0389 107.781C87.4664 103.472 90.0571 97.7977 95.5226 91.1741C98.2715 87.8441 101.745 84.2719 106.041 80.5112L113.745 84.5227Z" fill="#DE9244"/>
<path d="M98.325 115.112C97.2862 115.797 96.1248 116.274 94.905 116.516C94.1992 116.644 93.4771 116.656 92.7675 116.55L92.5538 116.572C90.8844 116.7 89.091 116.644 87.2292 115.552C87.3813 115.205 87.5533 114.867 87.7444 114.54C87.9068 114.264 88.4797 113.966 88.2595 113.745C84.9293 110.407 93.7422 109.507 96.1042 110.893C96.8498 111.339 97.4414 112.003 97.7992 112.796C98.1258 113.525 98.3045 114.313 98.325 115.112V115.112Z" fill="white"/>
<path d="M105.424 107.222C105.355 107.222 105.287 107.205 105.226 107.173C105.165 107.141 105.112 107.094 105.073 107.037C105.034 106.981 105.009 106.915 105 106.846C104.992 106.778 105 106.708 105.024 106.643L113.213 84.7284L106.097 81.0256C96.5702 89.4063 90.1898 97.7784 88.1185 104.621C88.0856 104.729 88.011 104.821 87.911 104.874C87.811 104.928 87.6938 104.94 87.5852 104.907C87.4767 104.874 87.3856 104.799 87.3321 104.699C87.2786 104.598 87.267 104.481 87.2999 104.372C88.8089 99.3856 93.2336 91.1441 105.753 80.1877C105.818 80.1309 105.898 80.0949 105.983 80.0846C106.069 80.0743 106.155 80.0901 106.232 80.1298L113.942 84.1413C114.036 84.1878 114.111 84.2678 114.15 84.3659C114.19 84.464 114.191 84.5733 114.155 84.6727L105.826 106.943C105.795 107.025 105.74 107.096 105.668 107.146C105.596 107.196 105.511 107.222 105.424 107.222V107.222Z" fill="#262424"/>
<path d="M111.086 88.4698C110.006 88.4698 105.55 88.187 104.019 83.6527C103.983 83.545 103.991 83.4272 104.041 83.3254C104.092 83.2235 104.18 83.1458 104.288 83.1094C104.395 83.0731 104.512 83.081 104.614 83.1314C104.716 83.1818 104.793 83.2707 104.829 83.3784C106.353 87.8934 111.062 87.6234 111.263 87.6105C111.377 87.6026 111.489 87.6401 111.574 87.7148C111.66 87.7896 111.713 87.8954 111.721 88.0091C111.729 88.1228 111.691 88.2349 111.617 88.3209C111.542 88.4069 111.437 88.4597 111.323 88.4677C111.323 88.4677 111.233 88.4698 111.086 88.4698Z" fill="#262424"/>
<path d="M112.219 72.2869C113.352 73.7269 109.053 79.4269 107.134 78.1477C105.214 76.8684 109.177 68.4277 112.219 72.2869Z" fill="white"/>
<path d="M107.758 78.7585C107.454 78.7605 107.156 78.6717 106.903 78.5035C106.3 78.1028 106.08 77.2285 106.281 76.0456C106.593 74.2135 108.038 71.4128 109.944 70.9263C110.611 70.7571 111.605 70.8085 112.561 72.0214C113.484 73.1956 111.937 75.6921 110.742 76.9885C109.669 78.1456 108.617 78.7585 107.758 78.7585ZM110.492 71.7128C110.375 71.7132 110.258 71.7283 110.145 71.7578C108.782 72.1071 107.42 74.3849 107.114 76.1892C106.978 76.9949 107.072 77.5928 107.367 77.7899C107.909 78.1521 109.01 77.5971 110.103 76.4078C111.539 74.8456 112.24 73.0221 111.879 72.5506C111.436 71.9999 110.981 71.7149 110.492 71.7149V71.7128Z" fill="#262424"/>
<path d="M118.351 78.8357C118.351 78.8357 116.38 84.2079 113.375 85.5129C110.37 86.8179 105.68 83.2607 106.093 79.8879C106.505 76.515 110.348 74.3357 113.089 75.5615C113.089 75.5615 109.654 74.1622 110.951 72.1993C112.249 70.2365 118.695 74.0615 119.287 75.9215C119.879 77.7815 118.351 78.8357 118.351 78.8357Z" fill="white"/>
<path d="M111.981 86.2134C110.782 86.2134 109.459 85.7419 108.267 84.8484C106.454 83.4919 105.46 81.5698 105.669 79.8341C105.878 78.5046 106.527 77.2845 107.513 76.3707C108.498 75.457 109.763 74.903 111.101 74.7984C110.743 74.4831 110.472 74.081 110.314 73.6305C110.231 73.3493 110.213 73.0527 110.262 72.7634C110.31 72.4742 110.424 72.1998 110.594 71.9612C110.87 71.5434 111.471 71.0848 112.77 71.2648C115.237 71.6077 119.183 74.1877 119.698 75.7905C119.891 76.3782 119.899 77.0111 119.722 77.6039C119.545 78.1966 119.191 78.7207 118.708 79.1055C118.383 79.9455 116.462 84.6405 113.546 85.9048C113.051 86.114 112.519 86.219 111.981 86.2134ZM111.419 75.6427C110.588 75.6533 109.773 75.8784 109.053 76.2962C108.377 76.6638 107.796 77.1845 107.356 77.817C106.917 78.4494 106.63 79.1761 106.52 79.9391C106.347 81.3705 107.213 82.9884 108.78 84.1627C110.276 85.2877 111.986 85.6627 113.206 85.1184C116.013 83.9012 117.932 78.7391 117.952 78.6898C117.98 78.6033 118.036 78.5283 118.11 78.4755C118.478 78.204 118.751 77.8227 118.89 77.3863C119.029 76.9499 119.026 76.4806 118.883 76.0455C118.503 74.852 114.899 72.4198 112.653 72.107C112.18 72.0427 111.563 72.0448 111.308 72.4284C111.208 72.5609 111.139 72.7151 111.108 72.8788C111.078 73.0425 111.085 73.2111 111.131 73.3712C111.379 74.1791 112.584 74.8712 113.146 75.1134L113.264 75.1648C113.368 75.2094 113.451 75.2938 113.493 75.3992C113.535 75.5047 113.534 75.6227 113.489 75.7273C113.445 75.8319 113.361 75.9144 113.256 75.9568C113.15 75.9992 113.033 75.998 112.928 75.9534L112.828 75.9105C112.38 75.7297 111.902 75.6387 111.419 75.6427V75.6427Z" fill="#262424"/>
<path d="M269.69 22.2859V126.643C269.691 127.418 269.539 128.185 269.243 128.9C268.948 129.616 268.515 130.267 267.968 130.814C267.422 131.362 266.773 131.797 266.06 132.093C265.346 132.39 264.581 132.542 263.808 132.542H93.8768C92.3178 132.54 90.8234 131.917 89.7221 130.811C88.6207 129.705 88.0024 128.206 88.0029 126.643V22.2859C88.0041 20.7226 88.6243 19.2238 89.7274 18.1188C90.8304 17.0138 92.326 16.3931 93.8853 16.3931H263.817C265.374 16.3953 266.868 17.0171 267.969 18.1218C269.07 19.2266 269.689 20.7241 269.69 22.2859Z" fill="white"/>
<path d="M263.808 132.964H93.8768C92.2062 132.96 90.6054 132.292 89.4245 131.108C88.2437 129.923 87.5788 128.318 87.5754 126.643V22.2858C87.5783 20.6094 88.2441 19.0025 89.427 17.8175C90.6098 16.6325 92.2131 15.9661 93.8853 15.9644H263.817C265.487 15.9683 267.088 16.6357 268.269 17.8205C269.45 19.0053 270.115 20.6108 270.118 22.2858V126.643C270.115 128.319 269.449 129.926 268.266 131.111C267.083 132.296 265.48 132.962 263.808 132.964V132.964ZM93.8768 16.8215C92.4328 16.8255 91.0492 17.4026 90.0285 18.4266C89.0078 19.4506 88.4333 20.8382 88.4304 22.2858V126.643C88.4316 128.093 89.0066 129.484 90.0293 130.509C91.052 131.535 92.4388 132.112 93.8853 132.114H263.817C265.262 132.11 266.646 131.532 267.667 130.506C268.688 129.481 269.262 128.092 269.263 126.643V22.2858C269.261 20.836 268.686 19.446 267.663 18.4208C266.641 17.3956 265.254 16.8189 263.808 16.8172H93.8768V16.8215Z" fill="#262424"/>
<path d="M269.69 22.2859V38.4838H88.0029V22.2859C88.0041 20.7226 88.6243 19.2238 89.7274 18.1188C90.8304 17.0138 92.326 16.3931 93.8853 16.3931H263.817C265.374 16.3953 266.868 17.0171 267.969 18.1218C269.07 19.2266 269.689 20.7241 269.69 22.2859Z" fill="#D86A46"/>
<path d="M269.69 38.9165H88.0029C87.8896 38.9165 87.7808 38.8713 87.7007 38.791C87.6205 38.7106 87.5754 38.6016 87.5754 38.4879V22.2858C87.5783 20.6094 88.2441 19.0025 89.427 17.8175C90.6098 16.6325 92.2131 15.9661 93.8853 15.9644H263.817C265.487 15.9683 267.089 16.6357 268.27 17.8205C269.451 19.0053 270.115 20.6108 270.118 22.2858V38.4836C270.119 38.5403 270.108 38.5965 270.087 38.649C270.065 38.7015 270.034 38.7492 269.994 38.7895C269.955 38.8297 269.907 38.8617 269.855 38.8835C269.803 38.9053 269.747 38.9165 269.69 38.9165V38.9165ZM88.4304 38.0594H269.263V22.2858C269.261 20.836 268.686 19.446 267.663 18.4208C266.641 17.3956 265.254 16.8189 263.808 16.8172H93.8768C92.4321 16.8212 91.0478 17.3989 90.027 18.4238C89.0062 19.4488 88.4321 20.8374 88.4304 22.2858V38.0551V38.0594Z" fill="#914228"/>
<path d="M136.321 26.1064H103.545C102.089 26.1064 100.909 27.2894 100.909 28.7486V28.7507C100.909 30.2099 102.089 31.3929 103.545 31.3929H136.321C137.777 31.3929 138.957 30.2099 138.957 28.7507V28.7486C138.957 27.2894 137.777 26.1064 136.321 26.1064Z" fill="white"/>
<path d="M136.321 31.8194H103.547C102.734 31.8194 101.955 31.4957 101.38 30.9197C100.806 30.3436 100.483 29.5623 100.483 28.7476C100.483 27.9329 100.806 27.1516 101.38 26.5755C101.955 25.9994 102.734 25.6758 103.547 25.6758H136.321C137.134 25.6758 137.913 25.9994 138.488 26.5755C139.063 27.1516 139.385 27.9329 139.385 28.7476C139.385 29.5623 139.063 30.3436 138.488 30.9197C137.913 31.4957 137.134 31.8194 136.321 31.8194ZM103.547 26.5351C102.961 26.5351 102.399 26.7684 101.985 27.1837C101.571 27.599 101.338 28.1623 101.338 28.7497C101.338 29.3371 101.571 29.9004 101.985 30.3157C102.399 30.731 102.961 30.9644 103.547 30.9644H136.321C136.907 30.9644 137.469 30.731 137.883 30.3157C138.298 29.9004 138.53 29.3371 138.53 28.7497C138.53 28.1623 138.298 27.599 137.883 27.1837C137.469 26.7684 136.907 26.5351 136.321 26.5351H103.547Z" fill="#262424"/>
<path d="M195.235 26.1064H162.459C161.003 26.1064 159.823 27.2894 159.823 28.7486V28.7507C159.823 30.2099 161.003 31.3929 162.459 31.3929H195.235C196.691 31.3929 197.871 30.2099 197.871 28.7507V28.7486C197.871 27.2894 196.691 26.1064 195.235 26.1064Z" fill="white"/>
<path d="M195.233 31.8194H162.45C161.637 31.8194 160.858 31.4957 160.283 30.9197C159.709 30.3436 159.386 29.5623 159.386 28.7476C159.386 27.9329 159.709 27.1516 160.283 26.5755C160.858 25.9994 161.637 25.6758 162.45 25.6758H195.233C196.046 25.6758 196.825 25.9994 197.4 26.5755C197.974 27.1516 198.297 27.9329 198.297 28.7476C198.297 29.5623 197.974 30.3436 197.4 30.9197C196.825 31.4957 196.046 31.8194 195.233 31.8194ZM162.45 26.5351C161.864 26.5351 161.302 26.7684 160.888 27.1837C160.474 27.599 160.241 28.1623 160.241 28.7497C160.241 29.3371 160.474 29.9004 160.888 30.3157C161.302 30.731 161.864 30.9644 162.45 30.9644H195.233C195.819 30.9644 196.381 30.731 196.795 30.3157C197.209 29.9004 197.442 29.3371 197.442 28.7497C197.442 28.1623 197.209 27.599 196.795 27.1837C196.381 26.7684 195.819 26.5351 195.233 26.5351H162.45Z" fill="#262424"/>
<path d="M254.147 26.1064H221.37C219.915 26.1064 218.735 27.2894 218.735 28.7486V28.7507C218.735 30.2099 219.915 31.3929 221.37 31.3929H254.147C255.602 31.3929 256.782 30.2099 256.782 28.7507V28.7486C256.782 27.2894 255.602 26.1064 254.147 26.1064Z" fill="white"/>
<path d="M254.149 31.8194H221.37C220.558 31.8194 219.778 31.4957 219.204 30.9197C218.629 30.3436 218.306 29.5623 218.306 28.7476C218.306 27.9329 218.629 27.1516 219.204 26.5755C219.778 25.9994 220.558 25.6758 221.37 25.6758H254.149C254.961 25.6758 255.741 25.9994 256.315 26.5755C256.89 27.1516 257.213 27.9329 257.213 28.7476C257.213 29.5623 256.89 30.3436 256.315 30.9197C255.741 31.4957 254.961 31.8194 254.149 31.8194ZM221.375 26.5329C220.789 26.5329 220.227 26.7663 219.812 27.1816C219.398 27.5969 219.165 28.1602 219.165 28.7476C219.165 29.3349 219.398 29.8982 219.812 30.3136C220.227 30.7289 220.789 30.9622 221.375 30.9622H254.149C254.735 30.9622 255.297 30.7289 255.711 30.3136C256.125 29.8982 256.358 29.3349 256.358 28.7476C256.358 28.1602 256.125 27.5969 255.711 27.1816C255.297 26.7663 254.735 26.5329 254.149 26.5329H221.37H221.375Z" fill="#262424"/>
<path d="M146.464 127.929C146.35 127.929 146.242 127.883 146.161 127.803C146.081 127.723 146.036 127.614 146.036 127.5V21.4286C146.036 21.3149 146.081 21.2059 146.161 21.1255C146.242 21.0452 146.35 21 146.464 21C146.577 21 146.686 21.0452 146.766 21.1255C146.846 21.2059 146.891 21.3149 146.891 21.4286V127.5C146.891 127.614 146.846 127.723 146.766 127.803C146.686 127.883 146.577 127.929 146.464 127.929Z" fill="#262424"/>
<path d="M211.228 127.929C211.114 127.929 211.006 127.883 210.925 127.803C210.845 127.723 210.8 127.614 210.8 127.5V21.4286C210.8 21.3149 210.845 21.2059 210.925 21.1255C211.006 21.0452 211.114 21 211.228 21C211.341 21 211.45 21.0452 211.53 21.1255C211.61 21.2059 211.655 21.3149 211.655 21.4286V127.5C211.655 127.614 211.61 127.723 211.53 127.803C211.45 127.883 211.341 127.929 211.228 127.929Z" fill="#262424"/>
<path d="M264.289 38.9162H93.4087C93.2953 38.9162 93.1866 38.8711 93.1064 38.7907C93.0262 38.7103 92.9812 38.6013 92.9812 38.4877C92.9812 38.374 93.0262 38.265 93.1064 38.1846C93.1866 38.1042 93.2953 38.0591 93.4087 38.0591H264.293C264.407 38.0597 264.515 38.1053 264.595 38.1861C264.675 38.2669 264.719 38.3761 264.719 38.4898C264.718 38.6035 264.673 38.7122 264.592 38.7922C264.511 38.8722 264.402 38.9168 264.289 38.9162V38.9162Z" fill="#262424"/>
<path d="M181.181 51.4287C181.181 51.4287 181.181 60.4287 186.738 66.9066H170.56C165.002 60.4373 165.002 51.4287 165.002 51.4287H181.185H181.181Z" fill="white"/>
<path d="M186.745 67.337H170.56C170.498 67.3369 170.438 67.3237 170.382 67.2982C170.326 67.2727 170.277 67.2355 170.237 67.1891C164.634 60.6748 164.57 51.8055 164.57 51.4305C164.57 51.3169 164.615 51.2079 164.696 51.1275C164.776 51.0471 164.884 51.002 164.998 51.002H181.181C181.294 51.002 181.403 51.0471 181.483 51.1275C181.563 51.2079 181.608 51.3169 181.608 51.4305C181.608 51.5184 181.677 60.3598 187.067 66.6298C187.12 66.6919 187.155 66.768 187.166 66.8489C187.177 66.9299 187.165 67.0124 187.131 67.0867C187.097 67.161 187.043 67.2241 186.974 67.2684C186.906 67.3128 186.826 67.3365 186.745 67.337ZM170.758 66.4798H185.841C181.397 60.7927 180.832 53.6805 180.764 51.857H165.442C165.526 53.6912 166.163 61.0155 170.758 66.4798Z" fill="#262424"/>
<path d="M187.132 106.054C187.132 106.054 187.132 115.054 192.689 121.532H176.51C170.953 115.063 170.953 106.054 170.953 106.054H187.136H187.132Z" fill="white"/>
<path d="M192.694 121.96H176.511C176.449 121.96 176.389 121.947 176.333 121.922C176.277 121.896 176.228 121.859 176.188 121.813C170.585 115.298 170.521 106.429 170.521 106.054C170.521 105.94 170.566 105.831 170.646 105.751C170.727 105.671 170.835 105.625 170.949 105.625H187.132C187.245 105.625 187.354 105.671 187.434 105.751C187.514 105.831 187.559 105.94 187.559 106.054C187.559 106.142 187.628 114.983 193.018 121.253C193.072 121.316 193.106 121.392 193.117 121.473C193.128 121.554 193.116 121.637 193.082 121.711C193.048 121.786 192.993 121.849 192.924 121.893C192.855 121.937 192.775 121.961 192.694 121.96ZM176.707 121.103H191.789C187.346 115.418 186.783 108.304 186.713 106.483H171.389C171.477 108.317 172.112 115.641 176.707 121.103Z" fill="#262424"/>
<path d="M247.409 106.054C247.409 106.054 247.409 115.054 252.967 121.532H236.784C231.226 115.063 231.226 106.054 231.226 106.054H247.409V106.054Z" fill="white"/>
<path d="M252.971 121.96H236.788C236.727 121.96 236.666 121.947 236.61 121.922C236.555 121.896 236.505 121.859 236.465 121.813C230.863 115.298 230.799 106.429 230.799 106.054C230.799 105.94 230.844 105.831 230.924 105.751C231.004 105.671 231.113 105.625 231.226 105.625H247.409C247.522 105.625 247.631 105.671 247.711 105.751C247.792 105.831 247.837 105.94 247.837 106.054C247.837 106.142 247.905 114.983 253.296 121.253C253.349 121.316 253.383 121.392 253.394 121.473C253.406 121.554 253.393 121.637 253.359 121.711C253.325 121.786 253.27 121.849 253.201 121.893C253.133 121.937 253.053 121.961 252.971 121.96V121.96ZM236.985 121.103H252.067C247.623 115.418 247.061 108.304 246.99 106.483H231.664C231.754 108.317 232.389 115.641 236.985 121.103Z" fill="#262424"/>
<path d="M188.472 78.0693L173.409 79.8218L175.158 94.9219L190.22 93.1694L188.472 78.0693Z" fill="#F59C0C"/>
<path d="M122.778 51.4287C122.778 51.4287 122.778 60.4287 128.336 66.9066H112.157C106.599 60.4373 106.599 51.4287 106.599 51.4287H122.778Z" fill="#2961A9"/>
<path d="M125.195 106.054C125.195 106.054 125.195 115.054 130.753 121.532H114.57C109.012 115.063 109.012 106.054 109.012 106.054H125.195V106.054Z" fill="#F59C0C"/>
<path d="M126.538 78.0639L111.476 79.8164L113.224 94.9165L128.286 93.164L126.538 78.0639Z" fill="white"/>
<path d="M113.23 95.3357C113.125 95.3364 113.023 95.2981 112.944 95.2281C112.865 95.1581 112.815 95.0613 112.802 94.9564L111.054 79.8578C111.047 79.8018 111.052 79.745 111.067 79.6908C111.083 79.6365 111.109 79.5859 111.144 79.5417C111.178 79.4975 111.222 79.4606 111.271 79.4332C111.32 79.4059 111.374 79.3885 111.43 79.3821L126.491 77.6292C126.603 77.6153 126.716 77.6465 126.806 77.7159C126.895 77.7854 126.953 77.8875 126.968 78L128.716 93.0985C128.723 93.1545 128.718 93.2113 128.703 93.2656C128.687 93.3198 128.661 93.3705 128.626 93.4147C128.592 93.4589 128.548 93.4957 128.499 93.5231C128.45 93.5505 128.396 93.5679 128.34 93.5742L113.288 95.3335H113.238L113.23 95.3357ZM111.947 80.1835L113.598 94.4314L127.823 92.7857L126.172 78.5378L111.947 80.1835Z" fill="#262424"/>
<path d="M248.754 50.4902L233.691 52.2427L235.44 67.3427L250.502 65.5903L248.754 50.4902Z" fill="#2961A9"/>
<path d="M248.75 76.4643L233.688 78.2168L235.436 93.3169L250.498 91.5644L248.75 76.4643Z" fill="white"/>
<path d="M235.441 93.7284C235.336 93.7291 235.234 93.6908 235.155 93.6208C235.076 93.5508 235.026 93.454 235.014 93.3491L233.265 78.2505C233.259 78.1945 233.263 78.1378 233.279 78.0835C233.294 78.0293 233.32 77.9786 233.355 77.9344C233.39 77.8902 233.433 77.8533 233.482 77.826C233.532 77.7986 233.586 77.7812 233.642 77.7748L248.702 76.022C248.758 76.0154 248.815 76.0199 248.869 76.0354C248.923 76.0508 248.974 76.0767 249.018 76.1118C249.062 76.1468 249.099 76.1902 249.126 76.2395C249.153 76.2888 249.171 76.3431 249.177 76.3991L250.925 91.4977C250.932 91.5537 250.927 91.6105 250.912 91.6647C250.897 91.719 250.871 91.7696 250.836 91.8138C250.801 91.858 250.758 91.8949 250.708 91.9222C250.659 91.9496 250.605 91.967 250.549 91.9734L235.488 93.7263H235.439L235.441 93.7284ZM234.159 78.5762L235.809 92.8241L250.021 91.1698L248.377 76.9284L234.159 78.5762Z" fill="#262424"/>
<path d="M94.2104 249.292L96.5916 263.546L91.0063 264.204L87.2849 250.024L94.2104 249.292Z" fill="white"/>
<path d="M91.0063 264.643C90.912 264.643 90.8205 264.611 90.7459 264.554C90.6713 264.496 90.6178 264.415 90.5938 264.324L86.8724 250.144C86.8566 250.085 86.8539 250.022 86.8645 249.961C86.875 249.901 86.8985 249.843 86.9335 249.792C86.9684 249.741 87.0138 249.698 87.0668 249.667C87.1197 249.635 87.1788 249.615 87.24 249.609L94.1655 248.876C94.2738 248.865 94.3822 248.895 94.4688 248.961C94.5554 249.027 94.6136 249.124 94.6315 249.232L97.0127 263.486C97.0223 263.543 97.0203 263.602 97.0066 263.658C96.9929 263.715 96.9679 263.768 96.9332 263.814C96.8984 263.861 96.8545 263.9 96.8042 263.929C96.754 263.958 96.6983 263.976 96.6407 263.983L91.0576 264.63H91.0084L91.0063 264.643ZM87.8257 250.408L91.3269 263.745L96.0978 263.184L93.8577 249.772L87.8257 250.408Z" fill="#262424"/>
<path d="M119.17 283.627V286.136H88.2297C88.2297 286.136 88.1292 284.827 88.033 282.624C87.8406 278.291 87.6183 271.007 88.1933 262.954L98.0686 261.369C98.0686 261.369 106.544 270.21 114.085 277.091C114.867 277.804 115.692 278.501 116.56 279.161C118.225 280.427 119.17 282 119.17 283.627Z" fill="#F04B15"/>
<path d="M104.558 277.245C104.5 277.245 104.444 277.233 104.391 277.211C104.338 277.188 104.29 277.155 104.25 277.114C97.5426 270.143 94.5224 264.353 94.4924 264.296C94.4439 264.195 94.4364 264.08 94.4715 263.974C94.5066 263.868 94.5816 263.78 94.6805 263.728C94.7794 263.677 94.8943 263.666 95.0009 263.699C95.1075 263.731 95.1973 263.804 95.2512 263.901C95.2812 263.957 98.2437 269.644 104.87 276.518C104.929 276.579 104.968 276.656 104.983 276.739C104.998 276.822 104.989 276.908 104.955 276.986C104.922 277.063 104.866 277.129 104.796 277.176C104.725 277.222 104.642 277.246 104.558 277.245Z" fill="#262424"/>
<path d="M93.1288 277.714C94.6457 277.714 95.8755 276.342 95.8755 274.648C95.8755 272.954 94.6457 271.582 93.1288 271.582C91.6118 271.582 90.3821 272.954 90.3821 274.648C90.3821 276.342 91.6118 277.714 93.1288 277.714Z" fill="white"/>
<path d="M93.1288 278.143C91.3782 278.143 89.9546 276.574 89.9546 274.648C89.9546 272.721 91.3782 271.153 93.1288 271.153C94.8794 271.153 96.303 272.719 96.303 274.648C96.303 276.576 94.8794 278.143 93.1288 278.143ZM93.1288 272.012C91.8463 272.012 90.8096 273.195 90.8096 274.65C90.8096 276.105 91.8506 277.288 93.1288 277.288C94.407 277.288 95.448 276.105 95.448 274.65C95.448 273.195 94.407 272.012 93.1288 272.012Z" fill="#AA3610"/>
<path d="M119.17 283.626V286.136H88.2296C88.2296 286.136 88.1291 284.826 88.033 282.623H104.366C104.366 282.623 105.411 275.338 114.083 277.091C114.865 277.804 115.69 278.501 116.558 279.161C118.225 280.427 119.17 282 119.17 283.626Z" fill="white"/>
<path d="M119.17 286.567H88.2296C88.1215 286.567 88.0174 286.526 87.9381 286.453C87.8588 286.379 87.8102 286.278 87.8021 286.17C87.8021 286.157 87.6995 284.829 87.6054 282.645C87.6028 282.587 87.6119 282.529 87.6323 282.475C87.6526 282.421 87.6837 282.371 87.7236 282.33C87.7636 282.288 87.8116 282.254 87.8647 282.232C87.9179 282.209 87.9751 282.197 88.0329 282.197H104.015C104.216 281.34 104.904 279.167 106.941 277.725C108.779 276.427 111.216 276.071 114.168 276.673C114.244 276.688 114.314 276.724 114.371 276.776C115.177 277.511 116 278.199 116.816 278.82C118.608 280.183 119.595 281.891 119.595 283.629V286.138C119.595 286.251 119.55 286.36 119.471 286.44C119.391 286.521 119.283 286.566 119.17 286.567V286.567ZM88.6293 285.709H118.742V283.629C118.742 282.165 117.875 280.699 116.301 279.504C115.493 278.889 114.681 278.218 113.886 277.489C111.221 276.969 109.051 277.275 107.437 278.426C105.197 280.009 104.795 282.66 104.791 282.686C104.776 282.789 104.725 282.883 104.646 282.951C104.568 283.019 104.467 283.055 104.363 283.054H88.4818C88.5395 284.302 88.5972 285.214 88.6293 285.709Z" fill="#262424"/>
<path d="M53.2236 140.593C53.2236 140.593 57.3597 157.601 57.9261 159.236C58.4926 160.871 84.8715 255.236 84.8715 255.236L98.2928 252.561L85.4892 139.129C85.4892 139.129 84.3691 127.478 70.5972 127.68C56.8253 127.881 53.2236 140.593 53.2236 140.593Z" fill="#2961A9"/>
<path d="M87.157 209.172C90.0086 208.791 91.8791 205.167 91.3348 201.077C90.7906 196.988 88.0377 193.982 85.186 194.364C82.3344 194.745 80.4639 198.369 81.0082 202.459C81.5525 206.548 84.3054 209.554 87.157 209.172Z" fill="white"/>
<path d="M64.4306 153.508C64.3456 153.508 64.2625 153.482 64.1919 153.435C64.1214 153.387 64.0665 153.32 64.0344 153.241C64.0023 153.162 63.9943 153.075 64.0116 152.992C64.0289 152.909 64.0705 152.832 64.1313 152.773L64.8474 152.07C65.5073 151.424 66.0183 150.641 66.3443 149.775C66.6704 148.91 66.8036 147.984 66.7348 147.062L66.2068 139.892C66.2027 139.836 66.2098 139.779 66.2275 139.726C66.2452 139.672 66.2733 139.622 66.3101 139.58C66.3469 139.537 66.3918 139.502 66.4421 139.477C66.4924 139.451 66.5472 139.436 66.6033 139.432C66.6595 139.428 66.7159 139.435 66.7693 139.453C66.8227 139.471 66.8721 139.499 66.9147 139.536C66.9573 139.573 66.9922 139.618 67.0174 139.668C67.0427 139.719 67.0577 139.773 67.0618 139.83L67.5898 147C67.6687 148.046 67.5183 149.098 67.1491 150.08C66.7798 151.062 66.2007 151.951 65.4523 152.685L64.7362 153.388C64.6957 153.427 64.6478 153.458 64.5953 153.478C64.5429 153.499 64.4869 153.509 64.4306 153.508V153.508Z" fill="#123A6C"/>
<path d="M87.9218 251.062C87.826 251.061 87.7331 251.029 87.6579 250.97C87.5827 250.91 87.5296 250.827 87.5071 250.734L60.9807 140.867C60.9675 140.813 60.9652 140.756 60.9739 140.7C60.9826 140.645 61.0022 140.591 61.0314 140.543C61.0607 140.495 61.0992 140.453 61.1445 140.42C61.1899 140.387 61.2414 140.363 61.296 140.35C61.3506 140.337 61.4073 140.334 61.4627 140.343C61.5182 140.352 61.5715 140.371 61.6194 140.401C61.6673 140.43 61.709 140.469 61.7421 140.514C61.7752 140.56 61.799 140.611 61.8122 140.666L88.3386 250.532C88.365 250.643 88.3468 250.759 88.2879 250.856C88.229 250.952 88.1342 251.022 88.0244 251.049C87.9908 251.057 87.9564 251.062 87.9218 251.062V251.062Z" fill="#123A6C"/>
<path d="M84.8032 251.739C84.6898 251.749 84.5772 251.713 84.49 251.64C84.4028 251.566 84.3482 251.461 84.3383 251.348C84.3284 251.234 84.3639 251.121 84.4371 251.034C84.5102 250.946 84.615 250.892 84.7284 250.882L96.0187 248.863C96.1304 248.843 96.2453 248.869 96.3383 248.934C96.4313 248.999 96.4947 249.098 96.5146 249.21C96.5344 249.322 96.5091 249.437 96.4442 249.531C96.3792 249.624 96.28 249.687 96.1683 249.707L84.878 251.726C84.8535 251.732 84.8285 251.737 84.8032 251.739Z" fill="#123A6C"/>
<path d="M41.1427 249.649L39.4733 264.004L33.9243 263.077L34.2877 248.419L41.1427 249.649Z" fill="white"/>
<path d="M39.4733 264.429H39.4028L33.8453 263.503C33.7445 263.486 33.6531 263.434 33.5876 263.355C33.5222 263.276 33.4869 263.177 33.4883 263.074L33.8496 248.415C33.8511 248.353 33.8659 248.293 33.893 248.237C33.92 248.182 33.9587 248.133 34.0065 248.094C34.0542 248.055 34.1097 248.026 34.1693 248.011C34.229 247.995 34.2912 247.993 34.3519 248.004L41.2068 249.234C41.3138 249.253 41.4094 249.313 41.4741 249.4C41.5389 249.488 41.5679 249.597 41.5552 249.705L39.8859 264.062C39.8713 264.162 39.8219 264.254 39.7464 264.321C39.6709 264.388 39.5742 264.426 39.4733 264.429V264.429ZM34.3626 262.714L39.1014 263.505L40.6725 250.005L34.7024 248.934L34.3626 262.714Z" fill="#262424"/>
<path d="M62.4449 283.627V286.136H31.5068C31.5068 286.136 31.4063 284.827 31.3101 282.624C31.1177 278.291 30.8954 271.007 31.4704 262.954L41.3457 261.369C41.3457 261.369 49.8209 270.21 57.362 277.091C58.1443 277.804 58.9694 278.501 59.8372 279.161C61.5002 280.427 62.4449 282 62.4449 283.627Z" fill="#F04B15"/>
<path d="M47.8331 277.245C47.7756 277.245 47.7188 277.233 47.6659 277.211C47.613 277.188 47.5652 277.155 47.5253 277.114C40.8178 270.143 37.7975 264.353 37.7676 264.296C37.7191 264.195 37.7115 264.08 37.7467 263.974C37.7818 263.868 37.8568 263.78 37.9556 263.728C38.0545 263.677 38.1695 263.666 38.2761 263.699C38.3827 263.731 38.4725 263.804 38.5264 263.901C38.5563 263.957 41.5189 269.644 48.1451 276.518C48.2038 276.579 48.2431 276.656 48.2583 276.739C48.2735 276.822 48.2638 276.908 48.2304 276.986C48.1971 277.063 48.1415 277.129 48.0708 277.176C48.0001 277.222 47.9174 277.246 47.8331 277.245Z" fill="#262424"/>
<path d="M36.4037 277.714C37.9206 277.714 39.1504 276.342 39.1504 274.648C39.1504 272.954 37.9206 271.582 36.4037 271.582C34.8867 271.582 33.657 272.954 33.657 274.648C33.657 276.342 34.8867 277.714 36.4037 277.714Z" fill="white"/>
<path d="M36.4037 278.143C34.6531 278.143 33.2295 276.574 33.2295 274.648C33.2295 272.721 34.6531 271.153 36.4037 271.153C38.1543 271.153 39.5779 272.719 39.5779 274.648C39.5779 276.576 38.1543 278.143 36.4037 278.143ZM36.4037 272.012C35.1212 272.012 34.0845 273.195 34.0845 274.65C34.0845 276.105 35.1255 277.288 36.4037 277.288C37.6819 277.288 38.7229 276.105 38.7229 274.65C38.7229 273.195 37.684 272.012 36.4037 272.012Z" fill="#AA3610"/>
<path d="M62.4449 283.626V286.136H31.5067C31.5067 286.136 31.4062 284.826 31.3101 282.623H47.6427C47.6427 282.623 48.6879 275.338 57.3598 277.091C58.1421 277.804 58.9672 278.501 59.835 279.161C61.5001 280.427 62.4449 282 62.4449 283.626Z" fill="white"/>
<path d="M62.4448 286.567H31.5067C31.3986 286.567 31.2945 286.526 31.2152 286.453C31.1359 286.379 31.0873 286.278 31.0792 286.17C31.0792 286.157 30.9766 284.829 30.8825 282.645C30.8799 282.587 30.889 282.529 30.9094 282.475C30.9297 282.421 30.9608 282.371 31.0007 282.33C31.0407 282.288 31.0887 282.254 31.1418 282.232C31.195 282.209 31.2522 282.197 31.31 282.197H47.2921C47.493 281.34 48.1813 279.165 50.2183 277.725C52.0566 276.427 54.4933 276.071 57.4452 276.673C57.5209 276.688 57.5911 276.724 57.6483 276.776C58.4541 277.511 59.2771 278.199 60.0936 278.82C61.8848 280.183 62.8723 281.891 62.8723 283.629V286.138C62.8723 286.252 62.8273 286.361 62.7471 286.441C62.667 286.521 62.5582 286.567 62.4448 286.567ZM31.9042 285.709H62.0173V283.629C62.0173 282.165 61.1495 280.699 59.5763 279.504C58.7683 278.889 57.9561 278.218 57.1609 277.489C54.4955 276.969 52.3259 277.275 50.7121 278.426C48.472 280.009 48.0702 282.66 48.0659 282.686C48.0514 282.789 48 282.883 47.9213 282.951C47.8427 283.019 47.7421 283.055 47.6384 283.054H31.7568C31.8145 284.302 31.8722 285.214 31.9042 285.709Z" fill="#262424"/>
<path d="M32.2763 135.544C32.2763 135.544 31.5282 153.034 31.6222 154.772C31.7163 156.51 30.8506 254.492 30.8506 254.492L44.4836 255.668L63.6655 143.143C63.6655 143.143 65.8244 131.64 52.5505 127.991C39.2766 124.341 32.2763 135.544 32.2763 135.544Z" fill="#2961A9"/>
<path d="M58.313 174.958H58.2404C58.1287 174.938 58.0293 174.875 57.9639 174.783C57.8986 174.69 57.8727 174.575 57.8919 174.463L63.1801 143.874C63.1882 143.817 63.2075 143.762 63.237 143.713C63.2665 143.664 63.3055 143.621 63.3517 143.587C63.398 143.554 63.4505 143.53 63.5062 143.517C63.5619 143.504 63.6197 143.502 63.6761 143.512C63.7324 143.521 63.7863 143.542 63.8344 143.573C63.8825 143.604 63.924 143.645 63.9563 143.692C63.9885 143.739 64.011 143.793 64.0224 143.849C64.0337 143.905 64.0337 143.963 64.0223 144.019L58.7341 174.602C58.717 174.702 58.6654 174.792 58.5883 174.857C58.5113 174.922 58.4138 174.958 58.313 174.958Z" fill="#123A6C"/>
<path d="M52.0726 204.264C52.6851 200.185 50.8755 196.53 48.0306 196.1C45.1858 195.671 42.383 198.63 41.7705 202.71C41.1579 206.789 42.9676 210.445 45.8124 210.874C48.6573 211.303 51.4601 208.344 52.0726 204.264Z" fill="white"/>
<path d="M39.5672 151.093C39.472 151.093 39.3796 151.061 39.3045 151.002C39.2294 150.944 39.176 150.862 39.1527 150.769C39.1294 150.677 39.1375 150.579 39.1758 150.492C39.2141 150.404 39.2804 150.332 39.3641 150.287C40.4316 149.713 41.3455 148.889 42.0286 147.885C42.7117 146.882 43.1438 145.729 43.2885 144.523L44.0067 138.523C44.0203 138.409 44.0784 138.306 44.1682 138.235C44.258 138.164 44.3722 138.132 44.4855 138.146C44.5989 138.159 44.7023 138.218 44.7728 138.308C44.8434 138.398 44.8753 138.512 44.8617 138.626L44.1435 144.626C43.984 145.97 43.5036 147.257 42.7431 148.376C41.9826 149.495 40.9643 150.413 39.7745 151.054C39.7097 151.084 39.6384 151.098 39.5672 151.093V151.093Z" fill="#123A6C"/>
<path d="M35.0549 251.357H35.0357C34.9795 251.354 34.9244 251.341 34.8735 251.317C34.8225 251.293 34.7768 251.26 34.7389 251.218C34.701 251.176 34.6716 251.128 34.6525 251.075C34.6333 251.022 34.6248 250.965 34.6274 250.909L39.6527 137.981C39.6578 137.867 39.7077 137.76 39.7915 137.683C39.8753 137.606 39.986 137.566 40.0994 137.571C40.2128 137.576 40.3195 137.626 40.3961 137.71C40.4726 137.794 40.5128 137.905 40.5077 138.019L35.4824 250.928C35.4824 251.042 35.4374 251.151 35.3572 251.231C35.277 251.312 35.1683 251.357 35.0549 251.357Z" fill="#123A6C"/>
<path d="M43.2651 252.338H43.2202L31.8166 251.126C31.7032 251.114 31.5992 251.057 31.5275 250.968C31.4557 250.879 31.4221 250.766 31.434 250.652C31.4459 250.538 31.5024 250.434 31.5909 250.362C31.6795 250.29 31.793 250.257 31.9064 250.268L43.3099 251.481C43.4233 251.487 43.5297 251.538 43.6057 251.623C43.6816 251.707 43.721 251.819 43.715 251.932C43.709 252.046 43.6583 252.153 43.5739 252.229C43.4895 252.305 43.3784 252.344 43.2651 252.338V252.338Z" fill="#123A6C"/>
<path d="M27.1464 144.572H32.5884V138.233C32.5884 137.77 32.7718 137.327 33.0983 136.999C33.4248 136.672 33.8677 136.488 34.3294 136.488C34.7912 136.488 35.234 136.672 35.5605 136.999C35.887 137.327 36.0704 137.77 36.0704 138.233V144.572H87.9497C87.9497 144.572 85.2179 113.4 86.9087 93.4391C88.5888 73.6155 80.8126 65.7855 80.8126 65.7855C61.2587 61.3177 48.0383 63.5548 41.4291 65.5262C39.9583 65.9647 38.6314 66.7897 37.5857 67.9155C36.5401 69.0413 35.814 70.4271 35.4826 71.9291C26.6269 112.176 27.1464 144.572 27.1464 144.572Z" fill="#F59C0C"/>
<path d="M86.0943 113.473H86.0772C85.9641 113.468 85.8577 113.418 85.7812 113.335C85.7046 113.251 85.6643 113.141 85.6689 113.027C85.7672 110.704 85.8356 108.341 85.8998 106.057C86.0301 101.557 86.152 97.3073 86.4833 93.4138C87.5969 80.2781 84.4719 72.4588 82.5097 68.9681C82.4816 68.9191 82.4634 68.8651 82.4562 68.8091C82.449 68.7531 82.4528 68.6962 82.4675 68.6417C82.4822 68.5871 82.5074 68.536 82.5418 68.4913C82.5762 68.4466 82.619 68.4091 82.6679 68.3809C82.7167 68.3528 82.7706 68.3346 82.8265 68.3273C82.8823 68.32 82.9391 68.3239 82.9935 68.3386C83.0478 68.3533 83.0988 68.3786 83.1434 68.4131C83.188 68.4476 83.2255 68.4905 83.2535 68.5395C85.2649 72.1159 88.4669 80.1109 87.334 93.4781C87.0048 97.3545 86.883 101.593 86.7548 106.08C86.6885 108.369 86.6201 110.734 86.5218 113.064C86.5168 113.174 86.4696 113.278 86.39 113.354C86.3103 113.431 86.2044 113.473 86.0943 113.473Z" fill="#905921"/>
<path d="M84.241 141.446L38.2163 141.118C38.1029 141.118 37.9942 141.073 37.914 140.992C37.8339 140.912 37.7888 140.803 37.7888 140.689C37.7888 140.576 37.8339 140.467 37.914 140.386C37.9942 140.306 38.1029 140.261 38.2163 140.261L84.241 140.589C84.3543 140.589 84.4631 140.634 84.5433 140.714C84.6234 140.794 84.6685 140.904 84.6685 141.017C84.6685 141.131 84.6234 141.24 84.5433 141.32C84.4631 141.401 84.3543 141.446 84.241 141.446Z" fill="#905921"/>
<path d="M51.7681 66.1307C52.4952 67.8449 53.5891 69.378 54.9723 70.6218C56.3556 71.8655 57.9944 72.7896 59.773 73.3285C60.3694 70.0457 62.0131 65.9164 62.0131 65.9164C63.8407 68.4364 64.8047 71.7707 65.0441 73.2921C70.9585 71.6614 71.6319 65.9614 71.6319 65.9614C70.9094 60.2485 66.0102 55.9478 61.7994 56.0914C52.5098 56.4085 51.7681 66.1307 51.7681 66.1307Z" fill="white"/>
<path d="M59.7732 73.7571C59.7297 73.7572 59.6864 73.7507 59.6449 73.7378C57.8093 73.1765 56.1182 72.22 54.6898 70.9353C53.2613 69.6506 52.13 68.0686 51.3749 66.2999C51.3475 66.2365 51.3357 66.1674 51.3407 66.0985C51.3407 65.9978 52.2214 55.9885 61.7888 55.6628C66.0168 55.5192 71.2686 59.6913 72.0488 65.9078C72.0531 65.9426 72.0531 65.9779 72.0488 66.0128C72.0488 66.0728 71.2708 72.0128 65.149 73.7056C65.0908 73.7218 65.03 73.7254 64.9704 73.7163C64.9107 73.7071 64.8537 73.6855 64.803 73.6527C64.7524 73.6199 64.7092 73.5767 64.6763 73.526C64.6435 73.4753 64.6217 73.4182 64.6124 73.3585C64.1813 71.0505 63.3338 68.8408 62.1116 66.8378C61.6157 68.1771 60.6153 71.0335 60.1878 73.4056C60.17 73.5033 60.1189 73.5917 60.0433 73.6558C59.9677 73.7199 59.8722 73.7557 59.7732 73.7571V73.7571ZM52.2043 66.0621C52.8842 67.6204 53.8786 69.0206 55.125 70.1746C56.3714 71.3286 57.8426 72.2113 59.4461 72.7671C60.1023 69.5806 61.5516 65.9099 61.6157 65.7578C61.644 65.6864 61.691 65.624 61.7516 65.5771C61.8123 65.5302 61.8844 65.5004 61.9604 65.491C62.0364 65.4816 62.1136 65.4928 62.1838 65.5236C62.254 65.5543 62.3147 65.6033 62.3595 65.6656C64.1101 68.0806 65.0464 71.1128 65.3777 72.7371C70.311 71.1256 71.119 66.5228 71.2002 65.9528C70.4692 60.3813 65.6427 56.3785 61.8187 56.5113C58.1251 56.6378 55.387 58.2899 53.6749 61.4271C52.9048 62.8684 52.4063 64.4396 52.2043 66.0621V66.0621Z" fill="#905921"/>
<path d="M56.3616 44.5713L56.5133 50.2991L56.772 60.0984C60.0595 62.402 63.2572 62.6463 66.3416 60.3127L65.8906 55.7613L65.2066 48.8656L56.3616 44.5713Z" fill="white"/>
<path d="M61.8786 62.385C60.1486 62.385 58.3674 61.7422 56.5348 60.4564C56.4801 60.4179 56.4351 60.3669 56.4035 60.3078C56.372 60.2486 56.3547 60.1828 56.3532 60.1157L55.9428 44.5886C55.9409 44.5151 55.958 44.4425 55.9923 44.3775C56.0266 44.3126 56.0769 44.2576 56.1385 44.2178C56.2001 44.178 56.2709 44.1547 56.344 44.1502C56.4172 44.1457 56.4902 44.1602 56.5562 44.1921L65.4012 48.4972C65.467 48.529 65.5236 48.5773 65.5655 48.6373C65.6074 48.6973 65.6332 48.7671 65.6406 48.84L66.7756 60.2871C66.783 60.3606 66.7713 60.4347 66.7417 60.5022C66.7121 60.5698 66.6656 60.6286 66.6067 60.6729C65.0848 61.8129 63.5074 62.385 61.8786 62.385ZM57.1953 59.8779C60.3204 61.9993 63.1803 62.0807 65.895 60.1307L64.807 49.1657L56.8106 45.2722L57.1953 59.8779Z" fill="#262424"/>
<path d="M99.2334 79.1998C99.2334 79.1998 100.142 73.6155 100.142 72.1584C100.142 71.0141 102.158 67.6991 103.023 66.3276C103.134 66.1533 103.297 66.0192 103.49 65.9452C103.682 65.8711 103.893 65.8609 104.092 65.9162V65.9162C104.32 65.9801 104.517 66.1259 104.645 66.3259C104.772 66.5259 104.822 66.766 104.784 67.0005L104.143 71.0719L108.812 62.3569C108.957 62.0852 109.199 61.8778 109.489 61.7755C109.779 61.6732 110.097 61.6834 110.38 61.8041V61.8041C110.649 61.9182 110.869 62.1243 111.001 62.3856C111.132 62.647 111.167 62.9466 111.099 63.2312L109.769 68.7684L111.201 65.5026C111.269 65.3496 111.371 65.214 111.499 65.1061C111.626 64.9981 111.777 64.9206 111.939 64.8794C112.101 64.8381 112.27 64.8342 112.433 64.8679C112.597 64.9017 112.751 64.9721 112.883 65.0741V65.0741C113.007 65.1698 113.109 65.2907 113.183 65.4288C113.257 65.567 113.3 65.7192 113.311 65.8755L113.788 72.3319C113.848 73.1455 113.667 73.9587 113.268 74.6698C112.076 76.7976 109.472 81.3448 108.551 82.1291C107.345 83.1426 100.89 87.8569 100.89 87.8569L99.2334 79.1998Z" fill="white"/>
<path d="M100.89 88.2855C100.789 88.2874 100.691 88.2536 100.613 88.1901C100.535 88.1266 100.482 88.0374 100.462 87.9384L98.8123 79.2855C98.8035 79.2359 98.8035 79.1851 98.8123 79.1355C98.8123 79.0798 99.7143 73.5641 99.7143 72.1627C99.7143 71.0141 101.317 68.2327 102.662 66.1048C102.834 65.8347 103.093 65.6321 103.396 65.531C103.7 65.43 104.029 65.4368 104.328 65.5502C104.626 65.6636 104.877 65.8767 105.038 66.1537C105.199 66.4307 105.259 66.7547 105.21 67.0712L104.951 68.6248L108.435 62.1427C108.626 61.7857 108.94 61.5107 109.319 61.3691C109.697 61.2276 110.114 61.2292 110.492 61.3738C110.869 61.5183 111.181 61.7957 111.369 62.1542C111.557 62.5127 111.608 62.9276 111.513 63.3212L111.152 64.8212C111.362 64.6192 111.625 64.4813 111.911 64.4235C112.196 64.3658 112.492 64.3906 112.764 64.4951C113.036 64.5995 113.272 64.7794 113.446 65.0135C113.62 65.2477 113.723 65.5266 113.745 65.8177L114.222 72.2741C114.287 73.1691 114.088 74.0635 113.649 74.8455C111.949 77.8777 109.735 81.6534 108.835 82.4227C107.625 83.4534 101.414 87.9941 101.14 88.1784C101.07 88.2404 100.983 88.2781 100.89 88.2855ZM99.6587 79.1998L101.183 87.1112C102.762 85.9562 107.294 82.6284 108.273 81.7927C108.882 81.2741 110.609 78.5291 112.894 74.4491C113.252 73.811 113.413 73.0811 113.358 72.3513L112.881 65.8948C112.869 65.7437 112.807 65.6011 112.704 65.4896C112.602 65.3781 112.465 65.3042 112.316 65.2795C112.167 65.2549 112.014 65.281 111.881 65.3536C111.748 65.4263 111.644 65.5414 111.584 65.6805L110.15 68.9462C110.106 69.0426 110.028 69.1191 109.931 69.1612C109.834 69.2032 109.725 69.2078 109.624 69.1739C109.524 69.1401 109.44 69.0703 109.388 68.978C109.337 68.8857 109.321 68.7775 109.344 68.6741L110.673 63.137C110.723 62.9447 110.699 62.741 110.608 62.5647C110.517 62.3885 110.365 62.2519 110.18 62.1812C109.995 62.1104 109.79 62.1105 109.605 62.1812C109.42 62.252 109.268 62.3885 109.177 62.5648L104.524 71.2691C104.476 71.3588 104.398 71.4286 104.304 71.4661C104.21 71.5037 104.106 71.5065 104.01 71.4741C103.914 71.4416 103.832 71.3761 103.78 71.2891C103.728 71.2021 103.708 71.0993 103.724 70.9991L104.365 66.9277C104.385 66.8058 104.362 66.681 104.3 66.5742C104.238 66.4674 104.142 66.3851 104.027 66.3412C103.912 66.2972 103.785 66.2942 103.668 66.3327C103.551 66.3712 103.451 66.4489 103.384 66.5527C101.647 69.302 100.569 71.4491 100.569 72.1541C100.567 73.5577 99.7805 78.4927 99.6673 79.1934L99.6587 79.1998Z" fill="#262424"/>
<path d="M102.401 90.4094C102.401 90.4094 89.0676 97.8644 76.7235 100.329C74.7038 100.748 72.6538 101.004 70.5932 101.094C68.4322 101.171 66.1386 100.809 63.8002 100.127C51.4561 96.5294 37.8958 84.0108 36.5257 80.0508C34.4673 74.1022 35.6707 69.4287 39.6144 67.4637C40.7044 66.9364 41.9 66.6657 43.1102 66.672C44.3204 66.6783 45.5132 66.9615 46.5976 67.5001L71.8842 79.7294L99.4943 78.2722C99.4943 78.2722 104.5 81.6687 102.401 90.4094Z" fill="#F59C0C"/>
<path d="M77.3775 97.6113C77.3812 98.5551 77.1614 99.4863 76.7363 100.328C74.7166 100.748 72.6665 101.003 70.6059 101.093C68.4449 101.171 66.1514 100.808 63.813 100.127C63.4488 99.3386 63.2606 98.4801 63.2615 97.6113C63.2615 94.037 66.425 91.1377 70.3152 91.1377C74.2055 91.1377 77.3775 94.037 77.3775 97.6113Z" fill="white"/>
<path d="M70.0158 101.533C67.8679 101.502 65.735 101.167 63.6803 100.539C51.6569 97.0352 37.6413 84.5852 36.1194 80.1816C34.0011 74.0616 35.2344 69.1587 39.4197 67.0716C40.569 66.5177 41.8289 66.2328 43.1041 66.2384C44.3794 66.2439 45.6367 66.5398 46.7812 67.1037L71.9716 79.2859L99.4727 77.8352C99.5659 77.83 99.6583 77.8556 99.7356 77.908C99.9494 78.0537 104.962 81.5766 102.818 90.5037C102.803 90.5619 102.777 90.6164 102.74 90.6636C102.703 90.7109 102.657 90.7498 102.604 90.778C102.469 90.853 89.0716 98.293 76.8024 100.742C74.7601 101.166 72.6872 101.425 70.6036 101.516C70.417 101.527 70.221 101.533 70.0158 101.533ZM43.0235 67.1037C41.9075 67.0987 40.8057 67.3533 39.8044 67.8473C36.0403 69.7266 34.9651 74.2352 36.9295 79.9095C38.2248 83.653 51.4645 96.0816 63.9197 99.7159C66.3286 100.419 68.5687 100.738 70.578 100.665C72.6156 100.576 74.6427 100.323 76.6399 99.9087C88.0456 97.6309 100.462 90.9816 102.029 90.1266C103.761 82.6266 100.052 79.2559 99.3637 78.7073L71.9097 80.1559C71.8359 80.1604 71.7623 80.1456 71.6959 80.113L46.4093 67.8837C45.3534 67.3724 44.1962 67.1058 43.0235 67.1037V67.1037Z" fill="#905921"/>
<path d="M98.2031 91.5663C98.138 91.5664 98.0738 91.5515 98.0153 91.5229C97.9568 91.4943 97.9056 91.4526 97.8656 91.4012C97.8257 91.3497 97.7979 91.2898 97.7845 91.2259C97.7711 91.1621 97.7725 91.096 97.7884 91.0328C99.6438 83.6742 95.9288 80.0742 95.8924 80.0378C95.8097 79.9599 95.7611 79.8523 95.7575 79.7386C95.7539 79.6248 95.7955 79.5143 95.8732 79.4314C95.9509 79.3484 96.0582 79.2997 96.1717 79.2961C96.2851 79.2925 96.3953 79.3342 96.4781 79.4121C96.647 79.5706 100.595 83.3978 98.6156 91.2406C98.5928 91.3332 98.5398 91.4155 98.4651 91.4745C98.3904 91.5335 98.2982 91.5658 98.2031 91.5663Z" fill="#905921"/>
<path d="M100.898 89.67C101.4 89.67 101.807 89.2623 101.807 88.7593C101.807 88.2564 101.4 87.8486 100.898 87.8486C100.397 87.8486 99.99 88.2564 99.99 88.7593C99.99 89.2623 100.397 89.67 100.898 89.67Z" fill="white"/>
<path d="M100.89 90.0985C100.626 90.0985 100.367 90.02 100.148 89.8728C99.928 89.7256 99.7568 89.5165 99.6556 89.2717C99.5545 89.027 99.5281 88.7577 99.5796 88.4979C99.6312 88.2381 99.7584 87.9995 99.9452 87.8122C100.132 87.6249 100.37 87.4973 100.629 87.4457C100.888 87.394 101.157 87.4205 101.401 87.5219C101.645 87.6232 101.854 87.7949 102.001 88.0151C102.147 88.2354 102.226 88.4943 102.226 88.7592C102.225 89.1142 102.084 89.4546 101.834 89.7056C101.583 89.9567 101.244 90.0979 100.89 90.0985V90.0985ZM100.89 88.2771C100.795 88.2771 100.702 88.3053 100.623 88.3583C100.544 88.4113 100.482 88.4866 100.446 88.5747C100.409 88.6628 100.4 88.7598 100.418 88.8533C100.437 88.9468 100.483 89.0327 100.55 89.1001C100.617 89.1676 100.703 89.2135 100.796 89.2321C100.889 89.2507 100.986 89.2412 101.074 89.2047C101.162 89.1682 101.237 89.1064 101.29 89.0271C101.343 88.9478 101.371 88.8546 101.371 88.7592C101.369 88.6328 101.317 88.5124 101.227 88.4238C101.137 88.3352 101.016 88.2856 100.89 88.2856V88.2771Z" fill="#905921"/>
<path d="M73.2072 45.6751C73.1025 50.4109 72.1855 56.143 66.4955 55.7144C59.7303 55.2023 55.0363 50.8073 54.472 44.4344C53.9077 38.0616 56.5582 34.2344 64.234 34.363C64.8865 34.3722 65.5372 34.436 66.1791 34.5537C70.655 35.3916 73.1452 38.8587 73.2094 43.153C73.22 43.9287 73.2286 44.7859 73.2072 45.6751Z" fill="white"/>
<path d="M67.0812 56.1578C66.8789 56.1578 66.673 56.15 66.4635 56.1343C63.7211 55.92 61.2095 55.0628 59.196 53.6614C59.1499 53.6292 59.1107 53.5882 59.0805 53.5408C59.0502 53.4933 59.0296 53.4404 59.0198 53.385C59.01 53.3296 59.0111 53.2728 59.0232 53.2178C59.0353 53.1628 59.058 53.1108 59.0902 53.0646C59.1223 53.0185 59.1632 52.9791 59.2105 52.9488C59.2578 52.9185 59.3106 52.8978 59.3659 52.888C59.4212 52.8781 59.4778 52.8793 59.5327 52.8914C59.5875 52.9035 59.6394 52.9263 59.6855 52.9586C61.5686 54.2807 63.9327 55.0821 66.5255 55.2793C68.1179 55.3993 69.3598 55.0307 70.3259 54.1521C72.3993 52.2664 72.7178 48.405 72.7777 45.6664C72.799 44.7728 72.7905 43.9007 72.7777 43.1528C72.7157 38.8671 70.1549 35.7278 66.098 34.9693C66.0411 34.9609 65.9865 34.941 65.9375 34.911C65.8884 34.881 65.8459 34.8413 65.8125 34.7944C65.7791 34.7475 65.7554 34.6944 65.743 34.6381C65.7305 34.5819 65.7295 34.5237 65.74 34.467C65.7505 34.4103 65.7723 34.3564 65.8041 34.3084C65.8358 34.2604 65.877 34.2192 65.9249 34.1875C65.9729 34.1558 66.0268 34.1341 66.0833 34.1237C66.1399 34.1133 66.1979 34.1145 66.254 34.1271C70.7428 34.965 73.5643 38.4128 73.6327 43.14C73.6433 43.8964 73.654 44.7771 73.6327 45.6857C73.5685 48.5828 73.218 52.6778 70.8988 54.7864C69.8963 55.6971 68.6138 56.1578 67.0812 56.1578Z" fill="#262424"/>
<path d="M52.5824 45.7821C53.2996 46.6658 54.092 47.4853 54.9508 48.2314L58.3387 48.1756L58.8688 45.7264C58.8688 45.7264 61.0063 45.4628 61.3291 43.9799C61.3376 43.9461 61.344 43.9117 61.3483 43.8771C61.4231 43.3949 61.6967 41.2435 61.1175 37.9842C61.1175 37.9842 66.4398 39.8528 69.2613 39.9278C70.2767 39.9556 71.4224 39.4735 72.4676 38.8456C74.573 37.5878 76.2061 33.8571 75.6332 31.4678L75.6225 31.4228C74.7419 27.9235 73.0917 30.5271 73.0917 30.5271C73.0917 30.5271 72.3436 27.7092 70.5374 27.6428C68.7312 27.5764 67.8078 30.3064 67.8078 30.3064C64.3196 29.7767 60.7632 29.9083 57.3234 30.6942C50.5091 32.2949 52.5995 36.9235 52.5995 36.9235C52.5995 36.9235 47.6662 38.9614 52.5824 45.7821Z" fill="#785113"/>
<path d="M57.5714 47.8693C57.6505 45.1822 55.5878 42.855 52.9095 42.7586C52.3413 42.7354 51.774 42.8212 51.238 43.0114C48.0168 44.1622 49.4852 51.7779 57.4923 50.5543L57.5714 47.8693Z" fill="white"/>
<path d="M55.8465 51.1137C52.1358 51.1137 49.9364 49.0608 49.3635 46.7808C48.889 44.8908 49.6157 43.138 51.0927 42.6087C51.6801 42.3996 52.3018 42.3051 52.9246 42.3301C55.8102 42.433 58.0866 44.923 57.999 47.8801C57.9973 47.9364 57.9846 47.9918 57.9615 48.0431C57.9385 48.0945 57.9056 48.1408 57.8647 48.1794C57.8238 48.218 57.7758 48.2482 57.7232 48.2681C57.6707 48.2881 57.6148 48.2975 57.5587 48.2958C57.5025 48.2941 57.4473 48.2814 57.3961 48.2583C57.3448 48.2352 57.2987 48.2022 57.2601 48.1612C57.2216 48.1202 57.1916 48.072 57.1716 48.0194C57.1517 47.9667 57.1423 47.9107 57.144 47.8544C57.2167 45.3665 55.31 43.273 52.8947 43.1851C52.3803 43.1647 51.8667 43.2425 51.3813 43.4144C50.3275 43.7915 49.8273 45.118 50.1929 46.5687C50.7144 48.6408 52.9224 50.818 57.4283 50.1301C57.4844 50.1217 57.5417 50.1244 57.5968 50.1381C57.6519 50.1519 57.7037 50.1764 57.7494 50.2102C57.795 50.244 57.8336 50.2865 57.8628 50.3353C57.8921 50.3841 57.9115 50.4381 57.9199 50.4944C57.9283 50.5507 57.9256 50.6081 57.9119 50.6633C57.8982 50.7185 57.8738 50.7705 57.84 50.8163C57.8063 50.862 57.7639 50.9007 57.7153 50.93C57.6666 50.9594 57.6127 50.9788 57.5565 50.9873C56.9905 51.0725 56.4189 51.1148 55.8465 51.1137Z" fill="#262424"/>
<path d="M230.908 250.483L223.88 269.143L217.604 266.546L221.687 248.162L230.908 250.483Z" fill="white"/>
<path d="M223.88 269.571C223.824 269.571 223.769 269.56 223.717 269.539L217.441 266.942C217.348 266.904 217.272 266.834 217.226 266.744C217.179 266.655 217.165 266.552 217.187 266.454L221.27 248.068C221.282 248.012 221.306 247.959 221.339 247.913C221.372 247.866 221.414 247.827 221.463 247.797C221.511 247.767 221.566 247.747 221.622 247.738C221.678 247.73 221.736 247.732 221.791 247.746L231.012 250.069C231.071 250.084 231.126 250.111 231.173 250.149C231.22 250.186 231.259 250.233 231.287 250.287C231.315 250.34 231.331 250.399 231.335 250.46C231.338 250.52 231.329 250.581 231.307 250.637L224.279 269.297C224.248 269.378 224.193 269.448 224.122 269.496C224.051 269.545 223.966 269.572 223.88 269.571V269.571ZM218.108 266.286L223.644 268.577L230.348 250.781L222.011 248.683L218.108 266.286Z" fill="#262424"/>
<path d="M197.871 283.352V286.138H231.994C231.994 286.138 231.994 284.824 231.882 282.757C231.615 277.809 230.709 268.532 227.629 262.571H215.033C215.033 262.571 211.69 272.454 200.94 278.229C200.104 278.678 199.39 279.325 198.861 280.115C198.331 280.904 198.002 281.811 197.903 282.757C197.882 282.954 197.871 283.153 197.871 283.352V283.352Z" fill="#0F110C"/>
<path d="M197.871 283.352V286.138H231.994C231.994 286.138 231.994 284.824 231.882 282.756H197.896C197.878 282.954 197.869 283.153 197.871 283.352Z" fill="white"/>
<path d="M231.994 286.567H197.871C197.757 286.567 197.648 286.521 197.568 286.441C197.488 286.361 197.443 286.252 197.443 286.138V283.352C197.444 283.138 197.455 282.923 197.477 282.709C197.488 282.603 197.538 282.505 197.617 282.434C197.696 282.362 197.798 282.323 197.905 282.324H231.891C232.001 282.324 232.106 282.365 232.185 282.441C232.265 282.516 232.313 282.619 232.319 282.729C232.43 284.784 232.43 286.121 232.43 286.134C232.43 286.191 232.419 286.248 232.398 286.301C232.376 286.354 232.344 286.402 232.303 286.443C232.262 286.483 232.214 286.515 232.161 286.536C232.108 286.557 232.051 286.568 231.994 286.567V286.567ZM198.298 285.709H231.562C231.562 285.221 231.534 284.338 231.476 283.185H198.3C198.3 283.243 198.3 283.299 198.3 283.354V285.712L198.298 285.709Z" fill="#262424"/>
<path d="M221.873 238.314L242.651 134.934H272.209L268.94 162.621L236.611 240.043L221.873 238.314Z" fill="#F2F3D9"/>
<path d="M243.628 147.902H241.775C241.661 147.902 241.553 147.857 241.472 147.776C241.392 147.696 241.347 147.587 241.347 147.473C241.347 147.36 241.392 147.251 241.472 147.17C241.553 147.09 241.661 147.045 241.775 147.045H243.628C245 147.046 246.328 146.563 247.381 145.681C248.434 144.799 249.145 143.575 249.388 142.221L249.848 139.682C249.858 139.627 249.879 139.574 249.909 139.526C249.939 139.479 249.979 139.438 250.025 139.406C250.071 139.374 250.123 139.351 250.178 139.339C250.233 139.327 250.29 139.326 250.345 139.336C250.4 139.346 250.453 139.367 250.5 139.397C250.548 139.428 250.588 139.467 250.621 139.513C250.653 139.56 250.675 139.612 250.687 139.667C250.699 139.722 250.7 139.779 250.69 139.834L250.231 142.373C249.951 143.925 249.137 145.329 247.93 146.339C246.723 147.35 245.2 147.903 243.628 147.902V147.902Z" fill="#B3B4A2"/>
<path d="M246.984 186.465C248.251 180.84 246.243 175.592 242.499 174.744C238.754 173.896 234.691 177.768 233.423 183.394C232.156 189.019 234.164 194.267 237.908 195.115C241.653 195.963 245.716 192.09 246.984 186.465Z" fill="white"/>
<path d="M234.809 233.753C234.738 233.754 234.669 233.736 234.606 233.703C234.544 233.67 234.491 233.622 234.452 233.563C234.413 233.504 234.389 233.437 234.382 233.366C234.375 233.296 234.386 233.225 234.413 233.16L267.222 154.02V135.501C267.222 135.388 267.267 135.279 267.347 135.198C267.427 135.118 267.536 135.073 267.649 135.073C267.762 135.073 267.871 135.118 267.951 135.198C268.032 135.279 268.077 135.388 268.077 135.501V154.108C268.077 154.164 268.066 154.22 268.045 154.273L235.202 233.49C235.169 233.568 235.115 233.634 235.045 233.681C234.975 233.728 234.893 233.753 234.809 233.753Z" fill="#B3B4A2"/>
<path d="M267.651 154.536C267.543 154.537 267.438 154.495 267.358 154.421L265.253 152.434C264.357 151.587 263.643 150.565 263.154 149.431C262.666 148.297 262.412 147.076 262.41 145.841V136.564C262.41 136.451 262.455 136.342 262.535 136.261C262.616 136.181 262.724 136.136 262.838 136.136C262.951 136.136 263.06 136.181 263.14 136.261C263.22 136.342 263.265 136.451 263.265 136.564V145.836C263.266 146.954 263.494 148.06 263.935 149.086C264.376 150.112 265.021 151.038 265.83 151.806L267.936 153.793C267.998 153.851 268.043 153.927 268.062 154.01C268.082 154.094 268.076 154.181 268.045 154.261C268.014 154.341 267.96 154.41 267.89 154.459C267.82 154.509 267.737 154.535 267.651 154.536V154.536Z" fill="#B3B4A2"/>
<path d="M219.705 250.132L233.15 252.589C233.647 252.68 234.159 252.594 234.599 252.345C235.038 252.096 235.376 251.7 235.555 251.227L239.272 241.369C239.383 241.073 239.429 240.756 239.405 240.44C239.38 240.124 239.287 239.817 239.131 239.541C238.976 239.266 238.762 239.027 238.504 238.844C238.247 238.66 237.952 238.536 237.641 238.479L222.336 235.68C222.058 235.629 221.772 235.634 221.495 235.694C221.218 235.753 220.955 235.867 220.722 236.029C220.489 236.19 220.29 236.397 220.136 236.635C219.983 236.874 219.878 237.141 219.827 237.42L217.97 247.627C217.87 248.189 217.996 248.769 218.322 249.238C218.647 249.708 219.144 250.029 219.705 250.132V250.132Z" fill="#B3B4A2"/>
<path d="M290.888 249.015L294.979 268.534L301.578 266.931L300.355 248.136L290.888 249.015Z" fill="white"/>
<path d="M294.975 268.963C294.875 268.965 294.778 268.932 294.7 268.87C294.622 268.808 294.568 268.72 294.547 268.622L290.456 249.103C290.444 249.044 290.444 248.983 290.457 248.924C290.47 248.865 290.495 248.809 290.531 248.761C290.566 248.712 290.612 248.672 290.664 248.642C290.717 248.612 290.775 248.594 290.835 248.589L300.319 247.714C300.376 247.709 300.433 247.715 300.487 247.732C300.542 247.75 300.592 247.778 300.636 247.815C300.679 247.852 300.715 247.898 300.74 247.949C300.766 248 300.781 248.056 300.785 248.113L302.007 266.908C302.014 267.008 301.984 267.108 301.924 267.189C301.865 267.27 301.778 267.328 301.68 267.351L295.082 268.954C295.047 268.962 295.011 268.964 294.975 268.963ZM291.401 249.396L295.304 268.013L301.125 266.599L299.955 248.599L291.401 249.396Z" fill="#262424"/>
<path d="M273.827 283.352V286.138H307.95C307.95 286.138 307.95 284.824 307.839 282.757C307.571 277.809 306.665 268.532 303.585 262.571H290.989C290.989 262.571 287.646 272.454 276.896 278.229C276.06 278.678 275.346 279.325 274.817 280.115C274.287 280.904 273.958 281.811 273.859 282.757C273.838 282.954 273.827 283.153 273.827 283.352V283.352Z" fill="#0F110C"/>
<path d="M273.827 283.352V286.138H307.95C307.95 286.138 307.95 284.824 307.838 282.756H273.852C273.834 282.954 273.825 283.153 273.827 283.352V283.352Z" fill="white"/>
<path d="M307.95 286.567H273.827C273.713 286.567 273.605 286.521 273.524 286.441C273.444 286.361 273.399 286.252 273.399 286.138V283.352C273.4 283.138 273.411 282.923 273.433 282.709C273.444 282.603 273.494 282.505 273.573 282.434C273.652 282.362 273.755 282.323 273.861 282.324H307.847C307.957 282.324 308.062 282.365 308.141 282.441C308.221 282.516 308.269 282.619 308.275 282.729C308.386 284.784 308.386 286.121 308.386 286.134C308.386 286.191 308.375 286.248 308.354 286.301C308.332 286.354 308.3 286.402 308.259 286.443C308.218 286.483 308.17 286.515 308.117 286.536C308.064 286.557 308.007 286.568 307.95 286.567V286.567ZM274.254 285.709H307.518C307.518 285.221 307.49 284.338 307.432 283.185H274.256C274.256 283.243 274.256 283.299 274.256 283.354V285.712L274.254 285.709Z" fill="#262424"/>
<path d="M302.155 244.714L295.616 138.491C295.538 137.221 295.208 135.98 294.644 134.84C294.08 133.701 293.295 132.685 292.334 131.855C291.374 131.024 290.257 130.394 289.049 130.002C287.842 129.611 286.569 129.465 285.305 129.574L279.722 130.056C272.681 130.665 267.021 128.471 266.14 135.499L266.694 161.213L289.037 244.468L302.155 244.714Z" fill="#F2F3D9"/>
<path d="M266.6 157.072C266.486 157.072 266.378 157.026 266.297 156.946C266.217 156.866 266.172 156.757 266.172 156.643L265.745 136.562C265.745 136.449 265.79 136.34 265.87 136.259C265.95 136.179 266.059 136.134 266.172 136.134C266.286 136.134 266.394 136.179 266.474 136.259C266.555 136.34 266.6 136.449 266.6 136.562L267.027 156.643C267.027 156.757 266.982 156.866 266.902 156.946C266.822 157.026 266.713 157.072 266.6 157.072Z" fill="#B3B4A2"/>
<path d="M294.654 152.117H294.59L292.758 151.839C291.205 151.601 289.784 150.824 288.743 149.643C287.703 148.462 287.109 146.953 287.066 145.378L286.991 142.806C286.988 142.693 287.03 142.582 287.108 142.5C287.185 142.417 287.293 142.368 287.406 142.365C287.519 142.362 287.63 142.403 287.712 142.481C287.795 142.559 287.843 142.667 287.846 142.781L287.921 145.352C287.96 146.727 288.479 148.044 289.388 149.074C290.298 150.103 291.539 150.78 292.895 150.986L294.727 151.264C294.835 151.279 294.934 151.336 295.002 151.421C295.071 151.507 295.104 151.616 295.094 151.725C295.085 151.835 295.034 151.936 294.952 152.009C294.87 152.082 294.764 152.121 294.654 152.117Z" fill="#B3B4A2"/>
<path d="M283.819 199.6C287.648 199.324 290.417 194.436 290.004 188.684C289.591 182.932 286.152 178.493 282.323 178.77C278.493 179.046 275.724 183.934 276.138 189.686C276.551 195.438 279.99 199.877 283.819 199.6Z" fill="white"/>
<path d="M299.695 241.637C299.585 241.638 299.48 241.596 299.4 241.52C299.321 241.445 299.273 241.342 299.267 241.232L294.227 151.715C294.221 151.601 294.26 151.489 294.336 151.405C294.411 151.32 294.518 151.269 294.631 151.262C294.744 151.256 294.856 151.295 294.94 151.371C295.025 151.447 295.076 151.554 295.082 151.667L300.122 241.187C300.129 241.301 300.09 241.412 300.015 241.497C299.939 241.582 299.833 241.633 299.72 241.64H299.697L299.695 241.637Z" fill="#B3B4A2"/>
<path d="M303.181 256.884L289.518 257.19C289.013 257.202 288.521 257.035 288.126 256.72C287.731 256.405 287.459 255.961 287.357 255.465L285.234 245.137C285.17 244.826 285.175 244.505 285.249 244.197C285.322 243.889 285.462 243.6 285.659 243.352C285.856 243.104 286.105 242.902 286.389 242.762C286.672 242.621 286.983 242.544 287.299 242.537L302.852 242.188C303.135 242.182 303.417 242.231 303.681 242.334C303.945 242.436 304.186 242.59 304.391 242.786C304.596 242.983 304.76 243.217 304.875 243.477C304.989 243.737 305.051 244.017 305.058 244.301L305.288 254.672C305.295 254.956 305.246 255.239 305.143 255.504C305.041 255.768 304.887 256.01 304.692 256.216C304.496 256.421 304.262 256.586 304.002 256.7C303.743 256.815 303.464 256.877 303.181 256.884V256.884Z" fill="#B3B4A2"/>
<path d="M232.156 93.5208L218.433 93.8679C217.666 93.8907 216.908 93.7031 216.24 93.3255C215.572 92.9479 215.019 92.3945 214.641 91.7251C210.097 83.5822 207.16 61.8944 207.16 61.8944C207.16 61.8944 203.526 59.7129 203.847 55.7679C204.167 51.8229 199.465 49.3587 200.427 47.8587C201.389 46.3587 205.183 44.4837 206.519 44.6444C207.855 44.8051 210.082 49.1658 210.152 49.3008L208.889 45.4587C208.835 45.2936 208.818 45.1187 208.838 44.9461C208.859 44.7736 208.917 44.6077 209.008 44.4602C209.1 44.3126 209.223 44.187 209.368 44.0922C209.513 43.9974 209.677 43.9357 209.849 43.9115C209.903 43.9084 209.957 43.9084 210.011 43.9115C210.244 43.9111 210.471 43.9794 210.665 44.1079C210.859 44.2363 211.011 44.4192 211.102 44.6337C211.766 46.2022 213.132 49.5365 213.254 50.7087C213.414 52.2622 213.254 54.7265 213.254 54.7265L215.148 51.7544C215.276 51.5537 215.465 51.4001 215.688 51.3165C215.91 51.2329 216.154 51.2239 216.382 51.2907C216.61 51.3576 216.81 51.4968 216.953 51.6874C217.095 51.878 217.172 52.1098 217.172 52.3479C217.172 52.5008 217.14 52.6519 217.078 52.7915L213.682 60.5058L223.967 80.0872L228.323 79.2558L232.156 93.5208Z" fill="white"/>
<path d="M218.32 94.2963C217.494 94.3013 216.681 94.084 215.967 93.6672C215.252 93.2504 214.663 92.6492 214.259 91.9263C209.905 84.1178 207.083 64.4613 206.763 62.1406C206 61.6242 203.129 59.4192 203.42 55.7249C203.584 53.6892 202.267 52.0371 201.207 50.7106C200.277 49.5449 199.476 48.5399 200.066 47.6206C201.135 45.9406 205.085 44.0335 206.568 44.2135C207.197 44.2885 207.921 45.0171 208.582 45.8978L208.479 45.5892C208.405 45.3646 208.381 45.1264 208.409 44.8915C208.437 44.6566 208.516 44.4307 208.641 44.2298C208.765 44.0289 208.932 43.8579 209.13 43.7288C209.328 43.5997 209.551 43.5157 209.785 43.4828C209.856 43.4737 209.927 43.4687 209.999 43.4678C210.315 43.4675 210.624 43.5606 210.888 43.7355C211.152 43.9104 211.359 44.1594 211.482 44.4513C212.243 46.2492 213.541 49.4442 213.667 50.6485C213.742 51.4776 213.77 52.3104 213.75 53.1428L214.793 51.5078C215.001 51.1854 215.323 50.9534 215.694 50.8577C216.065 50.7621 216.458 50.8098 216.796 50.9914C217.133 51.173 217.39 51.4752 217.516 51.838C217.642 52.2009 217.626 52.5978 217.474 52.9499L214.16 60.4799L224.207 79.5985L228.253 78.8249C228.359 78.8045 228.469 78.8251 228.561 78.8828C228.653 78.9405 228.719 79.0308 228.747 79.1356L232.573 93.4113C232.59 93.474 232.592 93.5396 232.58 93.6033C232.568 93.6671 232.542 93.7272 232.503 93.7792C232.464 93.8312 232.414 93.8737 232.357 93.9035C232.299 93.9333 232.236 93.9497 232.171 93.9513L218.453 94.2856H218.329L218.32 94.2963ZM206.337 45.0535C205.055 45.0535 201.635 46.7828 200.795 48.0813C200.536 48.4842 201.16 49.2663 201.885 50.1728C202.977 51.5421 204.475 53.4192 204.281 55.7935C203.986 59.4363 207.355 61.4978 207.387 61.5171C207.444 61.5491 207.493 61.5937 207.53 61.6476C207.567 61.7014 207.591 61.7631 207.601 61.8278C207.63 62.0421 210.569 83.5199 215.022 91.5063C215.359 92.1103 215.855 92.6098 216.456 92.95C217.057 93.2901 217.739 93.4579 218.429 93.4349L231.609 93.1006L228.026 79.7356L224.059 80.4942C223.97 80.5118 223.878 80.5005 223.796 80.462C223.713 80.4235 223.646 80.3597 223.602 80.2799L213.316 60.6985C213.286 60.6413 213.269 60.5781 213.267 60.5135C213.265 60.449 213.277 60.3847 213.303 60.3256L216.7 52.6113C216.738 52.5264 216.757 52.4344 216.758 52.3413C216.758 52.1956 216.711 52.0537 216.624 51.937C216.537 51.8203 216.414 51.7351 216.274 51.6942C216.135 51.6534 215.986 51.6591 215.85 51.7105C215.714 51.7619 215.598 51.8562 215.52 51.9792L213.626 54.9513C213.575 55.0314 213.499 55.0922 213.409 55.124C213.32 55.1559 213.223 55.1571 213.133 55.1274C213.042 55.0977 212.965 55.0388 212.912 54.96C212.859 54.8812 212.833 54.7869 212.84 54.6921C212.84 54.6685 212.996 52.2449 212.84 50.7471C212.758 49.9606 211.965 47.7363 210.719 44.7963C210.653 44.6419 210.537 44.5136 210.391 44.4315C210.244 44.3494 210.075 44.318 209.909 44.3421C209.8 44.3589 209.697 44.3993 209.605 44.4604C209.514 44.5215 209.437 44.6019 209.379 44.6959C209.322 44.7899 209.286 44.8953 209.273 45.0048C209.26 45.1143 209.272 45.2253 209.306 45.3299L210.569 49.1721C210.602 49.2743 210.595 49.3851 210.55 49.4825C210.505 49.5798 210.425 49.6567 210.326 49.6979C210.227 49.7391 210.117 49.7416 210.016 49.705C209.916 49.6683 209.832 49.5951 209.783 49.4999C208.87 47.7021 207.218 45.1628 206.48 45.0749C206.433 45.0655 206.385 45.059 206.337 45.0556V45.0535Z" fill="#262424"/>
<path d="M251.231 71.4043L220.648 78.1522C220.648 78.1522 217.108 89.4236 224.162 96.3857L248.529 94.8364L251.231 71.4043Z" fill="#EA3360"/>
<path d="M226.966 95.2652C226.895 95.2652 226.826 95.2476 226.763 95.2139C226.701 95.1803 226.648 95.1316 226.609 95.0724C221.838 87.8402 223.482 80.2866 223.555 79.9802C223.58 79.8694 223.648 79.7732 223.744 79.7127C223.84 79.6522 223.956 79.6324 224.067 79.6577C224.177 79.683 224.273 79.7513 224.333 79.8475C224.394 79.9438 224.413 80.0601 224.388 80.1709C224.371 80.2459 222.759 87.6838 227.323 94.6009C227.365 94.6655 227.39 94.7405 227.393 94.8177C227.396 94.895 227.379 94.9718 227.342 95.0399C227.306 95.108 227.251 95.1649 227.185 95.2046C227.119 95.2443 227.043 95.2652 226.966 95.2652V95.2652Z" fill="#AA0B32"/>
<path d="M285.762 40.1101C281.868 41.0037 283.676 49.1101 284.604 51.7479C285.531 54.3858 282.629 61.0051 286.925 64.0629C291.221 67.1208 281.032 75.0301 291.283 86.4772C299.192 95.2994 315.704 92.2479 314.819 83.9229C313.935 75.5979 301.821 69.8722 301.11 62.2458C300.656 57.3922 303.698 50.9701 296.386 47.2929C290.924 44.5501 288.836 39.4051 285.762 40.1101Z" fill="#262424"/>
<path d="M240.219 136.564C240.219 136.564 268.513 141.358 298.41 135.493L290.583 101.571L292.002 72.7157L269.691 70.2129L251.231 71.3979C251.231 71.3979 244.38 84.1393 244.38 88.185C244.38 92.2307 248.818 101.571 248.818 101.571L240.219 136.564Z" fill="#EA3360"/>
<path d="M269.272 135.709C255.25 135.709 243.194 134.443 242.998 134.423C242.884 134.411 242.78 134.354 242.709 134.265C242.637 134.176 242.604 134.062 242.616 133.949C242.628 133.835 242.685 133.731 242.774 133.659C242.862 133.587 242.976 133.554 243.089 133.566C243.408 133.6 275.18 136.939 295.539 132.709C295.594 132.698 295.651 132.697 295.706 132.708C295.762 132.718 295.814 132.74 295.861 132.771C295.908 132.802 295.948 132.842 295.98 132.888C296.011 132.935 296.034 132.987 296.045 133.042C296.056 133.097 296.057 133.154 296.046 133.21C296.036 133.265 296.014 133.318 295.983 133.365C295.953 133.412 295.913 133.452 295.866 133.484C295.82 133.516 295.768 133.538 295.713 133.549C287.778 135.201 278.132 135.709 269.272 135.709Z" fill="#AA0B32"/>
<path d="M247.736 99.6193C247.653 99.6194 247.571 99.5949 247.501 99.5488C247.431 99.5027 247.376 99.4371 247.343 99.36C245.791 95.76 243.94 90.9022 243.94 88.1914C243.94 84.8764 248.281 76.1314 250.139 72.525C250.164 72.4735 250.199 72.4275 250.242 72.3897C250.285 72.3519 250.335 72.3231 250.389 72.3051C250.443 72.287 250.5 72.28 250.557 72.2845C250.614 72.289 250.67 72.3049 250.72 72.3313C250.771 72.3576 250.816 72.3939 250.853 72.438C250.889 72.482 250.916 72.5329 250.933 72.5878C250.949 72.6426 250.955 72.7002 250.949 72.7571C250.943 72.814 250.925 72.8692 250.898 72.9193C249.463 75.69 244.787 84.9772 244.787 88.1914C244.787 90.8914 246.875 96.135 248.119 99.0214C248.147 99.0859 248.158 99.1561 248.152 99.226C248.147 99.2958 248.124 99.3633 248.086 99.4223C248.048 99.4813 247.997 99.5301 247.936 99.5645C247.875 99.5988 247.806 99.6176 247.736 99.6193Z" fill="#AA0B32"/>
<path d="M269.229 66.3621C264.336 65.9978 261.202 69.7178 260.877 73.7228C260.553 77.7278 264.956 79.5364 264.956 79.5364C264.956 79.5364 266.647 75.2957 268.186 74.9464C269.725 74.5971 271.405 80.0786 271.405 80.0786C271.405 80.0786 276.704 78.8507 277.648 73.65C278.593 68.4493 273.566 66.6835 269.229 66.3621Z" fill="white"/>
<path d="M271.407 80.5051C271.316 80.5051 271.227 80.4757 271.153 80.4213C271.08 80.3669 271.026 80.2904 270.999 80.203C270.259 77.7901 268.964 75.2122 268.282 75.3644C267.32 75.5787 265.976 78.1372 265.356 79.6972C265.335 79.7499 265.304 79.798 265.264 79.8385C265.225 79.879 265.177 79.9113 265.125 79.9334C265.073 79.9556 265.017 79.9671 264.961 79.9674C264.904 79.9677 264.848 79.9567 264.796 79.9351C264.749 79.9158 260.11 77.9572 260.455 73.6908C260.782 69.6387 263.981 65.548 269.263 65.938C271.401 66.0965 275.248 66.7244 277.121 69.1522C278.076 70.3908 278.403 71.9251 278.072 73.7144C277.089 79.138 271.559 80.4772 271.503 80.4901C271.472 80.4988 271.44 80.5038 271.407 80.5051V80.5051ZM268.325 74.5051C269.864 74.5051 271.168 77.9551 271.691 79.5558C272.884 79.1744 276.484 77.698 277.232 73.5687C277.512 72.0301 277.247 70.723 276.445 69.6837C274.769 67.513 271.187 66.9408 269.201 66.793C264.46 66.4394 261.602 70.1208 261.31 73.7615C261.07 76.738 263.727 78.4265 264.742 78.958C265.243 77.8008 266.647 74.8608 268.098 74.5308C268.172 74.5125 268.248 74.5024 268.325 74.5008V74.5051Z" fill="#AA0B32"/>
<path d="M266.591 60.2359L265.544 70.3802C265.544 70.3802 267.019 73.2709 269.425 73.3802C271.832 73.4895 274.162 70.8945 274.162 70.8945V59.623L266.591 60.2359Z" fill="white"/>
<path d="M269.582 73.8171H269.404C266.779 73.6907 265.227 70.7057 265.161 70.5793C265.123 70.5053 265.108 70.4219 265.116 70.3393L266.164 60.195C266.174 60.0953 266.219 60.0023 266.29 59.9322C266.361 59.8622 266.455 59.8194 266.555 59.8114L274.124 59.205C274.183 59.2002 274.242 59.2078 274.298 59.2272C274.354 59.2466 274.405 59.2774 274.448 59.3177C274.492 59.358 274.526 59.4069 274.55 59.4612C274.574 59.5156 274.586 59.5743 274.585 59.6336V70.905C274.586 71.0109 274.547 71.1132 274.476 71.1921C274.38 71.295 272.104 73.8171 269.582 73.8171ZM265.982 70.2857C266.266 70.7828 267.564 72.8571 269.445 72.9536C271.326 73.05 273.262 71.2093 273.733 70.725V60.0921L266.974 60.6428L265.982 70.2857Z" fill="#262424"/>
<path d="M292.643 75.1865C292.643 75.1865 296.151 75.673 297.371 76.5665C300.15 78.6022 316.074 108.924 314.578 115.781C313.082 122.638 296.837 139.781 296.837 139.781C297.633 140.04 298.338 140.523 298.867 141.174C299.722 142.245 300.15 145.031 300.15 145.031C300.15 145.031 303.249 143.959 303.677 144.709C304.104 145.459 299.722 151.888 296.623 151.138C293.524 150.388 290.104 144.709 289.462 142.352C288.821 139.995 302.501 113.638 302.501 113.638C302.501 113.638 291.066 97.6737 287.004 88.0308C282.943 78.388 288.663 75.0922 292.643 75.1865Z" fill="white"/>
<path d="M297.157 151.629C296.941 151.63 296.726 151.604 296.516 151.554C293.186 150.748 289.691 144.845 289.035 142.464C288.913 142.018 288.592 140.835 295.343 126.922C298.297 120.832 301.349 114.904 301.986 113.672C300.612 111.733 290.373 97.1723 286.596 88.1959C284.296 82.7338 285.211 79.5259 286.382 77.7988C287.953 75.4845 290.657 74.7088 292.639 74.7559H292.688C292.835 74.7773 296.322 75.2681 297.604 76.2131C299.09 77.2995 303.824 85.5259 307.945 94.1745C310.959 100.5 315.88 111.729 314.978 115.867C313.593 122.212 300.206 136.781 297.559 139.612C298.188 139.916 298.743 140.355 299.184 140.897C299.878 141.767 300.297 143.58 300.466 144.461C301.764 144.056 303.566 143.672 304.03 144.489C304.427 145.185 303.185 146.975 302.634 147.703C301.924 148.687 299.524 151.629 297.157 151.629ZM292.481 75.6131C290.728 75.6131 288.443 76.3095 287.105 78.2831C285.596 80.5074 285.696 83.8223 287.4 87.8638C291.397 97.3524 302.736 113.229 302.85 113.387C302.896 113.452 302.923 113.528 302.929 113.607C302.934 113.686 302.918 113.765 302.882 113.835C302.847 113.902 299.425 120.499 296.127 127.299C289.995 139.942 289.794 141.928 289.877 142.239C290.467 144.407 293.75 150 296.717 150.72C297.76 150.973 298.979 150.197 299.814 149.501C301.717 147.917 303.19 145.502 303.269 144.902C302.961 144.752 301.574 144.99 300.276 145.436C300.217 145.456 300.154 145.464 300.091 145.457C300.029 145.45 299.969 145.43 299.915 145.398C299.862 145.365 299.816 145.321 299.781 145.269C299.746 145.217 299.723 145.157 299.714 145.095C299.599 144.352 299.162 142.245 298.521 141.44C298.047 140.861 297.419 140.429 296.711 140.192C296.639 140.173 296.574 140.135 296.522 140.083C296.469 140.03 296.431 139.965 296.411 139.894C296.392 139.822 296.391 139.747 296.409 139.675C296.427 139.603 296.463 139.537 296.514 139.483C296.677 139.312 312.695 122.34 314.148 115.697C314.76 112.901 312.154 104.998 307.18 94.5581C302.882 85.5388 298.318 77.8073 297.108 76.9202C296.187 76.2452 293.564 75.7588 292.598 75.6216H292.468L292.481 75.6131Z" fill="#262424"/>
<path d="M292.002 72.722C296.379 72.8977 300.684 76.9949 306.028 87.3877C311.372 97.7806 311.692 98.6377 311.692 98.6377L295.341 106.138C295.341 106.138 285.829 91.1377 284.76 85.7806C283.691 80.4235 284.288 72.4135 292.002 72.722Z" fill="#EA3360"/>
<path d="M290.046 97.6823C289.971 97.6826 289.897 97.663 289.831 97.6253C289.766 97.5877 289.712 97.5334 289.674 97.468C286.568 91.9416 284.773 88.0395 284.33 85.8688C283.358 80.9916 283.839 75.0516 288.109 73.0116C288.16 72.9858 288.216 72.9704 288.273 72.9664C288.33 72.9624 288.387 72.9698 288.441 72.9883C288.495 73.0067 288.544 73.0358 288.587 73.0738C288.629 73.1118 288.664 73.158 288.689 73.2096C288.713 73.2612 288.727 73.3172 288.73 73.3743C288.732 73.4314 288.723 73.4884 288.704 73.542C288.684 73.5957 288.654 73.6448 288.615 73.6866C288.576 73.7283 288.529 73.7619 288.477 73.7852C284.647 75.6195 284.3 81.3538 285.168 85.708C285.579 87.7588 287.389 91.6823 290.409 97.0652C290.441 97.129 290.456 97.1996 290.453 97.2706C290.45 97.3416 290.43 97.4109 290.394 97.4721C290.358 97.5333 290.307 97.5846 290.246 97.6213C290.186 97.658 290.117 97.6789 290.046 97.6823Z" fill="#AA0B32"/>
<path d="M295.02 102.924C294.922 102.924 294.827 102.89 294.75 102.828C294.674 102.766 294.621 102.68 294.601 102.584C294.581 102.487 294.594 102.387 294.639 102.3C294.684 102.212 294.757 102.143 294.847 102.103L308.634 95.9957C308.737 95.9496 308.855 95.9468 308.961 95.9878C309.067 96.0288 309.152 96.1102 309.198 96.2143C309.244 96.3183 309.247 96.4363 309.206 96.5424C309.165 96.6485 309.084 96.7339 308.98 96.78L295.193 102.887C295.139 102.911 295.08 102.924 295.02 102.924Z" fill="#AA0B32"/>
<path d="M281.998 41.7041L283.452 41.4684C283.68 41.4308 283.913 41.4551 284.129 41.5387C284.344 41.6224 284.533 41.7624 284.677 41.9441C285.097 42.4542 285.397 43.0536 285.553 43.6969C285.713 44.4898 285.414 45.2419 285.157 45.7069C285.074 45.8553 284.963 45.9856 284.829 46.0904C284.696 46.1953 284.543 46.2725 284.379 46.3177L282.759 46.7762C282.575 46.8285 282.381 46.839 282.192 46.8072C282.003 46.7753 281.823 46.7018 281.665 46.592C281.508 46.4821 281.377 46.3387 281.281 46.1719C281.186 46.0052 281.128 45.8193 281.113 45.6277L280.912 43.0948C280.886 42.7685 280.982 42.4442 281.184 42.1864C281.385 41.9286 281.676 41.7564 281.998 41.7041V41.7041Z" fill="white"/>
<path d="M282.404 47.2523C281.972 47.2493 281.557 47.0839 281.24 46.7888C280.923 46.4936 280.729 46.0901 280.694 45.658L280.494 43.1251C280.461 42.6923 280.592 42.2632 280.859 41.9218C281.127 41.5805 281.512 41.3516 281.938 41.2801V41.2801L283.39 41.0444C283.694 40.9959 284.005 41.03 284.292 41.143C284.578 41.2561 284.829 41.444 285.019 41.6873C285.48 42.2491 285.808 42.9085 285.978 43.6158C286.106 44.4117 285.95 45.2273 285.538 45.9194C285.428 46.1173 285.28 46.2913 285.103 46.4311C284.925 46.5709 284.721 46.6738 284.504 46.7337L282.883 47.1923C282.727 47.2346 282.566 47.2548 282.404 47.2523V47.2523ZM282.067 42.1266C281.852 42.1628 281.658 42.2782 281.523 42.4502C281.388 42.6222 281.322 42.8384 281.338 43.0566L281.539 45.5894C281.549 45.7182 281.587 45.8432 281.651 45.9553C281.715 46.0674 281.803 46.1638 281.909 46.2376C282.015 46.3114 282.136 46.3608 282.263 46.3821C282.39 46.4034 282.52 46.3961 282.644 46.3608L284.264 45.9023C284.373 45.8725 284.475 45.8214 284.564 45.7519C284.653 45.6824 284.728 45.5958 284.784 45.4973C285.095 44.9838 285.219 44.3779 285.134 43.783C284.991 43.2057 284.72 42.6682 284.341 42.2101C284.245 42.0887 284.118 41.9953 283.974 41.9396C283.829 41.8838 283.673 41.8677 283.52 41.893L282.067 42.1266Z" fill="#262424"/>
<path d="M260.578 52.2431C259.49 56.9573 259.997 62.8952 265.631 64.3716C269.774 65.4559 275.755 61.8173 277.911 55.6609C280.068 49.5045 280.532 43.8302 272.914 42.0195C272.097 41.8381 271.268 41.7114 270.434 41.6402C265.798 41.338 264.022 41.2459 261.213 49.7423C260.963 50.4945 260.775 51.3538 260.578 52.2431Z" fill="white"/>
<path d="M266.957 64.9628C266.473 64.9656 265.991 64.9058 265.522 64.785C259.766 63.285 258.979 57.2678 260.161 52.1421L260.238 51.8057C260.416 51.0214 260.585 50.28 260.807 49.605C263.729 40.7721 265.698 40.8985 270.462 41.2093C270.518 41.2129 270.573 41.2276 270.624 41.2525C270.674 41.2775 270.719 41.3121 270.756 41.3545C270.793 41.3969 270.822 41.4462 270.84 41.4996C270.858 41.5529 270.865 41.6094 270.862 41.6657C270.858 41.722 270.844 41.777 270.819 41.8276C270.794 41.8782 270.759 41.9234 270.717 41.9606C270.675 41.9978 270.625 42.0263 270.572 42.0444C270.519 42.0626 270.463 42.0701 270.407 42.0664C265.864 41.7707 264.332 41.67 261.619 49.875C261.405 50.5178 261.245 51.2314 261.072 51.9964L260.995 52.335C260.465 54.63 259.24 62.25 265.738 63.9514C267.021 64.29 268.664 64.0436 270.887 63.18C270.94 63.1596 270.996 63.1497 271.052 63.1509C271.108 63.1522 271.163 63.1645 271.215 63.1872C271.266 63.2099 271.313 63.2425 271.351 63.2832C271.39 63.3238 271.421 63.3718 271.441 63.4243C271.461 63.4767 271.471 63.5327 271.47 63.589C271.469 63.6453 271.457 63.7008 271.434 63.7524C271.411 63.8039 271.379 63.8505 271.338 63.8894C271.298 63.9283 271.25 63.9589 271.197 63.9793C269.5 64.6436 268.134 64.9628 266.957 64.9628Z" fill="#262424"/>
<path d="M275.588 55.8985C274.926 55.3574 274.421 54.6472 274.128 53.8427C273.835 53.0382 273.764 52.1693 273.923 51.3278C274.019 50.7556 274.207 50.0013 274.267 49.2835C269.966 51.5978 263.252 51.6621 260.373 51.5656C259.919 51.5586 259.478 51.4082 259.114 51.1359C258.75 50.8635 258.481 50.483 258.345 50.0485C256.75 44.4771 263.261 36.9578 269.103 39.0578C277.309 36.5999 284.031 42.5378 283.3 48.5721C282.481 55.2599 277.219 57.3021 275.588 55.8985Z" fill="#262424"/>
<path d="M275.917 55.3673C275.917 55.3673 279.859 53.1087 282.757 55.0608C285.656 57.013 282.289 64.1701 274.679 60.9387L275.917 55.3673Z" fill="white"/>
<path d="M278.345 62.1835C277.023 62.1585 275.719 61.867 274.511 61.3263C274.411 61.2792 274.333 61.195 274.293 61.0915C274.254 60.988 274.256 60.8733 274.299 60.7713C274.342 60.6693 274.423 60.588 274.525 60.5444C274.626 60.5009 274.741 60.4985 274.844 60.5378C279.132 62.3571 281.866 60.752 282.903 58.8406C283.629 57.4928 283.469 56.0549 282.518 55.412C279.88 53.6356 276.167 55.7142 276.131 55.7356C276.033 55.7925 275.916 55.8078 275.806 55.7783C275.696 55.7487 275.603 55.6767 275.546 55.5781C275.49 55.4795 275.474 55.3624 275.504 55.2525C275.533 55.1426 275.605 55.0489 275.703 54.9921C275.874 54.8935 279.912 52.6349 282.992 54.7006C284.318 55.5921 284.593 57.5056 283.653 59.2499C282.755 60.917 280.891 62.1835 278.345 62.1835Z" fill="#262424"/>
<path d="M218.735 158.824C220.268 158.824 221.511 157.578 221.511 156.041C221.511 154.504 220.268 153.257 218.735 153.257C217.201 153.257 215.958 154.504 215.958 156.041C215.958 157.578 217.201 158.824 218.735 158.824Z" fill="#F59C0C"/>
<path d="M112.749 226.995C114.282 226.995 115.525 225.749 115.525 224.211C115.525 222.674 114.282 221.428 112.749 221.428C111.215 221.428 109.972 222.674 109.972 224.211C109.972 225.749 111.215 226.995 112.749 226.995Z" fill="#2961A9"/>
<path d="M108.771 152.059C108.658 152.059 108.549 152.014 108.469 151.934C108.389 151.853 108.344 151.744 108.344 151.631V148.714C108.344 148.601 108.389 148.492 108.469 148.411C108.549 148.331 108.658 148.286 108.771 148.286C108.884 148.286 108.993 148.331 109.073 148.411C109.153 148.492 109.198 148.601 109.198 148.714V151.622C109.2 151.679 109.189 151.736 109.168 151.789C109.147 151.842 109.116 151.89 109.076 151.931C109.037 151.971 108.989 152.004 108.937 152.026C108.884 152.048 108.828 152.059 108.771 152.059V152.059Z" fill="#F59C0C"/>
<path d="M113.146 153.538H110.246C110.132 153.538 110.024 153.493 109.944 153.412C109.863 153.332 109.818 153.223 109.818 153.109C109.818 152.996 109.863 152.887 109.944 152.806C110.024 152.726 110.132 152.681 110.246 152.681H113.146C113.26 152.681 113.369 152.726 113.449 152.806C113.529 152.887 113.574 152.996 113.574 153.109C113.574 153.223 113.529 153.332 113.449 153.412C113.369 153.493 113.26 153.538 113.146 153.538Z" fill="#2961A9"/>
<path d="M108.771 157.928C108.658 157.928 108.549 157.883 108.469 157.803C108.389 157.723 108.344 157.614 108.344 157.5V154.588C108.344 154.474 108.389 154.365 108.469 154.285C108.549 154.204 108.658 154.159 108.771 154.159C108.884 154.159 108.993 154.204 109.073 154.285C109.153 154.365 109.199 154.474 109.199 154.588V157.5C109.199 157.614 109.153 157.723 109.073 157.803C108.993 157.883 108.884 157.928 108.771 157.928Z" fill="#2961A9"/>
<path d="M107.303 153.538H104.398C104.284 153.538 104.176 153.493 104.095 153.412C104.015 153.332 103.97 153.223 103.97 153.109C103.97 152.996 104.015 152.887 104.095 152.806C104.176 152.726 104.284 152.681 104.398 152.681H107.303C107.416 152.681 107.525 152.726 107.605 152.806C107.685 152.887 107.73 152.996 107.73 153.109C107.73 153.223 107.685 153.332 107.605 153.412C107.525 153.493 107.416 153.538 107.303 153.538Z" fill="#F59C0C"/>
<path d="M200.305 245.218C200.192 245.218 200.083 245.173 200.003 245.092C199.923 245.012 199.878 244.903 199.878 244.789V242.308C199.878 242.194 199.923 242.085 200.003 242.005C200.083 241.925 200.192 241.879 200.305 241.879C200.419 241.879 200.527 241.925 200.607 242.005C200.688 242.085 200.733 242.194 200.733 242.308V244.789C200.733 244.903 200.688 245.012 200.607 245.092C200.527 245.173 200.419 245.218 200.305 245.218Z" fill="#2961A9"/>
<path d="M204.037 246.48H201.566C201.453 246.48 201.344 246.435 201.264 246.355C201.184 246.274 201.139 246.165 201.139 246.052C201.139 245.938 201.184 245.829 201.264 245.749C201.344 245.668 201.453 245.623 201.566 245.623H204.041C204.098 245.623 204.153 245.635 204.205 245.657C204.257 245.678 204.304 245.71 204.343 245.75C204.383 245.79 204.414 245.837 204.435 245.89C204.456 245.942 204.467 245.997 204.467 246.054C204.466 246.11 204.455 246.166 204.433 246.218C204.412 246.27 204.38 246.317 204.34 246.356C204.3 246.396 204.253 246.427 204.201 246.448C204.149 246.47 204.093 246.48 204.037 246.48Z" fill="#F59C0C"/>
<path d="M200.305 250.219C200.192 250.219 200.083 250.174 200.003 250.094C199.923 250.014 199.878 249.905 199.878 249.791V247.309C199.878 247.196 199.923 247.087 200.003 247.006C200.083 246.926 200.192 246.881 200.305 246.881C200.419 246.881 200.527 246.926 200.607 247.006C200.688 247.087 200.733 247.196 200.733 247.309V249.791C200.733 249.905 200.688 250.014 200.607 250.094C200.527 250.174 200.419 250.219 200.305 250.219Z" fill="#F59C0C"/>
<path d="M199.046 246.48H196.573C196.46 246.48 196.351 246.435 196.271 246.355C196.191 246.274 196.146 246.165 196.146 246.052C196.146 245.938 196.191 245.829 196.271 245.749C196.351 245.668 196.46 245.623 196.573 245.623H199.048C199.104 245.623 199.16 245.634 199.212 245.656C199.264 245.678 199.311 245.709 199.35 245.749C199.39 245.789 199.421 245.837 199.443 245.889C199.464 245.941 199.475 245.996 199.475 246.053C199.475 246.109 199.463 246.165 199.442 246.217C199.42 246.269 199.388 246.316 199.349 246.355C199.309 246.395 199.262 246.427 199.21 246.448C199.158 246.469 199.102 246.48 199.046 246.48Z" fill="#2961A9"/>
</svg>
