<svg width="365" height="399" viewBox="0 0 365 399" fill="none" xmlns="http://www.w3.org/2000/svg">
<g clip-path="url(#clip0_450_4634)">
<path d="M233.54 2.15332H51.2071C43.8806 2.15332 37.9414 8.08001 37.9414 15.391V197.339C37.9414 204.65 43.8806 210.576 51.2071 210.576H233.54C240.866 210.576 246.805 204.65 246.805 197.339V15.391C246.805 8.08001 240.866 2.15332 233.54 2.15332Z" fill="white"/>
<path d="M233.54 211.439H51.1974C47.4512 211.434 43.86 209.947 41.2111 207.304C38.5622 204.66 37.0718 201.077 37.0667 197.338V15.3812C37.0718 11.6429 38.5622 8.05928 41.2111 5.41596C43.86 2.77263 47.4512 1.28537 51.1974 1.28027H233.54C237.286 1.28537 240.877 2.77263 243.526 5.41596C246.175 8.05928 247.665 11.6429 247.671 15.3812V197.338C247.665 201.077 246.175 204.66 243.526 207.304C240.877 209.947 237.286 211.434 233.54 211.439ZM51.1974 3.01641C47.9107 3.02065 44.7599 4.32541 42.4358 6.64453C40.1118 8.96366 38.8043 12.1078 38.8 15.3876V197.345C38.8043 200.625 40.1118 203.769 42.4358 206.088C44.7599 208.407 47.9107 209.712 51.1974 209.716H233.54C236.826 209.712 239.977 208.407 242.301 206.088C244.625 203.769 245.933 200.625 245.937 197.345V15.3876C245.933 12.1078 244.625 8.96366 242.301 6.64453C239.977 4.32541 236.826 3.02065 233.54 3.01641H51.1974Z" fill="#262424"/>
<path d="M225.876 117.229H65.8297C62.2189 117.229 59.2917 120.15 59.2917 123.754V176.171C59.2917 179.775 62.2189 182.696 65.8297 182.696H225.876C229.487 182.696 232.414 179.775 232.414 176.171V123.754C232.414 120.15 229.487 117.229 225.876 117.229Z" fill="white"/>
<path d="M225.876 183.559H65.8297C63.8693 183.555 61.9904 182.776 60.6042 181.392C59.218 180.009 58.4374 178.134 58.4331 176.178V123.754C58.4374 121.797 59.218 119.922 60.6042 118.539C61.9904 117.156 63.8693 116.377 65.8297 116.373H225.876C227.837 116.377 229.715 117.156 231.102 118.539C232.488 119.922 233.269 121.797 233.273 123.754V176.171C233.27 178.129 232.49 180.005 231.104 181.39C229.718 182.775 227.838 183.555 225.876 183.559ZM65.8297 118.093C64.3257 118.094 62.8838 118.691 61.8203 119.753C60.7568 120.814 60.1585 122.253 60.1568 123.754V176.171C60.1585 177.672 60.7568 179.111 61.8203 180.172C62.8838 181.234 64.3257 181.831 65.8297 181.832H225.876C227.38 181.831 228.822 181.234 229.886 180.172C230.949 179.111 231.547 177.672 231.549 176.171V123.754C231.547 122.253 230.949 120.814 229.886 119.753C228.822 118.691 227.38 118.094 225.876 118.093H65.8297Z" fill="#262424"/>
<path d="M100.989 180.779C100.876 180.779 100.763 180.757 100.658 180.714C100.553 180.67 100.458 180.607 100.378 180.526C100.297 180.446 100.234 180.351 100.19 180.246C100.147 180.142 100.124 180.029 100.124 179.916V120.011C100.124 119.782 100.216 119.562 100.378 119.4C100.541 119.238 100.761 119.146 100.991 119.146C101.221 119.146 101.441 119.238 101.604 119.4C101.766 119.562 101.858 119.782 101.858 120.011V179.913C101.858 180.027 101.836 180.14 101.792 180.245C101.749 180.35 101.685 180.446 101.604 180.527C101.524 180.607 101.428 180.671 101.322 180.714C101.217 180.758 101.104 180.78 100.989 180.779Z" fill="#262424"/>
<path d="M145.851 180.779C145.738 180.779 145.625 180.757 145.52 180.714C145.415 180.67 145.32 180.607 145.24 180.526C145.159 180.446 145.096 180.351 145.052 180.246C145.009 180.142 144.986 180.029 144.986 179.916V120.011C144.986 119.782 145.078 119.562 145.24 119.4C145.403 119.238 145.623 119.146 145.853 119.146C146.083 119.146 146.303 119.238 146.466 119.4C146.628 119.562 146.72 119.782 146.72 120.011V179.913C146.72 180.027 146.698 180.14 146.654 180.245C146.611 180.35 146.547 180.446 146.466 180.527C146.386 180.607 146.29 180.671 146.184 180.714C146.079 180.758 145.966 180.78 145.851 180.779Z" fill="#262424"/>
<path d="M190.713 180.779C190.484 180.779 190.264 180.688 190.102 180.526C189.94 180.365 189.848 180.145 189.848 179.916V120.011C189.848 119.782 189.94 119.562 190.102 119.4C190.265 119.238 190.485 119.146 190.715 119.146C190.945 119.146 191.165 119.238 191.328 119.4C191.49 119.562 191.582 119.782 191.582 120.011V179.913C191.582 180.027 191.56 180.14 191.517 180.245C191.473 180.35 191.409 180.446 191.328 180.527C191.248 180.607 191.152 180.671 191.046 180.714C190.941 180.758 190.828 180.78 190.713 180.779Z" fill="#262424"/>
<path d="M228.742 150.825H62.9612C62.7313 150.825 62.5109 150.734 62.3483 150.572C62.1858 150.41 62.0945 150.19 62.0945 149.961C62.0945 149.731 62.1858 149.511 62.3483 149.349C62.5109 149.187 62.7313 149.096 62.9612 149.096H228.742C228.972 149.096 229.192 149.187 229.354 149.349C229.517 149.511 229.608 149.731 229.608 149.961C229.608 150.19 229.517 150.41 229.354 150.572C229.192 150.734 228.972 150.825 228.742 150.825Z" fill="#262424"/>
<path d="M193.69 87.4839L177.379 75.225V79.1786H141.582C137.563 79.1825 133.675 77.747 130.626 75.133C127.577 72.519 125.57 68.9002 124.968 64.9342C124.366 60.9683 125.211 56.9186 127.348 53.5213C129.485 50.124 132.772 47.6046 136.613 46.4211C140.454 45.2377 144.592 45.4687 148.277 47.0722C151.961 48.6757 154.947 51.5452 156.691 55.1591C158.435 58.773 158.821 62.8914 157.78 66.7657C156.739 70.6399 154.34 74.0128 151.018 76.2712H171.998C172.127 75.993 172.251 75.7117 172.371 75.4272C175.173 68.8229 175.768 61.4938 174.069 54.5256C172.369 47.5575 168.466 41.3208 162.936 36.7396C157.407 32.1584 150.546 29.4764 143.37 29.0908C136.193 28.7052 129.084 30.6365 123.093 34.5987C117.103 38.5609 112.551 44.3432 110.112 51.089C107.672 57.8348 107.475 65.1853 109.55 72.0516C111.624 78.9179 115.86 84.9347 121.63 89.2107C127.399 93.4868 134.395 95.7946 141.582 95.7923H177.375V99.7459L193.69 87.4839Z" fill="#F59C0C"/>
<path d="M109.346 79.1787H97.2156V95.7924H127.313C119.582 92.4895 113.234 86.6197 109.346 79.1787Z" fill="#F59C0C"/>
<path d="M297.283 398.13C296.394 398.131 295.533 397.823 294.848 397.257C294.158 396.692 293.687 395.904 293.514 395.03L266.268 262.981H98.5454L71.3001 395.03C71.1269 395.904 70.6552 396.692 69.9655 397.257C69.2807 397.823 68.4197 398.131 67.5311 398.13C66.971 398.128 66.4181 398.005 65.9107 397.768C65.4033 397.532 64.9536 397.188 64.5928 396.76C64.2321 396.333 63.9689 395.832 63.8215 395.293C63.6742 394.753 63.6462 394.189 63.7395 393.638L87.2157 252.844H277.63L301.09 393.638C301.184 394.19 301.155 394.756 301.007 395.296C300.859 395.837 300.594 396.338 300.232 396.766C299.869 397.194 299.417 397.538 298.908 397.773C298.399 398.009 297.844 398.131 297.283 398.13Z" fill="white"/>
<path d="M297.282 398.997C296.191 398.994 295.135 398.614 294.292 397.922C293.45 397.23 292.873 396.269 292.661 395.201L265.561 263.848H99.2527L72.149 395.204C71.9359 396.271 71.3592 397.232 70.5169 397.924C69.6745 398.615 68.6184 398.994 67.5277 398.997C66.8466 398.997 66.1737 398.85 65.5556 398.564C64.9375 398.279 64.389 397.863 63.9484 397.344C63.5002 396.819 63.1722 396.202 62.9873 395.537C62.8023 394.872 62.7649 394.174 62.8775 393.493L86.3537 252.693C86.3872 252.49 86.4921 252.306 86.6494 252.173C86.8067 252.04 87.0062 251.967 87.2123 251.968H277.627C277.833 251.968 278.032 252.041 278.189 252.174C278.346 252.306 278.451 252.49 278.485 252.693L301.961 393.487C302.074 394.168 302.036 394.865 301.851 395.53C301.666 396.195 301.339 396.812 300.891 397.338C300.447 397.861 299.895 398.281 299.271 398.567C298.648 398.854 297.969 399.001 297.282 398.997ZM98.5388 262.112H266.262C266.462 262.111 266.656 262.18 266.812 262.307C266.967 262.433 267.074 262.609 267.114 262.805L294.359 394.854C294.494 395.532 294.858 396.143 295.391 396.584C295.99 397.078 296.76 397.317 297.535 397.249C298.309 397.18 299.025 396.81 299.527 396.218C299.811 395.884 300.019 395.493 300.136 395.072C300.253 394.65 300.277 394.208 300.206 393.776L276.874 253.71H87.9359L64.5916 393.782C64.5206 394.214 64.5446 394.655 64.6618 395.076C64.7789 395.497 64.9865 395.888 65.2701 396.221C65.5471 396.548 65.8919 396.81 66.2807 396.99C66.6694 397.17 67.0927 397.264 67.5213 397.264C68.2082 397.267 68.8742 397.028 69.4026 396.59C69.9368 396.15 70.3025 395.539 70.4381 394.861L97.6833 262.808C97.7236 262.61 97.8317 262.433 97.9889 262.306C98.1462 262.179 98.3429 262.11 98.5452 262.112H98.5388Z" fill="#262424"/>
<path d="M249.928 398.13C249.039 398.131 248.178 397.823 247.494 397.257C246.804 396.692 246.332 395.904 246.159 395.03L218.914 262.981H51.1909L23.9456 395.03C23.7724 395.904 23.3007 396.692 22.611 397.257C21.9262 397.823 21.0652 398.131 20.1766 398.13C19.6165 398.128 19.0636 398.005 18.5562 397.768C18.0488 397.532 17.5991 397.188 17.2383 396.76C16.8776 396.333 16.6144 395.832 16.467 395.293C16.3197 394.753 16.2917 394.189 16.385 393.638L39.8612 252.844H230.276L253.736 393.638C253.829 394.19 253.801 394.756 253.653 395.296C253.504 395.837 253.24 396.338 252.877 396.766C252.515 397.194 252.063 397.538 251.554 397.773C251.044 398.009 250.489 398.131 249.928 398.13Z" fill="white"/>
<path d="M249.928 398.997C248.837 398.994 247.78 398.614 246.938 397.922C246.096 397.23 245.519 396.268 245.307 395.2L218.206 263.848H51.9016L24.7979 395.204C24.5814 396.271 24.0034 397.232 23.161 397.925C22.2096 398.708 20.9875 399.086 19.7591 398.976C18.5308 398.867 17.3949 398.28 16.5973 397.341C16.1491 396.815 15.8211 396.198 15.6362 395.533C15.4513 394.868 15.4138 394.171 15.5264 393.49L39.0026 252.69C39.0362 252.487 39.141 252.302 39.2983 252.169C39.4556 252.037 39.6552 251.964 39.8613 251.964H230.276C230.482 251.965 230.681 252.037 230.838 252.17C230.995 252.303 231.1 252.487 231.134 252.69L254.61 393.484C254.723 394.165 254.685 394.862 254.5 395.527C254.315 396.192 253.988 396.809 253.54 397.335C253.096 397.859 252.543 398.279 251.919 398.566C251.295 398.854 250.615 399.001 249.928 398.997ZM51.1845 262.112H218.917C219.117 262.111 219.312 262.18 219.467 262.306C219.622 262.433 219.729 262.609 219.769 262.805L247.014 394.854C247.149 395.532 247.514 396.143 248.047 396.584C248.646 397.078 249.416 397.317 250.19 397.249C250.964 397.18 251.68 396.81 252.182 396.218C252.467 395.884 252.674 395.493 252.792 395.071C252.909 394.65 252.932 394.207 252.861 393.776L229.523 253.71H40.5848L17.2437 393.782C17.1728 394.213 17.1968 394.655 17.3139 395.076C17.4311 395.497 17.6387 395.888 17.9223 396.221C18.1993 396.547 18.5441 396.81 18.9328 396.99C19.3215 397.17 19.7448 397.263 20.1734 397.264C20.8604 397.267 21.5265 397.028 22.0547 396.59C22.589 396.149 22.9547 395.539 23.0903 394.86L50.3355 262.808C50.3756 262.611 50.4827 262.434 50.6386 262.307C50.7945 262.18 50.9897 262.111 51.1909 262.112H51.1845Z" fill="#262424"/>
<path d="M294.211 242.039H23.949V254.073H294.211V242.039Z" fill="#8661C1"/>
<path d="M225.066 253.707C224.952 253.707 224.84 253.685 224.735 253.641C224.63 253.598 224.534 253.534 224.454 253.454C224.374 253.374 224.31 253.279 224.267 253.174C224.223 253.069 224.201 252.957 224.201 252.844V244.019C224.201 243.789 224.292 243.569 224.455 243.407C224.617 243.245 224.838 243.154 225.067 243.154C225.297 243.154 225.518 243.245 225.68 243.407C225.843 243.569 225.934 243.789 225.934 244.019V252.844C225.934 252.957 225.912 253.07 225.868 253.175C225.824 253.28 225.76 253.375 225.68 253.455C225.599 253.536 225.503 253.599 225.398 253.642C225.292 253.685 225.18 253.707 225.066 253.707Z" fill="#523B78"/>
<path d="M222.853 240.033H174.798C174.473 240.033 174.153 239.958 173.862 239.814C173.571 239.669 173.318 239.459 173.123 239.2C172.927 238.941 172.795 238.64 172.737 238.321C172.678 238.002 172.694 237.674 172.785 237.363L187.578 186.312C187.811 185.507 188.3 184.799 188.971 184.295C189.642 183.791 190.459 183.518 191.299 183.517H239.354C239.679 183.517 239.999 183.592 240.29 183.736C240.581 183.881 240.834 184.091 241.029 184.35C241.224 184.609 241.357 184.91 241.415 185.229C241.474 185.548 241.458 185.876 241.367 186.187L226.577 237.241C226.343 238.046 225.854 238.753 225.182 239.257C224.511 239.76 223.693 240.033 222.853 240.033Z" fill="white"/>
<path d="M222.853 240.899H174.798C174.338 240.9 173.885 240.793 173.474 240.588C173.063 240.384 172.706 240.086 172.429 239.72C172.153 239.354 171.967 238.928 171.884 238.477C171.801 238.027 171.824 237.563 171.952 237.122L186.745 186.072C187.034 185.088 187.633 184.225 188.454 183.609C189.274 182.993 190.272 182.658 191.299 182.654H239.354C239.813 182.654 240.267 182.76 240.678 182.965C241.089 183.169 241.446 183.467 241.722 183.833C241.998 184.2 242.185 184.625 242.268 185.076C242.351 185.527 242.328 185.991 242.2 186.431L227.407 237.482C227.118 238.465 226.519 239.329 225.698 239.944C224.878 240.56 223.88 240.895 222.853 240.899ZM191.299 184.384C190.646 184.386 190.012 184.598 189.491 184.989C188.969 185.38 188.588 185.928 188.404 186.553L173.611 237.604C173.558 237.786 173.549 237.979 173.583 238.166C173.618 238.352 173.695 238.529 173.81 238.681C173.924 238.833 174.072 238.956 174.243 239.041C174.413 239.126 174.601 239.17 174.791 239.17H222.853C223.505 239.168 224.14 238.955 224.661 238.564C225.183 238.174 225.564 237.625 225.748 237L240.541 185.95C240.594 185.767 240.603 185.575 240.569 185.388C240.534 185.201 240.457 185.024 240.342 184.873C240.228 184.721 240.08 184.597 239.909 184.513C239.739 184.428 239.551 184.384 239.361 184.384H191.299Z" fill="#262424"/>
<path d="M221.792 236.182H178.29C178.115 236.182 177.942 236.141 177.786 236.063C177.629 235.985 177.493 235.871 177.388 235.731C177.282 235.592 177.211 235.429 177.18 235.257C177.149 235.085 177.158 234.909 177.207 234.741L190.533 188.738C190.648 188.343 190.888 187.995 191.217 187.748C191.547 187.501 191.948 187.368 192.36 187.368H235.862C236.037 187.368 236.209 187.408 236.366 187.487C236.523 187.565 236.659 187.678 236.764 187.818C236.869 187.958 236.94 188.12 236.972 188.292C237.003 188.464 236.994 188.641 236.945 188.809L223.619 234.811C223.504 235.207 223.264 235.554 222.935 235.801C222.605 236.048 222.204 236.182 221.792 236.182Z" fill="white"/>
<path d="M221.792 237.049H178.29C177.98 237.05 177.674 236.98 177.395 236.842C177.117 236.705 176.875 236.505 176.687 236.258C176.5 236.011 176.373 235.724 176.316 235.419C176.26 235.115 176.275 234.801 176.361 234.504L189.691 188.501C189.859 187.927 190.209 187.422 190.688 187.062C191.168 186.703 191.751 186.507 192.35 186.505H235.862C236.172 186.503 236.479 186.574 236.757 186.711C237.035 186.848 237.278 187.048 237.465 187.295C237.652 187.542 237.779 187.829 237.836 188.134C237.893 188.439 237.877 188.752 237.791 189.05L224.452 235.053C224.283 235.627 223.933 236.131 223.454 236.491C222.975 236.851 222.392 237.046 221.792 237.049ZM192.36 188.235C192.136 188.236 191.918 188.309 191.739 188.444C191.56 188.579 191.429 188.768 191.366 188.982L178.04 234.995C178.031 235.033 178.031 235.073 178.04 235.111C178.048 235.149 178.066 235.185 178.09 235.216C178.114 235.246 178.145 235.271 178.18 235.289C178.216 235.306 178.254 235.315 178.294 235.316H221.792C222.016 235.315 222.233 235.241 222.412 235.107C222.591 234.973 222.722 234.785 222.786 234.571L236.113 188.568C236.121 188.53 236.121 188.49 236.112 188.452C236.104 188.414 236.087 188.378 236.062 188.347C236.038 188.317 236.007 188.292 235.972 188.274C235.936 188.257 235.898 188.248 235.859 188.247H192.36V188.235Z" fill="#262424"/>
<path d="M179.834 354.611L180.371 368.651H171.286L169.598 354.611H179.834Z" fill="white"/>
<path d="M180.365 369.518H171.286C171.075 369.518 170.87 369.44 170.712 369.3C170.554 369.16 170.453 368.967 170.428 368.757L168.739 354.717C168.725 354.596 168.737 354.474 168.774 354.358C168.81 354.242 168.871 354.135 168.952 354.044C169.033 353.953 169.133 353.88 169.244 353.83C169.355 353.78 169.476 353.754 169.598 353.754H179.831C180.055 353.754 180.27 353.841 180.431 353.996C180.593 354.151 180.688 354.362 180.696 354.586L181.236 368.625C181.24 368.742 181.22 368.858 181.178 368.966C181.136 369.075 181.072 369.174 180.991 369.257C180.91 369.34 180.812 369.406 180.705 369.451C180.597 369.496 180.481 369.519 180.365 369.518ZM172.048 367.788H179.464L178.992 355.478H170.566L172.048 367.788Z" fill="#262424"/>
<path d="M181.175 297.502V347.908H163.488L154.557 307.579L89.0327 298.057C89.0327 298.057 71.3452 296.186 71.3452 258.158H97.8894L102.07 259.442L121.15 265.324L169.871 284.075L172.701 285.166C175.197 286.128 177.342 287.822 178.854 290.024C180.367 292.225 181.176 294.833 181.175 297.502Z" fill="#F2F3D9"/>
<path d="M79.6646 271.967C79.8479 273.912 80.2885 277.788 81.2468 282.733C81.2947 282.964 81.4062 283.176 81.5688 283.346C81.7313 283.516 81.9384 283.638 82.1666 283.696L89.8623 285.702C90.161 285.779 90.4779 285.745 90.7531 285.606L95.4097 283.25C95.6421 283.132 95.8324 282.946 95.9544 282.716C96.0765 282.486 96.1244 282.224 96.0915 281.966L94.8791 271.678C94.8429 271.371 94.6952 271.089 94.464 270.883C94.2329 270.678 93.9343 270.565 93.6249 270.564H80.922C80.7438 270.564 80.5675 270.601 80.4047 270.673C80.2419 270.745 80.0962 270.851 79.9774 270.984C79.8586 271.116 79.7693 271.272 79.7154 271.442C79.6614 271.611 79.6441 271.79 79.6646 271.967Z" fill="white"/>
<path d="M172.003 344.705C171.797 344.705 171.597 344.631 171.44 344.497C171.283 344.363 171.179 344.177 171.148 343.973L164.716 302.646L111.01 285.166C109.045 284.525 107.29 283.365 105.931 281.81C104.572 280.255 103.66 278.362 103.292 276.331L101.208 264.891C101.187 264.779 101.188 264.664 101.211 264.553C101.235 264.442 101.28 264.336 101.344 264.242C101.408 264.148 101.49 264.068 101.586 264.006C101.681 263.944 101.788 263.901 101.9 263.88C102.011 263.859 102.126 263.86 102.238 263.883C102.349 263.906 102.455 263.951 102.549 264.015C102.643 264.079 102.724 264.161 102.786 264.256C102.849 264.352 102.891 264.458 102.913 264.57L104.997 276.01C105.309 277.735 106.084 279.344 107.239 280.665C108.394 281.986 109.886 282.97 111.557 283.513L165.752 301.163C165.904 301.213 166.04 301.304 166.143 301.425C166.247 301.547 166.315 301.695 166.34 301.853L172.862 343.707C172.88 343.819 172.875 343.934 172.848 344.044C172.822 344.155 172.773 344.259 172.706 344.351C172.639 344.443 172.554 344.521 172.457 344.58C172.359 344.639 172.251 344.678 172.138 344.695C172.094 344.702 172.049 344.705 172.003 344.705Z" fill="#B3B4A2"/>
<path d="M103.803 275.141C103.608 275.143 103.418 275.078 103.264 274.959C103.11 274.839 103.001 274.671 102.955 274.482C102.909 274.293 102.928 274.093 103.01 273.916C103.091 273.739 103.23 273.595 103.405 273.507L106.212 272.063C106.922 271.696 107.502 271.122 107.877 270.417C108.251 269.713 108.402 268.911 108.309 268.119L107.418 260.693C107.405 260.581 107.413 260.466 107.444 260.357C107.475 260.248 107.527 260.145 107.597 260.056C107.668 259.967 107.755 259.892 107.854 259.837C107.953 259.781 108.062 259.746 108.175 259.732C108.288 259.719 108.403 259.728 108.512 259.758C108.622 259.789 108.724 259.841 108.814 259.911C108.903 259.981 108.978 260.068 109.034 260.167C109.089 260.266 109.125 260.375 109.139 260.488L110.029 267.914C110.163 269.056 109.945 270.212 109.405 271.228C108.864 272.244 108.027 273.071 107.003 273.6L104.196 275.044C104.074 275.107 103.94 275.14 103.803 275.141Z" fill="#262424"/>
<path d="M181.175 297.502V303.333C180.908 303.349 180.641 303.358 180.371 303.358C178.119 303.358 175.909 302.752 173.974 301.603C172.039 300.455 170.45 298.807 169.374 296.833C168.299 294.859 167.777 292.632 167.863 290.386C167.949 288.141 168.641 285.961 169.865 284.075L172.695 285.166C175.191 286.127 177.338 287.82 178.851 290.022C180.365 292.224 181.175 294.831 181.175 297.502Z" fill="white"/>
<path d="M180.783 358.546H163.899C163.434 358.546 162.986 358.374 162.641 358.064C162.296 357.753 162.078 357.326 162.031 356.864L160.706 344.086C160.679 343.825 160.707 343.561 160.789 343.312C160.87 343.062 161.003 342.833 161.179 342.638C161.356 342.443 161.571 342.287 161.811 342.181C162.051 342.074 162.311 342.019 162.574 342.019H181.448C181.703 342.019 181.955 342.071 182.189 342.171C182.423 342.272 182.634 342.418 182.81 342.603C182.985 342.787 183.121 343.005 183.209 343.243C183.298 343.482 183.336 343.736 183.323 343.989L182.661 356.768C182.636 357.248 182.427 357.701 182.078 358.032C181.728 358.362 181.265 358.547 180.783 358.546Z" fill="#B3B4A2"/>
<path d="M210.147 398.13H165.893C165.893 398.13 165.571 396.105 165.369 392.424C164.958 383.918 165.336 375.391 166.498 366.954H184.507C184.507 366.954 189.009 378.593 196.116 383.089C201.815 386.693 208.063 386.465 209.784 392.424C210.208 393.897 210.353 395.749 210.147 398.13Z" fill="#0F110C"/>
<path d="M210.147 398.13H165.893C165.893 398.13 165.571 396.105 165.369 392.424H209.781C210.208 393.897 210.353 395.749 210.147 398.13Z" fill="white"/>
<path d="M210.147 398.981H165.893C165.686 398.981 165.486 398.907 165.33 398.773C165.173 398.639 165.069 398.453 165.038 398.249C165.038 398.166 164.716 396.138 164.507 392.473C164.5 392.355 164.517 392.237 164.557 392.127C164.598 392.016 164.66 391.915 164.741 391.829C164.822 391.743 164.92 391.675 165.029 391.628C165.137 391.582 165.254 391.558 165.372 391.558H209.781C209.969 391.558 210.152 391.619 210.302 391.732C210.452 391.845 210.562 392.003 210.613 392.184C211.089 393.824 211.218 395.794 211.012 398.204C210.99 398.418 210.889 398.615 210.729 398.759C210.57 398.902 210.362 398.981 210.147 398.981ZM166.636 397.251H209.34C209.438 395.921 209.359 394.584 209.105 393.275H166.276C166.398 395.149 166.536 396.5 166.636 397.267V397.251Z" fill="#262424"/>
<path d="M204.22 354.611L204.761 368.651H195.676L193.987 354.611H204.22Z" fill="white"/>
<path d="M204.757 369.518H195.672C195.461 369.518 195.257 369.44 195.098 369.3C194.94 369.16 194.839 368.967 194.814 368.757L193.125 354.717C193.111 354.596 193.123 354.474 193.16 354.358C193.197 354.242 193.257 354.135 193.338 354.044C193.42 353.953 193.519 353.88 193.63 353.83C193.742 353.78 193.862 353.754 193.984 353.754H204.22C204.444 353.755 204.659 353.842 204.82 353.997C204.981 354.152 205.076 354.363 205.085 354.586L205.622 368.626C205.626 368.741 205.607 368.857 205.565 368.965C205.523 369.073 205.46 369.171 205.379 369.255C205.299 369.338 205.202 369.404 205.095 369.449C204.988 369.494 204.873 369.518 204.757 369.518ZM196.444 367.788H203.86L203.387 355.478H194.962L196.444 367.788Z" fill="#262424"/>
<path d="M205.561 297.502V347.908H187.874L178.95 307.579L113.425 298.057C113.425 298.057 95.7378 296.186 95.7378 258.158H122.282L126.463 259.442L145.543 265.324L194.264 284.075L197.094 285.166C199.588 286.129 201.732 287.823 203.243 290.025C204.754 292.227 205.562 294.833 205.561 297.502Z" fill="#F2F3D9"/>
<path d="M180.259 314.35C180.062 314.349 179.87 314.282 179.717 314.159C179.563 314.036 179.456 313.864 179.413 313.672L178.233 308.349L113.313 298.914C112.924 298.869 108.405 298.224 103.919 292.925C97.9151 285.837 94.8696 274.139 94.8696 258.158C94.8696 257.928 94.9609 257.708 95.1235 257.546C95.286 257.384 95.5064 257.293 95.7363 257.293C95.9662 257.293 96.1866 257.384 96.3492 257.546C96.5117 257.708 96.603 257.928 96.603 258.158C96.603 294.983 113.345 297.181 113.515 297.197H113.548L179.078 306.722C179.252 306.747 179.414 306.824 179.543 306.943C179.671 307.062 179.761 307.218 179.799 307.389L181.104 313.297C181.133 313.423 181.132 313.555 181.103 313.681C181.074 313.807 181.017 313.925 180.935 314.026C180.854 314.127 180.751 314.209 180.634 314.265C180.517 314.321 180.388 314.35 180.259 314.35Z" fill="#523B78"/>
<path d="M104.054 271.967C104.238 273.911 104.678 277.788 105.636 282.733C105.684 282.963 105.796 283.176 105.958 283.346C106.121 283.516 106.328 283.637 106.556 283.696L114.252 285.702C114.551 285.779 114.868 285.745 115.143 285.605L119.799 283.25C120.032 283.132 120.222 282.946 120.344 282.716C120.466 282.486 120.514 282.224 120.481 281.966L119.262 271.703C119.226 271.397 119.078 271.114 118.847 270.909C118.616 270.704 118.317 270.59 118.008 270.59H105.305C105.13 270.59 104.957 270.627 104.797 270.699C104.637 270.77 104.493 270.873 104.375 271.003C104.258 271.132 104.168 271.285 104.113 271.451C104.058 271.617 104.038 271.792 104.054 271.967Z" fill="white"/>
<path d="M196.399 344.705C196.192 344.705 195.993 344.631 195.836 344.497C195.679 344.363 195.575 344.177 195.544 343.973L189.112 302.646L135.406 285.166C133.44 284.525 131.685 283.365 130.326 281.809C128.967 280.253 128.056 278.359 127.688 276.328L125.604 264.888C125.583 264.776 125.584 264.661 125.607 264.55C125.631 264.439 125.676 264.333 125.74 264.239C125.804 264.145 125.886 264.065 125.981 264.003C126.077 263.941 126.183 263.898 126.295 263.877C126.407 263.856 126.522 263.857 126.634 263.88C126.745 263.903 126.851 263.948 126.945 264.012C127.039 264.077 127.12 264.158 127.182 264.254C127.244 264.349 127.287 264.455 127.308 264.567L129.392 276.007C129.705 277.733 130.48 279.341 131.635 280.662C132.79 281.983 134.282 282.967 135.953 283.51L190.147 301.16C190.3 301.21 190.435 301.301 190.539 301.423C190.643 301.544 190.711 301.692 190.736 301.85L197.258 343.704C197.276 343.816 197.271 343.931 197.244 344.041C197.217 344.152 197.169 344.256 197.102 344.348C197.035 344.44 196.95 344.518 196.852 344.577C196.755 344.636 196.647 344.675 196.534 344.692C196.49 344.7 196.444 344.704 196.399 344.705Z" fill="#B3B4A2"/>
<path d="M128.19 275.14C127.994 275.142 127.804 275.078 127.65 274.959C127.496 274.839 127.387 274.671 127.341 274.482C127.295 274.292 127.314 274.093 127.396 273.916C127.477 273.739 127.617 273.595 127.791 273.507L130.598 272.063C131.308 271.696 131.888 271.122 132.263 270.417C132.637 269.713 132.788 268.911 132.695 268.119L131.804 260.696C131.791 260.584 131.8 260.469 131.83 260.36C131.861 260.251 131.913 260.148 131.984 260.059C132.054 259.97 132.141 259.895 132.24 259.84C132.339 259.784 132.449 259.749 132.562 259.735C132.675 259.722 132.789 259.73 132.899 259.761C133.008 259.792 133.111 259.844 133.2 259.914C133.29 259.984 133.364 260.071 133.42 260.17C133.476 260.269 133.511 260.378 133.525 260.491L134.416 267.917C134.549 269.059 134.332 270.215 133.791 271.231C133.25 272.247 132.413 273.074 131.389 273.603L128.588 275.044C128.465 275.108 128.328 275.141 128.19 275.14Z" fill="#262424"/>
<path d="M205.561 297.502V303.333C205.294 303.349 205.027 303.358 204.757 303.358C202.506 303.358 200.296 302.752 198.36 301.603C196.425 300.455 194.836 298.807 193.761 296.833C192.685 294.859 192.163 292.632 192.249 290.386C192.335 288.141 193.027 285.961 194.251 284.075L197.081 285.166C199.577 286.127 201.724 287.82 203.237 290.022C204.751 292.224 205.561 294.831 205.561 297.502Z" fill="white"/>
<path d="M205.172 358.546H188.289C187.824 358.546 187.376 358.374 187.03 358.064C186.685 357.753 186.468 357.326 186.42 356.865L185.095 344.086C185.068 343.825 185.096 343.561 185.178 343.312C185.26 343.062 185.393 342.833 185.569 342.638C185.745 342.443 185.96 342.287 186.2 342.181C186.441 342.074 186.701 342.019 186.964 342.019H205.835C206.089 342.019 206.341 342.071 206.575 342.171C206.809 342.272 207.02 342.418 207.196 342.603C207.371 342.787 207.507 343.005 207.595 343.243C207.684 343.482 207.723 343.736 207.709 343.989L207.057 356.768C207.032 357.25 206.822 357.703 206.471 358.034C206.12 358.365 205.655 358.548 205.172 358.546Z" fill="#B3B4A2"/>
<path d="M234.537 398.13H190.266C190.266 398.13 189.945 396.105 189.742 392.424C189.332 383.918 189.709 375.391 190.871 366.954H208.88C208.88 366.954 213.383 378.593 220.49 383.089C226.188 386.693 232.437 386.465 234.157 392.424C234.595 393.897 234.743 395.749 234.537 398.13Z" fill="#0F110C"/>
<path d="M234.537 398.13H190.266C190.266 398.13 189.945 396.105 189.742 392.424H234.17C234.595 393.897 234.743 395.749 234.537 398.13Z" fill="white"/>
<path d="M234.537 398.981H190.266C190.06 398.981 189.86 398.907 189.703 398.773C189.546 398.639 189.442 398.453 189.411 398.249C189.411 398.166 189.089 396.138 188.877 392.473C188.87 392.355 188.887 392.237 188.928 392.127C188.968 392.016 189.03 391.915 189.111 391.829C189.193 391.743 189.29 391.675 189.399 391.628C189.507 391.582 189.624 391.558 189.742 391.558H234.17C234.358 391.558 234.541 391.619 234.692 391.732C234.842 391.845 234.951 392.003 235.003 392.184C235.479 393.824 235.607 395.794 235.402 398.204C235.379 398.418 235.279 398.615 235.119 398.759C234.959 398.902 234.752 398.981 234.537 398.981ZM191.025 397.251H233.729C233.828 395.921 233.749 394.584 233.495 393.275H190.655C190.787 395.149 190.932 396.5 191.025 397.267V397.251Z" fill="#262424"/>
<path d="M115.403 150.02C115.403 150.02 117.136 154.776 124.24 157.282C132.152 160.074 136.023 148.897 136.11 139.042C136.197 129.186 111.245 129.79 115.403 150.02Z" fill="white"/>
<path d="M126.636 158.589C125.72 158.58 124.812 158.415 123.951 158.101C116.554 155.489 114.667 150.527 114.589 150.319C114.575 150.279 114.563 150.238 114.554 150.197C112.705 141.211 116.57 136.69 119.056 134.793C123.53 131.363 129.479 131.359 133.046 133.134C135.618 134.418 137.011 136.51 136.992 139.052C136.937 145.444 135.213 154.064 130.56 157.344C129.416 158.161 128.043 158.597 126.636 158.589ZM116.239 149.776C116.458 150.306 118.262 154.269 124.53 156.467C126.408 157.132 128.048 156.949 129.534 155.909C133.393 153.207 135.187 145.486 135.242 139.036C135.265 136.548 133.383 135.239 132.258 134.681C129.248 133.185 123.964 133.198 120.095 136.163C117.484 138.169 114.696 142.158 116.239 149.776Z" fill="#262424"/>
<path d="M116.242 151.375L113.818 161.981L125.253 162.844L125.887 151.721L116.242 151.375Z" fill="white"/>
<path d="M125.25 163.71H125.186L113.75 162.847C113.626 162.838 113.505 162.801 113.396 162.741C113.286 162.681 113.192 162.598 113.118 162.497C113.044 162.397 112.992 162.282 112.967 162.16C112.942 162.038 112.944 161.912 112.972 161.791L115.397 151.201C115.443 151.006 115.555 150.832 115.714 150.71C115.874 150.588 116.07 150.524 116.271 150.53L125.919 150.877C126.034 150.881 126.148 150.908 126.253 150.956C126.357 151.005 126.451 151.074 126.529 151.159C126.606 151.244 126.666 151.344 126.704 151.453C126.743 151.561 126.759 151.676 126.752 151.791L126.109 162.914C126.092 163.13 125.994 163.332 125.835 163.479C125.676 163.627 125.467 163.709 125.25 163.71ZM114.885 161.184L124.437 161.907L124.97 152.542L116.931 152.253L114.885 161.184Z" fill="#262424"/>
<path d="M121.903 125.124C121.903 125.124 116.011 121.915 109.772 127.803C103.533 133.692 109.512 147.947 115.239 153.133H125.98L132.998 140.512L136.326 143.855C137.928 142.053 138.999 139.842 139.419 137.47C139.84 135.097 139.594 132.654 138.709 130.412C135.664 122.444 124.327 124.257 121.903 125.124Z" fill="#262424"/>
<path d="M132.952 140.63L132.991 140.511C132.991 140.511 135.589 136.019 139.487 138.695C143.385 141.372 138.709 151.663 132.47 147.86C132.043 145.447 132.209 142.966 132.952 140.63Z" fill="white"/>
<path d="M135.213 149.552C134.08 149.533 132.974 149.199 132.02 148.589C131.915 148.525 131.825 148.44 131.755 148.339C131.686 148.237 131.639 148.123 131.618 148.002C131.171 145.454 131.345 142.837 132.126 140.371L132.165 140.252C132.183 140.193 132.208 140.136 132.239 140.082C132.296 139.982 133.682 137.623 136.059 137.088C137.365 136.792 138.683 137.088 139.979 137.986C142.484 139.706 142.124 143.705 140.356 146.423C139.021 148.474 137.172 149.552 135.213 149.552ZM133.261 147.305C136.336 148.91 138.349 146.343 138.905 145.47C140.237 143.422 140.594 140.496 138.998 139.398C138.108 138.785 137.271 138.577 136.445 138.756C135.007 139.077 134.001 140.525 133.785 140.858C133.121 142.942 132.942 145.149 133.261 147.312V147.305Z" fill="#262424"/>
<path d="M109.197 165.267L110.804 159.214C110.804 159.214 118.024 156.217 128.132 159.734L129.418 165.832L109.197 165.267Z" fill="#AA0B32"/>
<path d="M92.3 166.621C92.3 166.621 103.041 162.211 119.677 163.412C136.313 164.612 146.369 169.464 146.369 169.464C146.369 169.464 152.348 197.531 152.463 205.486C152.579 213.442 142.877 220.126 142.877 220.126L146.977 265.6H69.8625C69.8625 265.6 71.0749 194.717 92.3 166.621Z" fill="#EA3360"/>
<path d="M74.2008 220.377C74.1537 220.381 74.1064 220.381 74.0593 220.377C73.9469 220.359 73.8391 220.319 73.7422 220.26C73.6452 220.2 73.561 220.122 73.4944 220.03C73.4278 219.938 73.38 219.833 73.3539 219.723C73.3278 219.612 73.3238 219.498 73.3421 219.385C77.3717 194.746 83.5173 176.82 91.6053 166.114C91.6737 166.023 91.7594 165.947 91.8573 165.89C91.9553 165.832 92.0636 165.794 92.1762 165.778C92.2888 165.763 92.4034 165.769 92.5135 165.798C92.6235 165.826 92.7269 165.876 92.8177 165.944C92.9085 166.012 92.985 166.098 93.0427 166.195C93.1004 166.293 93.1382 166.401 93.154 166.514C93.1699 166.626 93.1634 166.74 93.1349 166.85C93.1064 166.96 93.0566 167.063 92.9882 167.154C85.0706 177.635 79.0343 195.304 75.0498 219.665C75.0144 219.864 74.9099 220.044 74.7548 220.175C74.5996 220.305 74.4035 220.376 74.2008 220.377Z" fill="#262424"/>
<path d="M144.89 261.457H72.4031C72.1732 261.457 71.9528 261.366 71.7902 261.203C71.6277 261.041 71.5364 260.821 71.5364 260.592C71.5364 260.363 71.6277 260.143 71.7902 259.98C71.9528 259.818 72.1732 259.727 72.4031 259.727H144.89C145.12 259.727 145.34 259.818 145.503 259.98C145.665 260.143 145.757 260.363 145.757 260.592C145.757 260.821 145.665 261.041 145.503 261.203C145.34 261.366 145.12 261.457 144.89 261.457Z" fill="#AA0B32"/>
<path d="M105.456 130.804L104.668 135.512C104.612 135.863 104.694 136.222 104.896 136.515C105.099 136.808 105.406 137.012 105.755 137.084L109.476 137.803C109.662 137.839 109.854 137.836 110.039 137.795C110.224 137.754 110.398 137.676 110.552 137.565C110.705 137.454 110.834 137.312 110.931 137.15C111.027 136.987 111.089 136.806 111.113 136.619L111.734 131.715C111.779 131.356 111.681 130.993 111.461 130.705C111.241 130.417 110.916 130.227 110.557 130.175L107.003 129.665C106.648 129.618 106.288 129.711 106 129.923C105.711 130.136 105.517 130.451 105.456 130.804Z" fill="white"/>
<path d="M109.753 138.692C109.61 138.691 109.468 138.677 109.328 138.65L105.607 137.931C105.033 137.82 104.525 137.489 104.19 137.01C103.856 136.531 103.722 135.94 103.816 135.364L104.604 130.669C104.701 130.09 105.022 129.573 105.496 129.227C105.971 128.881 106.563 128.734 107.145 128.817L110.698 129.328C111.283 129.411 111.811 129.721 112.169 130.19C112.527 130.659 112.686 131.249 112.612 131.834L111.991 136.737C111.92 137.279 111.653 137.776 111.241 138.136C110.829 138.496 110.3 138.693 109.753 138.692ZM106.823 130.515C106.7 130.515 106.582 130.559 106.488 130.639C106.395 130.718 106.332 130.827 106.312 130.948L105.524 135.643C105.5 135.776 105.53 135.913 105.607 136.024C105.684 136.135 105.802 136.212 105.935 136.237L109.656 136.956C109.726 136.969 109.798 136.969 109.867 136.954C109.937 136.938 110.002 136.909 110.06 136.868C110.118 136.826 110.166 136.773 110.202 136.712C110.238 136.651 110.262 136.583 110.27 136.513L110.901 131.606C110.917 131.471 110.881 131.336 110.798 131.228C110.716 131.12 110.595 131.048 110.46 131.028L106.907 130.518L106.823 130.515Z" fill="#262424"/>
<path d="M91.6053 193.773C68.9556 204.453 62.3694 179.856 68.6051 177.179C74.8408 174.503 84.2795 168.967 79.5392 158.589C74.799 148.21 71.7663 131.096 84.3245 124.225C96.8826 117.355 107.601 131.253 107.605 131.26C107.646 131.375 107.701 133.259 106.591 135.929C101.494 136.744 98.8733 141.041 101.925 151.131C105.173 161.907 114.258 183.094 91.6053 193.773Z" fill="#262424"/>
<path d="M216.335 243.431C214.492 245.357 205.327 244.253 205.327 244.253C205.327 244.253 201.59 245.357 199.94 244.895C198.29 244.432 196.081 241.913 196.081 241.913C196.081 241.913 150.473 247.85 148.25 238.062L136.628 215.371L157.532 204.328L165.501 223.981L197.731 231.259L199.232 230.884C200.693 230.493 202.194 230.278 203.706 230.242C206.044 230.196 208.347 230.81 210.35 232.015C212.352 233.221 213.972 234.966 215.023 237.052C216.344 239.603 217.348 242.375 216.335 243.431Z" fill="white"/>
<path d="M200.921 245.876C200.513 245.884 200.107 245.839 199.711 245.742C198.197 245.331 196.454 243.608 195.733 242.853C193.482 243.129 183.301 244.32 173.01 244.548C156.946 244.904 148.569 242.892 147.424 238.39L135.847 215.772C135.742 215.569 135.722 215.334 135.791 215.117C135.86 214.9 136.011 214.719 136.213 214.613L157.117 203.571C157.224 203.514 157.342 203.48 157.463 203.471C157.584 203.463 157.705 203.48 157.819 203.521C157.934 203.563 158.038 203.628 158.125 203.712C158.212 203.796 158.281 203.898 158.326 204.01L166.124 223.242L197.73 230.37L199.017 230.049C200.538 229.638 202.102 229.409 203.677 229.365C206.178 229.318 208.642 229.976 210.784 231.264C212.927 232.552 214.661 234.418 215.788 236.647C217.74 240.472 218.107 242.818 216.942 244.028C214.971 246.079 207.327 245.353 205.365 245.129C204.732 245.318 202.609 245.876 200.921 245.876ZM196.074 241.063C196.196 241.064 196.317 241.091 196.428 241.142C196.538 241.193 196.637 241.266 196.717 241.358C197.509 242.263 199.145 243.797 200.159 244.073C201.172 244.349 203.719 243.819 205.072 243.431C205.185 243.398 205.303 243.388 205.42 243.402C209.05 243.835 214.637 243.948 215.711 242.841C215.801 242.748 216.499 241.82 214.264 237.436C213.285 235.499 211.779 233.876 209.917 232.754C208.056 231.633 205.915 231.059 203.741 231.098C202.297 231.143 200.863 231.358 199.47 231.74L197.952 232.106C197.82 232.137 197.683 232.137 197.55 232.106L165.32 224.825C165.184 224.794 165.057 224.73 164.951 224.64C164.844 224.549 164.762 224.434 164.709 224.305L157.101 205.541L137.786 215.74L149.013 237.69C149.046 237.754 149.07 237.822 149.087 237.892C150.579 244.461 178.628 243.348 195.959 241.076L196.074 241.063Z" fill="#262424"/>
<path d="M147.112 170.276L161.529 205.342C157.532 218.307 149.746 224.404 135.284 218.439C135.284 218.439 126.527 194.492 126.961 180.625C127.395 166.759 141.677 164.323 147.112 170.276Z" fill="#EA3360"/>
<path d="M133.29 213.4C133.106 213.4 132.927 213.342 132.779 213.234C132.63 213.126 132.52 212.974 132.463 212.8C129.955 204.957 125.79 190.336 126.093 180.603C126.276 174.672 129.039 169.974 133.669 167.718C133.876 167.618 134.114 167.603 134.331 167.678C134.548 167.753 134.727 167.91 134.827 168.116C134.928 168.322 134.942 168.56 134.868 168.776C134.793 168.993 134.635 169.171 134.428 169.271C132.058 170.427 128.048 173.443 127.823 180.654C127.527 190.134 131.637 204.533 134.113 212.271C134.155 212.4 134.166 212.538 134.145 212.672C134.123 212.807 134.07 212.934 133.99 213.045C133.91 213.155 133.804 213.244 133.683 213.306C133.561 213.368 133.426 213.4 133.29 213.4Z" fill="#AA0B32"/>
<path d="M144.752 217.315C141.758 217.267 138.821 216.497 136.191 215.069C135.993 214.953 135.848 214.764 135.79 214.542C135.732 214.32 135.764 214.084 135.88 213.886C135.996 213.689 136.187 213.545 136.409 213.487C136.631 213.429 136.867 213.461 137.066 213.577C137.123 213.612 143.018 216.966 148.842 214.896C152.769 213.493 155.821 209.963 157.918 204.399C157.947 204.281 158.002 204.17 158.078 204.075C158.153 203.98 158.248 203.901 158.356 203.845C158.464 203.789 158.583 203.756 158.705 203.749C158.826 203.741 158.948 203.76 159.062 203.803C159.176 203.846 159.28 203.912 159.366 203.998C159.453 204.084 159.52 204.187 159.564 204.3C159.607 204.414 159.627 204.535 159.62 204.657C159.614 204.778 159.581 204.897 159.526 205.005C157.239 211.083 153.83 214.953 149.389 216.536C147.899 217.057 146.331 217.321 144.752 217.315Z" fill="#AA0B32"/>
<path d="M188.035 398.13C188.575 398.13 189.109 398.013 189.599 397.788C190.09 397.563 190.527 397.235 190.879 396.826C191.231 396.417 191.49 395.937 191.639 395.419C191.788 394.901 191.824 394.357 191.743 393.824L177.593 300.836H114.734L100.584 393.824C100.503 394.357 100.538 394.901 100.688 395.419C100.837 395.937 101.096 396.417 101.448 396.826C101.8 397.235 102.236 397.563 102.727 397.788C103.218 398.013 103.752 398.13 104.292 398.13C105.151 398.13 105.983 397.836 106.651 397.298C107.319 396.76 107.781 396.009 107.961 395.171L126.07 310.893H166.26L184.368 395.171C184.549 396.008 185.011 396.759 185.678 397.297C186.345 397.835 187.177 398.129 188.035 398.13Z" fill="#8661C1"/>
<path d="M176.094 357.545C175.896 357.544 175.704 357.476 175.55 357.352C175.396 357.227 175.29 357.054 175.248 356.861L172.412 343.656C172.388 343.544 172.386 343.43 172.407 343.318C172.427 343.206 172.47 343.1 172.531 343.004C172.593 342.909 172.673 342.827 172.767 342.762C172.861 342.698 172.966 342.652 173.077 342.629C173.189 342.605 173.303 342.603 173.415 342.624C173.527 342.644 173.634 342.686 173.73 342.748C173.825 342.81 173.908 342.89 173.972 342.983C174.037 343.077 174.083 343.182 174.106 343.293L176.943 356.498C176.97 356.625 176.968 356.755 176.938 356.881C176.907 357.006 176.85 357.123 176.768 357.223C176.687 357.324 176.584 357.405 176.467 357.46C176.351 357.516 176.223 357.545 176.094 357.545Z" fill="#523B78"/>
<path d="M145.295 398.13C145.835 398.13 146.369 398.013 146.86 397.788C147.351 397.563 147.787 397.235 148.139 396.826C148.491 396.417 148.751 395.937 148.9 395.419C149.049 394.901 149.084 394.357 149.003 393.824L134.853 300.836H71.9884L57.8383 393.824C57.7573 394.357 57.7926 394.901 57.9417 395.419C58.0908 395.937 58.3502 396.417 58.7022 396.826C59.0543 397.235 59.4906 397.563 59.9815 397.788C60.4723 398.013 61.0061 398.13 61.5463 398.13C62.4048 398.13 63.2373 397.836 63.9051 397.298C64.5728 396.76 65.0354 396.009 65.2156 395.171L83.3245 310.893H123.52L141.629 395.171C141.809 396.008 142.271 396.759 142.938 397.297C143.605 397.835 144.437 398.129 145.295 398.13Z" fill="#8661C1"/>
<path d="M136.207 310.544C136 310.544 135.799 310.47 135.642 310.335C135.485 310.2 135.382 310.013 135.351 309.809L134.007 300.968C133.973 300.741 134.03 300.51 134.166 300.325C134.302 300.14 134.507 300.017 134.734 299.982C134.961 299.948 135.193 300.005 135.378 300.141C135.563 300.277 135.687 300.481 135.721 300.708L137.065 309.549C137.083 309.661 137.078 309.776 137.051 309.886C137.023 309.997 136.975 310.101 136.907 310.192C136.84 310.284 136.755 310.361 136.657 310.42C136.56 310.478 136.451 310.517 136.339 310.534C136.295 310.541 136.251 310.544 136.207 310.544Z" fill="#523B78"/>
<path d="M124.318 315.489C124.12 315.488 123.928 315.42 123.774 315.296C123.62 315.172 123.514 314.999 123.472 314.805L122.829 311.76H114.76C114.53 311.76 114.31 311.669 114.147 311.507C113.985 311.345 113.893 311.125 113.893 310.895C113.893 310.666 113.985 310.446 114.147 310.284C114.31 310.121 114.53 310.03 114.76 310.03H123.514C123.712 310.03 123.904 310.098 124.058 310.223C124.212 310.347 124.318 310.52 124.359 310.714L125.16 314.443C125.187 314.569 125.185 314.699 125.155 314.824C125.126 314.948 125.068 315.065 124.988 315.165C124.907 315.266 124.805 315.347 124.689 315.402C124.573 315.458 124.446 315.488 124.318 315.489Z" fill="#523B78"/>
<path d="M70.6473 213.125H127.209C129.116 213.125 130.962 213.797 132.421 215.022C133.881 216.247 134.86 217.947 135.188 219.822L146.958 287.435C147.14 288.484 147.688 289.435 148.505 290.12C149.321 290.804 150.355 291.179 151.421 291.177H174.544C176.286 291.177 177.958 291.868 179.19 293.097C180.422 294.327 181.114 295.994 181.114 297.733C181.114 298.594 180.944 299.447 180.614 300.242C180.284 301.038 179.8 301.76 179.19 302.369C178.58 302.978 177.855 303.461 177.058 303.79C176.261 304.12 175.407 304.289 174.544 304.289H72.3292C70.4697 304.291 68.6662 303.654 67.2219 302.485C65.7777 301.317 64.7807 299.687 64.3988 297.871C61.6974 284.736 56.716 253.328 62.6622 219.771C62.9979 217.903 63.9823 216.213 65.4426 214.997C66.903 213.782 68.7457 213.119 70.6473 213.125Z" fill="white"/>
<path d="M174.537 305.152H72.3292C70.2706 305.145 68.2768 304.434 66.6799 303.137C65.0829 301.841 63.9793 300.038 63.5529 298.028C61.0188 285.798 55.7736 253.678 61.8228 219.616C62.1912 217.55 63.278 215.679 64.892 214.333C66.506 212.987 68.5439 212.253 70.6472 212.258H127.209C129.322 212.255 131.367 212.997 132.984 214.355C134.601 215.712 135.685 217.596 136.043 219.674L147.816 287.303C147.962 288.15 148.404 288.919 149.063 289.472C149.722 290.025 150.557 290.328 151.418 290.326H174.541C176.445 290.424 178.24 291.247 179.553 292.627C180.867 294.007 181.599 295.838 181.599 297.741C181.598 299.644 180.865 301.474 179.551 302.854C178.237 304.233 176.442 305.056 174.537 305.152ZM70.6633 213.988C68.9658 213.979 67.3196 214.569 66.0148 215.652C64.71 216.736 63.8303 218.244 63.5304 219.912C57.5167 253.688 62.7329 285.548 65.2349 297.678C65.5777 299.299 66.4671 300.753 67.7546 301.799C69.0422 302.844 70.65 303.417 72.3099 303.423H174.537C175.298 303.441 176.054 303.307 176.762 303.029C177.47 302.751 178.115 302.335 178.659 301.804C179.203 301.274 179.635 300.641 179.931 299.941C180.226 299.242 180.378 298.49 180.378 297.731C180.378 296.972 180.226 296.221 179.931 295.521C179.635 294.822 179.203 294.189 178.659 293.658C178.115 293.128 177.47 292.712 176.762 292.434C176.054 292.156 175.298 292.022 174.537 292.04H151.421C150.152 292.042 148.924 291.595 147.953 290.78C146.982 289.965 146.331 288.834 146.115 287.586L134.345 219.973C134.056 218.297 133.182 216.777 131.877 215.682C130.573 214.587 128.923 213.988 127.218 213.991H70.6472L70.6633 213.988Z" fill="#262424"/>
<path d="M341.17 349.271L345.196 366.026L354.41 365.359L353.072 346.967L341.17 349.271Z" fill="white"/>
<path d="M345.193 366.889C344.998 366.889 344.809 366.823 344.655 366.703C344.502 366.583 344.394 366.414 344.347 366.225L340.324 349.47C340.297 349.356 340.293 349.238 340.313 349.122C340.333 349.006 340.376 348.896 340.439 348.797C340.503 348.698 340.586 348.614 340.684 348.548C340.781 348.482 340.891 348.437 341.006 348.414L352.905 346.11C353.026 346.087 353.15 346.089 353.27 346.117C353.389 346.145 353.502 346.198 353.599 346.273C353.697 346.348 353.778 346.442 353.836 346.55C353.894 346.658 353.929 346.777 353.937 346.9L355.275 365.291C355.291 365.52 355.215 365.747 355.065 365.92C354.914 366.094 354.701 366.201 354.471 366.219L345.254 366.886H345.19L345.193 366.889ZM342.228 349.945L345.869 365.102L353.481 364.55L352.275 348L342.228 349.945Z" fill="#262424"/>
<path d="M360.877 398.13H319.511C319.117 396.088 318.995 394.002 319.147 391.927C319.382 389.167 320.289 386.225 322.843 384.822C324.618 383.806 326.272 382.591 327.773 381.202C332.362 377.059 337.382 370.484 341.151 362.095H357.397C359.148 371.962 360.265 381.931 360.742 391.94C360.829 393.988 360.877 396.064 360.877 398.13Z" fill="#F04B15"/>
<path d="M360.877 398.13H319.511C319.117 396.088 318.995 394.002 319.147 391.927H360.745C360.829 393.988 360.877 396.064 360.877 398.13Z" fill="white"/>
<path d="M360.877 399H319.511C319.312 399 319.119 398.932 318.964 398.807C318.81 398.682 318.703 398.507 318.662 398.313C318.248 396.186 318.12 394.014 318.282 391.853C318.301 391.636 318.4 391.435 318.561 391.288C318.722 391.141 318.933 391.06 319.151 391.061H360.745C360.969 391.061 361.184 391.148 361.346 391.303C361.508 391.457 361.604 391.668 361.614 391.892C361.7 394.032 361.745 396.131 361.745 398.13C361.746 398.244 361.724 398.357 361.68 398.463C361.637 398.568 361.573 398.664 361.492 398.745C361.412 398.826 361.316 398.89 361.21 398.934C361.105 398.977 360.991 399 360.877 399ZM320.238 397.264H360.006C360.006 395.817 359.964 394.321 359.909 392.797H319.964C319.914 394.291 320.006 395.787 320.241 397.264H320.238Z" fill="#262424"/>
<path d="M327.904 398.13H319.514C319.12 396.087 318.998 394.002 319.151 391.927C319.385 389.167 320.292 386.224 322.846 384.822C324.621 383.806 326.275 382.591 327.776 381.202C327.01 383.734 326.087 389.202 327.904 398.13Z" fill="white"/>
<path d="M327.904 399H319.514C319.315 399 319.122 398.932 318.968 398.807C318.813 398.682 318.706 398.508 318.665 398.313C318.251 396.187 318.123 394.014 318.286 391.853C318.607 388.07 320.038 385.377 322.428 384.062C324.145 383.078 325.744 381.902 327.194 380.557C327.335 380.431 327.513 380.354 327.702 380.338C327.891 380.322 328.08 380.368 328.24 380.469C328.401 380.57 328.524 380.72 328.591 380.897C328.658 381.074 328.665 381.268 328.612 381.449C327.901 383.84 326.972 389.151 328.76 397.957C328.786 398.084 328.784 398.214 328.753 398.34C328.722 398.465 328.664 398.582 328.582 398.682C328.5 398.782 328.396 398.863 328.279 398.918C328.162 398.973 328.034 399.001 327.904 399ZM320.241 397.264H326.85C325.685 390.987 325.885 386.456 326.367 383.519C325.389 384.286 324.352 384.976 323.267 385.583C321.386 386.619 320.292 388.792 320.019 392.001C319.889 393.758 319.964 395.524 320.241 397.264Z" fill="#262424"/>
<path d="M343.669 383.58C345.916 383.58 347.737 380.835 347.737 377.448C347.737 374.061 345.916 371.315 343.669 371.315C341.422 371.315 339.601 374.061 339.601 377.448C339.601 380.835 341.422 383.58 343.669 383.58Z" fill="white"/>
<path d="M343.669 384.45C340.9 384.45 338.729 381.375 338.729 377.447C338.729 373.519 340.9 370.448 343.669 370.448C346.438 370.448 348.609 373.523 348.609 377.447C348.609 381.372 346.438 384.45 343.669 384.45ZM343.669 372.184C341.936 372.184 340.469 374.594 340.469 377.447C340.469 380.3 341.936 382.714 343.669 382.714C345.402 382.714 346.869 380.303 346.869 377.447C346.869 374.591 345.402 372.184 343.669 372.184Z" fill="#AA3610"/>
<path d="M352.635 391.128C352.411 391.128 352.195 391.042 352.034 390.887C351.873 390.732 351.778 390.52 351.77 390.297C351.155 373.931 348.969 363.661 348.946 363.549C348.922 363.438 348.92 363.323 348.94 363.212C348.961 363.1 349.003 362.993 349.065 362.898C349.126 362.802 349.206 362.72 349.3 362.655C349.393 362.59 349.499 362.545 349.61 362.521C349.721 362.497 349.836 362.495 349.948 362.515C350.06 362.535 350.167 362.577 350.263 362.639C350.359 362.7 350.441 362.78 350.506 362.874C350.571 362.967 350.617 363.072 350.641 363.183C350.663 363.286 352.892 373.683 353.5 390.233C353.504 390.346 353.486 390.459 353.446 390.566C353.407 390.672 353.347 390.77 353.269 390.853C353.192 390.936 353.099 391.003 352.996 391.05C352.892 391.098 352.781 391.124 352.667 391.128H352.635Z" fill="#262424"/>
<path d="M357.719 391.128C357.495 391.128 357.28 391.042 357.119 390.887C356.957 390.732 356.863 390.52 356.854 390.297C356.24 373.931 354.053 363.661 354.031 363.549C353.982 363.325 354.025 363.09 354.149 362.898C354.274 362.705 354.47 362.569 354.695 362.521C354.919 362.472 355.154 362.515 355.348 362.639C355.541 362.763 355.677 362.959 355.725 363.183C355.748 363.286 357.977 373.683 358.584 390.233C358.589 390.346 358.571 390.459 358.531 390.566C358.491 390.672 358.431 390.77 358.354 390.853C358.277 390.936 358.183 391.003 358.08 391.05C357.977 391.098 357.865 391.124 357.751 391.128H357.719Z" fill="#262424"/>
<path d="M306.946 179.717C306.946 179.717 312.68 262.102 316.144 276.01C319.607 289.919 339.131 350.924 339.131 350.924L364.392 346.518L348.335 270.189C348.335 270.189 352.648 219.806 351.931 204.565C351.213 189.325 348.914 151.275 327.017 153.765C305.12 156.255 306.946 179.717 306.946 179.717Z" fill="#2961A9"/>
<path d="M327.991 189.184L341.019 187.702C341.54 187.642 342.064 187.792 342.474 188.117C342.885 188.443 343.149 188.918 343.209 189.438L344.544 201.126C344.589 201.527 344.511 201.933 344.318 202.288C344.125 202.643 343.828 202.931 343.466 203.112L337.231 206.238C336.808 206.449 336.323 206.503 335.864 206.389L329.065 204.697C328.675 204.6 328.323 204.386 328.058 204.084C327.792 203.781 327.625 203.405 327.58 203.006L326.252 191.367C326.193 190.847 326.343 190.326 326.669 189.916C326.995 189.507 327.471 189.244 327.991 189.184Z" fill="#123A6C"/>
<path d="M317.363 199.338C317.253 199.338 317.143 199.317 317.041 199.277L314.41 198.234C313.686 197.947 313.053 197.469 312.58 196.851C312.106 196.234 311.81 195.499 311.722 194.726L310.333 182.567C310.307 182.339 310.372 182.111 310.515 181.931C310.658 181.752 310.867 181.637 311.095 181.611C311.323 181.585 311.552 181.65 311.732 181.793C311.912 181.935 312.027 182.143 312.053 182.371L313.443 194.53C313.495 194.993 313.672 195.432 313.955 195.802C314.238 196.172 314.617 196.458 315.051 196.629L317.681 197.672C317.868 197.746 318.023 197.883 318.12 198.059C318.217 198.235 318.249 198.439 318.212 198.636C318.174 198.833 318.068 199.011 317.914 199.139C317.759 199.267 317.564 199.338 317.363 199.338Z" fill="#262424"/>
<path d="M344.634 344.804C344.445 344.805 344.262 344.744 344.112 344.631C343.962 344.518 343.852 344.359 343.801 344.179L322.965 272.198C322.949 272.145 322.938 272.09 322.933 272.034L315.037 182.009C315.017 181.78 315.089 181.553 315.237 181.377C315.385 181.202 315.596 181.092 315.825 181.072C316.054 181.052 316.282 181.123 316.458 181.271C316.634 181.418 316.744 181.629 316.764 181.858L324.653 271.8L345.466 343.684C345.506 343.814 345.515 343.951 345.492 344.085C345.469 344.219 345.414 344.345 345.333 344.454C345.252 344.563 345.147 344.652 345.025 344.713C344.904 344.773 344.77 344.805 344.634 344.804Z" fill="#123A6C"/>
<path d="M340.585 345.607C340.366 345.612 340.154 345.534 339.991 345.39C339.828 345.245 339.725 345.044 339.704 344.827C339.683 344.61 339.744 344.394 339.877 344.22C340.009 344.047 340.202 343.93 340.417 343.893L360.552 339.901C360.778 339.856 361.012 339.903 361.203 340.03C361.394 340.158 361.527 340.356 361.572 340.581C361.617 340.806 361.57 341.04 361.442 341.231C361.314 341.422 361.116 341.554 360.89 341.598L340.755 345.591C340.699 345.602 340.642 345.607 340.585 345.607Z" fill="#123A6C"/>
<path d="M290.909 348.816L293.707 365.818H302.946V347.378L290.909 348.816Z" fill="white"/>
<path d="M302.946 366.687H293.706C293.5 366.688 293.3 366.615 293.142 366.481C292.985 366.348 292.881 366.162 292.848 365.959L290.05 348.951C290.031 348.835 290.035 348.717 290.063 348.603C290.092 348.489 290.142 348.382 290.213 348.289C290.284 348.195 290.373 348.117 290.474 348.058C290.576 348 290.689 347.963 290.806 347.949L302.843 346.512C302.964 346.498 303.087 346.51 303.204 346.548C303.32 346.585 303.428 346.646 303.519 346.728C303.61 346.809 303.683 346.909 303.733 347.021C303.782 347.132 303.808 347.253 303.808 347.375V365.815C303.808 365.928 303.787 366.041 303.744 366.147C303.701 366.252 303.638 366.348 303.558 366.429C303.478 366.51 303.383 366.575 303.277 366.619C303.172 366.663 303.06 366.687 302.946 366.687ZM294.446 364.951H302.077V348.357L291.915 349.57L294.446 364.951Z" fill="#262424"/>
<path d="M310.066 398.13H268.699C268.305 396.088 268.183 394.002 268.336 391.927C268.571 389.167 269.478 386.225 272.031 384.822C273.806 383.806 275.46 382.591 276.961 381.202C281.55 377.059 286.57 370.484 290.339 362.095H306.586C308.336 371.962 309.453 381.931 309.931 391.94C310.017 393.988 310.066 396.064 310.066 398.13Z" fill="#F04B15"/>
<path d="M310.066 398.13H268.699C268.305 396.088 268.183 394.002 268.336 391.927H309.934C310.017 393.988 310.066 396.064 310.066 398.13Z" fill="white"/>
<path d="M310.066 399H268.699C268.5 399 268.308 398.932 268.153 398.807C267.998 398.682 267.892 398.507 267.85 398.313C267.436 396.186 267.309 394.014 267.471 391.853C267.489 391.636 267.589 391.435 267.75 391.288C267.911 391.141 268.121 391.06 268.339 391.061H309.934C310.158 391.061 310.373 391.148 310.535 391.303C310.697 391.457 310.792 391.668 310.802 391.892C310.889 394.032 310.934 396.131 310.934 398.13C310.934 398.244 310.912 398.357 310.869 398.463C310.825 398.568 310.762 398.664 310.681 398.745C310.6 398.826 310.504 398.89 310.399 398.934C310.293 398.977 310.18 399 310.066 399ZM269.426 397.264H309.191C309.191 395.817 309.149 394.321 309.095 392.797H269.153C269.101 394.291 269.193 395.787 269.426 397.264Z" fill="#262424"/>
<path d="M277.09 398.13H268.699C268.305 396.087 268.183 394.002 268.336 391.927C268.571 389.167 269.478 386.224 272.031 384.822C273.807 383.806 275.46 382.591 276.961 381.202C276.199 383.734 275.276 389.202 277.09 398.13Z" fill="white"/>
<path d="M277.09 399H268.696C268.497 399 268.304 398.932 268.15 398.807C267.995 398.682 267.888 398.508 267.847 398.313C267.433 396.186 267.306 394.014 267.468 391.853C267.789 388.07 269.22 385.377 271.61 384.062C273.327 383.078 274.926 381.902 276.376 380.557C276.517 380.431 276.695 380.354 276.884 380.338C277.073 380.322 277.262 380.368 277.423 380.469C277.583 380.57 277.706 380.72 277.773 380.897C277.84 381.074 277.847 381.268 277.794 381.449C277.083 383.843 276.157 389.167 277.942 397.957C277.968 398.083 277.966 398.214 277.935 398.339C277.905 398.464 277.846 398.581 277.765 398.681C277.683 398.781 277.58 398.862 277.463 398.917C277.347 398.972 277.219 399 277.09 399ZM269.426 397.264H276.035C274.871 390.987 275.07 386.456 275.553 383.519C274.574 384.286 273.538 384.976 272.452 385.583C270.571 386.619 269.478 388.792 269.204 392.001C269.076 393.758 269.151 395.524 269.429 397.264H269.426Z" fill="#262424"/>
<path d="M292.857 383.58C295.104 383.58 296.926 380.835 296.926 377.448C296.926 374.061 295.104 371.315 292.857 371.315C290.611 371.315 288.789 374.061 288.789 377.448C288.789 380.835 290.611 383.58 292.857 383.58Z" fill="white"/>
<path d="M292.857 384.45C290.089 384.45 287.918 381.375 287.918 377.447C287.918 373.519 290.089 370.448 292.857 370.448C295.626 370.448 297.797 373.523 297.797 377.447C297.797 381.372 295.626 384.45 292.857 384.45ZM292.857 372.184C291.124 372.184 289.658 374.594 289.658 377.447C289.658 380.3 291.124 382.714 292.857 382.714C294.591 382.714 296.057 380.303 296.057 377.447C296.057 374.591 294.591 372.184 292.857 372.184Z" fill="#AA3610"/>
<path d="M301.82 391.128C301.596 391.128 301.381 391.042 301.219 390.887C301.058 390.732 300.963 390.52 300.955 390.297C300.341 373.898 298.154 363.661 298.135 363.549C298.111 363.438 298.109 363.323 298.129 363.212C298.149 363.1 298.192 362.993 298.253 362.898C298.315 362.802 298.395 362.72 298.488 362.655C298.582 362.59 298.687 362.545 298.799 362.521C298.91 362.497 299.025 362.495 299.137 362.515C299.249 362.535 299.356 362.577 299.452 362.639C299.547 362.7 299.63 362.78 299.695 362.874C299.76 362.967 299.805 363.072 299.829 363.183C299.852 363.286 302.08 373.683 302.688 390.233C302.693 390.346 302.674 390.459 302.635 390.566C302.595 390.672 302.535 390.77 302.458 390.853C302.38 390.936 302.287 391.003 302.184 391.05C302.081 391.098 301.969 391.124 301.855 391.128H301.823H301.82Z" fill="#262424"/>
<path d="M306.908 391.128C306.684 391.128 306.468 391.042 306.307 390.887C306.146 390.732 306.051 390.52 306.043 390.297C305.428 373.898 303.242 363.661 303.222 363.549C303.198 363.438 303.196 363.323 303.217 363.212C303.237 363.1 303.279 362.993 303.341 362.898C303.402 362.802 303.482 362.72 303.576 362.655C303.67 362.59 303.775 362.545 303.886 362.521C303.998 362.497 304.113 362.495 304.225 362.515C304.337 362.535 304.443 362.577 304.539 362.639C304.635 362.7 304.718 362.78 304.782 362.874C304.847 362.967 304.893 363.072 304.917 363.183C304.94 363.286 307.168 373.683 307.776 390.233C307.78 390.346 307.762 390.459 307.723 390.566C307.683 390.672 307.623 390.77 307.546 390.853C307.468 390.936 307.375 391.003 307.272 391.05C307.168 391.098 307.057 391.124 306.943 391.128H306.911H306.908Z" fill="#262424"/>
<path d="M275.649 177.019C275.649 177.019 271.992 259.519 273.858 273.732C275.723 287.945 288.194 350.751 288.194 350.751L313.793 349.23L306.502 271.569C306.502 271.569 316.504 222.001 317.523 206.774C318.543 191.546 320.575 153.483 298.549 153.483C276.524 153.483 275.649 177.019 275.649 177.019Z" fill="#2961A9"/>
<path d="M313.249 236.804C313.199 236.809 313.149 236.809 313.098 236.804C312.986 236.785 312.879 236.744 312.783 236.683C312.686 236.622 312.603 236.543 312.538 236.45C312.472 236.357 312.426 236.252 312.401 236.141C312.377 236.03 312.374 235.915 312.394 235.803C314.877 221.715 316.311 211.94 316.658 206.748C317.337 196.578 319.141 169.567 309.094 158.848C306.316 155.883 302.762 154.381 298.537 154.381C298.307 154.381 298.086 154.29 297.924 154.128C297.761 153.966 297.67 153.746 297.67 153.516C297.67 153.287 297.761 153.067 297.924 152.905C298.086 152.742 298.307 152.651 298.537 152.651C303.261 152.651 307.239 154.339 310.362 157.667C320.923 168.934 319.083 196.498 318.401 206.863C318.051 212.116 316.607 221.946 314.115 236.101C314.076 236.301 313.968 236.481 313.81 236.61C313.652 236.738 313.453 236.807 313.249 236.804Z" fill="#123A6C"/>
<path d="M295.495 188.806H308.606C309.13 188.806 309.633 189.014 310.004 189.384C310.375 189.754 310.584 190.256 310.584 190.779V202.541C310.584 202.943 310.461 203.337 310.231 203.668C310.001 203.999 309.675 204.252 309.297 204.392L302.75 206.796C302.306 206.96 301.817 206.96 301.373 206.796L294.813 204.347C294.435 204.207 294.11 203.954 293.88 203.624C293.65 203.294 293.527 202.901 293.526 202.499V190.786C293.525 190.263 293.731 189.761 294.1 189.389C294.469 189.018 294.971 188.808 295.495 188.806Z" fill="#123A6C"/>
<path d="M283.859 197.698C283.717 197.698 283.576 197.663 283.451 197.595L280.958 196.26C280.271 195.893 279.696 195.347 279.296 194.68C278.895 194.012 278.684 193.248 278.685 192.47V180.234C278.685 180.005 278.776 179.785 278.939 179.622C279.101 179.46 279.322 179.369 279.552 179.369C279.781 179.369 280.002 179.46 280.164 179.622C280.327 179.785 280.418 180.005 280.418 180.234V192.474C280.418 192.939 280.544 193.395 280.784 193.794C281.024 194.193 281.367 194.52 281.779 194.739L284.271 196.074C284.441 196.165 284.575 196.31 284.653 196.487C284.731 196.663 284.748 196.86 284.7 197.047C284.653 197.233 284.544 197.399 284.392 197.517C284.24 197.635 284.052 197.699 283.859 197.698Z" fill="#123A6C"/>
<path d="M294.453 345.308C294.248 345.308 294.05 345.235 293.894 345.103C293.738 344.971 293.634 344.788 293.6 344.586L281.058 270.715C281.053 270.66 281.053 270.604 281.058 270.549L283.432 180.209C283.433 180.095 283.458 179.983 283.503 179.878C283.549 179.774 283.615 179.68 283.698 179.602C283.781 179.523 283.878 179.462 283.985 179.422C284.092 179.382 284.205 179.364 284.319 179.368C284.433 179.371 284.545 179.396 284.649 179.442C284.752 179.488 284.846 179.554 284.924 179.636C285.003 179.719 285.064 179.816 285.105 179.921C285.145 180.027 285.165 180.14 285.162 180.254L282.792 270.51L295.308 344.297C295.327 344.41 295.324 344.524 295.299 344.635C295.274 344.746 295.227 344.851 295.161 344.944C295.095 345.037 295.011 345.116 294.914 345.176C294.817 345.236 294.71 345.277 294.597 345.296C294.549 345.304 294.501 345.308 294.453 345.308Z" fill="#123A6C"/>
<path d="M290.349 345.648C290.12 345.658 289.896 345.576 289.727 345.42C289.558 345.265 289.458 345.049 289.448 344.82C289.439 344.591 289.521 344.368 289.677 344.2C289.832 344.031 290.049 343.931 290.278 343.922L310.735 342.231C310.964 342.211 311.191 342.284 311.366 342.432C311.542 342.58 311.651 342.791 311.67 343.02C311.69 343.249 311.617 343.475 311.469 343.65C311.32 343.826 311.108 343.935 310.879 343.954L290.423 345.645H290.349V345.648Z" fill="#123A6C"/>
<path d="M328.461 150.203L324.476 152.742C324.476 152.742 317.61 151.811 315.745 152.234C313.88 152.658 307.184 156.727 307.184 158.832C307.184 160.938 314.05 157.549 314.05 157.549C314.05 157.549 308.358 160.864 307.692 161.185C307.027 161.506 304.216 161.185 302.605 161.692C300.994 162.199 305.74 171.842 307.776 173.196C309.812 174.551 318.797 172.943 321.083 172.349C323.37 171.756 332.188 161.268 332.526 161.098C332.863 160.928 338.375 157.039 338.375 157.039L328.461 150.203Z" fill="white"/>
<path d="M310.931 174.592C309.362 174.592 308.037 174.413 307.303 173.931C305.3 172.599 301.087 164.564 301.444 162.057C301.463 161.794 301.559 161.542 301.721 161.333C301.883 161.124 302.103 160.967 302.354 160.883C303.354 160.562 304.637 160.543 305.769 160.52C306.292 160.531 306.815 160.497 307.332 160.418L307.535 160.309C307.351 160.271 307.175 160.203 307.014 160.106C306.796 159.972 306.617 159.783 306.496 159.557C306.375 159.332 306.317 159.078 306.326 158.823C306.326 155.934 313.809 151.779 315.562 151.381C317.315 150.983 322.791 151.637 324.287 151.833L328.004 149.465C328.149 149.372 328.318 149.324 328.49 149.328C328.661 149.331 328.828 149.386 328.969 149.484L338.887 156.336C339.001 156.415 339.094 156.521 339.159 156.644C339.223 156.767 339.257 156.904 339.257 157.043C339.257 157.182 339.223 157.319 339.159 157.442C339.094 157.565 339.001 157.671 338.887 157.751C336.957 159.112 333.77 161.355 333.047 161.807C332.867 161.984 332.259 162.664 331.616 163.383C326.47 169.124 322.958 172.766 321.325 173.193C320.283 173.466 314.861 174.592 310.931 174.592ZM303.132 162.468C303.1 164.153 306.532 171.354 308.258 172.5C309.78 173.514 317.864 172.314 320.868 171.537C322.338 171.155 328.342 164.452 330.313 162.247C331.85 160.53 331.921 160.459 332.14 160.35C332.413 160.19 334.877 158.47 336.864 157.071L328.442 151.236L324.943 153.483C324.77 153.593 324.564 153.638 324.361 153.611C321.662 153.245 317.196 152.806 315.938 153.091C314.092 153.508 308.48 157.176 308.075 158.685C308.886 158.762 311.362 157.937 313.668 156.801C313.87 156.692 314.107 156.668 314.327 156.734C314.547 156.8 314.731 156.951 314.84 157.152C314.949 157.354 314.973 157.591 314.907 157.81C314.841 158.029 314.69 158.214 314.488 158.322C313.902 158.662 308.763 161.644 308.082 161.987C307.622 162.215 306.946 162.24 305.795 162.263C304.903 162.249 304.012 162.318 303.132 162.468ZM332.995 161.852L332.915 161.897L332.995 161.852Z" fill="#262424"/>
<path d="M336.05 74.0923C336.05 74.0923 344.142 76.6949 349.908 89.0468C355.674 101.399 364.656 127.45 364.997 139.462C365.338 151.474 343.219 161.117 336.054 163.823C336.054 163.823 325.795 160.1 326.136 149.106L343.823 133.204C343.823 133.204 331.448 110.195 327.039 96.492C322.63 82.789 336.05 74.0923 336.05 74.0923Z" fill="#F59C0C"/>
<path d="M337.53 161.473C337.367 161.474 337.208 161.428 337.07 161.342C328.065 155.7 328.834 148.541 328.872 148.239C328.886 148.126 328.922 148.017 328.978 147.918C329.034 147.819 329.109 147.733 329.198 147.663C329.288 147.592 329.39 147.541 329.5 147.51C329.61 147.48 329.724 147.471 329.837 147.485C329.95 147.499 330.059 147.534 330.158 147.59C330.258 147.646 330.345 147.721 330.415 147.81C330.485 147.899 330.537 148.002 330.567 148.111C330.598 148.221 330.607 148.335 330.593 148.448C330.564 148.711 329.966 154.866 337.99 159.878C338.149 159.978 338.271 160.126 338.338 160.301C338.406 160.477 338.414 160.669 338.362 160.849C338.31 161.029 338.201 161.187 338.05 161.3C337.9 161.413 337.717 161.474 337.53 161.473Z" fill="#262424"/>
<path d="M305.669 58.557C305.669 58.557 300.781 65.5722 293.568 65.5722C286.355 65.5722 280.978 35.9937 293.812 33.4809C306.647 30.9682 314.838 45.5665 305.669 58.557Z" fill="white"/>
<path d="M293.565 66.4355C289.198 66.4355 286.075 58.4994 285.351 51.0317C284.579 43.0731 286.355 34.0619 293.645 32.6402C299.514 31.4978 304.872 33.6768 307.985 38.468C310.979 43.0763 312.127 50.9034 306.377 59.0513C306.149 59.3819 301.129 66.4355 293.565 66.4355ZM296.646 34.0747C295.748 34.0764 294.853 34.1645 293.973 34.3379C287.821 35.5349 286.374 43.6604 287.072 50.8649C287.786 58.2458 290.818 64.7058 293.562 64.7058C300.225 64.7058 304.907 58.1271 304.952 58.0629C310.207 50.6177 309.207 43.548 306.522 39.4147C305.47 37.7571 304.011 36.396 302.282 35.4612C300.554 34.5264 298.615 34.0491 296.649 34.0747H296.646Z" fill="#262424"/>
<path d="M312.729 74.7789L310.436 60.1421L300.617 62.8153L300.9 74.7789H312.729Z" fill="white"/>
<path d="M312.728 75.6455H300.903C300.677 75.6456 300.46 75.5573 300.299 75.3995C300.137 75.2418 300.043 75.0271 300.038 74.8015L299.752 62.8379C299.748 62.6442 299.809 62.4547 299.926 62.2999C300.042 62.1451 300.208 62.0339 300.395 61.9843L310.217 59.3111C310.334 59.2789 310.457 59.2718 310.578 59.2904C310.698 59.3089 310.813 59.3527 310.916 59.4187C311.018 59.4848 311.105 59.5716 311.171 59.6736C311.238 59.7757 311.282 59.8905 311.301 60.0107L313.594 74.6475C313.613 74.7716 313.605 74.8985 313.571 75.0193C313.536 75.1402 313.476 75.252 313.393 75.3471C313.311 75.4421 313.209 75.518 313.094 75.5696C312.979 75.6212 312.854 75.6471 312.728 75.6455ZM301.749 73.9158H311.719L309.731 61.2301L301.498 63.4765L301.749 73.9158Z" fill="#262424"/>
<path d="M290.387 50.627C290.387 50.627 291.732 44.7126 295.887 46.1759C300.042 47.6393 299.797 54.2886 296.803 56.1788L300.611 62.8152H310.85C310.85 62.8152 319.112 51.7855 320.09 44.8441C321.067 37.9028 314.346 37.3412 314.346 37.3412C314.346 37.3412 313.124 31.3658 308.236 30.3261C303.348 29.2863 289.905 32.0943 289.905 32.0943C289.905 32.0943 287.294 27.9481 285.081 27.993C282.869 28.038 282.927 32.6142 282.927 32.6142C282.927 32.6142 280.032 28.8627 278.251 30.0084C276.469 31.154 279.489 46.5674 288.519 43.7306C288.525 43.7306 287.303 50.0333 290.387 50.627Z" fill="#785113"/>
<path d="M319.656 73.1198C319.656 73.1198 317.202 66.7979 307.699 66.7979C298.196 66.7979 294.871 74.7789 294.871 74.7789H319.659V73.1198H319.656Z" fill="white"/>
<path d="M319.656 75.6454H294.867C294.724 75.6459 294.584 75.6111 294.458 75.5441C294.332 75.4771 294.224 75.38 294.145 75.2614C294.066 75.1429 294.017 75.0066 294.003 74.8647C293.99 74.7229 294.011 74.5798 294.067 74.4484C294.102 74.3617 297.729 65.9346 307.696 65.9346C317.662 65.9346 320.354 72.5293 320.463 72.8085C320.502 72.9109 320.522 73.0198 320.521 73.1294V74.7885C320.519 75.0164 320.427 75.2343 320.265 75.3948C320.103 75.5553 319.884 75.6454 319.656 75.6454ZM296.308 73.9157H318.791V73.2995C318.376 72.4042 315.79 67.6643 307.699 67.6643C301.01 67.6611 297.607 71.8041 296.308 73.9157Z" fill="#262424"/>
<path d="M271.848 180.937C275.814 182.307 279.873 183.395 283.994 184.191V173.739C284.053 173.016 284.383 172.342 284.918 171.85C285.452 171.359 286.152 171.086 286.879 171.086C287.606 171.086 288.306 171.359 288.84 171.85C289.375 172.342 289.704 173.016 289.764 173.739V185.144C326.454 190.166 352.731 178.315 352.731 178.315C346.177 109.29 336.05 74.0921 336.05 74.0921C302.325 68.351 276.839 75.9053 276.839 75.9053C271.848 96.6587 271.848 180.937 271.848 180.937Z" fill="#F59C0C"/>
<path d="M350.165 155.27C349.953 155.27 349.748 155.192 349.59 155.052C349.432 154.911 349.331 154.717 349.306 154.507C344.283 112.307 338.372 86.6497 336.066 77.5807C336.01 77.3585 336.044 77.123 336.161 76.9259C336.278 76.7288 336.469 76.5863 336.692 76.5297C336.914 76.4731 337.15 76.5071 337.348 76.6241C337.545 76.7412 337.688 76.9317 337.745 77.1539C340.061 86.2582 345.987 111.999 351.024 154.301C351.037 154.414 351.029 154.529 350.998 154.639C350.967 154.748 350.915 154.851 350.845 154.94C350.774 155.03 350.687 155.104 350.587 155.16C350.487 155.215 350.378 155.251 350.265 155.264L350.165 155.27Z" fill="#905921"/>
<path d="M308.384 182.628C303.228 182.629 298.075 182.357 292.947 181.813C292.719 181.789 292.509 181.675 292.365 181.497C292.22 181.318 292.153 181.09 292.177 180.862C292.202 180.634 292.316 180.424 292.494 180.28C292.673 180.136 292.902 180.069 293.131 180.093C306.618 181.528 327.284 181.749 349.123 174.673C349.342 174.602 349.58 174.621 349.784 174.726C349.989 174.83 350.144 175.011 350.215 175.23C350.286 175.448 350.267 175.685 350.162 175.89C350.057 176.094 349.876 176.248 349.657 176.319C334.729 181.155 320.353 182.628 308.384 182.628Z" fill="#905921"/>
<path d="M279.897 179.769C279.837 179.769 279.776 179.762 279.717 179.749C276.501 179.072 274.716 178.546 274.642 178.524C274.422 178.458 274.237 178.308 274.128 178.106C274.019 177.905 273.995 177.668 274.06 177.448C274.126 177.229 274.276 177.044 274.478 176.935C274.681 176.826 274.918 176.802 275.138 176.868C275.154 176.868 276.939 177.397 280.077 178.058C280.29 178.099 280.479 178.219 280.607 178.392C280.736 178.566 280.795 178.781 280.772 178.996C280.75 179.21 280.647 179.409 280.485 179.552C280.323 179.695 280.114 179.772 279.897 179.769Z" fill="#905921"/>
<path d="M228.944 117.89L220.637 113.237C220.637 113.237 219.029 98.6036 217.926 96.4888C217.077 94.8618 209.314 89.5539 206.237 87.5257C206.039 87.3955 205.817 87.3057 205.585 87.2615C205.352 87.2173 205.113 87.2196 204.881 87.2683C204.649 87.3169 204.429 87.4109 204.234 87.5449C204.039 87.6789 203.873 87.8502 203.744 88.0488C203.536 88.3709 203.437 88.7513 203.462 89.1338C203.487 89.5163 203.634 89.8808 203.883 90.1733L209.195 95.9818L202.664 93.0422C202.089 92.7828 201.438 92.7509 200.841 92.9529C200.243 93.1548 199.746 93.5756 199.448 94.1301L195.521 101.424C195.227 101.971 195.149 102.607 195.302 103.209C195.455 103.81 195.828 104.332 196.348 104.672L205.294 110.532C205.294 110.532 205.124 119.752 207.33 120.852C209.536 121.953 216.978 123.051 216.978 123.051L225.793 130.916L228.944 117.89Z" fill="white"/>
<path d="M225.805 131.783C225.592 131.783 225.385 131.704 225.227 131.561L216.605 123.859C215.238 123.651 209.025 122.659 206.938 121.613C204.593 120.442 204.397 113.699 204.42 110.984L195.869 105.385C195.165 104.928 194.659 104.224 194.453 103.412C194.247 102.6 194.355 101.74 194.756 101.004L198.695 93.7226C199.098 92.9776 199.769 92.4124 200.573 92.1403C201.376 91.8683 202.253 91.9096 203.027 92.256L205.735 93.4755L203.249 90.7573C202.827 90.2736 202.596 89.6537 202.597 89.0126C202.598 88.3714 202.832 87.7524 203.255 87.2702C203.679 86.788 204.263 86.4754 204.9 86.3902C205.537 86.305 206.183 86.4531 206.719 86.8069C209.269 88.4885 217.676 94.1237 218.701 96.0909C219.769 98.1415 221.146 109.932 221.458 112.701L229.378 117.136C229.544 117.229 229.675 117.373 229.751 117.547C229.826 117.721 229.842 117.915 229.796 118.099L226.661 131.125C226.614 131.315 226.504 131.484 226.349 131.603C226.193 131.723 226.002 131.786 225.805 131.783ZM201.641 93.6905C201.348 93.6901 201.06 93.7689 200.808 93.9187C200.556 94.0684 200.349 94.2834 200.21 94.5409L196.283 101.835C196.089 102.19 196.037 102.606 196.136 102.998C196.236 103.39 196.48 103.73 196.82 103.95L205.77 109.81C205.893 109.89 205.993 110 206.062 110.129C206.13 110.258 206.165 110.402 206.163 110.548C206.085 114.739 206.693 119.569 207.719 120.079C209.427 120.93 215.084 121.895 217.122 122.197C217.29 122.222 217.447 122.296 217.573 122.409L225.307 129.312L227.96 118.327L220.226 113.995C220.105 113.927 220.003 113.832 219.927 113.717C219.851 113.602 219.803 113.471 219.788 113.334C219.171 107.737 217.917 98.3245 217.167 96.89C216.585 95.77 210.858 91.6046 205.767 88.251C205.582 88.1267 205.358 88.0736 205.136 88.1016C204.915 88.1296 204.711 88.2368 204.562 88.4032C204.414 88.5697 204.331 88.7842 204.329 89.007C204.327 89.2298 204.406 89.4458 204.551 89.6149L209.842 95.3913C209.978 95.5379 210.058 95.727 210.07 95.9264C210.082 96.1258 210.024 96.3231 209.907 96.4847C209.789 96.6463 209.619 96.7622 209.425 96.8127C209.232 96.8632 209.026 96.8452 208.845 96.7616L202.313 93.8221C202.102 93.731 201.874 93.6861 201.644 93.6905H201.641Z" fill="#262424"/>
<path d="M289.214 107.037C284.203 118.59 274.79 136.882 266.172 147.026C262.358 151.519 258.698 154.407 255.646 154.407C252.7 154.407 248.288 152.456 243.541 149.702C232.286 143.181 219.139 132.187 219.139 132.187C218.435 122.794 220.638 116.308 228.07 115.044L249.317 124.405C249.317 124.405 267.606 79.031 276.842 75.9085C291.246 73.5947 296.459 90.3431 289.214 107.037Z" fill="#F59C0C"/>
<path d="M274.556 136.083C274.401 136.083 274.249 136.042 274.116 135.964C273.983 135.886 273.873 135.774 273.798 135.64C273.723 135.505 273.685 135.353 273.689 135.199C273.693 135.045 273.738 134.895 273.819 134.764C279.326 125.753 284.205 116.374 288.419 106.694C292.079 98.2441 292.6 89.2746 289.764 83.2863C288.233 80.0548 285.818 77.8822 282.775 77.0061C282.554 76.9427 282.368 76.7943 282.257 76.5936C282.145 76.3929 282.119 76.1563 282.182 75.9358C282.246 75.7154 282.394 75.5292 282.595 75.4181C282.797 75.3071 283.034 75.2804 283.255 75.3438C286.792 76.3611 289.584 78.8513 291.33 82.545C294.414 89.066 293.922 98.3468 290.011 107.377C285.764 117.134 280.848 126.587 275.298 135.669C275.221 135.796 275.112 135.901 274.981 135.973C274.851 136.046 274.705 136.084 274.556 136.083Z" fill="#905921"/>
<path d="M266.168 147.026C262.354 151.519 258.695 154.407 255.643 154.407C252.697 154.407 248.285 152.456 243.538 149.703C244.275 144.276 249.227 140.075 255.222 140.075C260.193 140.082 264.438 142.957 266.168 147.026Z" fill="white"/>
<path d="M223.136 133.166C222.925 133.166 222.721 133.089 222.562 132.948C222.404 132.808 222.303 132.615 222.278 132.405C222.217 131.902 220.876 120.015 229.06 117.053C229.276 116.975 229.514 116.985 229.722 117.082C229.93 117.179 230.091 117.354 230.17 117.57C230.248 117.785 230.238 118.023 230.14 118.23C230.043 118.438 229.868 118.599 229.652 118.677C222.763 121.17 223.985 132.088 224.001 132.197C224.029 132.424 223.964 132.654 223.823 132.834C223.681 133.014 223.474 133.131 223.246 133.16L223.136 133.166Z" fill="#905921"/>
<path d="M23.949 279.383C20.7727 279.383 17.7266 280.642 15.4806 282.884C13.2347 285.125 11.9729 288.165 11.9729 291.334C11.9729 288.165 10.7111 285.125 8.46519 282.884C6.21924 280.642 3.17308 279.383 -0.00317383 279.383C3.17308 279.383 6.21924 278.124 8.46519 275.883C10.7111 273.642 11.9729 270.602 11.9729 267.433C11.9729 270.602 13.2347 273.642 15.4806 275.883C17.7266 278.124 20.7727 279.383 23.949 279.383Z" fill="#2961A9"/>
<path d="M282.952 8.43016C280.711 8.43101 278.562 9.31982 276.977 10.9012C275.392 12.4827 274.502 14.6273 274.501 16.8637C274.5 15.7553 274.281 14.6577 273.855 13.6339C273.43 12.61 272.806 11.6799 272.02 10.8967C271.234 10.1135 270.301 9.49252 269.274 9.0693C268.248 8.64608 267.147 8.42889 266.037 8.43016C268.278 8.42931 270.427 7.5405 272.012 5.95908C273.597 4.37767 274.487 2.23305 274.488 -0.00341797C274.488 1.10506 274.708 2.20258 275.133 3.22644C275.559 4.25029 276.183 5.18041 276.969 5.96362C277.755 6.74684 278.688 7.3678 279.715 7.79102C280.741 8.21424 281.842 8.43142 282.952 8.43016Z" fill="#F59C0C"/>
<path d="M23.9458 223.037C25.7699 223.037 27.2486 221.562 27.2486 219.742C27.2486 217.921 25.7699 216.446 23.9458 216.446C22.1218 216.446 20.6431 217.921 20.6431 219.742C20.6431 221.562 22.1218 223.037 23.9458 223.037Z" fill="#F59C0C"/>
</g>
<defs>
<clipPath id="clip0_450_4634">
<rect width="365" height="399" fill="white"/>
</clipPath>
</defs>
</svg>
