<svg width="300" height="300" viewBox="0 0 300 300" fill="none" xmlns="http://www.w3.org/2000/svg">
<path d="M80.9214 190.901C69.5833 190.901 60.3589 181.676 60.3589 170.338V66.7068C60.3589 55.3684 69.5833 46.144 80.9214 46.144H219.078C230.417 46.144 239.641 55.3684 239.641 66.7068V170.338C239.641 181.676 230.417 190.901 219.078 190.901H80.9214Z" fill="white" stroke="#523B78" stroke-width="2" stroke-miterlimit="10" stroke-linecap="round" stroke-linejoin="round"/>
<path d="M117.394 66.0644H78.6609C76.5611 66.0644 74.8589 64.3622 74.8589 62.2624V62.2624C74.8589 60.1627 76.5611 58.4604 78.6609 58.4604H117.394C119.493 58.4604 121.196 60.1627 121.196 62.2624V62.2624C121.196 64.3622 119.493 66.0644 117.394 66.0644Z" fill="#2961A9"/>
<path d="M221.339 66.0644C219.239 66.0644 217.537 64.3622 217.537 62.2624V62.2624C217.537 60.1627 219.239 58.4604 221.339 58.4604C223.439 58.4604 225.141 60.1627 225.141 62.2624V62.2624C225.141 64.3622 223.439 66.0644 221.339 66.0644Z" fill="#F59C0C"/>
<path d="M200.191 66.0644H200.191C198.091 66.0644 196.389 64.3622 196.389 62.2624V62.2624C196.389 60.1627 198.091 58.4604 200.191 58.4604H200.191C202.29 58.4604 203.993 60.1627 203.993 62.2624V62.2624C203.993 64.3622 202.29 66.0644 200.191 66.0644Z" fill="#F59C0C"/>
<path d="M179.042 66.0644H179.042C176.942 66.0644 175.24 64.3622 175.24 62.2624V62.2624C175.24 60.1627 176.942 58.4604 179.042 58.4604H179.042C181.142 58.4604 182.844 60.1627 182.844 62.2624V62.2624C182.844 64.3622 181.142 66.0644 179.042 66.0644Z" fill="#F59C0C"/>
<path d="M103.814 182.9H80.9214" stroke="#3B444C" stroke-width="2" stroke-miterlimit="10" stroke-linecap="round" stroke-linejoin="round"/>
<path d="M231.641 78.7236V170.338C231.641 177.265 226.005 182.901 219.079 182.901H111.136" stroke="#3B444C" stroke-width="2" stroke-miterlimit="10" stroke-linecap="round" stroke-linejoin="round"/>
<path d="M219.078 176.4H80.9215C77.5732 176.4 74.8589 173.686 74.8589 170.338V78.7233C74.8589 75.375 77.5732 72.6606 80.9215 72.6606H219.078C222.427 72.6606 225.141 75.375 225.141 78.7233V170.338C225.141 173.686 222.427 176.4 219.078 176.4Z" fill="#D7D7D7"/>
<path d="M215.499 146.559H205.366C203.348 146.559 201.712 144.924 201.712 142.906V142.906C201.712 140.888 203.348 139.252 205.366 139.252H215.499C217.517 139.252 219.152 140.888 219.152 142.906V142.906C219.152 144.924 217.517 146.559 215.499 146.559Z" fill="white" stroke="#3B444C" stroke-width="2" stroke-miterlimit="10" stroke-linecap="round" stroke-linejoin="round"/>
<path d="M215.499 159.394H191.482C189.464 159.394 187.828 157.759 187.828 155.741C187.828 153.723 189.464 152.087 191.482 152.087H215.499C217.517 152.087 219.152 153.723 219.152 155.741C219.152 157.759 217.517 159.394 215.499 159.394Z" fill="white" stroke="#3B444C" stroke-width="2" stroke-miterlimit="10" stroke-linecap="round" stroke-linejoin="round"/>
<path d="M216.036 129.27H199.168C197.962 129.27 196.985 128.292 196.985 127.087V92.6041C196.985 91.3983 197.962 90.4209 199.168 90.4209H216.036C217.242 90.4209 218.219 91.3983 218.219 92.6041V127.087C218.219 128.292 217.242 129.27 216.036 129.27Z" fill="white" stroke="#3B444C" stroke-width="2" stroke-miterlimit="10" stroke-linecap="round" stroke-linejoin="round"/>
<path d="M211.308 99.5099H203.896C202.69 99.5099 201.712 98.5325 201.712 97.3267V97.3267C201.712 96.121 202.69 95.1436 203.896 95.1436H211.308C212.514 95.1436 213.491 96.121 213.491 97.3267V97.3267C213.491 98.5325 212.514 99.5099 211.308 99.5099Z" fill="#2961A9"/>
<path d="M211.308 108.065H203.896C202.69 108.065 201.712 107.087 201.712 105.881C201.712 104.676 202.69 103.698 203.896 103.698H211.308C212.514 103.698 213.491 104.676 213.491 105.881C213.491 107.087 212.514 108.065 211.308 108.065Z" fill="#2961A9"/>
<path d="M207.602 124.836C210.855 124.836 213.491 122.199 213.491 118.946C213.491 115.693 210.855 113.057 207.602 113.057C204.349 113.057 201.712 115.693 201.712 118.946C201.712 122.199 204.349 124.836 207.602 124.836Z" fill="#F59C0C"/>
<path d="M182.767 93.0883L220.183 55.6724H254.11C255.215 55.6724 256.11 54.7769 256.11 53.6724C256.11 52.5678 255.215 51.6724 254.11 51.6724L219.355 51.6724C218.828 51.6724 218.313 51.8857 217.94 52.2582L179.939 90.2599C179.158 91.0409 179.158 92.3073 179.939 93.0883C180.72 93.8693 181.986 93.8693 182.767 93.0883L182.767 93.0883Z" fill="white" stroke="#523B78" stroke-width="2" stroke-miterlimit="10" stroke-linecap="round" stroke-linejoin="round"/>
<path d="M273.967 67.8109C281.775 67.8109 288.105 61.4808 288.105 53.6723C288.105 45.8638 281.775 39.5337 273.967 39.5337C266.158 39.5337 259.828 45.8638 259.828 53.6723C259.828 61.4808 266.158 67.8109 273.967 67.8109Z" fill="#2961A9"/>
<path d="M273.967 60.7652C277.884 60.7652 281.06 57.5895 281.06 53.6721C281.06 49.7548 277.884 46.5791 273.967 46.5791C270.049 46.5791 266.874 49.7548 266.874 53.6721C266.874 57.5895 270.049 60.7652 273.967 60.7652Z" fill="white" stroke="#523B78" stroke-width="2" stroke-miterlimit="10" stroke-linecap="round" stroke-linejoin="round"/>
<path d="M117.233 93.0883L79.8171 55.6724H45.8896C44.7851 55.6724 43.8896 54.7769 43.8896 53.6724C43.8896 52.5678 44.7851 51.6724 45.8896 51.6724L80.6455 51.6724C81.1722 51.6724 81.6873 51.8857 82.0597 52.2582L120.061 90.2599C120.842 91.0409 120.842 92.3073 120.061 93.0883C119.28 93.8693 118.014 93.8693 117.233 93.0883L117.233 93.0883Z" fill="white" stroke="#523B78" stroke-width="2" stroke-miterlimit="10" stroke-linecap="round" stroke-linejoin="round"/>
<path d="M26.0331 67.8109C33.8417 67.8109 40.1718 61.4808 40.1718 53.6723C40.1718 45.8638 33.8417 39.5337 26.0331 39.5337C18.2246 39.5337 11.8945 45.8638 11.8945 53.6723C11.8945 61.4808 18.2246 67.8109 26.0331 67.8109Z" fill="#2961A9"/>
<path d="M33.4058 55.5767L27.9375 61.0449C26.8857 62.0967 25.1805 62.0967 24.1287 61.0449L18.6604 55.5767C17.6086 54.5249 17.6086 52.8196 18.6604 51.7678L24.1287 46.2996C25.1805 45.2478 26.8857 45.2478 27.9375 46.2996L33.4058 51.7678C34.4576 52.8196 34.4576 54.5249 33.4058 55.5767Z" fill="white" stroke="#523B78" stroke-width="2" stroke-miterlimit="10" stroke-linecap="round" stroke-linejoin="round"/>
<path d="M117.233 153.607L79.8171 191.023H45.8896C44.7851 191.023 43.8896 191.918 43.8896 193.023C43.8896 194.127 44.7851 195.023 45.8896 195.023H80.6455C81.1722 195.023 81.6873 194.809 82.0597 194.437L120.061 156.435C120.842 155.654 120.842 154.388 120.061 153.607C119.28 152.826 118.014 152.826 117.233 153.607L117.233 153.607Z" fill="white" stroke="#523B78" stroke-width="2" stroke-miterlimit="10" stroke-linecap="round" stroke-linejoin="round"/>
<path d="M26.0331 207.161C33.8417 207.161 40.1718 200.831 40.1718 193.022C40.1718 185.214 33.8417 178.884 26.0331 178.884C18.2246 178.884 11.8945 185.214 11.8945 193.022C11.8945 200.831 18.2246 207.161 26.0331 207.161Z" fill="#2961A9"/>
<path d="M19.4731 190.737V195.308C19.4731 196.237 19.9689 197.096 20.7736 197.561L24.7326 199.846C25.5373 200.311 26.5288 200.311 27.3335 199.846L31.2925 197.561C32.0972 197.096 32.5929 196.237 32.5929 195.308V190.737C32.5929 189.808 32.0972 188.949 31.2925 188.484L27.3335 186.199C26.5288 185.734 25.5373 185.734 24.7326 186.199L20.7736 188.484C19.9689 188.949 19.4731 189.808 19.4731 190.737Z" fill="white" stroke="#523B78" stroke-width="2" stroke-miterlimit="10" stroke-linecap="round" stroke-linejoin="round"/>
<path d="M190.09 111.375L190.847 115.105M142.212 164.284C142.062 164.255 141.912 164.225 141.763 164.195L138.032 163.438L142.212 164.284ZM191.44 118.97C191.591 120.417 191.668 121.879 191.668 123.345C191.668 126.13 191.392 128.903 190.848 131.588L190.091 135.323L181.799 135.891C181.657 136.25 181.509 136.607 181.355 136.961L186.819 143.232L184.706 146.409C181.62 151.05 177.702 154.968 173.062 158.054L169.883 160.168L163.616 154.701C163.262 154.855 162.906 155.003 162.546 155.145L161.974 163.438L158.243 164.195C155.562 164.74 152.79 165.015 150.003 165.015C148.34 165.015 146.683 164.917 145.047 164.722L191.44 118.97Z" stroke="#3B444C" stroke-width="2" stroke-miterlimit="10" stroke-linecap="round" stroke-linejoin="round"/>
<path d="M185.948 130.595C186.423 128.25 186.668 125.825 186.668 123.345C186.668 120.865 186.423 118.44 185.948 116.1L178.128 115.56C177.483 113.235 176.558 111.02 175.393 108.965L180.543 103.055C177.843 98.9952 174.353 95.5052 170.293 92.8052L164.383 97.9552C162.328 96.7902 160.113 95.8652 157.788 95.2202L157.248 87.4002C154.908 86.9252 152.483 86.6802 150.003 86.6802C147.523 86.6802 145.098 86.9252 142.758 87.4002L142.218 95.2202C139.888 95.8652 137.678 96.7902 135.623 97.9552L129.713 92.8052C125.653 95.5002 122.163 98.9902 119.458 103.055L124.613 108.965C123.443 111.02 122.518 113.235 121.878 115.56L114.053 116.1C113.578 118.44 113.333 120.865 113.333 123.345C113.333 125.825 113.578 128.25 114.053 130.595L121.878 131.13C122.518 133.46 123.443 135.67 124.613 137.73L119.458 143.64C122.158 147.7 125.648 151.19 129.708 153.89L135.623 148.735C137.678 149.905 139.888 150.83 142.218 151.47L142.758 159.295C145.098 159.77 147.523 160.015 150.003 160.015C152.483 160.015 154.908 159.77 157.248 159.295L157.788 151.47C160.113 150.83 162.328 149.905 164.383 148.735L170.293 153.89C174.353 151.19 177.843 147.7 180.543 143.64L175.393 137.73C176.558 135.67 177.483 133.46 178.128 131.13L185.948 130.595ZM150.003 133.105C144.613 133.105 140.243 128.735 140.243 123.345C140.243 117.96 144.613 113.59 150.003 113.59C155.393 113.59 159.758 117.96 159.758 123.345C159.758 128.735 155.393 133.105 150.003 133.105Z" fill="#F59C0C"/>
<path d="M150 127.505C152.296 127.505 154.157 125.644 154.157 123.348C154.157 121.052 152.296 119.19 150 119.19C147.704 119.19 145.843 121.052 145.843 123.348C145.843 125.644 147.704 127.505 150 127.505Z" fill="white" stroke="#3B444C" stroke-width="2" stroke-miterlimit="10" stroke-linecap="round" stroke-linejoin="round"/>
<path d="M26.0331 137.486C33.8417 137.486 40.1718 131.156 40.1718 123.348C40.1718 115.539 33.8417 109.209 26.0331 109.209C18.2246 109.209 11.8945 115.539 11.8945 123.348C11.8945 131.156 18.2246 137.486 26.0331 137.486Z" fill="#F59C0C"/>
<path d="M29.8997 129.907H22.1664C20.679 129.907 19.4731 128.702 19.4731 127.214V119.481C19.4731 117.993 20.679 116.788 22.1664 116.788H29.8997C31.3871 116.788 32.5929 117.993 32.5929 119.481V127.214C32.5929 128.702 31.3871 129.907 29.8997 129.907Z" fill="white" stroke="#523B78" stroke-width="2" stroke-miterlimit="10" stroke-linecap="round" stroke-linejoin="round"/>
<path d="M101.531 125.348H45.8896C44.7851 125.348 43.8896 124.452 43.8896 123.348C43.8896 122.243 44.7851 121.348 45.8896 121.348H101.531C102.636 121.348 103.531 122.243 103.531 123.348C103.531 124.452 102.636 125.348 101.531 125.348Z" fill="white" stroke="#523B78" stroke-width="2" stroke-miterlimit="10" stroke-linecap="round" stroke-linejoin="round"/>
<path d="M158.155 240.138C156.368 240.138 154.752 240.864 153.583 242.032C152.411 243.201 151.689 244.82 151.689 246.604C151.689 244.82 150.967 243.201 149.795 242.032C148.626 240.864 147.011 240.138 145.223 240.138C147.011 240.138 148.626 239.412 149.795 238.244C150.967 237.075 151.689 235.455 151.689 233.672C151.689 235.455 152.411 237.075 153.583 238.244C154.752 239.412 156.368 240.138 158.155 240.138Z" fill="#F59C0C"/>
<path d="M275.888 102.278C274.1 102.278 272.485 103.003 271.316 104.172C270.143 105.341 269.422 106.96 269.422 108.743C269.422 106.96 268.7 105.341 267.527 104.172C266.359 103.003 264.743 102.278 262.956 102.278C264.743 102.278 266.359 101.552 267.527 100.383C268.7 99.2145 269.422 97.5951 269.422 95.8115C269.422 97.5951 270.143 99.2145 271.316 100.383C272.485 101.552 274.1 102.278 275.888 102.278Z" fill="#2961A9"/>
<path d="M41.5362 222.057C40.5857 222.057 39.7266 222.443 39.1051 223.064C38.4815 223.686 38.0977 224.547 38.0977 225.495C38.0977 224.547 37.7138 223.686 37.0903 223.064C36.4688 222.443 35.6097 222.057 34.6592 222.057C35.6097 222.057 36.4688 221.671 37.0903 221.049C37.7138 220.428 38.0977 219.567 38.0977 218.618C38.0977 219.567 38.4815 220.428 39.1051 221.049C39.7266 221.671 40.5857 222.057 41.5362 222.057Z" fill="#F59C0C"/>
<path d="M47.2526 90.421C45.8548 90.421 44.5913 90.9885 43.6774 91.9025C42.7604 92.8164 42.1959 94.0828 42.1959 95.4777C42.1959 94.0828 41.6314 92.8164 40.7144 91.9025C39.8004 90.9885 38.537 90.421 37.1392 90.421C38.537 90.421 39.8004 89.8535 40.7144 88.9395C41.6314 88.0255 42.1959 86.7591 42.1959 85.3643C42.1959 86.7591 42.7604 88.0255 43.6774 88.9395C44.5913 89.8535 45.8548 90.421 47.2526 90.421Z" fill="#2961A9"/>
<path d="M136.163 215.941C135.27 215.941 134.462 216.304 133.877 216.888C133.291 217.473 132.93 218.282 132.93 219.174C132.93 218.282 132.569 217.473 131.983 216.888C131.399 216.304 130.591 215.941 129.697 215.941C130.591 215.941 131.399 215.578 131.983 214.994C132.569 214.409 132.93 213.6 132.93 212.708C132.93 213.6 133.291 214.409 133.877 214.994C134.462 215.578 135.27 215.941 136.163 215.941Z" fill="#2961A9"/>
<path d="M28.549 154.983C27.8535 154.983 27.2249 155.265 26.7701 155.72C26.3139 156.175 26.0331 156.805 26.0331 157.499C26.0331 156.805 25.7522 156.175 25.2959 155.72C24.8412 155.265 24.2126 154.983 23.5171 154.983C24.2126 154.983 24.8412 154.7 25.2959 154.246C25.7522 153.791 26.0331 153.161 26.0331 152.467C26.0331 153.161 26.3139 153.791 26.7701 154.246C27.2249 154.7 27.8535 154.983 28.549 154.983Z" fill="#F59C0C"/>
<path d="M179.308 217.614C180.379 217.614 181.248 216.745 181.248 215.673C181.248 214.602 180.379 213.733 179.308 213.733C178.236 213.733 177.368 214.602 177.368 215.673C177.368 216.745 178.236 217.614 179.308 217.614Z" fill="#2961A9"/>
<path d="M276.121 146.063C276.996 146.063 277.704 145.355 277.704 144.48C277.704 143.606 276.996 142.897 276.121 142.897C275.247 142.897 274.538 143.606 274.538 144.48C274.538 145.355 275.247 146.063 276.121 146.063Z" fill="#F59C0C"/>
<path d="M264.896 156.654C272.116 156.961 285.912 180.672 292.002 191.807C293.812 195.117 293.168 199.229 290.436 201.832L290.436 201.832C286.876 205.224 281.168 204.811 278.133 200.942L258.521 175.943C258.521 175.943 250.377 156.035 264.896 156.654Z" fill="#F59C0C"/>
<path d="M224.456 156.297C215.417 159.049 203.49 205.193 203.49 205.193C201.272 217.614 215.44 219.213 219.048 210.893L235.455 173.377C235.455 173.377 238.358 152.065 224.456 156.297Z" fill="#F59C0C"/>
<path d="M203.49 205.193L204.124 235.542H217.569L219.048 210.893C221.143 197.708 206.021 196.133 203.49 205.193Z" fill="#DE9244"/>
<path d="M223.609 224.797L188.747 240.911C185.083 242.604 182.738 246.272 182.738 250.308V250.308C182.738 256.956 188.915 261.881 195.396 260.4L246.183 248.797V222.896H223.371L223.609 224.797Z" fill="#2961A9"/>
<path d="M241.431 222.896V231.197C241.431 232.698 242.156 234.107 243.377 234.979L246.183 236.983V246.361" stroke="#123A6C" stroke-width="2" stroke-miterlimit="10" stroke-linecap="round" stroke-linejoin="round"/>
<path d="M199.252 241.78L229.787 227.886V223.728" stroke="#123A6C" stroke-width="2" stroke-miterlimit="10" stroke-linecap="round" stroke-linejoin="round"/>
<path d="M264.896 156.654C264.896 156.654 254.03 153.485 226.282 155.873C226.282 155.873 221.233 163.791 219.985 181.613C218.59 201.548 217.57 226.818 217.57 226.818H270.563C270.563 226.818 273.425 195.659 264.896 156.654Z" fill="#F59C0C"/>
<path d="M225.3 157.755C223.767 161.046 220.886 168.75 219.985 181.613C219.59 187.261 219.225 193.337 218.904 199.145" stroke="#915921" stroke-width="2" stroke-miterlimit="10" stroke-linecap="round" stroke-linejoin="round"/>
<path d="M269.422 184.455C268.526 176.263 267.166 167.25 265.135 157.755" stroke="#915921" stroke-width="2" stroke-miterlimit="10" stroke-linecap="round" stroke-linejoin="round"/>
<path d="M254.489 157.083C252.671 161.312 249.255 163.024 247.118 163.695C246.569 160.679 245.055 156.886 245.055 156.886C243.373 159.202 242.484 162.264 242.265 163.661C236.818 162.164 236.197 156.928 236.197 156.928C236.862 151.681 241.375 147.73 245.247 147.862C253.806 148.152 254.489 157.083 254.489 157.083Z" fill="white" stroke="#915921" stroke-width="2" stroke-miterlimit="10" stroke-linecap="round" stroke-linejoin="round"/>
<path d="M246.183 248.797H256.376C263.566 248.797 269.611 243.403 270.426 236.26L276.104 186.533C276.779 180.616 272.152 175.431 266.197 175.431C261.653 175.431 257.684 178.502 256.545 182.901L246.183 226.907V248.797Z" fill="#2961A9"/>
<path d="M246.183 228.792V246.639" stroke="#123A6C" stroke-width="2" stroke-miterlimit="10" stroke-linecap="round" stroke-linejoin="round"/>
<path d="M253.792 248.703V254.832L239.535 256.307V248L253.792 248.703Z" fill="white" stroke="#523B78" stroke-width="2" stroke-miterlimit="10" stroke-linecap="round" stroke-linejoin="round"/>
<path d="M250.875 257.877V246.084L270.109 243.145V260.135L250.875 257.877Z" fill="#F04B15"/>
<path d="M250.875 257.877V246.084L270.109 243.145V260.135L250.875 257.877Z" stroke="#AA3610" stroke-width="2" stroke-miterlimit="10" stroke-linecap="round" stroke-linejoin="round"/>
<path d="M253.267 254.253H262.891" stroke="#523B78" stroke-width="2" stroke-miterlimit="10" stroke-linecap="round" stroke-linejoin="round"/>
<path d="M253.267 249.709H262.891" stroke="#523B78" stroke-width="2" stroke-miterlimit="10" stroke-linecap="round" stroke-linejoin="round"/>
<path d="M260.492 251.708C260.492 257.094 264.858 261.459 270.244 261.459H271.478V241.957H270.244C264.858 241.957 260.492 246.322 260.492 251.708Z" fill="white" stroke="#523B78" stroke-width="2" stroke-miterlimit="10" stroke-linecap="round" stroke-linejoin="round"/>
<path d="M240.835 245.47V258.66L193.605 260.73C191.075 260.84 188.705 260.03 186.835 258.58C184.7 256.935 183.215 254.46 182.885 251.585L182.74 250.31V249.295C182.74 247.385 183.405 245.645 184.52 244.275C186.115 242.29 188.645 241.095 191.405 241.325L240.835 245.47Z" fill="#2961A9"/>
<path d="M195.89 251.02C195.89 255.265 192.45 258.705 188.205 258.705C187.735 258.705 187.28 258.665 186.835 258.58C184.7 256.935 183.215 254.46 182.885 251.585L182.74 250.31V249.295C182.74 247.385 183.405 245.645 184.52 244.275C185.615 243.67 186.87 243.33 188.205 243.33C192.45 243.33 195.89 246.775 195.89 251.02Z" fill="white"/>
<path d="M191.423 260.595C189.724 260.308 188.155 259.604 186.835 258.58C184.7 256.935 183.215 254.46 182.885 251.585L182.74 250.31V249.295C182.74 247.385 183.405 245.645 184.52 244.275C186.115 242.29 188.645 241.095 191.405 241.325L240.835 245.47" stroke="#123A6C" stroke-width="2" stroke-miterlimit="10" stroke-linecap="round" stroke-linejoin="round"/>
<path d="M237.005 246.361V257.054" stroke="#123A6C" stroke-width="2" stroke-miterlimit="10" stroke-linecap="round" stroke-linejoin="round"/>
<path d="M271.024 244.639H264.896L263.42 230.381H271.728L271.024 244.639Z" fill="white" stroke="#523B78" stroke-width="2" stroke-miterlimit="10" stroke-linecap="round" stroke-linejoin="round"/>
<path d="M260.9 233.281H274.09L276.159 186.051C276.269 183.521 275.459 181.151 274.009 179.281C272.364 177.146 269.889 175.661 267.014 175.331L265.74 175.186H264.724C262.814 175.186 261.075 175.851 259.705 176.966C257.719 178.561 256.525 181.091 256.754 183.851L260.9 233.281Z" fill="#2961A9"/>
<path d="M266.45 188.336C270.694 188.336 274.134 184.896 274.134 180.651C274.134 180.181 274.094 179.726 274.009 179.281C272.365 177.146 269.89 175.661 267.015 175.331L265.74 175.186H264.725C262.815 175.186 261.075 175.851 259.705 176.966C259.1 178.061 258.76 179.316 258.76 180.651C258.76 184.896 262.205 188.336 266.45 188.336Z" fill="white"/>
<path d="M274.01 179.281C272.365 177.146 269.89 175.661 267.015 175.331L265.74 175.186H264.725C262.815 175.186 261.075 175.851 259.705 176.966C257.719 178.561 256.525 181.091 256.754 183.851L260.9 233.281H273.54" stroke="#123A6C" stroke-width="2" stroke-miterlimit="10" stroke-linecap="round" stroke-linejoin="round"/>
<path d="M262.342 229.451H272.484" stroke="#123A6C" stroke-width="2" stroke-miterlimit="10" stroke-linecap="round" stroke-linejoin="round"/>
<path d="M262.342 240.138H274.135L277.074 259.371H260.084L262.342 240.138Z" fill="#F04B15"/>
<path d="M262.342 240.138H274.135L277.074 259.371H260.084L262.342 240.138Z" stroke="#AA3610" stroke-width="2" stroke-miterlimit="10" stroke-linecap="round" stroke-linejoin="round"/>
<path d="M265.965 242.529V252.153" stroke="#523B78" stroke-width="2" stroke-miterlimit="10" stroke-linecap="round" stroke-linejoin="round"/>
<path d="M270.51 242.529V252.153" stroke="#523B78" stroke-width="2" stroke-miterlimit="10" stroke-linecap="round" stroke-linejoin="round"/>
<path d="M268.511 249.754H268.511C263.125 249.754 258.76 254.12 258.76 259.506V260.74H278.262V259.506C278.262 254.12 273.897 249.754 268.511 249.754Z" fill="white" stroke="#523B78" stroke-width="2" stroke-miterlimit="10" stroke-linecap="round" stroke-linejoin="round"/>
<path d="M248.812 154.044C247.685 154.701 246.504 155.105 245.262 155.232C244.021 155.118 242.843 154.696 241.713 154.044V144.48H248.812V154.044Z" fill="white" stroke="#523B78" stroke-width="2" stroke-miterlimit="10" stroke-linecap="round" stroke-linejoin="round"/>
<path d="M250.633 141.382C250.91 138.929 252.345 136.965 253.857 137.078C254.165 137.102 254.472 137.209 254.764 137.434C256.43 138.724 254.694 145.549 250.355 143.834L250.633 141.382Z" fill="white" stroke="#523B78" stroke-width="2" stroke-miterlimit="10" stroke-linecap="round" stroke-linejoin="round"/>
<path d="M239.358 141.382C239.08 138.929 237.646 136.965 236.133 137.078C235.825 137.102 235.519 137.209 235.227 137.434C233.561 138.724 235.296 145.549 239.636 143.834L239.358 141.382Z" fill="white" stroke="#523B78" stroke-width="2" stroke-miterlimit="10" stroke-linecap="round" stroke-linejoin="round"/>
<path d="M252.015 140.233C252.015 142.404 250.498 147.076 244.995 147.481C239.493 147.076 237.976 142.404 237.976 140.233C237.976 138.056 236.144 129.27 244.995 129.27C253.847 129.27 252.015 138.056 252.015 140.233Z" fill="white" stroke="#523B78" stroke-width="2" stroke-miterlimit="10" stroke-linecap="round" stroke-linejoin="round"/>
<path d="M252.418 140.341L251.73 140.4L252.171 137.074C252.171 137.074 249.728 137.619 249.517 136.276C249.517 136.276 249.244 134.89 249.77 131.894C249.77 131.894 246.602 132.61 244.446 132.61C237.962 132.61 236.62 128.314 237.119 126.113C237.122 126.099 237.125 126.085 237.129 126.071C237.892 122.847 239.079 125.169 239.079 125.169C239.079 125.169 239.726 122.575 241.098 122.458C242.475 122.341 242.782 125.748 242.782 125.748C242.782 125.748 245.62 124.778 249.837 125.793C254.981 127.031 252.881 129.942 252.881 129.942C252.881 129.942 257.921 131.051 252.418 140.341Z" fill="#785113"/>
<path d="M239.075 128.145C235.002 129.565 234.987 134.169 237.819 140.006H238.57L238.101 137.301C238.101 137.301 241.49 137.277 240.233 131.108L239.075 128.145Z" fill="#785113"/>
<path d="M239.767 237.629H196.045C193.945 237.629 192.243 235.926 192.243 233.827V204.599C192.243 202.499 193.945 200.797 196.045 200.797H239.767C241.867 200.797 243.569 202.499 243.569 204.599V233.827C243.569 235.926 241.867 237.629 239.767 237.629Z" fill="white" stroke="#523B78" stroke-width="2" stroke-miterlimit="10" stroke-linecap="round" stroke-linejoin="round"/>
<path d="M293.055 196.133L293.055 196.138C293.114 202.398 287.59 205.749 282.323 204.033C280.463 203.435 278.636 202.202 277.103 200.242C270.595 191.937 263.363 177.749 263.363 177.749L272.31 169.935C272.31 169.935 290.778 185.739 292.674 193.281C292.928 194.289 293.047 195.238 293.055 196.133Z" fill="#F59C0C"/>
<path d="M293.055 196.133L293.055 196.138C293.113 202.397 287.59 205.749 282.323 204.033C281.689 203.024 281.323 201.832 281.311 200.557C281.276 196.868 284.238 193.845 287.933 193.81C289.978 193.791 291.817 194.694 293.055 196.133Z" fill="white"/>
<path d="M293.055 196.133L293.055 196.138C293.114 202.398 287.59 205.749 282.323 204.033" stroke="#905921" stroke-width="2" stroke-miterlimit="10" stroke-linecap="round" stroke-linejoin="round"/>
<path d="M285.971 183.215C280.005 176.517 272.311 169.933 272.311 169.933L263.36 177.748C263.36 177.748 268.871 188.553 274.596 196.823" stroke="#905921" stroke-width="2" stroke-miterlimit="10" stroke-linecap="round" stroke-linejoin="round"/>
<path d="M272.025 172.668C272.025 172.668 267.213 168.48 262.134 168.569C260.527 168.597 255.361 172.757 254.025 174.629C252.688 176.5 252.866 180.243 254.292 181.757C255.718 183.272 256.698 181.223 256.698 181.223C256.698 181.223 256.341 183.629 260.262 184.342C264.183 185.054 266.411 182.292 266.5 178.995C266.5 178.995 271.579 179.53 272.025 172.668Z" fill="white" stroke="#523B78" stroke-width="2" stroke-miterlimit="10" stroke-linecap="round" stroke-linejoin="round"/>
<path d="M256.641 179.53C256.641 179.53 256.488 177.772 256.79 176.463C257.092 175.155 259.609 173.745 259.609 173.745" stroke="#523B78" stroke-width="2" stroke-miterlimit="10" stroke-linecap="round" stroke-linejoin="round"/>
<path d="M84.0025 245.112C84.0025 245.112 67.7359 231.231 70.0579 205.215C88.0808 224.121 84.0025 245.112 84.0025 245.112Z" fill="white" stroke="#523B78" stroke-width="2" stroke-miterlimit="10" stroke-linecap="round" stroke-linejoin="round"/>
<path d="M84.0025 245.112C84.0025 245.112 63.8828 237.868 56.8696 212.708C80.4068 224.033 84.0025 245.112 84.0025 245.112Z" fill="#2961A9"/>
<path d="M84.0023 245.112C84.0023 245.112 100.269 231.231 97.9469 205.215C79.924 224.121 84.0023 245.112 84.0023 245.112Z" fill="white" stroke="#523B78" stroke-width="2" stroke-miterlimit="10" stroke-linecap="round" stroke-linejoin="round"/>
<path d="M84.0024 245.112C84.0024 245.112 104.122 237.868 111.135 212.708C87.5982 224.033 84.0024 245.112 84.0024 245.112Z" fill="#2961A9"/>
<path d="M84.0026 245.112C84.0026 245.112 73.2268 226.642 84.0026 202.848C94.7785 226.642 84.0026 245.112 84.0026 245.112Z" fill="#2961A9"/>
<path d="M103.814 235.542C103.814 253.877 93.7701 262.58 93.7701 262.58H74.2293C74.2293 262.58 64.1914 253.877 64.1914 235.542H103.814Z" fill="#F59C0C"/>
</svg>
