<svg width="343" height="300" viewBox="0 0 343 300" fill="none" xmlns="http://www.w3.org/2000/svg">
<path d="M275.405 187.069L282.424 121.954H273.967L266.948 187.069H275.405Z" fill="white"/>
<path d="M275.406 187.714H266.949C266.858 187.715 266.768 187.696 266.686 187.66C266.603 187.623 266.528 187.57 266.468 187.503C266.407 187.435 266.361 187.356 266.333 187.27C266.305 187.184 266.296 187.093 266.305 187.003L273.328 121.886C273.345 121.727 273.421 121.581 273.539 121.475C273.658 121.369 273.812 121.311 273.972 121.312H282.429C282.519 121.311 282.609 121.33 282.692 121.366C282.775 121.403 282.849 121.456 282.909 121.523C282.97 121.591 283.016 121.67 283.044 121.756C283.072 121.842 283.081 121.933 283.072 122.023L276.053 187.138C276.037 187.297 275.961 187.445 275.841 187.552C275.721 187.658 275.566 187.716 275.406 187.714ZM267.665 186.429H274.829L281.708 122.599H274.544L267.665 186.429Z" fill="#262424"/>
<path d="M271.656 187.069L278.674 121.954H270.215L263.199 187.069H271.656Z" fill="white"/>
<path d="M271.656 187.714H263.199C263.108 187.715 263.019 187.696 262.936 187.66C262.853 187.623 262.779 187.57 262.718 187.503C262.657 187.435 262.612 187.356 262.584 187.27C262.556 187.184 262.546 187.093 262.556 187.003L269.577 121.886C269.594 121.727 269.669 121.581 269.788 121.475C269.907 121.369 270.061 121.311 270.22 121.312H278.677C278.768 121.311 278.857 121.33 278.94 121.366C279.023 121.403 279.097 121.456 279.158 121.523C279.219 121.591 279.264 121.67 279.292 121.756C279.32 121.842 279.33 121.933 279.32 122.023L272.301 187.138C272.285 187.297 272.21 187.444 272.09 187.551C271.971 187.657 271.816 187.716 271.656 187.714ZM263.915 186.429H271.079L277.959 122.599H270.794L263.915 186.429Z" fill="#262424"/>
<path d="M300.564 128.143H253.82C251.376 128.143 249.61 126.163 249.873 123.72L253.946 86.0059C254.21 83.563 256.403 81.583 258.847 81.583H305.581C308.025 81.583 309.791 83.563 309.527 86.0059L305.454 123.72C305.203 126.163 303.008 128.143 300.564 128.143Z" fill="white"/>
<path d="M300.565 128.786H253.82C253.165 128.798 252.516 128.669 251.916 128.408C251.316 128.146 250.779 127.757 250.343 127.269C249.908 126.78 249.583 126.203 249.391 125.577C249.199 124.952 249.145 124.292 249.232 123.643L253.306 85.9287C253.604 83.1729 256.092 80.9315 258.845 80.9315H305.579C306.233 80.9189 306.883 81.0479 307.483 81.3098C308.083 81.5717 308.62 81.9602 309.055 82.4487C309.491 82.9372 309.816 83.5142 310.008 84.14C310.2 84.7658 310.254 85.4257 310.166 86.0744L306.093 123.789C305.808 126.544 303.324 128.786 300.565 128.786ZM258.843 82.2301C257.788 82.255 256.777 82.6584 255.994 83.3664C255.212 84.0745 254.71 85.0402 254.581 86.0872L250.508 123.802C250.447 124.273 250.488 124.752 250.627 125.207C250.766 125.662 251 126.082 251.314 126.439C251.631 126.785 252.018 127.06 252.449 127.244C252.881 127.429 253.347 127.52 253.816 127.511H300.55C301.605 127.486 302.616 127.083 303.398 126.374C304.18 125.666 304.682 124.701 304.811 123.654L308.884 85.9394C308.945 85.4677 308.905 84.9885 308.766 84.5337C308.627 84.0788 308.392 83.6588 308.078 83.3015C307.761 82.9557 307.374 82.6812 306.943 82.4965C306.512 82.3118 306.046 82.2209 305.577 82.2301H258.843Z" fill="#262424"/>
<path d="M290.53 128.143H243.796C241.352 128.143 239.586 126.163 239.849 123.72L243.922 86.0059C244.186 83.563 246.379 81.583 248.823 81.583H295.557C298.001 81.583 299.767 83.563 299.503 86.0059L295.43 123.72C295.167 126.163 292.974 128.143 290.53 128.143Z" fill="#262424"/>
<path d="M290.529 128.786H243.796C243.141 128.798 242.491 128.669 241.891 128.408C241.291 128.146 240.755 127.757 240.319 127.269C239.883 126.78 239.558 126.203 239.367 125.577C239.175 124.952 239.121 124.292 239.208 123.643L243.281 85.9287C243.579 83.1729 246.068 80.9315 248.821 80.9315H295.554C296.209 80.9189 296.859 81.0479 297.459 81.3098C298.059 81.5717 298.595 81.9602 299.031 82.4487C299.467 82.9372 299.792 83.5142 299.983 84.14C300.175 84.7658 300.229 85.4257 300.142 86.0744L296.069 123.789C295.773 126.544 293.288 128.786 290.529 128.786ZM248.808 82.2301C247.753 82.255 246.742 82.6584 245.959 83.3664C245.177 84.0745 244.675 85.0402 244.546 86.0872L240.473 123.802C240.412 124.273 240.453 124.752 240.592 125.207C240.731 125.662 240.965 126.082 241.279 126.439C241.596 126.785 241.983 127.06 242.414 127.244C242.846 127.429 243.311 127.52 243.781 127.511H290.514C291.57 127.486 292.581 127.083 293.363 126.374C294.145 125.666 294.647 124.701 294.776 123.654L298.849 85.9394C298.91 85.4677 298.87 84.9885 298.731 84.5337C298.592 84.0788 298.357 83.6588 298.043 83.3015C297.726 82.9557 297.339 82.6812 296.908 82.4965C296.476 82.3118 296.011 82.2209 295.542 82.2301H248.808Z" fill="#262424"/>
<path d="M251.033 202.071H241.472V223.5H251.033V202.071Z" fill="white"/>
<path d="M251.033 224.143H241.472C241.302 224.143 241.138 224.075 241.017 223.955C240.897 223.834 240.829 223.671 240.829 223.5V202.072C240.829 201.901 240.897 201.738 241.017 201.617C241.138 201.496 241.302 201.429 241.472 201.429H251.033C251.204 201.429 251.367 201.496 251.488 201.617C251.609 201.738 251.676 201.901 251.676 202.072V223.5C251.676 223.671 251.609 223.834 251.488 223.955C251.367 224.075 251.204 224.143 251.033 224.143ZM242.115 222.857H250.39V202.714H242.115V222.857Z" fill="#262424"/>
<path d="M231.096 195.643H261.405C261.405 197.802 260.546 199.873 259.019 201.4C257.491 202.928 255.419 203.785 253.258 203.785H239.242C237.082 203.785 235.01 202.928 233.482 201.4C231.954 199.873 231.096 197.802 231.096 195.643Z" fill="#262424"/>
<path d="M241.489 220.747H251.016C251.798 220.747 252.549 221.057 253.102 221.61C253.655 222.163 253.966 222.913 253.966 223.695V233.034H238.531V223.695C238.531 222.913 238.842 222.163 239.395 221.61C239.948 221.057 240.698 220.747 241.481 220.747H241.489Z" fill="#262424"/>
<path d="M246.253 233.036V243.428L209.835 259.697H202.799C202.799 258.393 203.131 257.11 203.762 255.969C204.394 254.829 205.306 253.867 206.411 253.174L238.539 233.044H246.257L246.253 233.036Z" fill="white"/>
<path d="M209.835 260.331H202.799C202.628 260.331 202.465 260.264 202.344 260.143C202.224 260.023 202.156 259.859 202.156 259.689C202.151 258.274 202.508 256.882 203.193 255.645C203.877 254.407 204.867 253.365 206.068 252.617L238.197 232.5C238.299 232.436 238.417 232.402 238.537 232.401H246.255C246.425 232.401 246.589 232.469 246.71 232.59C246.83 232.71 246.898 232.874 246.898 233.044V243.429C246.898 243.553 246.862 243.674 246.794 243.779C246.726 243.883 246.63 243.965 246.516 244.016L210.088 260.276C210.008 260.311 209.922 260.33 209.835 260.331ZM203.47 259.046H209.687L245.61 243V233.679H238.724L206.752 253.714C205.829 254.288 205.052 255.068 204.483 255.994C203.913 256.919 203.567 257.964 203.47 259.046Z" fill="#262424"/>
<path d="M205.941 274.716C209.276 274.716 211.98 272.014 211.98 268.68C211.98 265.346 209.276 262.644 205.941 262.644C202.606 262.644 199.902 265.346 199.902 268.68C199.902 272.014 202.606 274.716 205.941 274.716Z" fill="#262424"/>
<path d="M205.941 270.645C207.027 270.645 207.907 269.765 207.907 268.68C207.907 267.595 207.027 266.715 205.941 266.715C204.856 266.715 203.976 267.595 203.976 268.68C203.976 269.765 204.856 270.645 205.941 270.645Z" fill="white"/>
<path d="M246.252 233.036V243.428L282.67 259.697H289.706C289.706 258.393 289.374 257.11 288.743 255.969C288.111 254.829 287.199 253.867 286.094 253.174L253.966 233.044H246.248L246.252 233.036Z" fill="white"/>
<path d="M289.706 260.332H282.671C282.58 260.332 282.491 260.313 282.409 260.276L245.991 244.007C245.877 243.957 245.781 243.874 245.713 243.77C245.645 243.666 245.609 243.544 245.609 243.42V233.036C245.609 232.865 245.677 232.702 245.798 232.581C245.918 232.461 246.082 232.393 246.253 232.393H253.97C254.091 232.393 254.209 232.427 254.311 232.492L286.439 252.622C287.64 253.369 288.63 254.411 289.315 255.649C290 256.887 290.356 258.279 290.352 259.693C290.35 259.863 290.282 260.026 290.161 260.146C290.04 260.265 289.877 260.332 289.706 260.332ZM282.808 259.046H289.025C288.93 257.966 288.586 256.922 288.02 255.997C287.454 255.072 286.681 254.291 285.762 253.715L253.79 233.683H246.896V243L282.808 259.046Z" fill="#262424"/>
<path d="M286.561 274.716C289.897 274.716 292.6 272.014 292.6 268.68C292.6 265.346 289.897 262.644 286.561 262.644C283.226 262.644 280.522 265.346 280.522 268.68C280.522 272.014 283.226 274.716 286.561 274.716Z" fill="#262424"/>
<path d="M286.562 270.645C287.647 270.645 288.527 269.765 288.527 268.68C288.527 267.595 287.647 266.715 286.562 266.715C285.476 266.715 284.596 267.595 284.596 268.68C284.596 269.765 285.476 270.645 286.562 270.645Z" fill="white"/>
<path d="M250.259 259.688H242.244L238.54 233.036H253.966L250.259 259.688Z" fill="white"/>
<path d="M250.261 260.331H242.244C242.087 260.333 241.936 260.277 241.817 260.175C241.699 260.073 241.622 259.931 241.601 259.776L237.896 233.123C237.884 233.032 237.891 232.939 237.917 232.85C237.944 232.762 237.989 232.68 238.05 232.611C238.111 232.541 238.187 232.486 238.271 232.448C238.355 232.411 238.447 232.392 238.539 232.393H253.974C254.067 232.392 254.158 232.411 254.242 232.448C254.327 232.486 254.402 232.541 254.463 232.611C254.524 232.68 254.57 232.762 254.596 232.85C254.623 232.939 254.63 233.032 254.617 233.123L250.913 259.776C250.891 259.933 250.813 260.076 250.693 260.178C250.573 260.28 250.419 260.335 250.261 260.331ZM242.805 259.046H249.702L253.228 233.678H239.279L242.805 259.046Z" fill="#262424"/>
<path d="M248.96 262.644H243.995C242.85 262.644 241.922 263.571 241.922 264.716V272.644C241.922 273.789 242.85 274.716 243.995 274.716H248.96C250.105 274.716 251.033 273.789 251.033 272.644V264.716C251.033 263.571 250.105 262.644 248.96 262.644Z" fill="#262424"/>
<path d="M248.39 183.643H211.303C207.988 183.643 205.3 186.329 205.3 189.643C205.3 192.957 207.988 195.643 211.303 195.643H248.39C251.705 195.643 254.392 192.957 254.392 189.643C254.392 186.329 251.705 183.643 248.39 183.643Z" fill="white"/>
<path d="M248.39 196.286H211.303C209.54 196.286 207.85 195.586 206.604 194.34C205.357 193.094 204.657 191.405 204.657 189.643C204.657 187.881 205.357 186.191 206.604 184.946C207.85 183.7 209.54 183 211.303 183H248.39C250.152 183 251.843 183.7 253.089 184.946C254.335 186.191 255.035 187.881 255.035 189.643C255.035 191.405 254.335 193.094 253.089 194.34C251.843 195.586 250.152 196.286 248.39 196.286ZM211.303 184.286C209.881 184.286 208.518 184.85 207.513 185.855C206.508 186.859 205.943 188.222 205.943 189.643C205.943 191.064 206.508 192.426 207.513 193.431C208.518 194.436 209.881 195 211.303 195H248.39C249.811 195 251.174 194.436 252.179 193.431C253.184 192.426 253.749 191.064 253.749 189.643C253.749 188.222 253.184 186.859 252.179 185.855C251.174 184.85 249.811 184.286 248.39 184.286H211.303Z" fill="#262424"/>
<path d="M281.202 183.643H249.104C245.788 183.643 243.101 186.329 243.101 189.643C243.101 192.957 245.788 195.643 249.104 195.643H281.202C284.517 195.643 287.204 192.957 287.204 189.643C287.204 186.329 284.517 183.643 281.202 183.643Z" fill="white"/>
<path d="M281.202 196.286H249.104C247.341 196.286 245.651 195.586 244.404 194.34C243.158 193.094 242.458 191.405 242.458 189.643C242.458 187.881 243.158 186.191 244.404 184.946C245.651 183.7 247.341 183 249.104 183H281.202C282.965 183 284.655 183.7 285.901 184.946C287.147 186.191 287.848 187.881 287.848 189.643C287.848 191.405 287.147 193.094 285.901 194.34C284.655 195.586 282.965 196.286 281.202 196.286ZM249.104 184.286C247.682 184.286 246.319 184.85 245.314 185.855C244.309 186.859 243.744 188.222 243.744 189.643C243.744 191.064 244.309 192.426 245.314 193.431C246.319 194.436 247.682 195 249.104 195H281.202C282.623 195 283.987 194.436 284.992 193.431C285.997 192.426 286.561 191.064 286.561 189.643C286.561 188.222 285.997 186.859 284.992 185.855C283.987 184.85 282.623 184.286 281.202 184.286H249.104Z" fill="#262424"/>
<path d="M138.677 121.929V125.357H110.438V121.929L115.69 109.682H136.283L131.03 121.929H138.677Z" fill="white"/>
<path d="M138.677 126H110.438C110.267 126 110.103 125.932 109.983 125.811C109.862 125.691 109.794 125.527 109.794 125.357V121.928C109.794 121.841 109.812 121.755 109.846 121.675L115.098 109.429C115.148 109.313 115.23 109.215 115.335 109.145C115.441 109.076 115.564 109.039 115.69 109.039H136.283C136.389 109.039 136.494 109.065 136.588 109.116C136.681 109.166 136.761 109.239 136.82 109.328C136.878 109.416 136.914 109.518 136.924 109.624C136.933 109.73 136.916 109.837 136.874 109.935L132.006 121.292H138.677C138.848 121.292 139.011 121.36 139.132 121.48C139.253 121.601 139.32 121.764 139.32 121.935V125.363C139.319 125.533 139.25 125.695 139.13 125.814C139.009 125.933 138.847 126 138.677 126ZM111.081 124.714H138.034V122.571H131.03C130.924 122.571 130.819 122.545 130.725 122.495C130.632 122.444 130.552 122.371 130.493 122.283C130.435 122.194 130.399 122.092 130.389 121.986C130.38 121.88 130.397 121.773 130.439 121.675L135.307 110.318H116.114L111.081 122.055V124.714Z" fill="#262424"/>
<path d="M138.677 121.929H121.639V125.357H138.677V121.929Z" fill="white"/>
<path d="M138.677 126H121.639C121.468 126 121.305 125.932 121.184 125.812C121.063 125.691 120.996 125.528 120.996 125.357V121.928C120.996 121.758 121.063 121.594 121.184 121.474C121.305 121.353 121.468 121.286 121.639 121.286H138.677C138.848 121.286 139.011 121.353 139.132 121.474C139.253 121.594 139.32 121.758 139.32 121.928V125.357C139.32 125.528 139.253 125.691 139.132 125.812C139.011 125.932 138.848 126 138.677 126ZM122.282 124.714H138.034V122.571H122.282V124.714Z" fill="#262424"/>
<path d="M121.639 121.929V125.357H110.438V121.929L115.69 109.682H119.244L113.992 121.929H121.639Z" fill="white"/>
<path d="M121.639 126H110.438C110.267 126 110.103 125.932 109.983 125.811C109.862 125.691 109.794 125.527 109.794 125.357V121.928C109.794 121.841 109.812 121.755 109.846 121.675L115.098 109.429C115.148 109.313 115.23 109.215 115.335 109.145C115.441 109.076 115.564 109.039 115.69 109.039H119.244C119.35 109.039 119.454 109.066 119.547 109.116C119.64 109.166 119.719 109.238 119.777 109.326C119.836 109.414 119.872 109.515 119.882 109.62C119.892 109.725 119.876 109.831 119.836 109.928L114.967 121.285H121.639C121.809 121.285 121.973 121.353 122.093 121.474C122.214 121.594 122.282 121.758 122.282 121.928V125.357C122.282 125.527 122.214 125.691 122.093 125.811C121.973 125.932 121.809 126 121.639 126ZM111.081 124.714H120.996V122.571H113.992C113.885 122.571 113.781 122.545 113.687 122.495C113.593 122.444 113.513 122.371 113.455 122.283C113.396 122.194 113.361 122.092 113.351 121.986C113.341 121.88 113.358 121.773 113.4 121.675L118.269 110.318H116.114L111.081 122.055V124.714Z" fill="#262424"/>
<path d="M164.979 113.786H80.5835C79.9582 113.773 79.3586 113.534 78.8951 113.115C78.4315 112.695 78.1351 112.122 78.0603 111.501L72.5745 58.7872C72.5364 58.4984 72.5612 58.2048 72.6473 57.9265C72.7333 57.6482 72.8785 57.3918 73.073 57.1748C73.2674 56.9578 73.5065 56.7855 73.7738 56.6695C74.0411 56.5535 74.3304 56.4967 74.6217 56.5029H159.017C159.642 56.516 160.242 56.7543 160.705 57.1739C161.169 57.5936 161.465 58.1665 161.54 58.7872L167.026 111.501C167.064 111.79 167.039 112.084 166.953 112.362C166.867 112.64 166.722 112.897 166.527 113.114C166.333 113.331 166.094 113.503 165.827 113.619C165.559 113.735 165.27 113.792 164.979 113.786Z" fill="#F59C0C"/>
<path d="M168.659 113.786H84.2642C83.6389 113.773 83.0393 113.534 82.5757 113.115C82.1122 112.695 81.8157 112.122 81.741 111.501L76.2551 58.7872C76.217 58.4984 76.2419 58.2048 76.3279 57.9265C76.414 57.6482 76.5592 57.3918 76.7537 57.1748C76.9481 56.9578 77.1872 56.7855 77.4545 56.6695C77.7218 56.5535 78.0111 56.4967 78.3024 56.5029H162.698C163.323 56.516 163.922 56.7543 164.386 57.1739C164.85 57.5936 165.146 58.1665 165.221 58.7872L170.707 111.501C170.745 111.79 170.72 112.084 170.634 112.362C170.548 112.64 170.403 112.897 170.208 113.114C170.014 113.331 169.775 113.503 169.507 113.619C169.24 113.735 168.951 113.792 168.659 113.786Z" fill="#2961A9"/>
<path d="M165.963 109.682H86.1078C85.7806 109.675 85.4668 109.55 85.2242 109.331C84.9816 109.111 84.8265 108.811 84.7873 108.486L79.9274 61.8043C79.9076 61.6532 79.9207 61.4995 79.9658 61.3539C80.0109 61.2083 80.087 61.0741 80.1888 60.9605C80.2905 60.847 80.4157 60.7568 80.5555 60.696C80.6954 60.6353 80.8468 60.6055 80.9993 60.6086H160.854C161.181 60.6156 161.495 60.7403 161.738 60.96C161.98 61.1797 162.135 61.4795 162.175 61.8043L167.034 108.486C167.054 108.638 167.041 108.791 166.996 108.937C166.951 109.083 166.875 109.217 166.773 109.33C166.671 109.444 166.546 109.534 166.406 109.595C166.266 109.656 166.115 109.685 165.963 109.682Z" fill="white"/>
<path d="M165.963 110.325H86.1081C85.621 110.32 85.1525 110.137 84.7911 109.811C84.4298 109.484 84.2005 109.037 84.1465 108.553L79.2867 61.8705C79.2576 61.6295 79.2804 61.3851 79.3537 61.1536C79.4269 60.9222 79.5488 60.7091 79.7113 60.5286C79.8737 60.3482 80.0729 60.2046 80.2955 60.1075C80.5181 60.0103 80.7588 59.9619 81.0017 59.9655H160.856C161.343 59.9704 161.812 60.1533 162.173 60.4798C162.535 60.8063 162.764 61.2537 162.818 61.7377L167.673 108.428C167.701 108.668 167.677 108.911 167.604 109.142C167.53 109.372 167.409 109.583 167.247 109.763C167.085 109.942 166.887 110.085 166.665 110.182C166.444 110.279 166.204 110.328 165.963 110.325ZM80.9995 61.2534C80.938 61.2509 80.8767 61.2616 80.8197 61.2849C80.7628 61.3082 80.7115 61.3435 80.6694 61.3884C80.6283 61.4363 80.5979 61.4925 80.5802 61.553C80.5624 61.6136 80.5578 61.6773 80.5665 61.7398L85.4264 108.428C85.4501 108.595 85.5312 108.748 85.6557 108.861C85.7801 108.974 85.9401 109.04 86.1081 109.048H165.963C166.024 109.05 166.086 109.039 166.143 109.016C166.2 108.993 166.251 108.958 166.293 108.913C166.334 108.865 166.364 108.809 166.382 108.748C166.4 108.687 166.405 108.624 166.396 108.561L161.536 61.8705C161.512 61.7041 161.431 61.5512 161.307 61.4382C161.182 61.3251 161.022 61.259 160.854 61.2512H80.9995V61.2534Z" fill="#262424"/>
<path d="M136.004 98.7857H90.342C90.0147 98.7788 89.7009 98.654 89.4583 98.4343C89.2157 98.2146 89.0606 97.9148 89.0214 97.59L86.0973 69.5529C86.0775 69.4017 86.0906 69.2481 86.1358 69.1024C86.1809 68.9568 86.2569 68.8226 86.3587 68.7091C86.4605 68.5955 86.5856 68.5053 86.7255 68.4446C86.8654 68.3838 87.0167 68.354 87.1692 68.3572H132.831C133.158 68.3641 133.472 68.4889 133.715 68.7085C133.957 68.9282 134.112 69.228 134.152 69.5529L137.069 97.5921C137.089 97.7426 137.075 97.8954 137.031 98.0403C136.986 98.1852 136.91 98.3188 136.809 98.432C136.708 98.5452 136.584 98.6354 136.445 98.6964C136.306 98.7574 136.156 98.7879 136.004 98.7857Z" fill="#F59C0C"/>
<path d="M134.441 96.09H91.3387L88.7319 71.0571H131.834L134.441 96.09Z" fill="white"/>
<path d="M134.441 96.7326H91.3389C91.1793 96.7335 91.025 96.6749 90.9061 96.5684C90.7873 96.4619 90.7123 96.3149 90.6958 96.1562L88.0933 71.1234C88.0839 71.0335 88.0937 70.9427 88.1218 70.8569C88.1499 70.7711 88.1958 70.6921 88.2564 70.6252C88.3171 70.5583 88.3912 70.5049 88.4739 70.4685C88.5566 70.4321 88.6461 70.4136 88.7364 70.4141H131.841C132 70.4132 132.155 70.4718 132.274 70.5783C132.392 70.6848 132.467 70.8318 132.484 70.9905L135.089 96.0233C135.098 96.1135 135.088 96.2047 135.06 96.2908C135.031 96.377 134.985 96.4561 134.924 96.5231C134.863 96.5901 134.788 96.6434 134.705 96.6795C134.622 96.7156 134.532 96.7337 134.441 96.7326ZM91.9199 95.4469H133.723L131.256 71.6998H89.4524L91.9199 95.4469Z" fill="#262424"/>
<path d="M151.231 81.7886C151.231 81.7886 156.863 83.8971 160.19 109.682H153.33L151.231 81.7886Z" fill="#F4ACB7"/>
<path d="M138.231 69.0406C138.231 69.0406 137.001 73.0284 139.322 77.5563H147.55C147.55 77.5563 147.659 73.217 146.772 70.082C145.884 66.947 138.231 69.0406 138.231 69.0406Z" fill="#262424"/>
<path d="M127.635 89.5716L123.208 81.703C123.145 81.5947 123.047 81.5108 122.93 81.4649C122.813 81.4191 122.685 81.4138 122.565 81.4502C122.507 81.4715 122.455 81.5041 122.41 81.546C122.366 81.5878 122.33 81.6382 122.305 81.694C122.28 81.7499 122.266 81.8101 122.265 81.8713C122.264 81.9324 122.274 81.9932 122.297 82.0502L123.051 84.2787L121.939 85.5644C121.296 86.2952 121.426 87.4566 122.211 88.1873L126.151 91.0802L127.635 89.5716Z" fill="white"/>
<path d="M126.16 91.725C126.023 91.7249 125.89 91.6814 125.78 91.6007L121.838 88.7143L121.78 88.6672C120.736 87.6943 120.597 86.1515 121.461 85.1529L122.331 84.1457L121.688 82.2665C121.638 82.1303 121.616 81.9856 121.622 81.8407C121.628 81.6959 121.663 81.5537 121.724 81.4222C121.786 81.2908 121.872 81.1729 121.979 81.075C122.086 80.9772 122.212 80.9015 122.348 80.8522C122.608 80.7652 122.889 80.7696 123.146 80.8648C123.402 80.9599 123.619 81.14 123.759 81.375L123.769 81.3943L128.196 89.2565C128.264 89.3775 128.291 89.5171 128.273 89.6546C128.255 89.7921 128.192 89.92 128.096 90.0193L126.623 91.53C126.563 91.5919 126.491 91.6411 126.411 91.6746C126.332 91.7081 126.246 91.7252 126.16 91.725ZM122.623 87.6965L126.08 90.2336L126.829 89.4665L123.45 83.4665L123.664 84.0729C123.701 84.1794 123.709 84.2937 123.688 84.4042C123.666 84.5148 123.616 84.6178 123.542 84.7029L122.43 85.9886C122.037 86.4429 122.127 87.2143 122.623 87.6965Z" fill="#262424"/>
<path d="M136.278 81.7886C134.777 83.145 133.002 86.3014 130.919 91.5386L127.787 88.2171L124.745 90.9493C124.745 90.9493 128.886 102.414 132.424 102.414C135.961 102.414 139.987 94.305 139.987 94.305L136.278 81.7886Z" fill="#F4ACB7"/>
<path d="M131.482 99.643C131.342 99.643 131.205 99.5968 131.093 99.5117C130.981 99.4266 130.9 99.3071 130.863 99.1716C130.269 96.9695 130.091 94.6759 130.34 92.4088C130.352 92.3252 130.38 92.2448 130.423 92.1722C130.466 92.0995 130.523 92.0361 130.591 91.9854C130.658 91.9348 130.735 91.8979 130.817 91.877C130.899 91.8561 130.984 91.8515 131.068 91.8634C131.151 91.8754 131.232 91.9037 131.304 91.9467C131.377 91.9897 131.44 92.0467 131.491 92.1142C131.542 92.1818 131.579 92.2586 131.6 92.3404C131.621 92.4222 131.625 92.5073 131.613 92.5909C131.395 94.6824 131.559 96.7961 132.098 98.8288C132.124 98.9239 132.128 99.0237 132.11 99.1206C132.091 99.2176 132.051 99.3089 131.991 99.3876C131.932 99.4664 131.855 99.5304 131.767 99.5747C131.678 99.6189 131.581 99.6423 131.482 99.643Z" fill="#A85F6A"/>
<path d="M154.957 109.682H138.362C136.019 96.1093 136.28 81.7886 136.28 81.7886C138.962 79.7528 143.46 78.9321 143.46 78.9321C143.46 78.9321 148.127 79.7528 151.233 81.7886C151.231 81.7886 154.474 96.1093 154.957 109.682Z" fill="#F4ACB7"/>
<path d="M136.872 98.2521C136.71 98.2526 136.554 98.192 136.435 98.0824C136.315 97.9727 136.242 97.8221 136.229 97.6607C135.723 91.47 135.633 86.1771 135.625 83.5735C135.625 83.403 135.692 83.2395 135.813 83.1189C135.933 82.9984 136.097 82.9307 136.268 82.9307C136.438 82.9307 136.602 82.9984 136.722 83.1189C136.843 83.2395 136.911 83.403 136.911 83.5735C136.911 86.1578 137.009 91.4121 137.511 97.56C137.525 97.7299 137.47 97.8983 137.36 98.0281C137.249 98.1579 137.091 98.2384 136.921 98.2521H136.868H136.872Z" fill="#A85F6A"/>
<path d="M154.851 108.077C154.687 108.078 154.529 108.015 154.409 107.902C154.289 107.789 154.218 107.635 154.208 107.471C153.644 97.5001 151.762 87.5272 150.98 83.7022C150.963 83.6195 150.962 83.5342 150.979 83.4513C150.995 83.3684 151.027 83.2895 151.073 83.2191C151.12 83.1486 151.18 83.0881 151.25 83.0408C151.32 82.9935 151.399 82.9605 151.481 82.9437C151.564 82.9268 151.649 82.9263 151.732 82.9424C151.815 82.9585 151.894 82.9907 151.965 83.0373C152.035 83.0838 152.096 83.1438 152.143 83.2138C152.19 83.2838 152.223 83.3623 152.24 83.4451C153.029 87.3022 154.926 97.3437 155.495 107.4C155.504 107.57 155.445 107.737 155.331 107.864C155.218 107.991 155.058 108.068 154.888 108.077H154.851Z" fill="#A85F6A"/>
<path d="M143.745 81.6962C145.752 81.6962 146.628 82.7676 146.628 82.7676C146.995 79.8876 145.048 77.9912 143.359 77.9912C141.67 77.9912 140.118 79.8876 141.085 82.7676C141.085 82.7612 141.738 81.6962 143.745 81.6962Z" fill="#A85F6A"/>
<path d="M144.052 75.6279L144.429 79.2429L143.589 80.1815L142.553 79.2429L142.176 75.6279H144.052Z" fill="white"/>
<path d="M143.589 80.8241C143.43 80.8231 143.277 80.7636 143.16 80.6569L142.131 79.7141C142.011 79.6089 141.935 79.463 141.916 79.3048L141.539 75.6898C141.53 75.5999 141.539 75.5091 141.568 75.4233C141.596 75.3375 141.642 75.2585 141.702 75.1916C141.763 75.1247 141.837 75.0713 141.92 75.0349C142.002 74.9985 142.092 74.98 142.182 74.9805H144.06C144.22 74.9796 144.374 75.0382 144.493 75.1447C144.612 75.2512 144.687 75.3982 144.703 75.5569L145.081 79.1719C145.09 79.2611 145.08 79.3512 145.053 79.4364C145.025 79.5217 144.98 79.6002 144.92 79.6669L144.06 80.6098C144.004 80.6731 143.935 80.7247 143.859 80.7615C143.782 80.7983 143.699 80.8195 143.614 80.8241H143.589ZM143.16 78.9319L143.535 79.2705L143.749 79.0262L143.462 76.2705H142.879L143.16 78.9319Z" fill="#262424"/>
<path d="M143.22 76.6459C142.406 76.6286 141.626 76.3185 141.023 75.7725C140.42 75.2265 140.034 74.4813 139.936 73.6737L139.734 71.7452C139.685 71.3694 139.718 70.9874 139.83 70.6254C139.942 70.2634 140.131 69.9299 140.384 69.6477C140.637 69.3655 140.948 69.1412 141.296 68.9903C141.644 68.8393 142.02 68.7652 142.399 68.773C143.212 68.7903 143.993 69.1004 144.596 69.6464C145.199 70.1924 145.585 70.9376 145.683 71.7452L145.885 73.6737C145.934 74.0495 145.901 74.4315 145.789 74.7935C145.677 75.1555 145.488 75.489 145.235 75.7712C144.982 76.0534 144.671 76.2777 144.323 76.4287C143.975 76.5796 143.599 76.6537 143.22 76.6459Z" fill="white"/>
<path d="M143.219 77.2887C142.248 77.2671 141.317 76.8965 140.597 76.2449C139.876 75.5932 139.415 74.7041 139.296 73.7401L139.095 71.8115C139.036 71.3459 139.078 70.873 139.217 70.4249C139.357 69.9768 139.592 69.564 139.906 69.2146C140.219 68.8652 140.604 68.5873 141.035 68.3998C141.465 68.2123 141.931 68.1196 142.401 68.128C143.372 68.1496 144.303 68.5201 145.023 69.1718C145.744 69.8234 146.205 70.7126 146.324 71.6765L146.525 73.6051C146.584 74.0708 146.542 74.5437 146.403 74.9918C146.263 75.4398 146.028 75.8526 145.714 76.202C145.401 76.5514 145.016 76.8293 144.585 77.0168C144.155 77.2043 143.689 77.297 143.219 77.2887ZM142.401 69.4137C142.114 69.4065 141.83 69.4602 141.566 69.571C141.302 69.6818 141.065 69.8473 140.87 70.0565C140.678 70.2747 140.534 70.5312 140.449 70.809C140.364 71.0869 140.338 71.3796 140.375 71.668L140.576 73.5965C140.655 74.2471 140.965 74.8475 141.451 75.2878C141.936 75.7282 142.564 75.979 143.219 75.9944C143.506 76.0015 143.79 75.9479 144.054 75.8371C144.318 75.7263 144.555 75.5608 144.75 75.3515C144.942 75.1334 145.086 74.8768 145.171 74.599C145.256 74.3212 145.282 74.0284 145.245 73.7401L145.044 71.8115C144.965 71.161 144.655 70.5606 144.169 70.1202C143.684 69.6799 143.056 69.429 142.401 69.4137Z" fill="#262424"/>
<path d="M138.969 72.0921C138.969 72.0921 143.524 73.2857 144.81 69.8571C144.81 69.8571 144.382 72.8721 145.803 72.8721C145.803 72.8721 146.928 72.0964 146.772 70.0864C146.615 68.0764 144.06 64.9693 140.529 66.4928C136.426 68.2607 138.969 72.0921 138.969 72.0921Z" fill="#262424"/>
<path d="M163.049 145.253H157.864V274.714H163.049V145.253Z" fill="#626262"/>
<path d="M191.008 145.253H185.822V274.714H191.008V145.253Z" fill="#626262"/>
<path d="M185.823 145.253V274.714H175.449V255.636H157.864V274.714H147.49V145.253H157.864V245.267H175.449V145.253H185.823Z" fill="#A5A5A5"/>
<path d="M157.864 274.286C157.721 274.286 157.585 274.229 157.485 274.129C157.384 274.028 157.328 273.892 157.328 273.75V255.643C157.328 255.501 157.384 255.364 157.485 255.264C157.585 255.163 157.721 255.107 157.864 255.107C158.006 255.107 158.142 255.163 158.243 255.264C158.343 255.364 158.4 255.501 158.4 255.643V273.756C158.398 273.897 158.341 274.032 158.24 274.131C158.14 274.23 158.005 274.286 157.864 274.286Z" fill="#262424"/>
<path d="M185.823 273.857C185.68 273.857 185.544 273.801 185.444 273.7C185.343 273.6 185.287 273.463 185.287 273.321V145.253C185.287 145.111 185.343 144.975 185.444 144.875C185.544 144.774 185.68 144.718 185.823 144.718C185.965 144.718 186.101 144.774 186.202 144.875C186.302 144.975 186.359 145.111 186.359 145.253V273.321C186.359 273.463 186.302 273.6 186.202 273.7C186.101 273.801 185.965 273.857 185.823 273.857Z" fill="#131313"/>
<path d="M157.864 245.803C157.721 245.803 157.585 245.746 157.485 245.646C157.384 245.545 157.328 245.409 157.328 245.267V145.253C157.328 145.111 157.384 144.975 157.485 144.875C157.585 144.774 157.721 144.718 157.864 144.718C158.006 144.718 158.142 144.774 158.243 144.875C158.343 144.975 158.4 145.111 158.4 145.253V245.267C158.4 245.409 158.343 245.545 158.243 245.646C158.142 245.746 158.006 245.803 157.864 245.803Z" fill="#131313"/>
<path d="M175.449 245.267H105.693V255.636H175.449V245.267Z" fill="#A5A5A5"/>
<path d="M162.112 256.172H148.776C148.634 256.172 148.498 256.116 148.397 256.015C148.297 255.915 148.24 255.778 148.24 255.636C148.24 255.494 148.297 255.358 148.397 255.258C148.498 255.157 148.634 255.101 148.776 255.101H162.112C162.255 255.101 162.391 255.157 162.491 255.258C162.592 255.358 162.648 255.494 162.648 255.636C162.648 255.778 162.592 255.915 162.491 256.015C162.391 256.116 162.255 256.172 162.112 256.172Z" fill="#262424"/>
<path d="M175.449 255.251C175.307 255.251 175.171 255.194 175.07 255.094C174.97 254.993 174.913 254.857 174.913 254.715V246.358C174.913 246.216 174.97 246.08 175.07 245.979C175.171 245.879 175.307 245.822 175.449 245.822C175.591 245.822 175.727 245.879 175.828 245.979C175.929 246.08 175.985 246.216 175.985 246.358V254.715C175.985 254.857 175.929 254.993 175.828 255.094C175.727 255.194 175.591 255.251 175.449 255.251Z" fill="#592318"/>
<path d="M162.166 245.803H148.875C148.733 245.803 148.596 245.746 148.496 245.646C148.395 245.546 148.339 245.409 148.339 245.267C148.339 245.125 148.395 244.989 148.496 244.888C148.596 244.788 148.733 244.731 148.875 244.731H162.166C162.308 244.731 162.445 244.788 162.545 244.888C162.646 244.989 162.702 245.125 162.702 245.267C162.702 245.409 162.646 245.546 162.545 245.646C162.445 245.746 162.308 245.803 162.166 245.803Z" fill="#131313"/>
<path d="M93.2936 145.253H88.1079V274.714H93.2936V145.253Z" fill="#626262"/>
<path d="M121.253 145.253H116.067V274.714H121.253V145.253Z" fill="#626262"/>
<path d="M121.253 255.251C121.111 255.251 120.974 255.194 120.874 255.094C120.773 254.993 120.717 254.857 120.717 254.715V246.375C120.717 246.233 120.773 246.097 120.874 245.996C120.974 245.896 121.111 245.839 121.253 245.839C121.395 245.839 121.531 245.896 121.632 245.996C121.732 246.097 121.789 246.233 121.789 246.375V254.715C121.789 254.857 121.732 254.993 121.632 255.094C121.531 255.194 121.395 255.251 121.253 255.251Z" fill="#131313"/>
<path d="M116.067 145.253V274.714H105.693V255.636H88.108V274.714H77.7344V145.253H88.108V245.267H105.693V145.253H116.067Z" fill="#A5A5A5"/>
<path d="M88.1082 273.857C87.9661 273.857 87.8297 273.801 87.7292 273.7C87.6287 273.6 87.5723 273.463 87.5723 273.321V255.643C87.5723 255.501 87.6287 255.364 87.7292 255.264C87.8297 255.163 87.9661 255.107 88.1082 255.107H92.5029C92.645 255.107 92.7813 255.163 92.8819 255.264C92.9824 255.364 93.0388 255.501 93.0388 255.643C93.0388 255.785 92.9824 255.921 92.8819 256.021C92.7813 256.122 92.645 256.178 92.5029 256.178H88.6441V273.321C88.6441 273.463 88.5877 273.6 88.4872 273.7C88.3867 273.801 88.2503 273.857 88.1082 273.857Z" fill="#131313"/>
<path d="M116.067 274.286C115.925 274.286 115.788 274.229 115.688 274.129C115.587 274.028 115.531 273.892 115.531 273.75V145.789H105.687C105.545 145.789 105.408 145.733 105.308 145.632C105.207 145.532 105.151 145.396 105.151 145.253C105.151 145.111 105.207 144.975 105.308 144.875C105.408 144.774 105.545 144.718 105.687 144.718H116.06C116.203 144.718 116.339 144.774 116.439 144.875C116.54 144.975 116.596 145.111 116.596 145.253V273.75C116.596 273.891 116.541 274.026 116.442 274.126C116.343 274.227 116.208 274.284 116.067 274.286Z" fill="#131313"/>
<path d="M92.5029 245.803H88.1082C87.9661 245.803 87.8297 245.746 87.7292 245.646C87.6287 245.545 87.5723 245.409 87.5723 245.267V145.253C87.5723 145.111 87.6287 144.975 87.7292 144.875C87.8297 144.774 87.9661 144.718 88.1082 144.718C88.2503 144.718 88.3867 144.774 88.4872 144.875C88.5877 144.975 88.6441 145.111 88.6441 145.253V244.731H92.5029C92.645 244.731 92.7813 244.788 92.8819 244.888C92.9824 244.989 93.0388 245.125 93.0388 245.267C93.0388 245.409 92.9824 245.545 92.8819 245.646C92.7813 245.746 92.645 245.803 92.5029 245.803Z" fill="#131313"/>
<path d="M113.848 125.357H70.8745V136.913H113.848V125.357Z" fill="#A5A5A5"/>
<path d="M113.848 136.914H197.868V125.357L113.848 125.357V136.914Z" fill="#A5A5A5"/>
<path d="M113.848 137.449C113.706 137.449 113.569 137.393 113.469 137.292C113.368 137.192 113.312 137.055 113.312 136.913V126.317C113.312 126.175 113.368 126.039 113.469 125.938C113.569 125.838 113.706 125.781 113.848 125.781C113.99 125.781 114.126 125.838 114.227 125.938C114.327 126.039 114.384 126.175 114.384 126.317V136.913C114.384 137.055 114.327 137.192 114.227 137.292C114.126 137.393 113.99 137.449 113.848 137.449Z" fill="#262424"/>
<path d="M116.065 136.914H77.7344V145.256H116.065V136.914Z" fill="white"/>
<path d="M116.067 145.896H77.7344C77.5639 145.896 77.4003 145.828 77.2797 145.708C77.1591 145.587 77.0913 145.424 77.0913 145.253V136.913C77.0913 136.743 77.1591 136.579 77.2797 136.459C77.4003 136.338 77.5639 136.271 77.7344 136.271H116.065C116.235 136.271 116.399 136.338 116.519 136.459C116.64 136.579 116.708 136.743 116.708 136.913V145.256C116.707 145.425 116.64 145.588 116.519 145.708C116.399 145.828 116.237 145.896 116.067 145.896ZM78.3797 144.611H115.424V137.556H78.3776V144.613L78.3797 144.611Z" fill="#262424"/>
<path d="M116.067 145.253H191.008V136.911H116.067V145.253Z" fill="white"/>
<path d="M191.008 145.896H116.067C115.896 145.896 115.733 145.828 115.612 145.708C115.492 145.587 115.424 145.424 115.424 145.253V136.913C115.424 136.743 115.492 136.579 115.612 136.459C115.733 136.338 115.896 136.271 116.067 136.271H191.008C191.179 136.271 191.342 136.338 191.463 136.459C191.584 136.579 191.651 136.743 191.651 136.913V145.256C191.651 145.426 191.583 145.589 191.462 145.709C191.342 145.829 191.178 145.896 191.008 145.896ZM116.71 144.611H190.365V137.556H116.71V144.613V144.611Z" fill="#262424"/>
<path d="M160.97 234.394L159.405 251.125L165.956 251.415L169.088 234.655L160.97 234.394Z" fill="white"/>
<path d="M165.956 252.058H165.926L159.375 251.766C159.288 251.763 159.203 251.741 159.124 251.703C159.046 251.665 158.976 251.612 158.919 251.546C158.862 251.48 158.819 251.404 158.792 251.321C158.765 251.238 158.756 251.15 158.764 251.064L160.329 234.332C160.344 234.169 160.421 234.018 160.544 233.91C160.666 233.802 160.826 233.744 160.989 233.749L169.106 234.011C169.198 234.014 169.289 234.037 169.372 234.078C169.455 234.12 169.528 234.179 169.586 234.251C169.644 234.323 169.686 234.407 169.708 234.497C169.731 234.587 169.734 234.68 169.717 234.771L166.585 251.531C166.558 251.678 166.48 251.811 166.365 251.907C166.251 252.004 166.106 252.057 165.956 252.058ZM160.108 250.513L165.427 250.749L168.319 235.275L161.555 235.061L160.108 250.513Z" fill="#262424"/>
<path d="M133.305 271.798V274.714H169.382C169.382 274.714 169.5 273.191 169.611 270.63C169.826 265.592 170.096 257.13 169.425 247.761L157.911 245.917C157.911 245.917 148.028 256.202 139.234 264.195C138.321 265.026 137.361 265.834 136.349 266.601C134.413 268.071 133.305 269.901 133.305 271.798Z" fill="#F04B15"/>
<path d="M150.345 264.523C150.219 264.523 150.096 264.486 149.991 264.416C149.886 264.346 149.803 264.248 149.754 264.132C149.705 264.016 149.69 263.888 149.713 263.764C149.736 263.64 149.795 263.525 149.882 263.434C157.576 255.461 161.03 248.863 161.068 248.796C161.149 248.65 161.284 248.541 161.444 248.492C161.605 248.443 161.778 248.459 161.926 248.536C162.075 248.613 162.188 248.744 162.241 248.903C162.294 249.062 162.284 249.235 162.211 249.386C162.07 249.66 158.646 256.204 150.808 264.326C150.748 264.388 150.677 264.438 150.597 264.471C150.517 264.505 150.432 264.523 150.345 264.523Z" fill="#262424"/>
<path d="M163.671 264.922C165.44 264.922 166.874 263.326 166.874 261.358C166.874 259.39 165.44 257.794 163.671 257.794C161.902 257.794 160.468 259.39 160.468 261.358C160.468 263.326 161.902 264.922 163.671 264.922Z" fill="white"/>
<path d="M163.671 265.564C161.551 265.564 159.825 263.676 159.825 261.358C159.825 259.039 161.54 257.151 163.671 257.151C165.802 257.151 167.517 259.039 167.517 261.358C167.517 263.676 165.791 265.564 163.671 265.564ZM163.671 258.435C162.26 258.435 161.111 259.746 161.111 261.356C161.111 262.965 162.26 264.276 163.671 264.276C165.082 264.276 166.231 262.965 166.231 261.356C166.231 259.746 165.084 258.428 163.671 258.428V258.435Z" fill="#AA3610"/>
<path d="M133.305 271.798V274.714H169.382C169.382 274.714 169.5 273.191 169.611 270.63H150.566C150.566 270.63 149.349 262.148 139.234 264.201C138.321 265.033 137.361 265.841 136.349 266.608C134.413 268.071 133.305 269.901 133.305 271.798Z" fill="white"/>
<path d="M169.384 275.357H133.305C133.134 275.357 132.971 275.29 132.85 275.169C132.729 275.048 132.662 274.885 132.662 274.714V271.796C132.662 269.73 133.832 267.703 135.959 266.089C136.908 265.369 137.864 264.572 138.801 263.719C138.887 263.641 138.992 263.588 139.106 263.565C142.594 262.858 145.466 263.278 147.644 264.812C149.975 266.454 150.817 268.899 151.087 269.985H169.611C169.698 269.985 169.784 270.003 169.864 270.037C169.944 270.071 170.016 270.12 170.076 270.183C170.136 270.246 170.183 270.32 170.214 270.401C170.244 270.482 170.258 270.569 170.254 270.656C170.143 273.197 170.025 274.744 170.023 274.759C170.012 274.921 169.939 275.073 169.821 275.184C169.702 275.295 169.546 275.357 169.384 275.357ZM133.95 274.072H168.784C168.822 273.502 168.88 272.542 168.94 271.273H150.568C150.413 271.275 150.262 271.22 150.143 271.118C150.025 271.017 149.948 270.876 149.925 270.722C149.925 270.694 149.443 267.649 146.888 265.856C145.048 264.57 142.574 264.208 139.53 264.784C138.608 265.616 137.667 266.398 136.743 267.107C134.945 268.47 133.956 270.133 133.956 271.789V274.072H133.95Z" fill="#262424"/>
<path d="M236.694 152.951C236.694 152.951 232.972 174.191 231.51 176.357C226.899 183.191 180.212 195.298 180.212 195.298L173.901 241.198L155.036 239.143C155.036 239.143 154.438 210.754 155.33 193.517C155.677 186.808 156.247 181.785 157.169 180.786C157.928 179.961 160.916 178.001 165.082 175.47C179.231 166.866 206.923 151.624 206.923 151.624C206.923 151.624 212.66 136.451 222.867 140.85C232.357 144.941 237.873 145.869 236.694 152.951Z" fill="#2961A9"/>
<path d="M166.636 187.05C164.473 192.017 159.561 194.747 155.33 193.517C155.677 186.808 156.247 181.785 157.169 180.787C157.928 179.962 160.916 178.001 165.082 175.47C167.757 178.114 168.499 182.76 166.636 187.05Z" fill="white"/>
<path d="M165.255 232.892H165.18C165.04 232.872 164.913 232.798 164.827 232.684C164.741 232.571 164.704 232.429 164.724 232.288L170.428 191.516C170.44 191.422 170.476 191.333 170.534 191.258C170.591 191.182 170.667 191.124 170.754 191.087L221.055 170.269L223.516 155.364C223.544 155.228 223.623 155.108 223.737 155.03C223.852 154.952 223.992 154.92 224.128 154.943C224.265 154.965 224.387 155.04 224.47 155.15C224.553 155.261 224.59 155.4 224.573 155.537L222.063 170.736C222.048 170.826 222.01 170.911 221.954 170.982C221.897 171.053 221.823 171.109 221.739 171.144L171.447 191.957L165.783 232.421C165.767 232.55 165.705 232.669 165.608 232.756C165.511 232.843 165.386 232.891 165.255 232.892Z" fill="#123A6C"/>
<path d="M171.114 237.045H171.056L157.859 235.644C157.717 235.629 157.587 235.558 157.497 235.447C157.407 235.336 157.365 235.193 157.38 235.051C157.395 234.909 157.466 234.779 157.577 234.689C157.688 234.599 157.831 234.557 157.973 234.572L171.17 235.974C171.312 235.981 171.445 236.045 171.54 236.15C171.636 236.256 171.685 236.395 171.678 236.537C171.67 236.679 171.607 236.813 171.501 236.908C171.395 237.003 171.256 237.053 171.114 237.045Z" fill="#123A6C"/>
<path d="M204.396 235.774L206.291 252.471L212.763 251.415L212.394 234.371L204.396 235.774Z" fill="white"/>
<path d="M206.291 253.114C206.132 253.115 205.979 253.058 205.86 252.953C205.741 252.847 205.666 252.702 205.648 252.544L203.753 235.847C203.734 235.685 203.779 235.521 203.877 235.39C203.975 235.259 204.119 235.171 204.28 235.142L212.278 233.739C212.37 233.723 212.463 233.727 212.553 233.75C212.643 233.774 212.726 233.816 212.798 233.875C212.87 233.934 212.928 234.007 212.968 234.091C213.009 234.174 213.031 234.265 213.033 234.358L213.402 251.402C213.404 251.556 213.35 251.706 213.251 251.824C213.152 251.942 213.014 252.02 212.861 252.045L206.389 253.102C206.357 253.108 206.324 253.113 206.291 253.114ZM205.103 236.304L206.855 251.732L212.109 250.875L211.768 235.138L205.103 236.304Z" fill="#262424"/>
<path d="M180.111 271.798V274.714H216.189C216.189 274.714 216.306 273.191 216.418 270.63C216.632 265.592 216.902 257.13 216.231 247.761L204.728 245.918C204.728 245.918 194.845 256.204 186.052 264.197C185.138 265.028 184.178 265.836 183.166 266.603C181.213 268.071 180.111 269.901 180.111 271.798Z" fill="#F04B15"/>
<path d="M197.152 264.523C197.026 264.523 196.903 264.485 196.797 264.416C196.692 264.346 196.61 264.247 196.561 264.131C196.511 264.015 196.497 263.887 196.52 263.763C196.543 263.639 196.602 263.525 196.689 263.434C204.406 255.448 207.836 248.863 207.875 248.798C207.912 248.721 207.965 248.652 208.029 248.595C208.094 248.538 208.169 248.495 208.25 248.467C208.332 248.44 208.418 248.429 208.504 248.436C208.59 248.443 208.673 248.466 208.75 248.506C208.826 248.545 208.894 248.599 208.949 248.665C209.004 248.731 209.045 248.808 209.07 248.89C209.095 248.972 209.103 249.059 209.094 249.144C209.085 249.23 209.059 249.312 209.018 249.388C208.876 249.662 205.453 256.206 197.615 264.328C197.555 264.39 197.483 264.439 197.403 264.472C197.324 264.506 197.238 264.523 197.152 264.523Z" fill="#262424"/>
<path d="M210.478 264.922C212.246 264.922 213.68 263.326 213.68 261.358C213.68 259.39 212.246 257.794 210.478 257.794C208.709 257.794 207.275 259.39 207.275 261.358C207.275 263.326 208.709 264.922 210.478 264.922Z" fill="white"/>
<path d="M210.478 265.564C208.358 265.564 206.632 263.676 206.632 261.358C206.632 259.039 208.347 257.151 210.478 257.151C212.609 257.151 214.324 259.039 214.324 261.358C214.324 263.676 212.598 265.564 210.478 265.564ZM210.478 258.435C209.067 258.435 207.918 259.746 207.918 261.356C207.918 262.965 209.067 264.276 210.478 264.276C211.888 264.276 213.037 262.965 213.037 261.356C213.037 259.746 211.89 258.428 210.478 258.428V258.435Z" fill="#AA3610"/>
<path d="M180.111 271.798V274.714H216.188C216.188 274.714 216.306 273.191 216.418 270.63H197.373C197.373 270.63 196.155 262.148 186.041 264.201C185.128 265.033 184.167 265.841 183.155 266.608C181.213 268.071 180.111 269.901 180.111 271.798Z" fill="white"/>
<path d="M216.191 275.357H180.111C179.941 275.357 179.777 275.29 179.657 275.169C179.536 275.048 179.468 274.885 179.468 274.714V271.796C179.468 269.73 180.639 267.703 182.765 266.089C183.715 265.369 184.671 264.572 185.608 263.719C185.694 263.641 185.799 263.588 185.912 263.565C189.402 262.858 192.273 263.278 194.451 264.812C196.781 266.454 197.624 268.899 197.894 269.985H216.418C216.505 269.985 216.591 270.003 216.671 270.037C216.751 270.071 216.823 270.12 216.883 270.183C216.943 270.246 216.99 270.32 217.02 270.401C217.051 270.482 217.065 270.569 217.061 270.656C216.95 273.197 216.832 274.744 216.83 274.759C216.818 274.921 216.746 275.073 216.628 275.184C216.509 275.295 216.353 275.357 216.191 275.357ZM180.757 274.072H215.591C215.627 273.502 215.687 272.542 215.747 271.273H197.375C197.219 271.275 197.068 271.22 196.95 271.118C196.832 271.017 196.754 270.876 196.732 270.722C196.732 270.692 196.25 267.649 193.694 265.856C191.855 264.57 189.379 264.208 186.337 264.784C185.415 265.618 184.474 266.398 183.55 267.107C181.751 268.47 180.763 270.133 180.763 271.789V274.072H180.757Z" fill="#262424"/>
<path d="M265.776 152.951C265.776 152.951 264.809 174.191 263.347 176.357C258.735 183.191 212.049 195.298 212.049 195.298L216.607 240.643L197.797 240.542C197.797 240.542 191.651 211.264 189.321 193.987C188.386 187.042 188.065 181.811 189.008 180.787C189.801 179.929 193.042 177.817 197.519 175.106C211.824 166.444 238.76 151.624 238.76 151.624C238.76 151.624 244.368 140.85 254.703 140.85C265.038 140.85 266.957 145.869 265.776 152.951Z" fill="#2961A9"/>
<path d="M199.821 187.335C197.793 191.991 193.358 194.681 189.317 193.978C188.382 187.033 188.061 181.802 189.004 180.778C189.797 179.921 193.038 177.808 197.515 175.097C200.792 177.581 201.854 182.67 199.821 187.335Z" fill="white"/>
<path d="M188.948 191.561C188.817 191.561 188.69 191.512 188.592 191.425C188.494 191.338 188.432 191.217 188.416 191.087C187.462 182.861 188.02 181.067 188.614 180.424C191.906 176.846 235.058 153.051 238.364 151.232C239.49 149.267 240.873 147.46 242.477 145.86C246.105 142.234 250.332 140.316 254.697 140.316C254.839 140.316 254.975 140.373 255.076 140.473C255.176 140.574 255.233 140.71 255.233 140.852C255.233 140.994 255.176 141.13 255.076 141.231C254.975 141.331 254.839 141.388 254.697 141.388C244.801 141.388 239.283 151.768 239.228 151.873C239.178 151.963 239.104 152.038 239.013 152.087C238.554 152.357 192.635 177.643 189.402 181.149C189.12 181.455 188.562 183.026 189.482 190.963C189.49 191.033 189.484 191.104 189.465 191.171C189.445 191.239 189.413 191.302 189.369 191.357C189.325 191.412 189.271 191.458 189.209 191.493C189.148 191.527 189.08 191.548 189.01 191.556L188.948 191.561Z" fill="#123A6C"/>
<path d="M253.966 167.505C253.924 167.505 253.883 167.5 253.843 167.49C252.019 167.062 250.744 166.119 250.053 164.683C248.409 161.269 250.724 156.326 250.825 156.112C250.886 155.983 250.996 155.884 251.13 155.837C251.264 155.789 251.412 155.797 251.54 155.858C251.669 155.919 251.767 156.028 251.815 156.162C251.863 156.296 251.855 156.444 251.794 156.572C251.773 156.619 249.599 161.269 251.02 164.22C251.565 165.347 252.596 166.097 254.088 166.447C254.217 166.475 254.331 166.551 254.408 166.659C254.485 166.767 254.519 166.899 254.504 167.031C254.488 167.162 254.425 167.284 254.326 167.371C254.226 167.459 254.098 167.507 253.966 167.505Z" fill="#123A6C"/>
<path d="M208.015 232.892C207.884 232.892 207.758 232.845 207.661 232.759C207.563 232.673 207.5 232.554 207.483 232.425L202.267 191.657C202.252 191.54 202.276 191.422 202.335 191.32C202.394 191.218 202.484 191.139 202.593 191.094L252.894 170.276L255.355 155.37C255.383 155.234 255.462 155.115 255.576 155.036C255.69 154.958 255.83 154.927 255.967 154.949C256.103 154.971 256.226 155.046 256.309 155.157C256.392 155.268 256.429 155.406 256.412 155.544L253.901 170.743C253.887 170.833 253.849 170.917 253.792 170.988C253.736 171.059 253.662 171.115 253.578 171.15L203.382 191.929L208.546 232.286C208.555 232.355 208.55 232.426 208.532 232.494C208.514 232.562 208.482 232.626 208.439 232.682C208.396 232.737 208.342 232.784 208.281 232.819C208.22 232.854 208.153 232.877 208.083 232.886L208.015 232.892Z" fill="#123A6C"/>
<path d="M213.874 237.045H200.677C200.534 237.045 200.398 236.989 200.298 236.888C200.197 236.788 200.141 236.651 200.141 236.509C200.141 236.367 200.197 236.231 200.298 236.131C200.398 236.03 200.534 235.974 200.677 235.974H213.874C213.944 235.974 214.014 235.987 214.079 236.014C214.144 236.041 214.203 236.081 214.253 236.131C214.302 236.18 214.342 236.239 214.369 236.304C214.396 236.369 214.409 236.439 214.409 236.509C214.409 236.58 214.396 236.649 214.369 236.714C214.342 236.779 214.302 236.838 214.253 236.888C214.203 236.938 214.144 236.977 214.079 237.004C214.014 237.031 213.944 237.045 213.874 237.045Z" fill="#123A6C"/>
<path d="M143.818 124.266C143.962 124.483 144.177 124.642 144.427 124.717C144.676 124.792 144.943 124.778 145.183 124.678L156.279 120.032C156.494 119.943 156.735 119.937 156.955 120.016C157.174 120.095 157.355 120.254 157.463 120.461C157.524 120.576 157.56 120.703 157.568 120.833C157.577 120.964 157.558 121.094 157.513 121.217C157.468 121.339 157.398 121.451 157.307 121.544C157.216 121.638 157.106 121.711 156.985 121.759L153.36 123.206C153.059 123.326 152.806 123.542 152.641 123.821C152.477 124.1 152.409 124.425 152.448 124.746C152.49 125.089 152.652 125.406 152.905 125.641C153.158 125.877 153.486 126.015 153.831 126.032L159.405 126.313C161.144 126.401 162.855 125.846 164.211 124.753L165.892 123.401L169.982 123.234L172.357 116.554L166.807 115.995L158.852 113.115C158.249 112.897 157.6 112.837 156.967 112.943C156.335 113.049 155.74 113.316 155.242 113.719L144.036 122.771C143.82 122.948 143.677 123.199 143.637 123.476C143.596 123.753 143.661 124.035 143.818 124.266Z" fill="white"/>
<path d="M159.763 126.96C159.633 126.96 159.503 126.96 159.373 126.96L153.799 126.679C153.315 126.659 152.853 126.473 152.49 126.152C152.127 125.832 151.886 125.396 151.806 124.919C151.727 124.441 151.814 123.951 152.054 123.53C152.293 123.109 152.67 122.784 153.122 122.608L156.747 121.162C156.782 121.148 156.814 121.127 156.841 121.1C156.868 121.074 156.889 121.042 156.904 121.008C156.919 120.973 156.927 120.936 156.927 120.898C156.927 120.86 156.92 120.823 156.906 120.788C156.892 120.753 156.871 120.721 156.845 120.694C156.819 120.667 156.787 120.645 156.752 120.63C156.718 120.616 156.68 120.608 156.643 120.607C156.605 120.607 156.567 120.614 156.532 120.628L145.432 125.269C145.055 125.426 144.636 125.447 144.245 125.33C143.855 125.213 143.516 124.964 143.288 124.627C143.04 124.261 142.939 123.815 143.005 123.378C143.072 122.941 143.3 122.545 143.646 122.269L154.852 113.218C155.437 112.747 156.134 112.435 156.876 112.311C157.617 112.187 158.378 112.255 159.085 112.509L166.955 115.361L172.426 115.912C172.523 115.921 172.617 115.953 172.701 116.004C172.784 116.055 172.854 116.125 172.907 116.208C172.959 116.29 172.992 116.384 173.002 116.481C173.013 116.578 173.001 116.677 172.968 116.769L170.58 123.45C170.538 123.571 170.46 123.677 170.356 123.753C170.253 123.829 170.13 123.873 170.001 123.879L166.121 124.037L164.608 125.257C163.235 126.361 161.525 126.962 159.763 126.96ZM156.644 119.314C157.012 119.313 157.369 119.44 157.653 119.674C157.937 119.908 158.13 120.234 158.199 120.595C158.268 120.957 158.208 121.331 158.03 121.653C157.851 121.975 157.566 122.224 157.223 122.357L153.597 123.804C153.423 123.873 153.278 124.001 153.186 124.164C153.094 124.328 153.06 124.518 153.091 124.703C153.122 124.888 153.215 125.057 153.355 125.182C153.495 125.306 153.674 125.38 153.861 125.389L159.435 125.67C161.014 125.75 162.567 125.246 163.8 124.256L165.48 122.904C165.588 122.817 165.72 122.768 165.858 122.762L169.515 122.612L171.476 117.116L166.743 116.64C166.69 116.635 166.638 116.624 166.589 116.606L158.637 113.719C158.139 113.541 157.604 113.492 157.082 113.579C156.56 113.665 156.069 113.884 155.655 114.214L144.45 123.266C144.358 123.337 144.295 123.44 144.274 123.555C144.252 123.669 144.273 123.788 144.333 123.888C144.393 123.988 144.487 124.063 144.599 124.098C144.71 124.134 144.83 124.127 144.937 124.08L156.033 119.437C156.226 119.356 156.434 119.314 156.644 119.314Z" fill="#262424"/>
<path d="M231.772 100.172C231.772 100.172 219.027 111.557 209.185 119.983C208.393 120.66 207.624 121.316 206.876 121.95C204.283 124.15 200.991 125.358 197.59 125.357H170.15C166.934 122.501 165.993 118.884 168.077 114.257L192.867 107.357L220.933 76.3843L231.772 100.172Z" fill="#F59C0C"/>
<path d="M209.185 119.983C208.393 120.66 207.623 121.315 206.876 121.95C204.282 124.15 200.991 125.358 197.589 125.357H195.874C195.772 125.054 195.694 124.743 195.641 124.427C195.053 120.895 197.784 117.499 201.727 116.841C204.848 116.325 207.791 117.664 209.185 119.983Z" fill="white"/>
<path d="M172.146 124.198C172.856 123.841 173.142 122.977 172.786 122.268C172.429 121.558 171.565 121.272 170.855 121.628C170.145 121.984 169.858 122.849 170.215 123.558C170.572 124.268 171.436 124.554 172.146 124.198Z" fill="white"/>
<path d="M171.5 124.995C170.988 124.992 170.496 124.802 170.115 124.46C169.735 124.118 169.494 123.648 169.438 123.14C169.382 122.631 169.514 122.12 169.81 121.703C170.106 121.286 170.545 120.993 171.044 120.878C171.542 120.764 172.066 120.836 172.514 121.082C172.963 121.328 173.305 121.73 173.476 122.212C173.648 122.693 173.636 123.221 173.444 123.695C173.251 124.169 172.891 124.555 172.432 124.781C172.142 124.924 171.823 124.997 171.5 124.995ZM171.5 122.117C171.326 122.119 171.158 122.176 171.021 122.282C170.884 122.388 170.784 122.535 170.739 122.702C170.693 122.869 170.703 123.047 170.767 123.208C170.832 123.368 170.947 123.504 171.095 123.593C171.244 123.683 171.417 123.721 171.59 123.703C171.762 123.685 171.924 123.61 172.05 123.492C172.176 123.373 172.261 123.217 172.29 123.046C172.319 122.875 172.291 122.7 172.211 122.546C172.144 122.415 172.042 122.306 171.916 122.231C171.791 122.155 171.646 122.116 171.5 122.117Z" fill="#905921"/>
<path d="M175.86 124.999C175.755 125 175.651 124.974 175.558 124.925C175.465 124.875 175.386 124.804 175.327 124.717C171.929 119.694 173.037 113.904 173.084 113.659C173.123 113.498 173.223 113.358 173.363 113.268C173.503 113.179 173.672 113.147 173.835 113.179C173.998 113.212 174.142 113.306 174.237 113.442C174.332 113.578 174.371 113.746 174.345 113.91C174.33 113.985 173.305 119.439 176.39 123.997C176.455 124.093 176.493 124.205 176.499 124.322C176.506 124.438 176.48 124.554 176.426 124.657C176.371 124.76 176.29 124.846 176.191 124.906C176.091 124.967 175.977 124.999 175.86 124.999Z" fill="#905921"/>
<path d="M274.634 81.5872C274.634 81.5872 257.803 70.4079 245.403 70.6307C233.004 70.8536 220.935 76.3864 220.935 76.3864C210.859 97.4143 205.3 151.217 205.3 151.217C205.3 151.217 218.592 156.347 255.792 158.432L257.368 149.061C257.426 148.715 257.616 148.405 257.897 148.195C258.179 147.986 258.531 147.893 258.879 147.936C259.057 147.959 259.23 148.016 259.386 148.105C259.542 148.194 259.679 148.313 259.789 148.455C259.898 148.598 259.979 148.76 260.026 148.934C260.072 149.107 260.084 149.288 260.06 149.466L258.823 158.814C262.121 159.179 265.439 159.322 268.755 159.242C274.28 119.786 274.634 81.5872 274.634 81.5872Z" fill="#F59C0C"/>
<path d="M210.023 118.181C209.943 118.181 209.865 118.164 209.793 118.13C209.72 118.096 209.657 118.046 209.606 117.985C209.556 117.923 209.52 117.851 209.501 117.774C209.481 117.697 209.48 117.616 209.496 117.538L212.433 102.429C214.332 92.8501 216.95 84.0215 219.803 77.5715C219.828 77.5024 219.866 77.4392 219.917 77.3857C219.967 77.3322 220.028 77.2896 220.095 77.2605C220.163 77.2315 220.235 77.2166 220.309 77.2168C220.382 77.217 220.455 77.2323 220.522 77.2617C220.589 77.2912 220.65 77.3341 220.7 77.3879C220.75 77.4417 220.788 77.5052 220.813 77.5744C220.837 77.6436 220.847 77.7172 220.842 77.7904C220.837 77.8636 220.816 77.935 220.783 78.0001C217.959 84.3837 215.367 93.1308 213.494 102.643L210.557 117.765C210.529 117.885 210.461 117.992 210.364 118.068C210.267 118.144 210.146 118.183 210.023 118.181Z" fill="#905921"/>
<path d="M258.476 76.6245C256.084 81.7287 251.831 83.6959 249.19 84.4245C248.637 80.7109 246.932 76.0095 246.932 76.0095C244.789 78.7759 243.571 82.4895 243.247 84.1909C236.638 82.1423 236.085 75.7095 236.085 75.7095C237.108 69.3152 242.788 64.6566 247.524 64.9716C257.994 65.668 258.476 76.6245 258.476 76.6245Z" fill="white"/>
<path d="M249.19 85.0717C249.034 85.0733 248.883 85.0187 248.765 84.9179C248.647 84.817 248.569 84.6768 248.546 84.5231C248.173 82.0245 247.26 79.0288 246.722 77.4109C245.379 79.53 244.415 81.8662 243.873 84.3152C243.856 84.4044 243.821 84.4889 243.769 84.5634C243.717 84.6379 243.65 84.7005 243.573 84.7473C243.495 84.7941 243.408 84.8238 243.318 84.8347C243.228 84.8455 243.136 84.8372 243.05 84.8102C236.108 82.6674 235.444 75.8402 235.437 75.7717C235.431 75.7197 235.431 75.6672 235.437 75.6152C236.563 68.5695 242.726 64.0202 247.554 64.3374C253.263 64.7166 256.107 68.0466 257.486 70.7659C258.396 72.5855 258.946 74.564 259.104 76.5924C259.109 76.6965 259.089 76.8002 259.044 76.8945C258.118 78.8755 256.771 80.6305 255.096 82.0369C253.422 83.4434 251.46 84.4674 249.348 85.0374C249.297 85.0555 249.244 85.067 249.19 85.0717ZM246.932 75.3709C247.065 75.3713 247.194 75.4127 247.302 75.4894C247.411 75.5662 247.492 75.6745 247.537 75.7995C247.603 75.9817 249.061 80.0252 249.704 83.6038C251.467 83.0329 253.096 82.1098 254.492 80.8905C255.887 79.6712 257.02 78.1812 257.822 76.5109C257.646 74.7046 257.141 72.9457 256.332 71.3209C254.542 67.8109 251.565 65.8952 247.483 65.6252C243.232 65.3402 237.759 69.6045 236.734 75.7395C236.816 76.4338 237.573 81.3774 242.778 83.3595C243.247 81.4867 244.413 78.2167 246.422 75.6259C246.481 75.5467 246.558 75.4822 246.647 75.4376C246.735 75.393 246.833 75.3695 246.932 75.3688V75.3709Z" fill="#262424"/>
<path d="M285.188 181.071H245.121V173.143C245.126 168.427 247.002 163.906 250.338 160.572C253.674 157.238 258.197 155.362 262.914 155.357H285.188V181.071ZM287.546 189.643C289.194 189.643 290.776 188.988 291.942 187.823C293.108 186.657 293.763 185.077 293.763 183.428V153C293.763 151.352 293.108 149.771 291.942 148.606C290.776 147.44 289.194 146.786 287.546 146.786H262.914C255.921 146.786 249.214 149.563 244.269 154.505C239.324 159.448 236.546 166.152 236.546 173.143V183.428C236.546 185.077 237.201 186.657 238.367 187.823C239.533 188.988 241.114 189.643 242.763 189.643H287.546Z" fill="#262424"/>
<path d="M283.798 136.629C282.941 141.716 281.655 145.689 279.725 146.7C279.041 147.609 277.56 148.74 275.616 149.981C267.412 155.207 250.928 162.319 250.928 162.319C243.063 160.605 243.104 152.141 243.104 152.141L264.147 130.498C264.147 130.498 268.708 95.6935 269.457 90.4778C270.205 85.2621 274.636 81.585 274.636 81.585C281.655 86.0335 283.974 94.5278 284.986 109.29C285.38 115.071 285.301 127.607 283.798 136.629Z" fill="#F59C0C"/>
<path d="M250.926 162.857C250.888 162.857 250.85 162.853 250.812 162.844C242.619 161.059 242.565 152.229 242.565 152.13C242.566 151.991 242.621 151.858 242.718 151.759L263.636 130.243C263.988 127.554 268.211 95.3614 268.925 90.3857C269.392 87.1242 271.221 84.4542 272.672 82.7892C272.767 82.6876 272.898 82.6267 273.036 82.6194C273.175 82.6121 273.311 82.659 273.416 82.7502C273.521 82.8414 273.586 82.9697 273.598 83.1082C273.61 83.2466 273.568 83.3843 273.48 83.4921C272.123 85.0478 270.417 87.5335 269.986 90.5378C269.247 95.6807 264.723 130.204 264.676 130.551C264.661 130.666 264.609 130.773 264.528 130.856L243.642 152.357C243.691 153.643 244.272 160.217 250.872 161.762C252.079 161.237 259.893 157.815 267.043 154.159C267.169 154.094 267.316 154.083 267.452 154.126C267.587 154.17 267.699 154.265 267.764 154.392C267.829 154.518 267.841 154.665 267.797 154.8C267.754 154.936 267.658 155.048 267.532 155.113C259.767 159.083 251.224 162.778 251.138 162.814C251.071 162.843 250.999 162.857 250.926 162.857Z" fill="#905921"/>
<path d="M244.673 153.144C244.673 153.144 250.324 155.259 251.033 160.607L246.317 167.571L245.048 173.214C244.983 173.502 244.831 173.765 244.613 173.965C244.395 174.166 244.121 174.295 243.828 174.336L237.365 175.239C237.158 175.267 236.948 175.252 236.748 175.192C236.549 175.133 236.364 175.032 236.207 174.895C236.049 174.758 235.923 174.59 235.837 174.4C235.75 174.211 235.705 174.005 235.705 173.796V166.607L233.99 173.37C233.937 173.58 233.838 173.775 233.7 173.942C233.562 174.108 233.389 174.242 233.192 174.334C232.996 174.425 232.782 174.471 232.565 174.47C232.349 174.468 232.136 174.418 231.941 174.324C231.696 174.205 231.489 174.019 231.344 173.788C231.198 173.558 231.121 173.291 231.12 173.019L231.096 163.517C231.095 162.948 231.238 162.388 231.513 161.89C231.788 161.391 232.185 160.971 232.668 160.669L244.673 153.144Z" fill="white"/>
<path d="M237.163 175.894C236.606 175.894 236.072 175.673 235.678 175.279C235.284 174.885 235.062 174.351 235.062 173.794V171.786L234.634 173.526C234.557 173.829 234.414 174.111 234.215 174.351C234.017 174.592 233.767 174.785 233.484 174.916C233.201 175.048 232.892 175.115 232.58 175.113C232.268 175.11 231.96 175.038 231.679 174.902C231.327 174.729 231.029 174.462 230.82 174.13C230.611 173.797 230.499 173.413 230.496 173.021L230.453 163.519C230.448 162.841 230.618 162.172 230.946 161.577C231.273 160.982 231.748 160.482 232.325 160.123L244.33 152.597C244.414 152.545 244.508 152.512 244.607 152.502C244.706 152.492 244.805 152.505 244.898 152.539C245.144 152.632 250.917 154.856 251.67 160.522C251.691 160.678 251.653 160.837 251.565 160.967L246.917 167.824L245.674 173.357C245.579 173.773 245.36 174.15 245.046 174.439C244.732 174.728 244.338 174.915 243.916 174.975L237.453 175.877C237.357 175.89 237.26 175.895 237.163 175.894ZM235.705 165.964H235.785C235.941 165.984 236.085 166.06 236.189 166.179C236.293 166.297 236.35 166.45 236.349 166.607V173.786C236.349 173.902 236.374 174.017 236.422 174.123C236.47 174.229 236.541 174.323 236.628 174.399C236.716 174.475 236.819 174.532 236.931 174.565C237.042 174.598 237.159 174.607 237.275 174.591L243.744 173.7C243.908 173.677 244.061 173.604 244.183 173.492C244.304 173.38 244.389 173.233 244.426 173.072L245.695 167.43C245.713 167.353 245.745 167.281 245.79 167.216L250.364 160.459C249.687 156.375 245.822 154.361 244.735 153.87L233.015 161.218C232.624 161.461 232.303 161.8 232.08 162.203C231.858 162.606 231.743 163.059 231.746 163.519L231.776 173.021C231.777 173.157 231.811 173.291 231.877 173.411C231.943 173.53 232.038 173.631 232.154 173.705C232.269 173.778 232.401 173.821 232.537 173.83C232.673 173.839 232.81 173.813 232.934 173.756C233.043 173.705 233.14 173.63 233.217 173.537C233.295 173.444 233.35 173.335 233.379 173.218L235.094 166.455C235.128 166.317 235.206 166.195 235.317 166.106C235.427 166.017 235.564 165.967 235.705 165.964Z" fill="#262424"/>
<path d="M283.798 136.629C282.941 141.716 281.655 145.689 279.725 146.7C279.041 147.609 277.56 148.74 275.616 149.981C275.438 149.831 275.264 149.668 275.097 149.497C272.214 146.522 272.445 141.624 275.614 138.568C277.905 136.339 281.11 135.688 283.798 136.629Z" fill="white"/>
<path d="M256.356 157.822C256.224 157.821 256.096 157.772 255.998 157.683C255.9 157.595 255.838 157.473 255.824 157.342C255.158 151.074 249.498 149.604 249.44 149.591C249.307 149.552 249.194 149.464 249.125 149.344C249.056 149.224 249.036 149.082 249.069 148.948C249.102 148.813 249.186 148.697 249.303 148.623C249.421 148.549 249.562 148.524 249.698 148.552C249.762 148.567 256.144 150.223 256.89 157.23C256.905 157.371 256.863 157.513 256.774 157.623C256.685 157.734 256.555 157.804 256.414 157.819H256.356V157.822Z" fill="#905921"/>
<path d="M253.338 159.161C254.048 159.161 254.624 158.585 254.624 157.875C254.624 157.165 254.048 156.589 253.338 156.589C252.627 156.589 252.051 157.165 252.051 157.875C252.051 158.585 252.627 159.161 253.338 159.161Z" fill="white"/>
<path d="M253.338 159.803C252.956 159.803 252.583 159.69 252.266 159.478C251.948 159.266 251.701 158.965 251.555 158.613C251.409 158.26 251.371 157.873 251.445 157.499C251.52 157.124 251.703 156.781 251.973 156.511C252.243 156.241 252.587 156.058 252.961 155.983C253.335 155.909 253.723 155.947 254.076 156.093C254.428 156.239 254.73 156.486 254.942 156.803C255.154 157.121 255.267 157.493 255.267 157.875C255.267 158.386 255.064 158.877 254.702 159.238C254.34 159.6 253.849 159.803 253.338 159.803ZM253.338 157.232C253.21 157.232 253.086 157.27 252.98 157.34C252.874 157.411 252.792 157.511 252.743 157.629C252.695 157.746 252.682 157.876 252.707 158C252.732 158.125 252.793 158.239 252.883 158.329C252.973 158.419 253.087 158.481 253.212 158.505C253.337 158.53 253.466 158.517 253.584 158.469C253.701 158.42 253.802 158.338 253.872 158.232C253.943 158.126 253.981 158.002 253.981 157.875C253.981 157.704 253.913 157.541 253.792 157.42C253.672 157.3 253.508 157.232 253.338 157.232Z" fill="#905921"/>
<path d="M254.079 52.228L253.7 58.6566L253.057 69.6645C249.267 72.1352 245.652 72.2916 242.259 69.568L242.934 64.468L243.957 56.743L254.079 52.228Z" fill="white"/>
<path d="M247.47 72.2144C245.506 72.2144 243.629 71.5008 241.854 70.0716C241.767 70.0025 241.7 69.9124 241.659 69.81C241.618 69.7075 241.603 69.5961 241.618 69.4866L243.313 56.6594C243.328 56.5504 243.37 56.4469 243.435 56.3587C243.501 56.2706 243.588 56.2007 243.689 56.1559L253.82 51.643C253.921 51.5978 254.032 51.5795 254.142 51.5896C254.252 51.5998 254.358 51.6382 254.449 51.7011C254.539 51.764 254.613 51.8493 254.661 51.9487C254.709 52.0482 254.731 52.1584 254.725 52.2687L253.698 69.7094C253.692 69.81 253.662 69.9078 253.612 69.9949C253.561 70.082 253.491 70.1559 253.406 70.2108C251.354 71.5466 249.375 72.2144 247.47 72.2144ZM242.943 69.2937C245.843 71.4687 248.945 71.473 252.433 69.3044L253.378 53.2459L244.544 57.1866L242.943 69.2937Z" fill="#262424"/>
<path d="M250.583 53.7856C250.437 56.6935 250.386 66.6085 242.54 67.4271L243.952 56.7449L250.583 53.7856Z" fill="#262424"/>
<path d="M234.513 52.3863C235.047 57.6877 236.586 64.0263 242.949 63.0405C250.512 61.8663 255.402 56.522 255.473 49.3263C255.544 42.1305 252.225 38.0741 243.605 38.8991C242.872 38.9677 242.145 39.0974 241.433 39.287C236.475 40.622 233.98 44.732 234.288 49.5513C234.344 50.4234 234.408 51.3877 234.513 52.3863Z" fill="white"/>
<path d="M241.682 63.7863C240.248 63.8189 238.848 63.3489 237.725 62.4578C234.56 59.9185 233.96 54.4863 233.651 49.6006C233.463 46.6542 234.25 44.0292 235.926 41.9978C237.69 39.8549 240.327 38.5692 243.549 38.2671C243.72 38.2509 243.89 38.3031 244.022 38.4122C244.154 38.5213 244.237 38.6783 244.253 38.8488C244.27 39.0193 244.217 39.1893 244.108 39.3213C243.999 39.4533 243.842 39.5366 243.671 39.5528C238.012 40.0949 234.582 44.0078 234.936 49.5235C235.15 52.8599 235.547 59.0699 238.535 61.4678C239.673 62.3806 241.086 62.6935 242.855 62.4192C245.674 61.9906 248.105 60.962 250.083 59.3913C250.217 59.2853 250.387 59.2367 250.557 59.2562C250.726 59.2757 250.881 59.3617 250.987 59.4953C251.093 59.6288 251.142 59.799 251.122 59.9684C251.103 60.1378 251.017 60.2925 250.883 60.3985C248.758 62.087 246.051 63.227 243.052 63.692C242.598 63.7587 242.14 63.7902 241.682 63.7863Z" fill="#262424"/>
<path d="M257.721 50.6805C256.993 51.7346 256.173 52.7233 255.273 53.6355L251.46 53.8712L250.647 51.1712C250.647 51.1712 248.227 51.0641 247.725 49.4312C247.712 49.3941 247.701 49.3562 247.693 49.3177C247.564 48.782 247.069 46.397 247.431 42.6898C247.431 42.6898 241.613 45.2612 238.445 45.5912C237.307 45.7112 235.975 45.2741 234.736 44.6612C232.258 43.4355 230.091 39.3984 230.524 36.6684V36.617C231.205 32.6163 233.291 35.387 233.291 35.387C233.291 35.387 233.887 32.1727 235.907 31.9327C237.926 31.6927 239.212 34.6777 239.212 34.6777C243.088 33.7751 247.099 33.6079 251.037 34.1848C258.843 35.3762 256.9 40.7505 256.9 40.7505C256.9 40.7505 262.648 42.5955 257.721 50.6805Z" fill="#785113"/>
<path d="M252.289 53.4621C251.961 50.4621 254.075 47.6657 257.081 47.3207C257.718 47.2441 258.364 47.2899 258.984 47.4557C262.708 48.4607 261.73 57.1286 252.617 56.4686L252.289 53.4621Z" fill="white"/>
<path d="M253.569 57.1456C253.245 57.1456 252.913 57.1328 252.57 57.1092C252.4 57.0967 252.241 57.017 252.129 56.8876C252.017 56.7582 251.962 56.5897 251.974 56.4192C251.987 56.2487 252.066 56.0902 252.196 55.9784C252.325 55.8667 252.494 55.811 252.664 55.8235C257.683 56.1878 259.925 53.6271 260.315 51.3235C260.583 49.7463 259.953 48.3792 258.815 48.0728C258.273 47.9285 257.71 47.8885 257.153 47.9549C254.529 48.2571 252.634 50.6935 252.928 53.3892C252.947 53.5597 252.897 53.7306 252.789 53.8642C252.681 53.9978 252.525 54.0832 252.355 54.1017C252.184 54.1202 252.013 54.0702 251.879 53.9627C251.746 53.8552 251.66 53.699 251.642 53.5285C251.273 50.1321 253.676 47.0592 257.001 46.6713C257.719 46.5864 258.447 46.6387 259.145 46.8256C260.935 47.3078 261.958 49.2878 261.576 51.5399C261.096 54.4092 258.437 57.1456 253.569 57.1456Z" fill="#262424"/>
<path d="M89.585 275.357H286.227C286.397 275.357 286.561 275.289 286.682 275.169C286.802 275.048 286.87 274.885 286.87 274.714C286.87 274.544 286.802 274.38 286.682 274.26C286.561 274.139 286.397 274.071 286.227 274.071H89.585C89.4145 274.071 89.2509 274.139 89.1303 274.26C89.0096 274.38 88.9419 274.544 88.9419 274.714C88.9419 274.885 89.0096 275.048 89.1303 275.169C89.2509 275.289 89.4145 275.357 89.585 275.357Z" fill="#262424"/>
<path d="M83.6254 274.071H73.2046C73.0341 274.071 72.8705 274.139 72.7499 274.26C72.6293 274.38 72.5615 274.544 72.5615 274.714C72.5615 274.885 72.6293 275.048 72.7499 275.169C72.8705 275.289 73.0341 275.357 73.2046 275.357H83.6254C83.796 275.357 83.9596 275.289 84.0802 275.169C84.2008 275.048 84.2685 274.885 84.2685 274.714C84.2685 274.544 84.2008 274.38 84.0802 274.26C83.9596 274.139 83.796 274.071 83.6254 274.071Z" fill="#262424"/>
<path d="M295.882 274.071H290.671C290.5 274.071 290.337 274.139 290.216 274.26C290.096 274.38 290.028 274.544 290.028 274.714C290.028 274.885 290.096 275.048 290.216 275.169C290.337 275.289 290.5 275.357 290.671 275.357H295.882C296.053 275.357 296.217 275.289 296.337 275.169C296.458 275.048 296.526 274.885 296.526 274.714C296.526 274.544 296.458 274.38 296.337 274.26C296.217 274.139 296.053 274.071 295.882 274.071Z" fill="#262424"/>
<path d="M143.693 283.843H232.121C232.292 283.843 232.455 283.775 232.576 283.655C232.696 283.534 232.764 283.37 232.764 283.2C232.764 283.029 232.696 282.866 232.576 282.745C232.455 282.625 232.292 282.557 232.121 282.557H143.693C143.523 282.557 143.359 282.625 143.239 282.745C143.118 282.866 143.05 283.029 143.05 283.2C143.05 283.37 143.118 283.534 143.239 283.655C143.359 283.775 143.523 283.843 143.693 283.843Z" fill="#262424"/>
<path d="M113.848 283.843H132.447C132.618 283.843 132.782 283.775 132.902 283.655C133.023 283.534 133.09 283.37 133.09 283.2C133.09 283.029 133.023 282.866 132.902 282.745C132.782 282.625 132.618 282.557 132.447 282.557H113.848C113.678 282.557 113.514 282.625 113.393 282.745C113.273 282.866 113.205 283.029 113.205 283.2C113.205 283.37 113.273 283.534 113.393 283.655C113.514 283.775 113.678 283.843 113.848 283.843Z" fill="#262424"/>
<path d="M245.337 283.843H251.462C251.632 283.843 251.796 283.775 251.917 283.655C252.037 283.534 252.105 283.37 252.105 283.2C252.105 283.029 252.037 282.866 251.917 282.745C251.796 282.625 251.632 282.557 251.462 282.557H245.346C245.175 282.557 245.012 282.625 244.891 282.745C244.77 282.866 244.703 283.029 244.703 283.2C244.703 283.37 244.77 283.534 244.891 283.655C245.012 283.775 245.175 283.843 245.346 283.843" fill="#262424"/>
<path d="M189.452 78.077C189.362 78.077 189.273 78.0542 189.194 78.0108C189.115 77.9673 189.048 77.9046 188.999 77.8285L187.619 75.6577C187.546 75.5379 187.523 75.3942 187.555 75.2576C187.587 75.1209 187.671 75.0023 187.789 74.927C187.908 74.8518 188.051 74.8261 188.188 74.8553C188.326 74.8846 188.446 74.9665 188.523 75.0835L189.904 77.2542C189.956 77.3352 189.984 77.4285 189.987 77.5244C189.99 77.6203 189.968 77.7152 189.921 77.7993C189.875 77.8834 189.807 77.9535 189.725 78.0024C189.642 78.0512 189.548 78.077 189.452 78.077ZM191.595 76.7913C191.479 76.7913 191.367 76.7536 191.274 76.684C191.181 76.6143 191.113 76.5165 191.081 76.4051C191.049 76.2938 191.053 76.1749 191.094 76.0664C191.135 75.9579 191.21 75.8657 191.308 75.8035L193.48 74.4235C193.539 74.3841 193.606 74.357 193.676 74.3438C193.746 74.3305 193.818 74.3313 193.888 74.3461C193.957 74.361 194.023 74.3896 194.082 74.4302C194.14 74.4709 194.19 74.5228 194.228 74.5829C194.266 74.643 194.292 74.7101 194.304 74.7803C194.316 74.8506 194.314 74.9224 194.298 74.9918C194.282 75.0611 194.252 75.1266 194.21 75.1843C194.168 75.2419 194.115 75.2907 194.054 75.3277L191.883 76.7077C191.799 76.7593 191.703 76.7868 191.604 76.787L191.595 76.7913ZM195.939 74.0292C195.823 74.0291 195.71 73.9915 195.617 73.9218C195.524 73.8522 195.457 73.7543 195.424 73.643C195.392 73.5316 195.397 73.4128 195.438 73.3043C195.478 73.1958 195.554 73.1035 195.651 73.0413L197.823 71.6613C197.882 71.622 197.949 71.5949 198.019 71.5816C198.089 71.5683 198.161 71.5692 198.231 71.584C198.3 71.5989 198.366 71.6274 198.425 71.6681C198.483 71.7087 198.533 71.7606 198.571 71.8208C198.61 71.8809 198.635 71.948 198.647 72.0182C198.659 72.0884 198.657 72.1603 198.641 72.2297C198.625 72.299 198.595 72.3644 198.553 72.4221C198.511 72.4798 198.458 72.5286 198.398 72.5656L196.226 73.9456C196.14 74.0003 196.04 74.0293 195.939 74.0292ZM186.686 73.7377C186.596 73.7377 186.507 73.7149 186.428 73.6715C186.349 73.628 186.282 73.5653 186.234 73.4892L184.853 71.3185C184.78 71.1986 184.757 71.0549 184.789 70.9183C184.821 70.7817 184.905 70.663 185.024 70.5878C185.142 70.5126 185.286 70.4868 185.423 70.5161C185.56 70.5453 185.681 70.6272 185.758 70.7442L187.149 72.9127C187.201 72.994 187.23 73.0878 187.233 73.184C187.235 73.2803 187.212 73.3755 187.166 73.4598C187.119 73.544 187.05 73.614 186.967 73.6626C186.884 73.7111 186.789 73.7364 186.693 73.7356L186.686 73.7377ZM200.282 71.2713C200.166 71.2713 200.053 71.2336 199.96 71.164C199.868 71.0943 199.8 70.9965 199.768 70.8851C199.735 70.7738 199.74 70.6549 199.781 70.5464C199.822 70.4379 199.897 70.3457 199.995 70.2835L202.166 68.9035C202.226 68.8641 202.292 68.837 202.362 68.8238C202.432 68.8105 202.504 68.8113 202.574 68.8262C202.644 68.841 202.71 68.8696 202.768 68.9102C202.827 68.9509 202.876 69.0028 202.915 69.0629C202.953 69.123 202.979 69.1901 202.991 69.2604C203.003 69.3306 203 69.4024 202.984 69.4718C202.968 69.5412 202.938 69.6066 202.896 69.6643C202.855 69.722 202.802 69.7707 202.741 69.8077L200.569 71.1877C200.485 71.2405 200.388 71.2687 200.288 71.2692L200.282 71.2713ZM183.934 69.3963C183.844 69.3963 183.755 69.3735 183.676 69.3301C183.597 69.2866 183.53 69.2239 183.481 69.1478L182.101 66.977C182.061 66.9177 182.034 66.851 182.021 66.7811C182.008 66.7111 182.009 66.6392 182.023 66.5696C182.038 66.4999 182.067 66.4339 182.108 66.3754C182.148 66.317 182.2 66.2672 182.26 66.229C182.32 66.1908 182.388 66.165 182.458 66.1531C182.528 66.1411 182.6 66.1433 182.669 66.1595C182.739 66.1757 182.804 66.2055 182.862 66.2473C182.92 66.2891 182.968 66.3419 183.005 66.4028L184.384 68.5713C184.436 68.6522 184.465 68.7455 184.468 68.8416C184.472 68.9376 184.449 69.0328 184.403 69.1171C184.357 69.2015 184.289 69.2719 184.207 69.321C184.124 69.3702 184.03 69.3962 183.934 69.3963Z" fill="#2961A9"/>
<path d="M202.46 69.8915C202.369 69.8919 202.28 69.8692 202.201 69.8258C202.121 69.7823 202.054 69.7194 202.005 69.6429L194.048 57.1287L181.528 65.0829C181.469 65.1223 181.402 65.1494 181.332 65.1626C181.262 65.1759 181.19 65.1751 181.121 65.1602C181.051 65.1454 180.985 65.1168 180.926 65.0762C180.868 65.0355 180.818 64.9836 180.78 64.9235C180.742 64.8634 180.716 64.7963 180.704 64.726C180.692 64.6558 180.694 64.584 180.71 64.5146C180.726 64.4452 180.756 64.3798 180.798 64.3221C180.84 64.2644 180.893 64.2157 180.954 64.1787L193.926 55.9287C194.046 55.8525 194.191 55.8271 194.33 55.8581C194.468 55.889 194.589 55.9738 194.665 56.0937L202.91 69.0601C202.964 69.141 202.994 69.2351 202.999 69.3321C203.003 69.4291 202.981 69.5254 202.934 69.6108C202.888 69.6962 202.82 69.7674 202.736 69.8169C202.652 69.8663 202.557 69.8921 202.46 69.8915Z" fill="#2961A9"/>
<path d="M187.675 86.2605C187.584 86.2605 187.496 86.2377 187.417 86.1942C187.338 86.1508 187.271 86.0881 187.222 86.0119L178.978 73.0455C178.901 72.9256 178.876 72.7803 178.907 72.6417C178.938 72.5031 179.023 72.3824 179.143 72.3062L192.114 64.0712C192.234 63.9951 192.38 63.9697 192.518 64.0007C192.657 64.0316 192.778 64.1163 192.854 64.2362L201.099 77.2027C201.175 77.3226 201.2 77.4678 201.169 77.6065C201.139 77.7451 201.054 77.8658 200.934 77.9419L187.962 86.1834C187.875 86.2357 187.776 86.2624 187.675 86.2605ZM180.172 72.9234L187.842 84.9855L199.909 77.3184L192.239 65.2562L180.172 72.9234Z" fill="#F59C0C"/>
<path d="M179.432 73.2856C179.353 73.2853 179.274 73.2674 179.203 73.2332C179.131 73.199 179.068 73.1494 179.018 73.0879C178.968 73.0264 178.932 72.9545 178.913 72.8776C178.895 72.8006 178.893 72.7204 178.909 72.6427L180.718 64.5127C180.749 64.374 180.834 64.2533 180.954 64.1772C181.074 64.101 181.219 64.0757 181.358 64.1066C181.497 64.1376 181.618 64.2224 181.694 64.3424C181.77 64.4623 181.795 64.6076 181.764 64.7463L179.953 72.8763C179.924 72.993 179.858 73.0968 179.763 73.171C179.669 73.2452 179.552 73.2856 179.432 73.2856Z" fill="#2961A9"/>
<path d="M192.402 65.0527C192.322 65.0524 192.244 65.0345 192.172 65.0003C192.101 64.9661 192.038 64.9165 191.988 64.855C191.938 64.7935 191.902 64.7217 191.883 64.6447C191.864 64.5677 191.863 64.4875 191.879 64.4098L193.69 56.2798C193.721 56.1411 193.806 56.0204 193.926 55.9443C194.046 55.8681 194.191 55.8428 194.33 55.8737C194.469 55.9047 194.589 55.9895 194.666 56.1094C194.742 56.2294 194.767 56.3747 194.736 56.5134L192.925 64.6434C192.896 64.7605 192.829 64.8645 192.734 64.9388C192.639 65.0131 192.522 65.0532 192.402 65.0527Z" fill="#F59C0C"/>
<path d="M200.655 78.0192C200.576 78.0189 200.497 78.001 200.426 77.9668C200.354 77.9327 200.291 77.883 200.241 77.8215C200.191 77.76 200.155 77.6882 200.137 77.6112C200.118 77.5342 200.116 77.454 200.132 77.3764L201.941 69.2378C201.972 69.0991 202.057 68.9784 202.177 68.9023C202.297 68.8261 202.442 68.8008 202.581 68.8317C202.72 68.8627 202.841 68.9475 202.917 69.0675C202.993 69.1874 203.018 69.3327 202.987 69.4714L201.176 77.6014C201.149 77.7197 201.083 77.8254 200.989 77.9013C200.894 77.9772 200.776 78.0188 200.655 78.0192Z" fill="#F59C0C"/>
<path d="M187.81 85.6607C187.73 85.6604 187.652 85.6425 187.581 85.6083C187.509 85.5741 187.446 85.5245 187.396 85.463C187.346 85.4015 187.31 85.3297 187.291 85.2527C187.272 85.1757 187.271 85.0955 187.287 85.0178L187.844 82.5C187.875 82.3613 187.96 82.2406 188.08 82.1645C188.2 82.0883 188.345 82.0629 188.484 82.0939C188.623 82.1249 188.743 82.2097 188.82 82.3296C188.896 82.4496 188.921 82.5949 188.89 82.7335L188.331 85.2428C188.304 85.3611 188.238 85.4669 188.143 85.5428C188.049 85.6187 187.931 85.6603 187.81 85.6607ZM188.929 80.64C188.85 80.6397 188.771 80.6218 188.7 80.5876C188.628 80.5534 188.565 80.5038 188.515 80.4423C188.465 80.3808 188.429 80.3089 188.41 80.232C188.391 80.155 188.39 80.0748 188.406 79.9971L188.965 77.4878C188.996 77.3491 189.081 77.2284 189.201 77.1523C189.321 77.0761 189.466 77.0508 189.605 77.0817C189.744 77.1127 189.865 77.1975 189.941 77.3175C190.017 77.4374 190.042 77.5827 190.011 77.7214L189.452 80.2307C189.424 80.3481 189.357 80.4527 189.262 80.5274C189.167 80.6021 189.05 80.6425 188.929 80.6421V80.64Z" fill="#2961A9"/>
<path d="M152.376 44.5135H152.296L134.523 41.882C134.418 41.8664 134.32 41.82 134.242 41.7489C134.163 41.6777 134.108 41.5849 134.082 41.4822C134.056 41.3794 134.062 41.2714 134.097 41.1717C134.133 41.072 134.197 40.9852 134.282 40.9221L154.691 25.787C154.776 25.7213 154.879 25.6825 154.986 25.6758C155.093 25.6692 155.2 25.6949 155.292 25.7496C155.385 25.8044 155.459 25.8857 155.504 25.9829C155.55 26.0801 155.565 26.1888 155.548 26.2949L152.905 44.0571C152.886 44.1839 152.822 44.2997 152.725 44.3835C152.628 44.4672 152.504 44.5134 152.376 44.5135ZM135.959 41.0056L151.923 43.3628L154.282 27.4049L135.959 41.0056Z" fill="#2961A9"/>
<path d="M149.696 40.9028C149.612 40.9028 149.53 40.8834 149.456 40.8462C149.382 40.809 149.317 40.755 149.267 40.6885L148.497 39.6428C148.455 39.5865 148.424 39.5225 148.407 39.4543C148.389 39.3862 148.386 39.3152 148.396 39.2456C148.405 39.176 148.429 39.109 148.465 39.0484C148.501 38.9879 148.548 38.935 148.605 38.8928C148.661 38.8506 148.725 38.8199 148.793 38.8024C148.861 38.7849 148.932 38.7811 149.002 38.791C149.072 38.801 149.139 38.8245 149.199 38.8604C149.26 38.8962 149.313 38.9436 149.355 38.9999L150.122 40.0328C150.186 40.1121 150.225 40.2078 150.236 40.3088C150.247 40.4097 150.23 40.5117 150.185 40.6029C150.14 40.6941 150.07 40.7707 149.984 40.8238C149.897 40.8769 149.797 40.9043 149.696 40.9028Z" fill="#F59C0C"/>
<path d="M147.261 37.6221C147.177 37.6221 147.095 37.6028 147.021 37.5656C146.946 37.5284 146.882 37.4744 146.832 37.4078L145.164 35.16C145.122 35.1037 145.091 35.0397 145.073 34.9715C145.056 34.9034 145.052 34.8324 145.062 34.7628C145.072 34.6931 145.096 34.6261 145.132 34.5656C145.167 34.5051 145.215 34.4522 145.271 34.41C145.327 34.3678 145.391 34.3371 145.46 34.3196C145.528 34.3021 145.599 34.2983 145.668 34.3082C145.738 34.3182 145.805 34.3417 145.866 34.3776C145.926 34.4134 145.979 34.4608 146.021 34.5171L147.689 36.765C147.749 36.8446 147.785 36.9392 147.794 37.0383C147.803 37.1374 147.784 37.237 147.74 37.326C147.695 37.415 147.627 37.4898 147.542 37.5421C147.458 37.5944 147.36 37.6221 147.261 37.6221ZM143.923 33.1221C143.839 33.1221 143.757 33.1028 143.683 33.0656C143.609 33.0284 143.544 32.9744 143.494 32.9078L141.826 30.66C141.741 30.5463 141.704 30.4034 141.724 30.2628C141.744 30.1221 141.82 29.9952 141.933 29.91C142.047 29.8247 142.19 29.7881 142.331 29.8082C142.471 29.8283 142.598 29.9035 142.684 30.0171L144.351 32.265C144.412 32.3446 144.449 32.4394 144.458 32.5388C144.467 32.6383 144.448 32.7383 144.404 32.8277C144.359 32.917 144.291 32.9921 144.206 33.0445C144.121 33.097 144.023 33.1246 143.923 33.1243V33.1221ZM140.585 28.6221C140.502 28.6221 140.42 28.6028 140.345 28.5656C140.271 28.5284 140.206 28.4744 140.156 28.4078L138.486 26.1643C138.401 26.0506 138.364 25.9077 138.384 25.7671C138.404 25.6264 138.48 25.4995 138.593 25.4143C138.707 25.329 138.85 25.2924 138.991 25.3125C139.131 25.3326 139.258 25.4078 139.344 25.5214L141.011 27.7693C141.072 27.8487 141.109 27.9434 141.118 28.0426C141.127 28.1418 141.109 28.2417 141.064 28.331C141.02 28.4203 140.952 28.4954 140.867 28.548C140.782 28.6006 140.685 28.6285 140.585 28.6286V28.6221Z" fill="#F59C0C"/>
<path d="M137.25 24.1331C137.166 24.1331 137.084 24.1137 137.01 24.0765C136.935 24.0393 136.871 23.9853 136.821 23.9188L136.055 22.886C135.97 22.7723 135.934 22.6294 135.954 22.4888C135.974 22.3481 136.049 22.2212 136.163 22.136C136.276 22.0507 136.419 22.0141 136.56 22.0342C136.701 22.0543 136.828 22.1294 136.913 22.2431L137.678 23.276C137.738 23.3555 137.774 23.4502 137.783 23.5493C137.792 23.6484 137.773 23.748 137.729 23.837C137.684 23.9259 137.616 24.0008 137.531 24.0531C137.447 24.1054 137.349 24.1331 137.25 24.1331Z" fill="#F59C0C"/>
<path d="M152.376 44.5136H152.296L147.846 43.8536C147.776 43.8434 147.709 43.8195 147.649 43.7834C147.588 43.7473 147.535 43.6996 147.493 43.6431C147.451 43.5865 147.421 43.5223 147.404 43.454C147.387 43.3857 147.383 43.3147 147.393 43.245C147.589 41.9243 148.302 40.7353 149.374 39.9394C150.447 39.1434 151.791 38.8056 153.113 39C153.183 39.0103 153.25 39.0341 153.31 39.0702C153.371 39.1064 153.423 39.1541 153.465 39.2106C153.507 39.2671 153.538 39.3314 153.555 39.3997C153.572 39.4679 153.576 39.539 153.565 39.6086L152.905 44.0572C152.886 44.184 152.822 44.2998 152.725 44.3836C152.628 44.4674 152.504 44.5135 152.376 44.5136ZM148.562 42.8722L151.915 43.3693L152.421 40.0179H152.373C151.515 40.018 150.679 40.2962 149.992 40.8108C149.305 41.3253 148.803 42.0486 148.562 42.8722Z" fill="#F59C0C"/>
<path d="M37.9917 107.386L37.0527 105.134L35.2241 106.664L34 106.344L36.6561 104.178L35.327 101L36.8276 101.39L37.7408 103.61L39.4215 102.069L40.6328 102.384L38.0924 104.486L39.4365 107.765L37.9917 107.386Z" fill="#F59C0C"/>
<path d="M48.9142 104.844L48.6398 105.901L42.0478 104.186L42.3222 103.13L48.9142 104.844ZM48.2561 107.366L47.9817 108.423L41.3896 106.708L41.664 105.652L48.2561 107.366Z" fill="#2961A9"/>
<path d="M53.225 111.356L52.286 109.104L50.4574 110.634L49.2397 110.315L51.8958 108.149L50.5667 104.971L52.0673 105.361L52.987 107.581L54.6677 106.04L55.8789 106.355L53.3493 108.459L54.6934 111.738L53.225 111.356Z" fill="#F59C0C"/>
<path d="M56.8762 107.874C57.24 107.508 57.6976 107.249 58.1989 107.126C58.7329 106.995 59.2917 107.003 59.8217 107.15C60.3521 107.278 60.8398 107.542 61.2366 107.917C61.6054 108.267 61.8703 108.712 62.0019 109.203C62.1374 109.706 62.1374 110.236 62.0019 110.739C61.8761 111.247 61.6197 111.713 61.258 112.091C60.9026 112.459 60.451 112.72 59.9546 112.843C59.4184 112.976 58.8571 112.967 58.3254 112.818C57.7994 112.69 57.3133 112.433 56.9105 112.072C56.5329 111.731 56.2594 111.291 56.1216 110.801C55.9771 110.28 55.9771 109.73 56.1216 109.209C56.2481 108.704 56.5088 108.243 56.8762 107.874ZM57.3049 110.525C57.3754 110.837 57.5287 111.124 57.7487 111.356C58.0269 111.642 58.3947 111.825 58.7909 111.873C59.187 111.921 59.5878 111.833 59.9267 111.622C60.3474 111.35 60.6457 110.925 60.7585 110.437C60.8989 109.954 60.8467 109.436 60.6127 108.991C60.5029 108.777 60.3478 108.589 60.1583 108.441C59.9687 108.293 59.7493 108.188 59.5151 108.133C59.206 108.048 58.8785 108.056 58.574 108.157C58.2709 108.258 57.9992 108.436 57.7851 108.673C57.5649 108.922 57.4072 109.22 57.3252 109.542C57.2432 109.864 57.2392 110.201 57.3135 110.525H57.3049Z" fill="#2961A9"/>
</svg>
